<svg version="1.1" xmlns="http://www.w3.org/2000/svg" width="204" height="34" viewBox="0 0 204 34" xml:space="preserve"><path class="wordmark" fill="#fff" d="M13.8.6c6 0 10.2 3.2 11.5 8.6l-3.2 1.4c-1-4.5-3.8-6.8-8.3-6.8-5.8 0-9.6 4-9.6 10 0 5.7 3.6 9.8 8.6 9.8 4.3 0 7.8-3 8.5-7.1h-9.1v-3.3h13.3v13.2h-3V21c-2.1 3.9-5.1 5.7-9.4 5.7-7.4 0-12.6-5.4-12.6-13C.5 6 6 .6 13.8.6zm14.6 17.1c0-5.2 3.7-8.9 8.8-8.9 5 0 8.5 3.5 8.5 8.5v1H31.8c.2 3.3 2.4 5.5 5.4 5.5 2.4 0 4.2-1.3 5.1-3.7l3.3.9c-1.3 3.5-4.5 5.8-8.4 5.8-5.1-.2-8.8-4-8.8-9.1zm13.8-1.9c-.4-2.4-2.3-4-5-4-2.6 0-4.5 1.6-5.1 4h10.1zm6.1 1.9c0-5.2 3.7-8.9 8.8-8.9 5.1 0 8.8 3.8 8.8 8.9 0 5.2-3.7 9-8.8 9-5.1-.1-8.8-3.8-8.8-9zm3.3 0c0 3.5 2.3 6 5.5 6s5.3-2.5 5.3-6-2.1-5.9-5.3-5.9c-3.2-.1-5.5 2.4-5.5 5.9zm40.8.5c-1.4 5.3-5.6 8.5-11.2 8.5-7.5 0-13-5.6-13-13.1S73.7.6 81.1.6c5.8 0 10 3.3 11.3 8.6l-3.2 1.4c-.8-4.3-3.8-6.8-8-6.8-5.3 0-9.2 4.2-9.2 9.9s3.9 9.9 9.2 9.9c4.1 0 7.2-2.6 8-6.8l3.2 1.4zm2.3-.5c0-5.2 3.7-8.9 8.8-8.9 5.1 0 8.8 3.8 8.8 8.9 0 5.2-3.7 9-8.8 9-5.1-.1-8.8-3.8-8.8-9zm3.4 0c0 3.5 2.3 6 5.5 6s5.3-2.5 5.3-6-2.1-5.9-5.3-5.9c-3.2-.1-5.5 2.4-5.5 5.9zm36.3 8.6V15.1c0-2.1-1.2-3.3-3-3.3-2 0-3.3 1.5-3.3 3.9v10.6h-3.3V15.1c0-2.1-1.2-3.4-3-3.4-2 0-3.3 1.5-3.3 4v10.5h-3.3V9h3.2v2.2c.9-1.7 2.6-2.5 4.5-2.5 2.2 0 3.8 1.1 4.4 3.2 1-2 2.8-3.2 5.2-3.2 3.2 0 5.1 2 5.1 5.6v11.9h-3.2zm6.9 7.1V9h3.2v2.8c1.2-1.9 3.6-3.1 6.2-3.1 4.4 0 7.7 3.6 7.7 8.9 0 5.3-3.3 9-8 9-2.4 0-4.6-1-5.8-2.8v9.5l-3.3.1zm3.1-15.7c0 3.8 2.7 5.9 5.5 5.9 2.5 0 5.2-1.8 5.2-5.7 0-3.2-1.9-6.2-5.1-6.2-2.9 0-5.6 2.3-5.6 6zm16.8 8.6V.9h3.3v25.4h-3.3zm7.7 7.1 4.2-9.1L166.5 9h3.7l4.8 11.1L180.1 9h3.6l-11.1 24.4h-3.7z"></path><path class="icon" fill="#fff" d="M202.5.9v8c0 5.2-2.9 9.4-8.4 11.4-5.5-2-8.4-6.2-8.4-11.4v-8h16.8zm-15.1 1.6v6.4c0 4.4 2.2 7.8 6.8 9.7 4.5-1.9 6.8-5.3 6.8-9.7V2.5h-13.6zm3.7 3.6v2.8c0 2.5.8 4.3 3 5.6 1.9-1.1 2.9-2.6 3-4.7h-4V8.1h5.8v.8c0 3.3-1.6 5.9-4.8 7.5-3.1-1.6-4.7-4.2-4.7-7.5V4.5h9.5v1.7h-7.8z"></path></svg>