<?xml version="1.0" encoding="utf-8"?>
<svg width="500" zoomAndPan="magnify" viewBox="0 0 375 362.999992" height="484" preserveAspectRatio="xMidYMid meet" version="1.0" xmlns="http://www.w3.org/2000/svg">
  <defs>
    <clipPath id="b5a786ef6c">
      <path d="M 237.894531 36.101562 L 266.675781 36.101562 L 266.675781 72.046875 L 237.894531 72.046875 Z M 237.894531 36.101562 " clip-rule="nonzero"/>
    </clipPath>
    <clipPath id="02d6d4a370">
      <path d="M 288.144531 73.03125 L 312.152344 73.03125 L 312.152344 108.78125 L 288.144531 108.78125 Z M 288.144531 73.03125 " clip-rule="nonzero"/>
    </clipPath>
    <clipPath id="f1917e53e4">
      <path d="M 288.144531 47.800781 L 312.152344 47.800781 L 312.152344 83.75 L 288.144531 83.75 Z M 288.144531 47.800781 " clip-rule="nonzero"/>
    </clipPath>
    <clipPath id="75c5bdabd4">
      <path d="M 264.136719 46.820312 L 288.144531 46.820312 L 288.144531 82.769531 L 264.136719 82.769531 Z M 264.136719 46.820312 " clip-rule="nonzero"/>
    </clipPath>
    <clipPath id="119ff0ffab">
      <path d="M 264.289062 36.101562 L 312.308594 36.101562 L 312.308594 59.925781 L 264.289062 59.925781 Z M 264.289062 36.101562 " clip-rule="nonzero"/>
    </clipPath>
    <clipPath id="50acbe7494">
      <path d="M 288.300781 36.101562 L 312.308594 48.011719 L 288.300781 59.925781 L 264.289062 48.011719 Z M 288.300781 36.101562 " clip-rule="nonzero"/>
    </clipPath>
    <clipPath id="0812533834">
      <path d="M 213.886719 24.1875 L 245.527344 24.1875 L 245.527344 60.136719 L 213.886719 60.136719 Z M 213.886719 24.1875 " clip-rule="nonzero"/>
    </clipPath>
    <clipPath id="03c913355f">
      <path d="M 237.894531 22.996094 L 285.914062 22.996094 L 285.914062 46.820312 L 237.894531 46.820312 Z M 237.894531 22.996094 " clip-rule="nonzero"/>
    </clipPath>
    <clipPath id="a445969e31">
      <path d="M 261.90625 22.996094 L 285.914062 34.90625 L 261.90625 46.820312 L 237.894531 34.90625 Z M 261.90625 22.996094 " clip-rule="nonzero"/>
    </clipPath>
    <clipPath id="997bfca86a">
      <path d="M 216.273438 12.273438 L 264.289062 12.273438 L 264.289062 36.101562 L 216.273438 36.101562 Z M 216.273438 12.273438 " clip-rule="nonzero"/>
    </clipPath>
    <clipPath id="b978a3f651">
      <path d="M 240.28125 12.273438 L 264.289062 24.1875 L 240.28125 36.101562 L 216.273438 24.1875 Z M 240.28125 12.273438 " clip-rule="nonzero"/>
    </clipPath>
    <clipPath id="15ab721ec7">
      <path d="M 168.410156 24.1875 L 192.417969 24.1875 L 192.417969 60.136719 L 168.410156 60.136719 Z M 168.410156 24.1875 " clip-rule="nonzero"/>
    </clipPath>
    <clipPath id="22b92cbf17">
      <path d="M 188.207031 24.1875 L 216.273438 24.1875 L 216.273438 60.136719 L 188.207031 60.136719 Z M 188.207031 24.1875 " clip-rule="nonzero"/>
    </clipPath>
    <clipPath id="5d8624077d">
      <path d="M 144.246094 60.136719 L 168.253906 60.136719 L 168.253906 96.085938 L 144.246094 96.085938 Z M 144.246094 60.136719 " clip-rule="nonzero"/>
    </clipPath>
    <clipPath id="9fa9cbb021">
      <path d="M 165.867188 71.835938 L 194.648438 71.835938 L 194.648438 107.785156 L 165.867188 107.785156 Z M 165.867188 71.835938 " clip-rule="nonzero"/>
    </clipPath>
    <clipPath id="cfb3da1bc4">
      <path d="M 144.398438 36.101562 L 168.410156 36.101562 L 168.410156 72.046875 L 144.398438 72.046875 Z M 144.398438 36.101562 " clip-rule="nonzero"/>
    </clipPath>
    <clipPath id="f2d589562a">
      <path d="M 168.253906 12.273438 L 216.273438 12.273438 L 216.273438 36.101562 L 168.253906 36.101562 Z M 168.253906 12.273438 " clip-rule="nonzero"/>
    </clipPath>
    <clipPath id="d34634483a">
      <path d="M 192.261719 12.273438 L 216.273438 24.1875 L 192.261719 36.101562 L 168.253906 24.1875 Z M 192.261719 12.273438 " clip-rule="nonzero"/>
    </clipPath>
    <clipPath id="30967e7537">
      <path d="M 144.246094 24.1875 L 192.261719 24.1875 L 192.261719 48.011719 L 144.246094 48.011719 Z M 144.246094 24.1875 " clip-rule="nonzero"/>
    </clipPath>
    <clipPath id="1d41f0f780">
      <path d="M 168.253906 24.1875 L 192.261719 36.101562 L 168.253906 48.011719 L 144.246094 36.101562 Z M 168.253906 24.1875 " clip-rule="nonzero"/>
    </clipPath>
    <clipPath id="c64a62655d">
      <path d="M 144.246094 48.011719 L 192.261719 48.011719 L 192.261719 71.835938 L 144.246094 71.835938 Z M 144.246094 48.011719 " clip-rule="nonzero"/>
    </clipPath>
    <clipPath id="d36a20baf4">
      <path d="M 168.253906 48.011719 L 192.261719 59.925781 L 168.253906 71.835938 L 144.246094 59.925781 Z M 168.253906 48.011719 " clip-rule="nonzero"/>
    </clipPath>
    <clipPath id="174585f50b">
      <path d="M 168.097656 119.484375 L 194.648438 119.484375 L 194.648438 155.433594 L 168.097656 155.433594 Z M 168.097656 119.484375 " clip-rule="nonzero"/>
    </clipPath>
    <clipPath id="8fe150540e">
      <path d="M 192.417969 119.484375 L 223.429688 119.484375 L 223.429688 155.433594 L 192.417969 155.433594 Z M 192.417969 119.484375 " clip-rule="nonzero"/>
    </clipPath>
    <clipPath id="ef3b6a0447">
      <path d="M 216.117188 83.960938 L 240.125 83.960938 L 240.125 119.910156 L 216.117188 119.910156 Z M 216.117188 83.960938 " clip-rule="nonzero"/>
    </clipPath>
    <clipPath id="5c87f05122">
      <path d="M 120.234375 119.910156 L 146.628906 119.910156 L 146.628906 155.855469 L 120.234375 155.855469 Z M 120.234375 119.910156 " clip-rule="nonzero"/>
    </clipPath>
    <clipPath id="7f3771d041">
      <path d="M 144.246094 119.910156 L 168.253906 119.910156 L 168.253906 155.855469 L 144.246094 155.855469 Z M 144.246094 119.910156 " clip-rule="nonzero"/>
    </clipPath>
    <clipPath id="99ce58e716">
      <path d="M 192.109375 83.539062 L 216.117188 83.539062 L 216.117188 119.484375 L 192.109375 119.484375 Z M 192.109375 83.539062 " clip-rule="nonzero"/>
    </clipPath>
    <clipPath id="005f17ec8b">
      <path d="M 216.117188 108.78125 L 240.125 108.78125 L 240.125 144.730469 L 216.117188 144.730469 Z M 216.117188 108.78125 " clip-rule="nonzero"/>
    </clipPath>
    <clipPath id="770f1f62ed">
      <path d="M 170.640625 61.117188 L 218.65625 61.117188 L 218.65625 84.941406 L 170.640625 84.941406 Z M 170.640625 61.117188 " clip-rule="nonzero"/>
    </clipPath>
    <clipPath id="d944c728e5">
      <path d="M 194.648438 61.117188 L 218.65625 73.03125 L 194.648438 84.941406 L 170.640625 73.03125 Z M 194.648438 61.117188 " clip-rule="nonzero"/>
    </clipPath>
    <clipPath id="7d112bd5a2">
      <path d="M 192.261719 71.835938 L 240.28125 71.835938 L 240.28125 95.660156 L 192.261719 95.660156 Z M 192.261719 71.835938 " clip-rule="nonzero"/>
    </clipPath>
    <clipPath id="9d81d12465">
      <path d="M 216.273438 71.835938 L 240.28125 83.75 L 216.273438 95.660156 L 192.261719 83.75 Z M 216.273438 71.835938 " clip-rule="nonzero"/>
    </clipPath>
    <clipPath id="d185a34beb">
      <path d="M 192.261719 95.660156 L 240.28125 95.660156 L 240.28125 119.484375 L 192.261719 119.484375 Z M 192.261719 95.660156 " clip-rule="nonzero"/>
    </clipPath>
    <clipPath id="c648f7b28a">
      <path d="M 216.273438 95.660156 L 240.28125 107.574219 L 216.273438 119.484375 L 192.261719 107.574219 Z M 216.273438 95.660156 " clip-rule="nonzero"/>
    </clipPath>
    <clipPath id="4af3b04b00">
      <path d="M 168.253906 107.574219 L 216.273438 107.574219 L 216.273438 131.398438 L 168.253906 131.398438 Z M 168.253906 107.574219 " clip-rule="nonzero"/>
    </clipPath>
    <clipPath id="36350e3817">
      <path d="M 192.261719 107.574219 L 216.273438 119.484375 L 192.261719 131.398438 L 168.253906 119.484375 Z M 192.261719 107.574219 " clip-rule="nonzero"/>
    </clipPath>
    <clipPath id="c8447ff180">
      <path d="M 72.371094 96.085938 L 108.230469 96.085938 L 108.230469 136.269531 L 72.371094 136.269531 Z M 72.371094 96.085938 " clip-rule="nonzero"/>
    </clipPath>
    <clipPath id="9961e16c65">
      <path d="M 96.539062 108.78125 L 127.136719 108.78125 L 127.136719 144.730469 L 96.539062 144.730469 Z M 96.539062 108.78125 " clip-rule="nonzero"/>
    </clipPath>
    <clipPath id="33751042d1">
      <path d="M 120.390625 107.574219 L 168.410156 107.574219 L 168.410156 131.398438 L 120.390625 131.398438 Z M 120.390625 107.574219 " clip-rule="nonzero"/>
    </clipPath>
    <clipPath id="b5de27b33f">
      <path d="M 144.398438 107.574219 L 168.410156 119.484375 L 144.398438 131.398438 L 120.390625 119.484375 Z M 144.398438 107.574219 " clip-rule="nonzero"/>
    </clipPath>
    <clipPath id="bbb337fb14">
      <path d="M 96.226562 72.046875 L 120.234375 72.046875 L 120.234375 107.996094 L 96.226562 107.996094 Z M 96.226562 72.046875 " clip-rule="nonzero"/>
    </clipPath>
    <clipPath id="5e0625ee00">
      <path d="M 72.371094 72.046875 L 96.382812 72.046875 L 96.382812 107.996094 L 72.371094 107.996094 Z M 72.371094 72.046875 " clip-rule="nonzero"/>
    </clipPath>
    <clipPath id="6b824b81c3">
      <path d="M 93.839844 94.46875 L 141.859375 94.46875 L 141.859375 118.292969 L 93.839844 118.292969 Z M 93.839844 94.46875 " clip-rule="nonzero"/>
    </clipPath>
    <clipPath id="9000955a75">
      <path d="M 117.851562 94.46875 L 141.859375 106.382812 L 117.851562 118.292969 L 93.839844 106.382812 Z M 117.851562 94.46875 " clip-rule="nonzero"/>
    </clipPath>
    <clipPath id="1a06ea1946">
      <path d="M 72.21875 83.75 L 120.234375 83.75 L 120.234375 107.574219 L 72.21875 107.574219 Z M 72.21875 83.75 " clip-rule="nonzero"/>
    </clipPath>
    <clipPath id="1d97dd8a82">
      <path d="M 96.226562 83.75 L 120.234375 95.660156 L 96.226562 107.574219 L 72.21875 95.660156 Z M 96.226562 83.75 " clip-rule="nonzero"/>
    </clipPath>
    <clipPath id="b575d7c5da">
      <path d="M 72.371094 59.925781 L 120.390625 59.925781 L 120.390625 83.75 L 72.371094 83.75 Z M 72.371094 59.925781 " clip-rule="nonzero"/>
    </clipPath>
    <clipPath id="bd589614a7">
      <path d="M 96.382812 59.925781 L 120.390625 71.835938 L 96.382812 83.75 L 72.371094 71.835938 Z M 96.382812 59.925781 " clip-rule="nonzero"/>
    </clipPath>
    <clipPath id="1af7812dc6">
      <path d="M 98.765625 96.867188 L 146.785156 96.867188 L 146.785156 120.695312 L 98.765625 120.695312 Z M 98.765625 96.867188 " clip-rule="nonzero"/>
    </clipPath>
    <clipPath id="e39603249d">
      <path d="M 122.777344 96.867188 L 146.785156 108.78125 L 122.777344 120.695312 L 98.765625 108.78125 Z M 122.777344 96.867188 " clip-rule="nonzero"/>
    </clipPath>
    <clipPath id="70b57f3351">
      <path d="M 165.867188 58.730469 L 213.886719 58.730469 L 213.886719 82.554688 L 165.867188 82.554688 Z M 165.867188 58.730469 " clip-rule="nonzero"/>
    </clipPath>
    <clipPath id="7501413dc7">
      <path d="M 189.878906 58.730469 L 213.886719 70.644531 L 189.878906 82.554688 L 165.867188 70.644531 Z M 189.878906 58.730469 " clip-rule="nonzero"/>
    </clipPath>
    <clipPath id="7e3c476f9f">
      <path d="M 242.667969 25.378906 L 290.683594 25.378906 L 290.683594 49.203125 L 242.667969 49.203125 Z M 242.667969 25.378906 " clip-rule="nonzero"/>
    </clipPath>
    <clipPath id="fa32ace4f5">
      <path d="M 266.675781 25.378906 L 290.683594 37.292969 L 266.675781 49.203125 L 242.667969 37.292969 Z M 266.675781 25.378906 " clip-rule="nonzero"/>
    </clipPath>
    <clipPath id="88edb1ea62">
      <path d="M 165.867188 13.46875 L 213.886719 13.46875 L 213.886719 37.292969 L 165.867188 37.292969 Z M 165.867188 13.46875 " clip-rule="nonzero"/>
    </clipPath>
    <clipPath id="ad850b65d4">
      <path d="M 189.878906 13.46875 L 213.886719 25.378906 L 189.878906 37.292969 L 165.867188 25.378906 Z M 189.878906 13.46875 " clip-rule="nonzero"/>
    </clipPath>
    <clipPath id="2756d8ac43">
      <path d="M 170.640625 106.394531 L 218.65625 106.394531 L 218.65625 130.21875 L 170.640625 130.21875 Z M 170.640625 106.394531 " clip-rule="nonzero"/>
    </clipPath>
    <clipPath id="68187e74da">
      <path d="M 194.648438 106.394531 L 218.65625 118.308594 L 194.648438 130.21875 L 170.640625 118.308594 Z M 194.648438 106.394531 " clip-rule="nonzero"/>
    </clipPath>
    <clipPath id="160855d3f3">
      <path d="M 288.300781 96.867188 L 336.316406 96.867188 L 336.316406 120.695312 L 288.300781 120.695312 Z M 288.300781 96.867188 " clip-rule="nonzero"/>
    </clipPath>
    <clipPath id="2fbf909bde">
      <path d="M 312.308594 96.867188 L 336.316406 108.78125 L 312.308594 120.695312 L 288.300781 108.78125 Z M 312.308594 96.867188 " clip-rule="nonzero"/>
    </clipPath>
    <clipPath id="a1093e06ea">
      <path d="M 213.886719 58.941406 L 261.90625 58.941406 L 261.90625 82.769531 L 213.886719 82.769531 Z M 213.886719 58.941406 " clip-rule="nonzero"/>
    </clipPath>
    <clipPath id="20478c09d5">
      <path d="M 237.894531 58.941406 L 261.90625 70.855469 L 237.894531 82.769531 L 213.886719 70.855469 Z M 237.894531 58.941406 " clip-rule="nonzero"/>
    </clipPath>
    <clipPath id="641557b061">
      <path d="M 192.417969 48.222656 L 240.4375 48.222656 L 240.4375 72.046875 L 192.417969 72.046875 Z M 192.417969 48.222656 " clip-rule="nonzero"/>
    </clipPath>
    <clipPath id="33adefc1ba">
      <path d="M 216.425781 48.222656 L 240.4375 60.136719 L 216.425781 72.046875 L 192.417969 60.136719 Z M 216.425781 48.222656 " clip-rule="nonzero"/>
    </clipPath>
    <clipPath id="1cfb723ab1">
      <path d="M 122.621094 84.941406 L 170.640625 84.941406 L 170.640625 108.765625 L 122.621094 108.765625 Z M 122.621094 84.941406 " clip-rule="nonzero"/>
    </clipPath>
    <clipPath id="3fe1f90466">
      <path d="M 146.628906 84.941406 L 170.640625 96.855469 L 146.628906 108.765625 L 122.621094 96.855469 Z M 146.628906 84.941406 " clip-rule="nonzero"/>
    </clipPath>
    <clipPath id="04ed1807d6">
      <path d="M 117.851562 82.554688 L 165.867188 82.554688 L 165.867188 106.382812 L 117.851562 106.382812 Z M 117.851562 82.554688 " clip-rule="nonzero"/>
    </clipPath>
    <clipPath id="6945239a74">
      <path d="M 141.859375 82.554688 L 165.867188 94.46875 L 141.859375 106.382812 L 117.851562 94.46875 Z M 141.859375 82.554688 " clip-rule="nonzero"/>
    </clipPath>
    <clipPath id="87860b9f43">
      <path d="M 144.089844 143.945312 L 192.109375 143.945312 L 192.109375 167.769531 L 144.089844 167.769531 Z M 144.089844 143.945312 " clip-rule="nonzero"/>
    </clipPath>
    <clipPath id="c6c6a8c4ae">
      <path d="M 168.097656 143.945312 L 192.109375 155.855469 L 168.097656 167.769531 L 144.089844 155.855469 Z M 168.097656 143.945312 " clip-rule="nonzero"/>
    </clipPath>
    <clipPath id="ac2b933ccf">
      <path d="M 192.417969 143.523438 L 240.4375 143.523438 L 240.4375 167.347656 L 192.417969 167.347656 Z M 192.417969 143.523438 " clip-rule="nonzero"/>
    </clipPath>
    <clipPath id="3897547598">
      <path d="M 216.425781 143.523438 L 240.4375 155.433594 L 216.425781 167.347656 L 192.417969 155.433594 Z M 216.425781 143.523438 " clip-rule="nonzero"/>
    </clipPath>
    <clipPath id="3abbfa358b">
      <path d="M 213.886719 132.816406 L 261.90625 132.816406 L 261.90625 156.640625 L 213.886719 156.640625 Z M 213.886719 132.816406 " clip-rule="nonzero"/>
    </clipPath>
    <clipPath id="6bca8cdc5a">
      <path d="M 237.894531 132.816406 L 261.90625 144.730469 L 237.894531 156.640625 L 213.886719 144.730469 Z M 237.894531 132.816406 " clip-rule="nonzero"/>
    </clipPath>
    <clipPath id="db0e1c992f">
      <path d="M 223.429688 127.949219 L 271.445312 127.949219 L 271.445312 151.773438 L 223.429688 151.773438 Z M 223.429688 127.949219 " clip-rule="nonzero"/>
    </clipPath>
    <clipPath id="d7505b051e">
      <path d="M 247.4375 127.949219 L 271.445312 139.859375 L 247.4375 151.773438 L 223.429688 139.859375 Z M 247.4375 127.949219 " clip-rule="nonzero"/>
    </clipPath>
    <clipPath id="c71f227cd4">
      <path d="M 98.765625 144.730469 L 146.785156 144.730469 L 146.785156 168.554688 L 98.765625 168.554688 Z M 98.765625 144.730469 " clip-rule="nonzero"/>
    </clipPath>
    <clipPath id="925731d134">
      <path d="M 122.777344 144.730469 L 146.785156 156.640625 L 122.777344 168.554688 L 98.765625 156.640625 Z M 122.777344 144.730469 " clip-rule="nonzero"/>
    </clipPath>
    <clipPath id="55fe96bf9d">
      <path d="M 120.546875 155.238281 L 168.566406 155.238281 L 168.566406 179.0625 L 120.546875 179.0625 Z M 120.546875 155.238281 " clip-rule="nonzero"/>
    </clipPath>
    <clipPath id="ac880f936f">
      <path d="M 144.554688 155.238281 L 168.566406 167.148438 L 144.554688 179.0625 L 120.546875 167.148438 Z M 144.554688 155.238281 " clip-rule="nonzero"/>
    </clipPath>
    <clipPath id="8e2901cd7a">
      <path d="M 81.832031 136.269531 L 129.847656 136.269531 L 129.847656 160.09375 L 81.832031 160.09375 Z M 81.832031 136.269531 " clip-rule="nonzero"/>
    </clipPath>
    <clipPath id="098cd1c7c5">
      <path d="M 105.839844 136.269531 L 129.847656 148.179688 L 105.839844 160.09375 L 81.832031 148.179688 Z M 105.839844 136.269531 " clip-rule="nonzero"/>
    </clipPath>
    <clipPath id="3d8225caba">
      <path d="M 60.367188 125.546875 L 108.386719 125.546875 L 108.386719 149.371094 L 60.367188 149.371094 Z M 60.367188 125.546875 " clip-rule="nonzero"/>
    </clipPath>
    <clipPath id="592210788b">
      <path d="M 84.378906 125.546875 L 108.386719 137.460938 L 84.378906 149.371094 L 60.367188 137.460938 Z M 84.378906 125.546875 " clip-rule="nonzero"/>
    </clipPath>
    <clipPath id="00c5d1625c">
      <path d="M 38.667969 114.84375 L 86.683594 114.84375 L 86.683594 138.667969 L 38.667969 138.667969 Z M 38.667969 114.84375 " clip-rule="nonzero"/>
    </clipPath>
    <clipPath id="2d330004ca">
      <path d="M 62.675781 114.84375 L 86.683594 126.753906 L 62.675781 138.667969 L 38.667969 126.753906 Z M 62.675781 114.84375 " clip-rule="nonzero"/>
    </clipPath>
    <clipPath id="76c87e3ac1">
      <path d="M 218.65625 61.328125 L 266.675781 61.328125 L 266.675781 85.152344 L 218.65625 85.152344 Z M 218.65625 61.328125 " clip-rule="nonzero"/>
    </clipPath>
    <clipPath id="5c4a827f77">
      <path d="M 242.667969 61.328125 L 266.675781 73.242188 L 242.667969 85.152344 L 218.65625 73.242188 Z M 242.667969 61.328125 " clip-rule="nonzero"/>
    </clipPath>
    <clipPath id="1dbbd4a784">
      <path d="M 264.289062 72.046875 L 288.300781 72.046875 L 288.300781 108.78125 L 264.289062 108.78125 Z M 264.289062 72.046875 " clip-rule="nonzero"/>
    </clipPath>
    <clipPath id="c51adc9188">
      <path d="M 240.125 96.867188 L 288.144531 96.867188 L 288.144531 120.695312 L 240.125 120.695312 Z M 240.125 96.867188 " clip-rule="nonzero"/>
    </clipPath>
    <clipPath id="91d979aaf6">
      <path d="M 264.136719 96.867188 L 288.144531 108.78125 L 264.136719 120.695312 L 240.125 108.78125 Z M 264.136719 96.867188 " clip-rule="nonzero"/>
    </clipPath>
    <clipPath id="17e99dc29b">
      <path d="M 264.289062 59.925781 L 312.308594 59.925781 L 312.308594 83.75 L 264.289062 83.75 Z M 264.289062 59.925781 " clip-rule="nonzero"/>
    </clipPath>
    <clipPath id="03e3d952e9">
      <path d="M 288.300781 59.925781 L 312.308594 71.835938 L 288.300781 83.75 L 264.289062 71.835938 Z M 288.300781 59.925781 " clip-rule="nonzero"/>
    </clipPath>
    <clipPath id="8b760a3fb2">
      <path d="M 230.109375 285.621094 L 278.367188 285.621094 L 278.367188 309.445312 L 230.109375 309.445312 Z M 230.109375 285.621094 " clip-rule="nonzero"/>
    </clipPath>
    <clipPath id="1dc2c58107">
      <path d="M 254.238281 285.621094 L 278.367188 297.53125 L 254.238281 309.445312 L 230.109375 297.53125 Z M 254.238281 285.621094 " clip-rule="nonzero"/>
    </clipPath>
    <clipPath id="52e9346521">
      <path d="M 206.21875 285.621094 L 232.136719 285.621094 L 232.136719 321.355469 L 206.21875 321.355469 Z M 206.21875 285.621094 " clip-rule="nonzero"/>
    </clipPath>
    <clipPath id="1e38f3f053">
      <path d="M 251.730469 275.125 L 299.988281 275.125 L 299.988281 298.949219 L 251.730469 298.949219 Z M 251.730469 275.125 " clip-rule="nonzero"/>
    </clipPath>
    <clipPath id="f09ec2084c">
      <path d="M 275.859375 275.125 L 299.988281 287.035156 L 275.859375 298.949219 L 251.730469 287.035156 Z M 275.859375 275.125 " clip-rule="nonzero"/>
    </clipPath>
    <clipPath id="aad645ae1b">
      <path d="M 230.226562 285.621094 L 254.238281 285.621094 L 254.238281 321.355469 L 230.226562 321.355469 Z M 230.226562 285.621094 " clip-rule="nonzero"/>
    </clipPath>
    <clipPath id="3c7b4c9029">
      <path d="M 230.109375 309.445312 L 278.125 309.445312 L 278.125 333.269531 L 230.109375 333.269531 Z M 230.109375 309.445312 " clip-rule="nonzero"/>
    </clipPath>
    <clipPath id="38671ef9c2">
      <path d="M 254.117188 309.445312 L 278.125 321.355469 L 254.117188 333.269531 L 230.109375 321.355469 Z M 254.117188 309.445312 " clip-rule="nonzero"/>
    </clipPath>
    <clipPath id="8169b39b57">
      <path d="M 254.117188 309.445312 L 278.367188 309.445312 L 278.367188 333.269531 L 254.117188 333.269531 Z M 254.117188 309.445312 " clip-rule="nonzero"/>
    </clipPath>
    <clipPath id="8ebec16c52">
      <path d="M 254.355469 321.355469 L 302.375 321.355469 L 302.375 345.179688 L 254.355469 345.179688 Z M 254.355469 321.355469 " clip-rule="nonzero"/>
    </clipPath>
    <clipPath id="9fee15fb64">
      <path d="M 278.367188 321.355469 L 302.375 333.269531 L 278.367188 345.179688 L 254.355469 333.269531 Z M 278.367188 321.355469 " clip-rule="nonzero"/>
    </clipPath>
    <clipPath id="3ccec8f7d4">
      <path d="M 254 297.53125 L 302.253906 297.53125 L 302.253906 321.355469 L 254 321.355469 Z M 254 297.53125 " clip-rule="nonzero"/>
    </clipPath>
    <clipPath id="581a19855e">
      <path d="M 278.125 297.53125 L 302.253906 309.445312 L 278.125 321.355469 L 254 309.445312 Z M 278.125 297.53125 " clip-rule="nonzero"/>
    </clipPath>
    <clipPath id="e950445f82">
      <path d="M 206.097656 273.707031 L 254.117188 273.707031 L 254.117188 297.53125 L 206.097656 297.53125 Z M 206.097656 273.707031 " clip-rule="nonzero"/>
    </clipPath>
    <clipPath id="8e7ac3357b">
      <path d="M 230.109375 273.707031 L 254.117188 285.621094 L 230.109375 297.53125 L 206.097656 285.621094 Z M 230.109375 273.707031 " clip-rule="nonzero"/>
    </clipPath>
    <clipPath id="0221f96eb8">
      <path d="M 181.96875 309.445312 L 229.988281 309.445312 L 229.988281 333.269531 L 181.96875 333.269531 Z M 181.96875 309.445312 " clip-rule="nonzero"/>
    </clipPath>
    <clipPath id="27a0830199">
      <path d="M 205.980469 309.445312 L 229.988281 321.355469 L 205.980469 333.269531 L 181.96875 321.355469 Z M 205.980469 309.445312 " clip-rule="nonzero"/>
    </clipPath>
    <clipPath id="2e51e99b8d">
      <path d="M 302.136719 214.355469 L 329.722656 214.355469 L 329.722656 276.808594 L 302.136719 276.808594 Z M 302.136719 214.355469 " clip-rule="nonzero"/>
    </clipPath>
    <clipPath id="9d125d8225">
      <path d="M 278.125 261.796875 L 326.382812 261.796875 L 326.382812 285.621094 L 278.125 285.621094 Z M 278.125 261.796875 " clip-rule="nonzero"/>
    </clipPath>
    <clipPath id="5e8514f454">
      <path d="M 302.253906 261.796875 L 326.382812 273.707031 L 302.253906 285.621094 L 278.125 273.707031 Z M 302.253906 261.796875 " clip-rule="nonzero"/>
    </clipPath>
    <clipPath id="9fcdec4cd6">
      <path d="M 326.382812 214.132812 L 350.394531 214.132812 L 350.394531 273.707031 L 326.382812 273.707031 Z M 326.382812 214.132812 " clip-rule="nonzero"/>
    </clipPath>
    <clipPath id="443fe889cb">
      <path d="M 302.613281 142.832031 L 330.203125 142.832031 L 330.203125 192.40625 L 302.613281 192.40625 Z M 302.613281 142.832031 " clip-rule="nonzero"/>
    </clipPath>
    <clipPath id="9d1b7257bb">
      <path d="M 302.613281 178.824219 L 350.871094 178.824219 L 350.871094 202.648438 L 302.613281 202.648438 Z M 302.613281 178.824219 " clip-rule="nonzero"/>
    </clipPath>
    <clipPath id="9a8038e470">
      <path d="M 326.742188 178.824219 L 350.871094 190.734375 L 326.742188 202.648438 L 302.613281 190.734375 Z M 326.742188 178.824219 " clip-rule="nonzero"/>
    </clipPath>
    <clipPath id="334feea387">
      <path d="M 326.863281 142.832031 L 350.871094 142.832031 L 350.871094 204.796875 L 326.863281 204.796875 Z M 326.863281 142.832031 " clip-rule="nonzero"/>
    </clipPath>
    <clipPath id="fd6ed2d578">
      <path d="M 302.136719 202.21875 L 350.394531 202.21875 L 350.394531 226.042969 L 302.136719 226.042969 Z M 302.136719 202.21875 " clip-rule="nonzero"/>
    </clipPath>
    <clipPath id="80c77735e0">
      <path d="M 326.265625 202.21875 L 350.394531 214.132812 L 326.265625 226.042969 L 302.136719 214.132812 Z M 326.265625 202.21875 " clip-rule="nonzero"/>
    </clipPath>
    <clipPath id="2d2a0758da">
      <path d="M 302.253906 202.21875 L 326.265625 202.21875 L 326.265625 237.941406 L 302.253906 237.941406 Z M 302.253906 202.21875 " clip-rule="nonzero"/>
    </clipPath>
    <clipPath id="d91671742e">
      <path d="M 302.136719 226.265625 L 350.394531 226.265625 L 350.394531 250.09375 L 302.136719 250.09375 Z M 302.136719 226.265625 " clip-rule="nonzero"/>
    </clipPath>
    <clipPath id="902d560698">
      <path d="M 326.265625 226.265625 L 350.394531 238.179688 L 326.265625 250.09375 L 302.136719 238.179688 Z M 326.265625 226.265625 " clip-rule="nonzero"/>
    </clipPath>
    <clipPath id="3d72b26c7b">
      <path d="M 280.15625 284.425781 L 328.414062 284.425781 L 328.414062 308.25 L 280.15625 308.25 Z M 280.15625 284.425781 " clip-rule="nonzero"/>
    </clipPath>
    <clipPath id="5c822f0efc">
      <path d="M 304.285156 284.425781 L 328.414062 296.339844 L 304.285156 308.25 L 280.15625 296.339844 Z M 304.285156 284.425781 " clip-rule="nonzero"/>
    </clipPath>
    <clipPath id="5235bcc69d">
      <path d="M 302.136719 273.707031 L 350.394531 273.707031 L 350.394531 297.53125 L 302.136719 297.53125 Z M 302.136719 273.707031 " clip-rule="nonzero"/>
    </clipPath>
    <clipPath id="955ba00ecb">
      <path d="M 326.265625 273.707031 L 350.394531 285.621094 L 326.265625 297.53125 L 302.136719 285.621094 Z M 326.265625 273.707031 " clip-rule="nonzero"/>
    </clipPath>
    <clipPath id="5a7754c415">
      <path d="M 326.382812 273.707031 L 350.394531 273.707031 L 350.394531 309.445312 L 326.382812 309.445312 Z M 326.382812 273.707031 " clip-rule="nonzero"/>
    </clipPath>
    <clipPath id="1fecbc96c9">
      <path d="M 278.007812 214.355469 L 326.265625 214.355469 L 326.265625 238.179688 L 278.007812 238.179688 Z M 278.007812 214.355469 " clip-rule="nonzero"/>
    </clipPath>
    <clipPath id="147109d91a">
      <path d="M 302.136719 214.355469 L 326.265625 226.265625 L 302.136719 238.179688 L 278.007812 226.265625 Z M 302.136719 214.355469 " clip-rule="nonzero"/>
    </clipPath>
    <clipPath id="a51dcf8963">
      <path d="M 278.484375 190.53125 L 326.742188 190.53125 L 326.742188 214.355469 L 278.484375 214.355469 Z M 278.484375 190.53125 " clip-rule="nonzero"/>
    </clipPath>
    <clipPath id="562a254ab3">
      <path d="M 302.613281 190.53125 L 326.742188 202.441406 L 302.613281 214.355469 L 278.484375 202.441406 Z M 302.613281 190.53125 " clip-rule="nonzero"/>
    </clipPath>
    <clipPath id="981175e90a">
      <path d="M 326.265625 226.042969 L 350.273438 226.042969 L 350.273438 250.09375 L 326.265625 250.09375 Z M 326.265625 226.042969 " clip-rule="nonzero"/>
    </clipPath>
    <clipPath id="253752db72">
      <path d="M 254.355469 226.042969 L 302.613281 226.042969 L 302.613281 249.867188 L 254.355469 249.867188 Z M 254.355469 226.042969 " clip-rule="nonzero"/>
    </clipPath>
    <clipPath id="4dddb6e84f">
      <path d="M 278.484375 226.042969 L 302.613281 237.957031 L 278.484375 249.867188 L 254.355469 237.957031 Z M 278.484375 226.042969 " clip-rule="nonzero"/>
    </clipPath>
    <clipPath id="9bf7b13e80">
      <path d="M 230.585938 190.304688 L 254.59375 190.304688 L 254.59375 226.027344 L 230.585938 226.027344 Z M 230.585938 190.304688 " clip-rule="nonzero"/>
    </clipPath>
    <clipPath id="fbd6eff071">
      <path d="M 229.988281 214.117188 L 278.007812 214.117188 L 278.007812 237.941406 L 229.988281 237.941406 Z M 229.988281 214.117188 " clip-rule="nonzero"/>
    </clipPath>
    <clipPath id="040e69d1cd">
      <path d="M 254 214.117188 L 278.007812 226.027344 L 254 237.941406 L 229.988281 226.027344 Z M 254 214.117188 " clip-rule="nonzero"/>
    </clipPath>
    <clipPath id="70a4f27f7d">
      <path d="M 254.238281 214.355469 L 278.007812 214.355469 L 278.007812 250.09375 L 254.238281 250.09375 Z M 254.238281 214.355469 " clip-rule="nonzero"/>
    </clipPath>
    <clipPath id="cd6f18bb7d">
      <path d="M 254.355469 202.441406 L 302.613281 202.441406 L 302.613281 226.265625 L 254.355469 226.265625 Z M 254.355469 202.441406 " clip-rule="nonzero"/>
    </clipPath>
    <clipPath id="6732cd09d5">
      <path d="M 278.484375 202.441406 L 302.613281 214.355469 L 278.484375 226.265625 L 254.355469 214.355469 Z M 278.484375 202.441406 " clip-rule="nonzero"/>
    </clipPath>
    <clipPath id="9f3ede67fa">
      <path d="M 229.988281 238.179688 L 278.007812 238.179688 L 278.007812 262.003906 L 229.988281 262.003906 Z M 229.988281 238.179688 " clip-rule="nonzero"/>
    </clipPath>
    <clipPath id="ecb6fe92a2">
      <path d="M 254 238.179688 L 278.007812 250.09375 L 254 262.003906 L 229.988281 250.09375 Z M 254 238.179688 " clip-rule="nonzero"/>
    </clipPath>
    <clipPath id="a4a0515954">
      <path d="M 302.734375 130.921875 L 350.992188 130.921875 L 350.992188 154.746094 L 302.734375 154.746094 Z M 302.734375 130.921875 " clip-rule="nonzero"/>
    </clipPath>
    <clipPath id="8ae91800ec">
      <path d="M 326.863281 130.921875 L 350.992188 142.832031 L 326.863281 154.746094 L 302.734375 142.832031 Z M 326.863281 130.921875 " clip-rule="nonzero"/>
    </clipPath>
    <clipPath id="54ad9cfb9c">
      <path d="M 326.265625 262.019531 L 374.285156 262.019531 L 374.285156 285.84375 L 326.265625 285.84375 Z M 326.265625 262.019531 " clip-rule="nonzero"/>
    </clipPath>
    <clipPath id="6997d2bbc1">
      <path d="M 350.273438 262.019531 L 374.285156 273.929688 L 350.273438 285.84375 L 326.265625 273.929688 Z M 350.273438 262.019531 " clip-rule="nonzero"/>
    </clipPath>
    <clipPath id="5766d16ef0">
      <path d="M 254.355469 154.570312 L 302.613281 154.570312 L 302.613281 178.394531 L 254.355469 178.394531 Z M 254.355469 154.570312 " clip-rule="nonzero"/>
    </clipPath>
    <clipPath id="852a005355">
      <path d="M 278.484375 154.570312 L 302.613281 166.480469 L 278.484375 178.394531 L 254.355469 166.480469 Z M 278.484375 154.570312 " clip-rule="nonzero"/>
    </clipPath>
    <clipPath id="084f71d9cb">
      <path d="M 230.707031 166.257812 L 278.964844 166.257812 L 278.964844 190.082031 L 230.707031 190.082031 Z M 230.707031 166.257812 " clip-rule="nonzero"/>
    </clipPath>
    <clipPath id="7f6c8581a9">
      <path d="M 254.835938 166.257812 L 278.964844 178.171875 L 254.835938 190.082031 L 230.707031 178.171875 Z M 254.835938 166.257812 " clip-rule="nonzero"/>
    </clipPath>
    <clipPath id="bfb4d9fa35">
      <path d="M 207.113281 190.292969 L 230.882812 190.292969 L 230.882812 226.027344 L 207.113281 226.027344 Z M 207.113281 190.292969 " clip-rule="nonzero"/>
    </clipPath>
    <clipPath id="f258e6ab7f">
      <path d="M 182.863281 214.117188 L 230.882812 214.117188 L 230.882812 237.941406 L 182.863281 237.941406 Z M 182.863281 214.117188 " clip-rule="nonzero"/>
    </clipPath>
    <clipPath id="d2dea48ac4">
      <path d="M 206.875 214.117188 L 230.882812 226.027344 L 206.875 237.941406 L 182.863281 226.027344 Z M 206.875 214.117188 " clip-rule="nonzero"/>
    </clipPath>
    <clipPath id="e3c70f5c9a">
      <path d="M 230.585938 154.570312 L 254.355469 154.570312 L 254.355469 190.304688 L 230.585938 190.304688 Z M 230.585938 154.570312 " clip-rule="nonzero"/>
    </clipPath>
    <clipPath id="375c669b83">
      <path d="M 230.707031 142.65625 L 278.964844 142.65625 L 278.964844 166.480469 L 230.707031 166.480469 Z M 230.707031 142.65625 " clip-rule="nonzero"/>
    </clipPath>
    <clipPath id="19c8cfd792">
      <path d="M 254.835938 142.65625 L 278.964844 154.570312 L 254.835938 166.480469 L 230.707031 154.570312 Z M 254.835938 142.65625 " clip-rule="nonzero"/>
    </clipPath>
    <clipPath id="f850feab5d">
      <path d="M 278.246094 142.65625 L 326.503906 142.65625 L 326.503906 166.480469 L 278.246094 166.480469 Z M 278.246094 142.65625 " clip-rule="nonzero"/>
    </clipPath>
    <clipPath id="5efdbe23aa">
      <path d="M 302.375 142.65625 L 326.503906 154.570312 L 302.375 166.480469 L 278.246094 154.570312 Z M 302.375 142.65625 " clip-rule="nonzero"/>
    </clipPath>
    <clipPath id="cd889f6019">
      <path d="M 286.632812 130.921875 L 327.101562 130.921875 L 327.101562 154.570312 L 286.632812 154.570312 Z M 286.632812 130.921875 " clip-rule="nonzero"/>
    </clipPath>
    <clipPath id="fd742c1ef3">
      <path d="M 278.722656 118.832031 L 326.980469 118.832031 L 326.980469 142.65625 L 278.722656 142.65625 Z M 278.722656 118.832031 " clip-rule="nonzero"/>
    </clipPath>
    <clipPath id="de7dee34bd">
      <path d="M 302.851562 118.832031 L 326.980469 130.746094 L 302.851562 142.65625 L 278.722656 130.746094 Z M 302.851562 118.832031 " clip-rule="nonzero"/>
    </clipPath>
    <clipPath id="1c0db45533">
      <path d="M 250.539062 132.890625 L 298.796875 132.890625 L 298.796875 156.714844 L 250.539062 156.714844 Z M 250.539062 132.890625 " clip-rule="nonzero"/>
    </clipPath>
    <clipPath id="76f0267ac2">
      <path d="M 274.667969 132.890625 L 298.796875 144.804688 L 274.667969 156.714844 L 250.539062 144.804688 Z M 274.667969 132.890625 " clip-rule="nonzero"/>
    </clipPath>
    <clipPath id="b800129483">
      <path d="M 259.605469 128.359375 L 307.863281 128.359375 L 307.863281 152.183594 L 259.605469 152.183594 Z M 259.605469 128.359375 " clip-rule="nonzero"/>
    </clipPath>
    <clipPath id="5c1a1fa910">
      <path d="M 283.734375 128.359375 L 307.863281 140.273438 L 283.734375 152.183594 L 259.605469 140.273438 Z M 283.734375 128.359375 " clip-rule="nonzero"/>
    </clipPath>
    <clipPath id="db94775283">
      <path d="M 274.667969 192.40625 L 322.925781 192.40625 L 322.925781 216.230469 L 274.667969 216.230469 Z M 274.667969 192.40625 " clip-rule="nonzero"/>
    </clipPath>
    <clipPath id="a34c96a5bf">
      <path d="M 298.796875 192.40625 L 322.925781 204.316406 L 298.796875 216.230469 L 274.667969 204.316406 Z M 298.796875 192.40625 " clip-rule="nonzero"/>
    </clipPath>
    <clipPath id="7ee3f70e56">
      <path d="M 269.300781 289.898438 L 317.558594 289.898438 L 317.558594 313.722656 L 269.300781 313.722656 Z M 269.300781 289.898438 " clip-rule="nonzero"/>
    </clipPath>
    <clipPath id="491a7949da">
      <path d="M 293.429688 289.898438 L 317.558594 301.8125 L 293.429688 313.722656 L 269.300781 301.8125 Z M 293.429688 289.898438 " clip-rule="nonzero"/>
    </clipPath>
    <clipPath id="3d2f2600e2">
      <path d="M 258.414062 271.546875 L 306.667969 271.546875 L 306.667969 295.371094 L 258.414062 295.371094 Z M 258.414062 271.546875 " clip-rule="nonzero"/>
    </clipPath>
    <clipPath id="bf3ef4b698">
      <path d="M 282.539062 271.546875 L 306.667969 283.457031 L 282.539062 295.371094 L 258.414062 283.457031 Z M 282.539062 271.546875 " clip-rule="nonzero"/>
    </clipPath>
    <clipPath id="b165b4a5e9">
      <path d="M 206.578125 178.171875 L 254.835938 178.171875 L 254.835938 201.996094 L 206.578125 201.996094 Z M 206.578125 178.171875 " clip-rule="nonzero"/>
    </clipPath>
    <clipPath id="8d07d9bae0">
      <path d="M 230.707031 178.171875 L 254.835938 190.082031 L 230.707031 201.996094 L 206.578125 190.082031 Z M 230.707031 178.171875 " clip-rule="nonzero"/>
    </clipPath>
    <clipPath id="394c3900af">
      <path d="M 261.3125 151.183594 L 309.570312 151.183594 L 309.570312 175.007812 L 261.3125 175.007812 Z M 261.3125 151.183594 " clip-rule="nonzero"/>
    </clipPath>
    <clipPath id="a1e9c1e343">
      <path d="M 285.441406 151.183594 L 309.570312 163.09375 L 285.441406 175.007812 L 261.3125 163.09375 Z M 285.441406 151.183594 " clip-rule="nonzero"/>
    </clipPath>
    <clipPath id="304144b958">
      <path d="M 24.007812 267.75 L 48.730469 267.75 L 48.730469 303.226562 L 24.007812 303.226562 Z M 24.007812 267.75 " clip-rule="nonzero"/>
    </clipPath>
    <clipPath id="69bc226ace">
      <path d="M 48.019531 267.75 L 72.027344 267.75 L 72.027344 303.226562 L 48.019531 303.226562 Z M 48.019531 267.75 " clip-rule="nonzero"/>
    </clipPath>
    <clipPath id="bacb25b664">
      <path d="M 24.007812 255.839844 L 72.027344 255.839844 L 72.027344 279.664062 L 24.007812 279.664062 Z M 24.007812 255.839844 " clip-rule="nonzero"/>
    </clipPath>
    <clipPath id="e1f359d562">
      <path d="M 48.019531 255.839844 L 72.027344 267.75 L 48.019531 279.664062 L 24.007812 267.75 Z M 48.019531 255.839844 " clip-rule="nonzero"/>
    </clipPath>
    <clipPath id="8bae2af8bb">
      <path d="M 48.019531 291.3125 L 96.035156 291.3125 L 96.035156 315.136719 L 48.019531 315.136719 Z M 48.019531 291.3125 " clip-rule="nonzero"/>
    </clipPath>
    <clipPath id="e400561585">
      <path d="M 72.027344 291.3125 L 96.035156 303.226562 L 72.027344 315.136719 L 48.019531 303.226562 Z M 72.027344 291.3125 " clip-rule="nonzero"/>
    </clipPath>
    <clipPath id="c790bea82d">
      <path d="M 0 291.3125 L 48.019531 291.3125 L 48.019531 315.136719 L 0 315.136719 Z M 0 291.3125 " clip-rule="nonzero"/>
    </clipPath>
    <clipPath id="9a25941189">
      <path d="M 24.007812 291.3125 L 48.019531 303.226562 L 24.007812 315.136719 L 0 303.226562 Z M 24.007812 291.3125 " clip-rule="nonzero"/>
    </clipPath>
    <clipPath id="9d236f6eb0">
      <path d="M 98.5625 173.195312 L 122.453125 173.195312 L 122.453125 209.335938 L 98.5625 209.335938 Z M 98.5625 173.195312 " clip-rule="nonzero"/>
    </clipPath>
    <clipPath id="c2f343e410">
      <path d="M 88.925781 166.25 L 112.816406 166.25 L 112.816406 202.390625 L 88.925781 202.390625 Z M 88.925781 166.25 " clip-rule="nonzero"/>
    </clipPath>
    <clipPath id="0ec3a0a6da">
      <path d="M 69.84375 158.71875 L 93.734375 158.71875 L 93.734375 194.859375 L 69.84375 194.859375 Z M 69.84375 158.71875 " clip-rule="nonzero"/>
    </clipPath>
    <clipPath id="31a02a6a65">
      <path d="M 48.136719 184.140625 L 96.15625 184.140625 L 96.15625 207.964844 L 48.136719 207.964844 Z M 48.136719 184.140625 " clip-rule="nonzero"/>
    </clipPath>
    <clipPath id="abeda5e209">
      <path d="M 72.148438 184.140625 L 96.15625 196.054688 L 72.148438 207.964844 L 48.136719 196.054688 Z M 72.148438 184.140625 " clip-rule="nonzero"/>
    </clipPath>
    <clipPath id="7c1583d67a">
      <path d="M 69.722656 194.859375 L 117.742188 194.859375 L 117.742188 218.683594 L 69.722656 218.683594 Z M 69.722656 194.859375 " clip-rule="nonzero"/>
    </clipPath>
    <clipPath id="bb7748b4c1">
      <path d="M 93.734375 194.859375 L 117.742188 206.773438 L 93.734375 218.683594 L 69.722656 206.773438 Z M 93.734375 194.859375 " clip-rule="nonzero"/>
    </clipPath>
    <clipPath id="63694a8103">
      <path d="M 47.027344 184.320312 L 72.027344 184.320312 L 72.027344 282.105469 L 47.027344 282.105469 Z M 47.027344 184.320312 " clip-rule="nonzero"/>
    </clipPath>
    <clipPath id="1d815671ff">
      <path d="M 45.835938 279.507812 L 72.457031 279.507812 L 72.457031 314.980469 L 45.835938 314.980469 Z M 45.835938 279.507812 " clip-rule="nonzero"/>
    </clipPath>
    <clipPath id="89cc36d6ae">
      <path d="M 72.148438 279.664062 L 96.15625 279.664062 L 96.15625 315.136719 L 72.148438 315.136719 Z M 72.148438 279.664062 " clip-rule="nonzero"/>
    </clipPath>
    <clipPath id="3d023e5a56">
      <path d="M 72.148438 291.578125 L 98.5625 291.578125 L 98.5625 327.050781 L 72.148438 327.050781 Z M 72.148438 291.578125 " clip-rule="nonzero"/>
    </clipPath>
    <clipPath id="a951a8dd0a">
      <path d="M 67.0625 285.488281 L 91.785156 285.488281 L 91.785156 320.960938 L 67.0625 320.960938 Z M 67.0625 285.488281 " clip-rule="nonzero"/>
    </clipPath>
    <clipPath id="a05cf9c4f7">
      <path d="M 48.136719 267.75 L 96.15625 267.75 L 96.15625 291.578125 L 48.136719 291.578125 Z M 48.136719 267.75 " clip-rule="nonzero"/>
    </clipPath>
    <clipPath id="4477ceecf0">
      <path d="M 72.148438 267.75 L 96.15625 279.664062 L 72.148438 291.578125 L 48.136719 279.664062 Z M 72.148438 267.75 " clip-rule="nonzero"/>
    </clipPath>
    <clipPath id="0785d04713">
      <path d="M 96.15625 291.578125 L 120.164062 291.578125 L 120.164062 327.050781 L 96.15625 327.050781 Z M 96.15625 291.578125 " clip-rule="nonzero"/>
    </clipPath>
    <clipPath id="fcd905929d">
      <path d="M 96.15625 315.136719 L 144.175781 315.136719 L 144.175781 338.960938 L 96.15625 338.960938 Z M 96.15625 315.136719 " clip-rule="nonzero"/>
    </clipPath>
    <clipPath id="b608628c7b">
      <path d="M 120.164062 315.136719 L 144.175781 327.050781 L 120.164062 338.960938 L 96.15625 327.050781 Z M 120.164062 315.136719 " clip-rule="nonzero"/>
    </clipPath>
    <clipPath id="abe96d2191">
      <path d="M 43.765625 312.753906 L 91.785156 312.753906 L 91.785156 336.578125 L 43.765625 336.578125 Z M 43.765625 312.753906 " clip-rule="nonzero"/>
    </clipPath>
    <clipPath id="ab569472a0">
      <path d="M 67.773438 312.753906 L 91.785156 324.664062 L 67.773438 336.578125 L 43.765625 324.664062 Z M 67.773438 312.753906 " clip-rule="nonzero"/>
    </clipPath>
    <clipPath id="49efdf67c0">
      <path d="M 93.851562 303.488281 L 120.875 303.488281 L 120.875 338.960938 L 93.851562 338.960938 Z M 93.851562 303.488281 " clip-rule="nonzero"/>
    </clipPath>
    <clipPath id="2425d119ea">
      <path d="M 120.164062 303.488281 L 144.175781 303.488281 L 144.175781 338.960938 L 120.164062 338.960938 Z M 120.164062 303.488281 " clip-rule="nonzero"/>
    </clipPath>
    <clipPath id="5f1e3b3c6f">
      <path d="M 96.15625 291.578125 L 144.175781 291.578125 L 144.175781 315.402344 L 96.15625 315.402344 Z M 96.15625 291.578125 " clip-rule="nonzero"/>
    </clipPath>
    <clipPath id="bb71491050">
      <path d="M 120.164062 291.578125 L 144.175781 303.488281 L 120.164062 315.402344 L 96.15625 303.488281 Z M 120.164062 291.578125 " clip-rule="nonzero"/>
    </clipPath>
    <clipPath id="4f3877a7af">
      <path d="M 120.164062 327.050781 L 168.183594 327.050781 L 168.183594 350.875 L 120.164062 350.875 Z M 120.164062 327.050781 " clip-rule="nonzero"/>
    </clipPath>
    <clipPath id="af15cd5622">
      <path d="M 144.175781 327.050781 L 168.183594 338.960938 L 144.175781 350.875 L 120.164062 338.960938 Z M 144.175781 327.050781 " clip-rule="nonzero"/>
    </clipPath>
    <clipPath id="33f9cf0c11">
      <path d="M 120.046875 315.25 L 144.765625 315.25 L 144.765625 350.726562 L 120.046875 350.726562 Z M 120.046875 315.25 " clip-rule="nonzero"/>
    </clipPath>
    <clipPath id="ba8a7c7210">
      <path d="M 144.054688 315.25 L 168.0625 315.25 L 168.0625 350.726562 L 144.054688 350.726562 Z M 144.054688 315.25 " clip-rule="nonzero"/>
    </clipPath>
    <clipPath id="d6933affe5">
      <path d="M 120.046875 303.339844 L 168.0625 303.339844 L 168.0625 327.164062 L 120.046875 327.164062 Z M 120.046875 303.339844 " clip-rule="nonzero"/>
    </clipPath>
    <clipPath id="04582708ea">
      <path d="M 144.054688 303.339844 L 168.0625 315.25 L 144.054688 327.164062 L 120.046875 315.25 Z M 144.054688 303.339844 " clip-rule="nonzero"/>
    </clipPath>
    <clipPath id="faa03ed974">
      <path d="M 69.722656 278.472656 L 117.742188 278.472656 L 117.742188 302.296875 L 69.722656 302.296875 Z M 69.722656 278.472656 " clip-rule="nonzero"/>
    </clipPath>
    <clipPath id="9329de5d14">
      <path d="M 93.734375 278.472656 L 117.742188 290.382812 L 93.734375 302.296875 L 69.722656 290.382812 Z M 93.734375 278.472656 " clip-rule="nonzero"/>
    </clipPath>
    <clipPath id="a5ec9f501b">
      <path d="M 81.789062 284.296875 L 129.804688 284.296875 L 129.804688 308.121094 L 81.789062 308.121094 Z M 81.789062 284.296875 " clip-rule="nonzero"/>
    </clipPath>
    <clipPath id="54a831cf12">
      <path d="M 105.796875 284.296875 L 129.804688 296.207031 L 105.796875 308.121094 L 81.789062 296.207031 Z M 105.796875 284.296875 " clip-rule="nonzero"/>
    </clipPath>
    <clipPath id="9c484e6f03">
      <path d="M 144.054688 338.8125 L 192.074219 338.8125 L 192.074219 362.636719 L 144.054688 362.636719 Z M 144.054688 338.8125 " clip-rule="nonzero"/>
    </clipPath>
    <clipPath id="b64f486831">
      <path d="M 168.0625 338.8125 L 192.074219 350.726562 L 168.0625 362.636719 L 144.054688 350.726562 Z M 168.0625 338.8125 " clip-rule="nonzero"/>
    </clipPath>
    <clipPath id="6f45637072">
      <path d="M 120.164062 183.914062 L 146.363281 183.914062 L 146.363281 220.054688 L 120.164062 220.054688 Z M 120.164062 183.914062 " clip-rule="nonzero"/>
    </clipPath>
    <clipPath id="e920bb2380">
      <path d="M 144.054688 220.054688 L 170.253906 220.054688 L 170.253906 338.960938 L 144.054688 338.960938 Z M 144.054688 220.054688 " clip-rule="nonzero"/>
    </clipPath>
    <clipPath id="e48e6ec42a">
      <path d="M 168.0625 220.054688 L 192.074219 220.054688 L 192.074219 338.960938 L 168.0625 338.960938 Z M 168.0625 220.054688 " clip-rule="nonzero"/>
    </clipPath>
    <clipPath id="e0d8d62814">
      <path d="M 120.164062 327.050781 L 168.183594 327.050781 L 168.183594 350.875 L 120.164062 350.875 Z M 120.164062 327.050781 " clip-rule="nonzero"/>
    </clipPath>
    <clipPath id="a739f2c3c1">
      <path d="M 144.175781 327.050781 L 168.183594 338.960938 L 144.175781 350.875 L 120.164062 338.960938 Z M 144.175781 327.050781 " clip-rule="nonzero"/>
    </clipPath>
    <clipPath id="f7f1f023c5">
      <path d="M 168.0625 327.050781 L 216.082031 327.050781 L 216.082031 350.875 L 168.0625 350.875 Z M 168.0625 327.050781 " clip-rule="nonzero"/>
    </clipPath>
    <clipPath id="9a5d151908">
      <path d="M 192.074219 327.050781 L 216.082031 338.960938 L 192.074219 350.875 L 168.0625 338.960938 Z M 192.074219 327.050781 " clip-rule="nonzero"/>
    </clipPath>
    <clipPath id="d93f8500b6">
      <path d="M 119.765625 327.050781 L 144.054688 327.050781 L 144.054688 350.875 L 119.765625 350.875 Z M 119.765625 327.050781 " clip-rule="nonzero"/>
    </clipPath>
    <clipPath id="64b6083a03">
      <path d="M 144.175781 183.914062 L 168.183594 183.914062 L 168.183594 220.054688 L 144.175781 220.054688 Z M 144.175781 183.914062 " clip-rule="nonzero"/>
    </clipPath>
    <clipPath id="d1f01a0a95">
      <path d="M 144.054688 208.144531 L 192.074219 208.144531 L 192.074219 231.96875 L 144.054688 231.96875 Z M 144.054688 208.144531 " clip-rule="nonzero"/>
    </clipPath>
    <clipPath id="995e16f301">
      <path d="M 168.0625 208.144531 L 192.074219 220.054688 L 168.0625 231.96875 L 144.054688 220.054688 Z M 168.0625 208.144531 " clip-rule="nonzero"/>
    </clipPath>
    <clipPath id="eeb30e642f">
      <path d="M 47.738281 148.179688 L 72.027344 148.179688 L 72.027344 184.320312 L 47.738281 184.320312 Z M 47.738281 148.179688 " clip-rule="nonzero"/>
    </clipPath>
    <clipPath id="5c3e8eebc8">
      <path d="M 47.738281 160.316406 L 95.757812 160.316406 L 95.757812 184.140625 L 47.738281 184.140625 Z M 47.738281 160.316406 " clip-rule="nonzero"/>
    </clipPath>
    <clipPath id="50e3019fba">
      <path d="M 71.746094 160.316406 L 95.757812 172.226562 L 71.746094 184.140625 L 47.738281 172.226562 Z M 71.746094 160.316406 " clip-rule="nonzero"/>
    </clipPath>
    <clipPath id="c48fb10c43">
      <path d="M 120.046875 171.894531 L 168.0625 171.894531 L 168.0625 195.71875 L 120.046875 195.71875 Z M 120.046875 171.894531 " clip-rule="nonzero"/>
    </clipPath>
    <clipPath id="a0eda0749d">
      <path d="M 144.054688 171.894531 L 168.0625 183.808594 L 144.054688 195.71875 L 120.046875 183.808594 Z M 144.054688 171.894531 " clip-rule="nonzero"/>
    </clipPath>
    <clipPath id="577aeffe94">
      <path d="M 55.414062 140.039062 L 103.433594 140.039062 L 103.433594 163.863281 L 55.414062 163.863281 Z M 55.414062 140.039062 " clip-rule="nonzero"/>
    </clipPath>
    <clipPath id="fa9da6080d">
      <path d="M 79.425781 140.039062 L 103.433594 151.949219 L 79.425781 163.863281 L 55.414062 151.949219 Z M 79.425781 140.039062 " clip-rule="nonzero"/>
    </clipPath>
    <clipPath id="1a3fdda93b">
      <path d="M 76.863281 150.550781 L 124.878906 150.550781 L 124.878906 174.375 L 76.863281 174.375 Z M 76.863281 150.550781 " clip-rule="nonzero"/>
    </clipPath>
    <clipPath id="72c5319113">
      <path d="M 100.871094 150.550781 L 124.878906 162.460938 L 100.871094 174.375 L 76.863281 162.460938 Z M 100.871094 150.550781 " clip-rule="nonzero"/>
    </clipPath>
    <clipPath id="d3579e0f51">
      <path d="M 100.871094 162.460938 L 148.890625 162.460938 L 148.890625 186.285156 L 100.871094 186.285156 Z M 100.871094 162.460938 " clip-rule="nonzero"/>
    </clipPath>
    <clipPath id="e634ca19f3">
      <path d="M 124.878906 162.460938 L 148.890625 174.375 L 124.878906 186.285156 L 100.871094 174.375 Z M 124.878906 162.460938 " clip-rule="nonzero"/>
    </clipPath>
    <clipPath id="7f5f7eb013">
      <path d="M 24.164062 172.226562 L 72.183594 172.226562 L 72.183594 196.054688 L 24.164062 196.054688 Z M 24.164062 172.226562 " clip-rule="nonzero"/>
    </clipPath>
    <clipPath id="23142ba84e">
      <path d="M 48.171875 172.226562 L 72.183594 184.140625 L 48.171875 196.054688 L 24.164062 184.140625 Z M 48.171875 172.226562 " clip-rule="nonzero"/>
    </clipPath>
    <clipPath id="a8f9364159">
      <path d="M 96.867188 208.144531 L 144.886719 208.144531 L 144.886719 231.96875 L 96.867188 231.96875 Z M 96.867188 208.144531 " clip-rule="nonzero"/>
    </clipPath>
    <clipPath id="d916157b39">
      <path d="M 120.875 208.144531 L 144.886719 220.054688 L 120.875 231.96875 L 96.867188 220.054688 Z M 120.875 208.144531 " clip-rule="nonzero"/>
    </clipPath>
    <clipPath id="a3bda68cc9">
      <path d="M 24.128906 136.265625 L 50.644531 136.265625 L 50.644531 285.488281 L 24.128906 285.488281 Z M 24.128906 136.265625 " clip-rule="nonzero"/>
    </clipPath>
    <clipPath id="6e1d729632">
      <path d="M 24.007812 124.355469 L 72.027344 124.355469 L 72.027344 148.179688 L 24.007812 148.179688 Z M 24.007812 124.355469 " clip-rule="nonzero"/>
    </clipPath>
    <clipPath id="de642f2a20">
      <path d="M 48.019531 124.355469 L 72.027344 136.265625 L 48.019531 148.179688 L 24.007812 136.265625 Z M 48.019531 124.355469 " clip-rule="nonzero"/>
    </clipPath>
    <clipPath id="6bc96ad3d7">
      <path d="M 60.5 320.960938 L 108.515625 320.960938 L 108.515625 344.785156 L 60.5 344.785156 Z M 60.5 320.960938 " clip-rule="nonzero"/>
    </clipPath>
    <clipPath id="df05122db1">
      <path d="M 84.507812 320.960938 L 108.515625 332.875 L 84.507812 344.785156 L 60.5 332.875 Z M 84.507812 320.960938 " clip-rule="nonzero"/>
    </clipPath>
    <clipPath id="7a661a73af">
      <path d="M 91.785156 205.578125 L 139.800781 205.578125 L 139.800781 229.40625 L 91.785156 229.40625 Z M 91.785156 205.578125 " clip-rule="nonzero"/>
    </clipPath>
    <clipPath id="6cb3838b34">
      <path d="M 115.792969 205.578125 L 139.800781 217.492188 L 115.792969 229.40625 L 91.785156 217.492188 Z M 115.792969 205.578125 " clip-rule="nonzero"/>
    </clipPath>
    <clipPath id="bdd75aaead">
      <path d="M 90.117188 157.066406 L 138.136719 157.066406 L 138.136719 180.890625 L 90.117188 180.890625 Z M 90.117188 157.066406 " clip-rule="nonzero"/>
    </clipPath>
    <clipPath id="f5a8d8998c">
      <path d="M 114.128906 157.066406 L 138.136719 168.976562 L 114.128906 180.890625 L 90.117188 168.976562 Z M 114.128906 157.066406 " clip-rule="nonzero"/>
    </clipPath>
    <clipPath id="3fdc8a8fa6">
      <path d="M 45.835938 135.296875 L 93.851562 135.296875 L 93.851562 159.125 L 45.835938 159.125 Z M 45.835938 135.296875 " clip-rule="nonzero"/>
    </clipPath>
    <clipPath id="3e49d0b839">
      <path d="M 69.84375 135.296875 L 93.851562 147.210938 L 69.84375 159.125 L 45.835938 147.210938 Z M 69.84375 135.296875 " clip-rule="nonzero"/>
    </clipPath>
  </defs>
  <g clip-path="url(#b5a786ef6c)">
    <path fill="#4b4a7c" d="M 237.895 36.102 L 266.676 36.102 L 266.676 72.047 L 241.627 59.916 L 237.895 36.102 Z M 237.895 36.102" fill-opacity="1" fill-rule="nonzero"/>
  </g>
  <g clip-path="url(#02d6d4a370)">
    <path fill="#67599e" d="M 288.145 73.031 L 312.619 61.833 L 312.619 97.583 L 288.145 108.781 L 288.145 73.031 Z M 288.145 73.031" fill-opacity="1" fill-rule="nonzero"/>
  </g>
  <g clip-path="url(#f1917e53e4)">
    <path fill="#67599e" d="M 288.144531 47.800781 L 312.152344 47.800781 L 312.152344 83.75 L 288.144531 83.75 Z M 288.144531 47.800781 " fill-opacity="1" fill-rule="nonzero"/>
  </g>
  <g clip-path="url(#75c5bdabd4)">
    <path fill="#4b4a7c" d="M 264.136719 46.820312 L 288.144531 46.820312 L 288.144531 82.769531 L 264.136719 82.769531 Z M 264.136719 46.820312 " fill-opacity="1" fill-rule="nonzero"/>
  </g>
  <g clip-path="url(#119ff0ffab)">
    <g clip-path="url(#50acbe7494)">
      <path fill="#8572b7" d="M 264.289062 36.101562 L 312.308594 36.101562 L 312.308594 59.925781 L 264.289062 59.925781 Z M 264.289062 36.101562 " fill-opacity="1" fill-rule="nonzero"/>
    </g>
  </g>
  <g clip-path="url(#0812533834)">
    <path fill="#4b4a7c" d="M 213.887 24.188 L 245.527 24.188 L 250.193 63.87 L 213.887 47.539 L 213.887 24.188 Z M 213.887 24.188" fill-opacity="1" fill-rule="nonzero"/>
  </g>
  <g clip-path="url(#03c913355f)">
    <g clip-path="url(#a445969e31)">
      <path fill="#8572b7" d="M 237.894531 22.996094 L 285.914062 22.996094 L 285.914062 46.820312 L 237.894531 46.820312 Z M 237.894531 22.996094 " fill-opacity="1" fill-rule="nonzero"/>
    </g>
  </g>
  <g clip-path="url(#997bfca86a)">
    <g clip-path="url(#b978a3f651)">
      <path fill="#8572b7" d="M 216.273438 12.273438 L 264.289062 12.273438 L 264.289062 36.101562 L 216.273438 36.101562 Z M 216.273438 12.273438 " fill-opacity="1" fill-rule="nonzero"/>
    </g>
  </g>
  <g clip-path="url(#15ab721ec7)">
    <path fill="#67599e" d="M 168.410156 24.1875 L 192.417969 24.1875 L 192.417969 60.136719 L 168.410156 60.136719 Z M 168.410156 24.1875 " fill-opacity="1" fill-rule="nonzero"/>
  </g>
  <g clip-path="url(#22b92cbf17)">
    <path fill="#67599e" d="M 188.207 24.188 L 216.273 24.188 L 219.073 46.139 L 188.207 60.137 L 188.207 24.188 Z M 188.207 24.188" fill-opacity="1" fill-rule="nonzero"/>
  </g>
  <g clip-path="url(#5d8624077d)">
    <path fill="#4b4a7c" d="M 144.246 60.137 L 169.187 73.668 L 179.452 100.751 L 139.113 80.222 L 144.246 60.137 Z M 126.516 60.137" fill-opacity="1" fill-rule="nonzero"/>
  </g>
  <g clip-path="url(#9fa9cbb021)">
    <path fill="#4b4a7c" d="M 165.867 71.836 L 194.648 71.836 L 194.648 107.785 L 162.601 93.322 L 165.867 71.836 Z M 165.867 71.836" fill-opacity="1" fill-rule="nonzero"/>
  </g>
  <g clip-path="url(#cfb3da1bc4)">
    <path fill="#4b4a7c" d="M 144.398438 36.101562 L 168.410156 36.101562 L 168.410156 72.046875 L 144.398438 72.046875 Z M 144.398438 36.101562 " fill-opacity="1" fill-rule="nonzero"/>
  </g>
  <g clip-path="url(#f2d589562a)">
    <g clip-path="url(#d34634483a)">
      <path fill="#8572b7" d="M 168.253906 12.273438 L 216.273438 12.273438 L 216.273438 36.101562 L 168.253906 36.101562 Z M 168.253906 12.273438 " fill-opacity="1" fill-rule="nonzero"/>
    </g>
  </g>
  <g clip-path="url(#30967e7537)">
    <g clip-path="url(#1d41f0f780)">
      <path fill="#8572b7" d="M 144.246094 24.1875 L 192.261719 24.1875 L 192.261719 48.011719 L 144.246094 48.011719 Z M 144.246094 24.1875 " fill-opacity="1" fill-rule="nonzero"/>
    </g>
  </g>
  <g clip-path="url(#c64a62655d)">
    <g clip-path="url(#d36a20baf4)">
      <path fill="#8572b7" d="M 144.246094 48.011719 L 192.261719 48.011719 L 192.261719 71.835938 L 144.246094 71.835938 Z M 144.246094 48.011719 " fill-opacity="1" fill-rule="nonzero"/>
    </g>
  </g>
  <g clip-path="url(#174585f50b)">
    <path fill="#4b4a7c" d="M 168.098 119.484 L 194.648 119.484 L 204.913 161.033 L 167.631 143.302 L 168.098 119.484 Z M 168.098 119.484" fill-opacity="1" fill-rule="nonzero"/>
  </g>
  <g clip-path="url(#8fe150540e)">
    <path fill="#67599e" d="M 192.418 119.484 L 223.43 119.484 L 226.696 138.17 C 234.673 136.397 193.642 155.784 191.018 156.367 L 192.418 119.484 Z M 192.418 119.484" fill-opacity="1" fill-rule="nonzero"/>
  </g>
  <g clip-path="url(#ef3b6a0447)">
    <path fill="#67599e" d="M 216.117188 83.960938 L 240.125 83.960938 L 240.125 119.910156 L 216.117188 119.910156 Z M 216.117188 83.960938 " fill-opacity="1" fill-rule="nonzero"/>
  </g>
  <g clip-path="url(#5c87f05122)">
    <path fill="#4b4a7c" d="M 120.234 119.91 L 146.629 119.91 L 146.129 156.521 L 120.234 143.615 L 120.234 119.91 Z M 120.234 119.91" fill-opacity="1" fill-rule="nonzero"/>
  </g>
  <g clip-path="url(#7f3771d041)">
    <path fill="#67599e" d="M 144.246 119.91 L 168.254 119.91 L 174.32 141.859 L 143.313 157.255 L 144.246 119.91 Z M 144.246 119.91" fill-opacity="1" fill-rule="nonzero"/>
  </g>
  <g clip-path="url(#99ce58e716)">
    <path fill="#4b4a7c" d="M 192.109375 83.539062 L 216.117188 83.539062 L 216.117188 119.484375 L 192.109375 119.484375 Z M 192.109375 83.539062 " fill-opacity="1" fill-rule="nonzero"/>
  </g>
  <g clip-path="url(#005f17ec8b)">
    <path fill="#67599e" d="M 216.117 108.781 L 240.125 108.781 L 253.656 124.201 L 216.117 144.73 L 216.117 108.781 Z M 216.117 108.781" fill-opacity="1" fill-rule="nonzero"/>
  </g>
  <g clip-path="url(#770f1f62ed)">
    <g clip-path="url(#d944c728e5)">
      <path fill="#8572b7" d="M 170.640625 61.117188 L 218.65625 61.117188 L 218.65625 84.941406 L 170.640625 84.941406 Z M 170.640625 61.117188 " fill-opacity="1" fill-rule="nonzero"/>
    </g>
  </g>
  <g clip-path="url(#7d112bd5a2)">
    <g clip-path="url(#9d81d12465)">
      <path fill="#8572b7" d="M 192.261719 71.835938 L 240.28125 71.835938 L 240.28125 95.660156 L 192.261719 95.660156 Z M 192.261719 71.835938 " fill-opacity="1" fill-rule="nonzero"/>
    </g>
  </g>
  <g clip-path="url(#d185a34beb)">
    <g clip-path="url(#c648f7b28a)">
      <path fill="#8572b7" d="M 192.261719 95.660156 L 240.28125 95.660156 L 240.28125 119.484375 L 192.261719 119.484375 Z M 192.261719 95.660156 " fill-opacity="1" fill-rule="nonzero"/>
    </g>
  </g>
  <g clip-path="url(#4af3b04b00)">
    <g clip-path="url(#36350e3817)">
      <path fill="#8572b7" d="M 168.253906 107.574219 L 216.273438 107.574219 L 216.273438 131.398438 L 168.253906 131.398438 Z M 168.253906 107.574219 " fill-opacity="1" fill-rule="nonzero"/>
    </g>
  </g>
  <g clip-path="url(#c8447ff180)">
    <path fill="#4b4a7c" d="M 72.371 96.086 L 108.23 96.086 L 107.397 136.349 C 104.773 137.224 62.629 112.118 62.629 112.118 L 72.371 96.086 Z M 72.371 96.086" fill-opacity="1" fill-rule="nonzero"/>
  </g>
  <g clip-path="url(#9961e16c65)">
    <path fill="#4b4a7c" d="M 96.539 108.781 L 127.137 108.781 L 125.055 145.979 L 99.287 132.906 L 96.539 108.781 Z M 96.539 108.781" fill-opacity="1" fill-rule="nonzero"/>
  </g>
  <g clip-path="url(#33751042d1)">
    <g clip-path="url(#b5de27b33f)">
      <path fill="#8572b7" d="M 120.390625 107.574219 L 168.410156 107.574219 L 168.410156 131.398438 L 120.390625 131.398438 Z M 120.390625 107.574219 " fill-opacity="1" fill-rule="nonzero"/>
    </g>
  </g>
  <g clip-path="url(#bbb337fb14)">
    <path fill="#67599e" d="M 96.226562 72.046875 L 120.234375 72.046875 L 120.234375 107.996094 L 96.226562 107.996094 Z M 96.226562 72.046875 " fill-opacity="1" fill-rule="nonzero"/>
  </g>
  <g clip-path="url(#5e0625ee00)">
    <path fill="#4b4a7c" d="M 72.371094 72.046875 L 96.382812 72.046875 L 96.382812 107.996094 L 72.371094 107.996094 Z M 72.371094 72.046875 " fill-opacity="1" fill-rule="nonzero"/>
  </g>
  <g clip-path="url(#6b824b81c3)">
    <g clip-path="url(#9000955a75)">
      <path fill="#8572b7" d="M 93.839844 94.46875 L 141.859375 94.46875 L 141.859375 118.292969 L 93.839844 118.292969 Z M 93.839844 94.46875 " fill-opacity="1" fill-rule="nonzero"/>
    </g>
  </g>
  <g clip-path="url(#1a06ea1946)">
    <g clip-path="url(#1d97dd8a82)">
      <path fill="#8572b7" d="M 72.21875 83.75 L 120.234375 83.75 L 120.234375 107.574219 L 72.21875 107.574219 Z M 72.21875 83.75 " fill-opacity="1" fill-rule="nonzero"/>
    </g>
  </g>
  <g clip-path="url(#b575d7c5da)">
    <g clip-path="url(#bd589614a7)">
      <path fill="#8572b7" d="M 72.371094 59.925781 L 120.390625 59.925781 L 120.390625 83.75 L 72.371094 83.75 Z M 72.371094 59.925781 " fill-opacity="1" fill-rule="nonzero"/>
    </g>
  </g>
  <g clip-path="url(#1af7812dc6)">
    <g clip-path="url(#e39603249d)">
      <path fill="#8572b7" d="M 98.765625 96.867188 L 146.785156 96.867188 L 146.785156 120.695312 L 98.765625 120.695312 Z M 98.765625 96.867188 " fill-opacity="1" fill-rule="nonzero"/>
    </g>
  </g>
  <g clip-path="url(#70b57f3351)">
    <g clip-path="url(#7501413dc7)">
      <path fill="#8572b7" d="M 165.867188 58.730469 L 213.886719 58.730469 L 213.886719 82.554688 L 165.867188 82.554688 Z M 165.867188 58.730469 " fill-opacity="1" fill-rule="nonzero"/>
    </g>
  </g>
  <g clip-path="url(#7e3c476f9f)">
    <g clip-path="url(#fa32ace4f5)">
      <path fill="#8572b7" d="M 242.667969 25.378906 L 290.683594 25.378906 L 290.683594 49.203125 L 242.667969 49.203125 Z M 242.667969 25.378906 " fill-opacity="1" fill-rule="nonzero"/>
    </g>
  </g>
  <g clip-path="url(#88edb1ea62)">
    <g clip-path="url(#ad850b65d4)">
      <path fill="#8572b7" d="M 165.867188 13.46875 L 213.886719 13.46875 L 213.886719 37.292969 L 165.867188 37.292969 Z M 165.867188 13.46875 " fill-opacity="1" fill-rule="nonzero"/>
    </g>
  </g>
  <g clip-path="url(#2756d8ac43)">
    <g clip-path="url(#68187e74da)">
      <path fill="#8572b7" d="M 170.640625 106.394531 L 218.65625 106.394531 L 218.65625 130.21875 L 170.640625 130.21875 Z M 170.640625 106.394531 " fill-opacity="1" fill-rule="nonzero"/>
    </g>
  </g>
  <g clip-path="url(#160855d3f3)">
    <g clip-path="url(#2fbf909bde)"/>
  </g>
  <g clip-path="url(#a1093e06ea)">
    <g clip-path="url(#20478c09d5)"/>
  </g>
  <g clip-path="url(#641557b061)">
    <g clip-path="url(#33adefc1ba)"/>
  </g>
  <g clip-path="url(#1cfb723ab1)">
    <g clip-path="url(#3fe1f90466)"/>
  </g>
  <g clip-path="url(#04ed1807d6)">
    <g clip-path="url(#6945239a74)"/>
  </g>
  <g clip-path="url(#87860b9f43)">
    <g clip-path="url(#c6c6a8c4ae)"/>
  </g>
  <g clip-path="url(#ac2b933ccf)">
    <g clip-path="url(#3897547598)"/>
  </g>
  <g clip-path="url(#3abbfa358b)">
    <g clip-path="url(#6bca8cdc5a)"/>
  </g>
  <g clip-path="url(#db0e1c992f)">
    <g clip-path="url(#d7505b051e)"/>
  </g>
  <g clip-path="url(#c71f227cd4)">
    <g clip-path="url(#925731d134)"/>
  </g>
  <g clip-path="url(#55fe96bf9d)">
    <g clip-path="url(#ac880f936f)"/>
  </g>
  <g clip-path="url(#8e2901cd7a)">
    <g clip-path="url(#098cd1c7c5)"/>
  </g>
  <g clip-path="url(#3d8225caba)">
    <g clip-path="url(#592210788b)"/>
  </g>
  <g clip-path="url(#00c5d1625c)">
    <g clip-path="url(#2d330004ca)"/>
  </g>
  <g clip-path="url(#76c87e3ac1)">
    <g clip-path="url(#5c4a827f77)"/>
  </g>
  <g clip-path="url(#1dbbd4a784)">
    <path fill="#4b4a7c" d="M 264.289 72.047 L 288.301 72.047 L 288.301 108.781 L 263.356 97.583 L 264.289 72.047 Z M 263.822 71.58" fill-opacity="1" fill-rule="nonzero"/>
  </g>
  <g clip-path="url(#c51adc9188)">
    <g clip-path="url(#91d979aaf6)"/>
  </g>
  <g clip-path="url(#17e99dc29b)">
    <g clip-path="url(#03e3d952e9)">
      <path fill="#8572b7" d="M 264.289062 59.925781 L 312.308594 59.925781 L 312.308594 83.75 L 264.289062 83.75 Z M 264.289062 59.925781 " fill-opacity="1" fill-rule="nonzero"/>
    </g>
  </g>
  <g clip-path="url(#8b760a3fb2)">
    <g clip-path="url(#1dc2c58107)">
      <path fill="#f4539f" d="M 230.109375 285.621094 L 278.367188 285.621094 L 278.367188 309.445312 L 230.109375 309.445312 Z M 230.109375 285.621094 " fill-opacity="1" fill-rule="nonzero"/>
    </g>
  </g>
  <g clip-path="url(#52e9346521)">
    <path fill="#a0277e" d="M 206.219 285.621 L 230.215 297.154 L 232.521 322.893 L 205.45 309.438 L 206.219 285.621 Z M 206.219 285.621" fill-opacity="1" fill-rule="nonzero"/>
  </g>
  <g clip-path="url(#1e38f3f053)">
    <g clip-path="url(#f09ec2084c)">
      <path fill="#f4539f" d="M 251.730469 275.125 L 299.988281 275.125 L 299.988281 298.949219 L 251.730469 298.949219 Z M 251.730469 275.125 " fill-opacity="1" fill-rule="nonzero"/>
    </g>
  </g>
  <g clip-path="url(#aad645ae1b)">
    <path fill="#cc3a86" d="M 230.226562 285.621094 L 254.238281 285.621094 L 254.238281 321.355469 L 230.226562 321.355469 Z M 230.226562 285.621094 " fill-opacity="1" fill-rule="nonzero"/>
  </g>
  <g clip-path="url(#3c7b4c9029)">
    <g clip-path="url(#38671ef9c2)">
      <path fill="#a0277e" d="M 230.109375 309.445312 L 278.125 309.445312 L 278.125 333.269531 L 230.109375 333.269531 Z M 230.109375 309.445312 " fill-opacity="1" fill-rule="nonzero"/>
    </g>
  </g>
  <g clip-path="url(#8169b39b57)">
    <path fill="#cc3a86" d="M 254.117 309.445 L 278.367 309.445 L 288.632 315.539 L 254.117 333.27 L 254.117 309.445 Z M 254.117 309.445" fill-opacity="1" fill-rule="nonzero"/>
  </g>
  <g clip-path="url(#8ebec16c52)">
    <g clip-path="url(#9fee15fb64)"/>
  </g>
  <g clip-path="url(#3ccec8f7d4)">
    <g clip-path="url(#581a19855e)">
      <path fill="#cc3a86" d="M 254 297.53125 L 302.253906 297.53125 L 302.253906 321.355469 L 254 321.355469 Z M 254 297.53125 " fill-opacity="1" fill-rule="nonzero"/>
    </g>
  </g>
  <g clip-path="url(#e950445f82)">
    <g clip-path="url(#8e7ac3357b)">
      <path fill="#f4539f" d="M 206.097656 273.707031 L 254.117188 273.707031 L 254.117188 297.53125 L 206.097656 297.53125 Z M 206.097656 273.707031 " fill-opacity="1" fill-rule="nonzero"/>
    </g>
  </g>
  <g clip-path="url(#0221f96eb8)">
    <g clip-path="url(#27a0830199)"/>
  </g>
  <g clip-path="url(#2e51e99b8d)">
    <path fill="#a0277e" d="M 302.137 214.355 L 329.723 214.355 L 326.508 273.679 L 302.137 276.809 L 302.137 214.355 Z M 302.137 214.355" fill-opacity="1" fill-rule="nonzero"/>
  </g>
  <g clip-path="url(#9d125d8225)">
    <g clip-path="url(#5e8514f454)">
      <path fill="#f4539f" d="M 278.125 261.796875 L 326.382812 261.796875 L 326.382812 285.621094 L 278.125 285.621094 Z M 278.125 261.796875 " fill-opacity="1" fill-rule="nonzero"/>
    </g>
  </g>
  <g clip-path="url(#9fcdec4cd6)">
    <path fill="#cc3a86" d="M 326.383 214.133 L 350.395 214.133 L 350.861 260.176 L 326.383 273.707 L 326.383 214.133 Z M 326.383 214.133" fill-opacity="1" fill-rule="nonzero"/>
  </g>
  <g clip-path="url(#443fe889cb)">
    <path fill="#a0277e" d="M 302.613281 142.832031 L 330.203125 142.832031 L 330.203125 192.40625 L 302.613281 192.40625 Z M 302.613281 142.832031 " fill-opacity="1" fill-rule="nonzero"/>
  </g>
  <g clip-path="url(#9d1b7257bb)">
    <g clip-path="url(#9a8038e470)">
      <path fill="#a0277e" d="M 302.613281 178.824219 L 350.871094 178.824219 L 350.871094 202.648438 L 302.613281 202.648438 Z M 302.613281 178.824219 " fill-opacity="1" fill-rule="nonzero"/>
    </g>
  </g>
  <g clip-path="url(#334feea387)">
    <path fill="#cc3a86" d="M 326.863 142.832 L 350.871 142.832 L 350.871 192.666 L 326.863 204.797 L 326.863 142.832 Z M 326.863 142.832" fill-opacity="1" fill-rule="nonzero"/>
  </g>
  <g clip-path="url(#fd6ed2d578)">
    <g clip-path="url(#80c77735e0)">
      <path fill="#f4539f" d="M 302.136719 202.21875 L 350.394531 202.21875 L 350.394531 226.042969 L 302.136719 226.042969 Z M 302.136719 202.21875 " fill-opacity="1" fill-rule="nonzero"/>
    </g>
  </g>
  <g clip-path="url(#2d2a0758da)">
    <path fill="#cc3a86" d="M 302.253906 202.21875 L 326.265625 202.21875 L 326.265625 237.941406 L 302.253906 237.941406 Z M 302.253906 202.21875 " fill-opacity="1" fill-rule="nonzero"/>
  </g>
  <g clip-path="url(#d91671742e)">
    <g clip-path="url(#902d560698)">
      <path fill="#a0277e" d="M 302.136719 226.265625 L 350.394531 226.265625 L 350.394531 250.09375 L 302.136719 250.09375 Z M 302.136719 226.265625 " fill-opacity="1" fill-rule="nonzero"/>
    </g>
  </g>
  <g clip-path="url(#3d72b26c7b)">
    <g clip-path="url(#5c822f0efc)">
      <path fill="#cc3a86" d="M 280.15625 284.425781 L 328.414062 284.425781 L 328.414062 308.25 L 280.15625 308.25 Z M 280.15625 284.425781 " fill-opacity="1" fill-rule="nonzero"/>
    </g>
  </g>
  <g clip-path="url(#5235bcc69d)">
    <g clip-path="url(#955ba00ecb)">
      <path fill="#cc3a86" d="M 302.136719 273.707031 L 350.394531 273.707031 L 350.394531 297.53125 L 302.136719 297.53125 Z M 302.136719 273.707031 " fill-opacity="1" fill-rule="nonzero"/>
    </g>
  </g>
  <g clip-path="url(#5a7754c415)"/>
  <g clip-path="url(#1fecbc96c9)">
    <g clip-path="url(#147109d91a)">
      <path fill="#cc3a86" d="M 278.007812 214.355469 L 326.265625 214.355469 L 326.265625 238.179688 L 278.007812 238.179688 Z M 278.007812 214.355469 " fill-opacity="1" fill-rule="nonzero"/>
    </g>
  </g>
  <g clip-path="url(#a51dcf8963)">
    <g clip-path="url(#562a254ab3)">
      <path fill="#f4539f" d="M 278.484375 190.53125 L 326.742188 190.53125 L 326.742188 214.355469 L 278.484375 214.355469 Z M 278.484375 190.53125 " fill-opacity="1" fill-rule="nonzero"/>
    </g>
  </g>
  <g clip-path="url(#981175e90a)">
    <path fill="#cc3a86" d="M 326.265625 226.042969 L 350.273438 226.042969 L 350.273438 250.09375 L 326.265625 250.09375 Z M 326.265625 226.042969 " fill-opacity="1" fill-rule="nonzero"/>
  </g>
  <g clip-path="url(#253752db72)">
    <g clip-path="url(#4dddb6e84f)">
      <path fill="#cc3a86" d="M 254.355469 226.042969 L 302.613281 226.042969 L 302.613281 249.867188 L 254.355469 249.867188 Z M 254.355469 226.042969 " fill-opacity="1" fill-rule="nonzero"/>
    </g>
  </g>
  <g clip-path="url(#9bf7b13e80)">
    <path fill="#cc3a86" d="M 230.586 190.305 L 254.594 190.305 L 262.283 212.572 L 230.586 226.027 L 230.586 190.305 Z M 230.586 190.305" fill-opacity="1" fill-rule="nonzero"/>
  </g>
  <g clip-path="url(#fbd6eff071)">
    <g clip-path="url(#040e69d1cd)"/>
  </g>
  <g clip-path="url(#70a4f27f7d)">
    <path fill="#a0277e" d="M 254.238 214.355 L 278.008 214.355 L 278.008 250.094 L 251.932 238.176 L 254.238 214.355 Z M 254.238 214.355" fill-opacity="1" fill-rule="nonzero"/>
  </g>
  <g clip-path="url(#cd6f18bb7d)">
    <g clip-path="url(#6732cd09d5)">
      <path fill="#f4539f" d="M 254.355469 202.441406 L 302.613281 202.441406 L 302.613281 226.265625 L 254.355469 226.265625 Z M 254.355469 202.441406 " fill-opacity="1" fill-rule="nonzero"/>
    </g>
  </g>
  <g clip-path="url(#9f3ede67fa)">
    <g clip-path="url(#ecb6fe92a2)"/>
  </g>
  <g clip-path="url(#a4a0515954)">
    <g clip-path="url(#8ae91800ec)">
      <path fill="#f4539f" d="M 302.734375 130.921875 L 350.992188 130.921875 L 350.992188 154.746094 L 302.734375 154.746094 Z M 302.734375 130.921875 " fill-opacity="1" fill-rule="nonzero"/>
    </g>
  </g>
  <g clip-path="url(#54ad9cfb9c)">
    <g clip-path="url(#6997d2bbc1)"/>
  </g>
  <g clip-path="url(#5766d16ef0)">
    <g clip-path="url(#852a005355)">
      <path fill="#cc3a86" d="M 254.355469 154.570312 L 302.613281 154.570312 L 302.613281 178.394531 L 254.355469 178.394531 Z M 254.355469 154.570312 " fill-opacity="1" fill-rule="nonzero"/>
    </g>
  </g>
  <g clip-path="url(#084f71d9cb)">
    <g clip-path="url(#7f6c8581a9)">
      <path fill="#cc3a86" d="M 230.707031 166.257812 L 278.964844 166.257812 L 278.964844 190.082031 L 230.707031 190.082031 Z M 230.707031 166.257812 " fill-opacity="1" fill-rule="nonzero"/>
    </g>
  </g>
  <g clip-path="url(#bfb4d9fa35)">
    <path fill="#a0277e" d="M 207.113 190.293 L 230.883 190.293 L 230.883 226.027 L 202.5 211.803 L 207.113 190.293 Z M 207.113 190.293" fill-opacity="1" fill-rule="nonzero"/>
  </g>
  <g clip-path="url(#f258e6ab7f)">
    <g clip-path="url(#d2dea48ac4)"/>
  </g>
  <g clip-path="url(#e3c70f5c9a)">
    <path fill="#a0277e" d="M 230.585938 154.570312 L 254.355469 154.570312 L 254.355469 190.304688 L 230.585938 190.304688 Z M 230.585938 154.570312 " fill-opacity="1" fill-rule="nonzero"/>
  </g>
  <g clip-path="url(#375c669b83)">
    <g clip-path="url(#19c8cfd792)">
      <path fill="#f4539f" d="M 230.707031 142.65625 L 278.964844 142.65625 L 278.964844 166.480469 L 230.707031 166.480469 Z M 230.707031 142.65625 " fill-opacity="1" fill-rule="nonzero"/>
    </g>
  </g>
  <g clip-path="url(#f850feab5d)">
    <g clip-path="url(#5efdbe23aa)">
      <path fill="#cc3a86" d="M 278.246094 142.65625 L 326.503906 142.65625 L 326.503906 166.480469 L 278.246094 166.480469 Z M 278.246094 142.65625 " fill-opacity="1" fill-rule="nonzero"/>
    </g>
  </g>
  <g clip-path="url(#cd889f6019)">
    <path fill="#cc3a86" d="M 286.632812 130.921875 L 327.101562 130.921875 L 327.101562 154.570312 L 286.632812 154.570312 Z M 286.632812 130.921875 " fill-opacity="1" fill-rule="nonzero"/>
  </g>
  <g clip-path="url(#fd742c1ef3)">
    <g clip-path="url(#de7dee34bd)">
      <path fill="#f4539f" d="M 278.722656 118.832031 L 326.980469 118.832031 L 326.980469 142.65625 L 278.722656 142.65625 Z M 278.722656 118.832031 " fill-opacity="1" fill-rule="nonzero"/>
    </g>
  </g>
  <g clip-path="url(#1c0db45533)">
    <g clip-path="url(#76f0267ac2)">
      <path fill="#f4539f" d="M 250.539062 132.890625 L 298.796875 132.890625 L 298.796875 156.714844 L 250.539062 156.714844 Z M 250.539062 132.890625 " fill-opacity="1" fill-rule="nonzero"/>
    </g>
  </g>
  <g clip-path="url(#b800129483)">
    <g clip-path="url(#5c1a1fa910)">
      <path fill="#f4539f" d="M 259.605469 128.359375 L 307.863281 128.359375 L 307.863281 152.183594 L 259.605469 152.183594 Z M 259.605469 128.359375 " fill-opacity="1" fill-rule="nonzero"/>
    </g>
  </g>
  <g clip-path="url(#db94775283)">
    <g clip-path="url(#a34c96a5bf)">
      <path fill="#f4539f" d="M 274.667969 192.40625 L 322.925781 192.40625 L 322.925781 216.230469 L 274.667969 216.230469 Z M 274.667969 192.40625 " fill-opacity="1" fill-rule="nonzero"/>
    </g>
  </g>
  <g clip-path="url(#7ee3f70e56)">
    <g clip-path="url(#491a7949da)">
      <path fill="#cc3a86" d="M 269.300781 289.898438 L 317.558594 289.898438 L 317.558594 313.722656 L 269.300781 313.722656 Z M 269.300781 289.898438 " fill-opacity="1" fill-rule="nonzero"/>
    </g>
  </g>
  <g clip-path="url(#3d2f2600e2)">
    <g clip-path="url(#bf3ef4b698)">
      <path fill="#f4539f" d="M 258.414062 271.546875 L 306.667969 271.546875 L 306.667969 295.371094 L 258.414062 295.371094 Z M 258.414062 271.546875 " fill-opacity="1" fill-rule="nonzero"/>
    </g>
  </g>
  <g clip-path="url(#b165b4a5e9)">
    <g clip-path="url(#8d07d9bae0)">
      <path fill="#f4539f" d="M 206.578125 178.171875 L 254.835938 178.171875 L 254.835938 201.996094 L 206.578125 201.996094 Z M 206.578125 178.171875 " fill-opacity="1" fill-rule="nonzero"/>
    </g>
  </g>
  <g clip-path="url(#394c3900af)">
    <g clip-path="url(#a1e9c1e343)">
      <path fill="#cc3a86" d="M 261.3125 151.183594 L 309.570312 151.183594 L 309.570312 175.007812 L 261.3125 175.007812 Z M 261.3125 151.183594 " fill-opacity="1" fill-rule="nonzero"/>
    </g>
  </g>
  <g clip-path="url(#304144b958)" transform="matrix(1.008762, 0, 0, 1, 0.031497, 0.216583)" style="">
    <path fill="#3c7530" d="M 24.008 263.309 L 48.73 267.75 L 48.73 303.227 C 47.859 303.517 18.808 288.064 18.809 288.064 L 24.008 263.309 Z M 18.918 268.292" fill-opacity="1" fill-rule="nonzero"/>
  </g>
  <g clip-path="url(#69bc226ace)">
    <path fill="#348b1a" d="M 48.019531 267.75 L 72.027344 267.75 L 72.027344 303.226562 L 48.019531 303.226562 Z M 48.019531 267.75 " fill-opacity="1" fill-rule="nonzero"/>
  </g>
  <g clip-path="url(#bacb25b664)">
    <g clip-path="url(#e1f359d562)">
      <path fill="#50d634" d="M 24.007812 255.839844 L 72.027344 255.839844 L 72.027344 279.664062 L 24.007812 279.664062 Z M 24.007812 255.839844 " fill-opacity="1" fill-rule="nonzero"/>
    </g>
  </g>
  <g clip-path="url(#8bae2af8bb)">
    <g clip-path="url(#e400561585)">
      <path fill="#ffd364" d="M 48.019531 291.3125 L 96.035156 291.3125 L 96.035156 315.136719 L 48.019531 315.136719 Z M 48.019531 291.3125 " fill-opacity="1" fill-rule="nonzero"/>
    </g>
  </g>
  <g clip-path="url(#c790bea82d)">
    <g clip-path="url(#9a25941189)"/>
  </g>
  <g clip-path="url(#9d236f6eb0)">
    <path fill="#3c7530" d="M 98.563 173.195 L 122.453 173.195 L 122.453 209.336 L 95.184 195.824 L 98.563 173.195 Z M 98.563 173.195" fill-opacity="1" fill-rule="nonzero"/>
  </g>
  <g clip-path="url(#c2f343e410)">
    <path fill="#3c7530" d="M 88.926 166.25 L 112.816 166.25 L 112.005 204.418 L 87.034 191.31 L 88.926 166.25 Z M 88.926 166.25" fill-opacity="1" fill-rule="nonzero"/>
  </g>
  <g clip-path="url(#0ec3a0a6da)">
    <path fill="#3c7530" d="M 69.844 158.719 L 93.734 158.719 L 93.734 194.859 L 70.519 183.644 L 69.844 158.719 Z M 69.844 158.719" fill-opacity="1" fill-rule="nonzero"/>
  </g>
  <g clip-path="url(#31a02a6a65)">
    <g clip-path="url(#abeda5e209)"/>
  </g>
  <g clip-path="url(#7c1583d67a)">
    <g clip-path="url(#bb7748b4c1)"/>
  </g>
  <g clip-path="url(#63694a8103)">
    <path fill="#348b1a" d="M 47.027344 184.320312 L 72.027344 184.320312 L 72.027344 282.105469 L 47.027344 282.105469 Z M 47.027344 184.320312 " fill-opacity="1" fill-rule="nonzero"/>
  </g>
  <g clip-path="url(#1d815671ff)">
    <path fill="#3c7530" d="M 45.927 279.673 L 72.347 279.673 L 72.658 315.352 L 43.554 300.918 L 45.927 279.673 Z M 45.927 279.673" fill-opacity="1" fill-rule="nonzero" style=""/>
  </g>
  <g clip-path="url(#89cc36d6ae)">
    <path fill="#348b1a" d="M 72.148438 279.664062 L 96.15625 279.664062 L 96.15625 315.136719 L 72.148438 315.136719 Z M 72.148438 279.664062 " fill-opacity="1" fill-rule="nonzero"/>
  </g>
  <g clip-path="url(#3d023e5a56)">
    <path fill="#3c7530" d="M 72.148 291.578 L 98.563 291.578 L 96.803 328.189 L 67.784 313.033 L 72.148 291.578 Z M 72.148 291.578" fill-opacity="1" fill-rule="nonzero"/>
  </g>
  <g clip-path="url(#a951a8dd0a)">
    <path fill="#3c7530" d="M 67.063 285.488 L 91.785 285.488 L 91.785 320.961 L 64.285 310.382 L 67.063 285.488 Z M 67.063 285.488" fill-opacity="1" fill-rule="nonzero"/>
  </g>
  <g clip-path="url(#a05cf9c4f7)">
    <g clip-path="url(#4477ceecf0)">
      <path fill="#50d634" d="M 48.136719 267.75 L 96.15625 267.75 L 96.15625 291.578125 L 48.136719 291.578125 Z M 48.136719 267.75 " fill-opacity="1" fill-rule="nonzero"/>
    </g>
  </g>
  <g clip-path="url(#0785d04713)">
    <path fill="#348b1a" d="M 96.15625 291.578125 L 120.164062 291.578125 L 120.164062 327.050781 L 96.15625 327.050781 Z M 96.15625 291.578125 " fill-opacity="1" fill-rule="nonzero"/>
  </g>
  <g clip-path="url(#fcd905929d)">
    <g clip-path="url(#b608628c7b)">
      <path fill="#ffd364" d="M 96.15625 315.136719 L 144.175781 315.136719 L 144.175781 338.960938 L 96.15625 338.960938 Z M 96.15625 315.136719 " fill-opacity="1" fill-rule="nonzero"/>
    </g>
  </g>
  <g clip-path="url(#abe96d2191)">
    <g clip-path="url(#ab569472a0)"/>
  </g>
  <g clip-path="url(#49efdf67c0)">
    <path fill="#3c7530" d="M 93.852 303.488 L 120.875 303.488 L 120.531 339.167 L 89.568 324.569 L 93.852 303.488 Z M 93.852 303.488" fill-opacity="1" fill-rule="nonzero"/>
  </g>
  <g clip-path="url(#2425d119ea)">
    <path fill="#348b1a" d="M 120.164062 303.488281 L 144.175781 303.488281 L 144.175781 338.960938 L 120.164062 338.960938 Z M 120.164062 303.488281 " fill-opacity="1" fill-rule="nonzero"/>
  </g>
  <g clip-path="url(#5f1e3b3c6f)">
    <g clip-path="url(#bb71491050)">
      <path fill="#50d634" d="M 96.15625 291.578125 L 144.175781 291.578125 L 144.175781 315.402344 L 96.15625 315.402344 Z M 96.15625 291.578125 " fill-opacity="1" fill-rule="nonzero"/>
    </g>
  </g>
  <g clip-path="url(#4f3877a7af)">
    <g clip-path="url(#af15cd5622)">
      <path fill="#ffd364" d="M 120.164062 327.050781 L 168.183594 327.050781 L 168.183594 350.875 L 120.164062 350.875 Z M 120.164062 327.050781 " fill-opacity="1" fill-rule="nonzero"/>
    </g>
  </g>
  <g clip-path="url(#33f9cf0c11)">
    <path fill="#3c7530" d="M 120.047 315.25 L 144.766 315.25 L 144.766 350.727 L 116.816 336.427 L 120.047 315.25 Z M 120.047 315.25" fill-opacity="1" fill-rule="nonzero"/>
  </g>
  <g clip-path="url(#ba8a7c7210)">
    <path fill="#348b1a" d="M 144.055 315.25 L 168.063 315.25 L 164.279 340.006 L 140.271 340.006 L 144.055 315.25 Z M 144.055 315.25" fill-opacity="1" fill-rule="nonzero"/>
  </g>
  <g clip-path="url(#d6933affe5)">
    <g clip-path="url(#04582708ea)">
      <path fill="#50d634" d="M 120.046875 303.339844 L 168.0625 303.339844 L 168.0625 327.164062 L 120.046875 327.164062 Z M 120.046875 303.339844 " fill-opacity="1" fill-rule="nonzero"/>
    </g>
  </g>
  <g clip-path="url(#faa03ed974)">
    <g clip-path="url(#9329de5d14)">
      <path fill="#50d634" d="M 69.722656 278.472656 L 117.742188 278.472656 L 117.742188 302.296875 L 69.722656 302.296875 Z M 69.722656 278.472656 " fill-opacity="1" fill-rule="nonzero"/>
    </g>
  </g>
  <g clip-path="url(#a5ec9f501b)">
    <g clip-path="url(#54a831cf12)">
      <path fill="#50d634" d="M 81.789062 284.296875 L 129.804688 284.296875 L 129.804688 308.121094 L 81.789062 308.121094 Z M 81.789062 284.296875 " fill-opacity="1" fill-rule="nonzero"/>
    </g>
  </g>
  <g clip-path="url(#9c484e6f03)">
    <g clip-path="url(#b64f486831)"/>
  </g>
  <g clip-path="url(#6f45637072)">
    <path fill="#3c7530" d="M 120.164 183.914 L 146.363 183.914 L 146.363 220.055 L 113.948 205.596 L 120.164 183.914 Z M 120.164 183.914" fill-opacity="1" fill-rule="nonzero"/>
  </g>
  <g clip-path="url(#e920bb2380)">
    <path fill="#3c7530" d="M 144.054688 220.054688 L 170.253906 220.054688 L 170.253906 338.960938 L 144.054688 338.960938 Z M 144.054688 220.054688 " fill-opacity="1" fill-rule="nonzero"/>
  </g>
  <g clip-path="url(#e48e6ec42a)">
    <path fill="#348b1a" d="M 168.063 220.055 L 192.074 220.055 L 190.799 322.835 L 168.063 338.961 L 168.063 220.055 Z M 168.063 220.055" fill-opacity="1" fill-rule="nonzero"/>
  </g>
  <g clip-path="url(#e0d8d62814)">
    <g clip-path="url(#a739f2c3c1)">
      <path fill="#348b1a" d="M 120.164062 327.050781 L 168.183594 327.050781 L 168.183594 350.875 L 120.164062 350.875 Z M 120.164062 327.050781 " fill-opacity="1" fill-rule="nonzero"/>
    </g>
  </g>
  <g clip-path="url(#f7f1f023c5)">
    <g clip-path="url(#9a5d151908)"/>
  </g>
  <g clip-path="url(#d93f8500b6)">
    <path fill="#3c7530" d="M 119.766 327.051 L 144.055 327.051 L 144.055 350.875 L 117.092 337.591 L 119.766 327.051 Z M 119.766 327.051" fill-opacity="1" fill-rule="nonzero"/>
  </g>
  <g clip-path="url(#64b6083a03)">
    <path fill="#348b1a" d="M 144.175781 183.914062 L 168.183594 183.914062 L 168.183594 220.054688 L 144.175781 220.054688 Z M 144.175781 183.914062 " fill-opacity="1" fill-rule="nonzero"/>
  </g>
  <g clip-path="url(#d1f01a0a95)">
    <g clip-path="url(#995e16f301)">
      <path fill="#50d634" d="M 144.054688 208.144531 L 192.074219 208.144531 L 192.074219 231.96875 L 144.054688 231.96875 Z M 144.054688 208.144531 " fill-opacity="1" fill-rule="nonzero"/>
    </g>
  </g>
  <g clip-path="url(#eeb30e642f)">
    <path fill="#3c7530" d="M 47.738281 148.179688 L 72.027344 148.179688 L 72.027344 184.320312 L 47.738281 184.320312 Z M 47.738281 148.179688 " fill-opacity="1" fill-rule="nonzero"/>
  </g>
  <g clip-path="url(#5c3e8eebc8)">
    <g clip-path="url(#50e3019fba)">
      <path fill="#3c7530" d="M 47.738281 160.316406 L 95.757812 160.316406 L 95.757812 184.140625 L 47.738281 184.140625 Z M 47.738281 160.316406 " fill-opacity="1" fill-rule="nonzero"/>
    </g>
  </g>
  <g clip-path="url(#c48fb10c43)">
    <g clip-path="url(#a0eda0749d)">
      <path fill="#50d634" d="M 120.046875 171.894531 L 168.0625 171.894531 L 168.0625 195.71875 L 120.046875 195.71875 Z M 120.046875 171.894531 " fill-opacity="1" fill-rule="nonzero"/>
    </g>
  </g>
  <g clip-path="url(#577aeffe94)">
    <g clip-path="url(#fa9da6080d)">
      <path fill="#50d634" d="M 55.414062 140.039062 L 103.433594 140.039062 L 103.433594 163.863281 L 55.414062 163.863281 Z M 55.414062 140.039062 " fill-opacity="1" fill-rule="nonzero"/>
    </g>
  </g>
  <g clip-path="url(#1a3fdda93b)">
    <g clip-path="url(#72c5319113)">
      <path fill="#50d634" d="M 76.863281 150.550781 L 124.878906 150.550781 L 124.878906 174.375 L 76.863281 174.375 Z M 76.863281 150.550781 " fill-opacity="1" fill-rule="nonzero"/>
    </g>
  </g>
  <g clip-path="url(#d3579e0f51)">
    <g clip-path="url(#e634ca19f3)">
      <path fill="#50d634" d="M 100.871094 162.460938 L 148.890625 162.460938 L 148.890625 186.285156 L 100.871094 186.285156 Z M 100.871094 162.460938 " fill-opacity="1" fill-rule="nonzero"/>
    </g>
  </g>
  <g clip-path="url(#7f5f7eb013)">
    <g clip-path="url(#23142ba84e)">
      <path fill="#348b1a" d="M 24.164062 172.226562 L 72.183594 172.226562 L 72.183594 196.054688 L 24.164062 196.054688 Z M 24.164062 172.226562 " fill-opacity="1" fill-rule="nonzero"/>
    </g>
  </g>
  <g clip-path="url(#a8f9364159)">
    <g clip-path="url(#d916157b39)"/>
  </g>
  <g clip-path="url(#a3bda68cc9)">
    <path fill="#3c7530" d="M 24.128906 136.265625 L 50.644531 136.265625 L 50.644531 285.488281 L 24.128906 285.488281 Z M 24.128906 136.265625 " fill-opacity="1" fill-rule="nonzero"/>
  </g>
  <g clip-path="url(#6e1d729632)">
    <g clip-path="url(#de642f2a20)">
      <path fill="#50d634" d="M 24.007812 124.355469 L 72.027344 124.355469 L 72.027344 148.179688 L 24.007812 148.179688 Z M 24.007812 124.355469 " fill-opacity="1" fill-rule="nonzero"/>
    </g>
  </g>
  <g clip-path="url(#6bc96ad3d7)">
    <g clip-path="url(#df05122db1)"/>
  </g>
  <g clip-path="url(#7a661a73af)">
    <g clip-path="url(#6cb3838b34)"/>
  </g>
  <g clip-path="url(#bdd75aaead)">
    <g clip-path="url(#f5a8d8998c)">
      <path fill="#50d634" d="M 90.117188 157.066406 L 138.136719 157.066406 L 138.136719 180.890625 L 90.117188 180.890625 Z M 90.117188 157.066406 " fill-opacity="1" fill-rule="nonzero"/>
    </g>
  </g>
  <g clip-path="url(#3fdc8a8fa6)">
    <g clip-path="url(#3e49d0b839)">
      <path fill="#50d634" d="M 45.835938 135.296875 L 93.851562 135.296875 L 93.851562 159.125 L 45.835938 159.125 Z M 45.835938 135.296875 " fill-opacity="1" fill-rule="nonzero"/>
    </g>
  </g>
</svg>