<!DOCTYPE svg PUBLIC "-//W3C//DTD SVG 1.1//EN" "http://www.w3.org/Graphics/SVG/1.1/DTD/svg11.dtd">
<!-- Uploaded to: SVG Repo, www.svgrepo.com, Transformed by: SVG Repo Mixer Tools -->
<svg width="800px" height="800px" viewBox="-3 0 20 20" version="1.1" xmlns="http://www.w3.org/2000/svg" xmlns:xlink="http://www.w3.org/1999/xlink" fill="#000000">
<g id="SVGRepo_bgCarrier" stroke-width="0"/>
<g id="SVGRepo_tracerCarrier" stroke-linecap="round" stroke-linejoin="round"/>
<g id="SVGRepo_iconCarrier"> <title>pin_sharp_circle [#624]</title> <desc>Created with Sketch.</desc> <defs> </defs> <g id="Page-1" stroke="none" stroke-width="1" fill="none" fill-rule="evenodd"> <g id="Dribbble-Light-Preview" transform="translate(-223.000000, -5439.000000)" fill="#ffffff"> <g id="icons" transform="translate(56.000000, 160.000000)"> <path d="M176,5286.219 C176,5287.324 175.105,5288.219 174,5288.219 C172.895,5288.219 172,5287.324 172,5286.219 C172,5285.114 172.895,5284.219 174,5284.219 C175.105,5284.219 176,5285.114 176,5286.219 M174,5296 C174,5296 169,5289 169,5286 C169,5283.243 171.243,5281 174,5281 C176.757,5281 179,5283.243 179,5286 C179,5289 174,5296 174,5296 M174,5279 C170.134,5279 167,5282.134 167,5286 C167,5289.866 174,5299 174,5299 C174,5299 181,5289.866 181,5286 C181,5282.134 177.866,5279 174,5279" id="pin_sharp_circle-[#624]"> </path> </g> </g> </g> </g>
</svg>