<svg xmlns="http://www.w3.org/2000/svg" xmlns:xlink="http://www.w3.org/1999/xlink" width="1080" zoomAndPan="magnify" viewBox="0 0 810 809.999993" height="1080" preserveAspectRatio="xMidYMid meet" version="1.0"><path fill="#d3c6f6" d="M 94.59375 598.136719 C 112.660156 641.988281 154.953125 662.703125 181.984375 675.941406 C 208.945312 689.140625 239.453125 698.605469 271.875 703.828125 C 302.773438 708.804688 336.542969 697.488281 369.511719 694.332031 C 410.410156 690.414062 450.6875 692.347656 489.898438 674.425781 C 516.980469 662.046875 543.019531 646.132812 567.117188 626.414062 C 594.417969 604.078125 728.96875 487.078125 697.804688 328.824219 C 670.257812 188.921875 531.128906 107.867188 413.914062 97.179688 C 316.804688 88.320312 189.945312 123.746094 145.046875 209.140625 C 116.8125 262.84375 150.664062 279.859375 127.503906 401.503906 C 107.460938 506.789062 72.496094 544.503906 94.59375 598.136719 " fill-opacity="1" fill-rule="nonzero"/><path fill="#121212" d="M 491.636719 673.90625 C 486.183594 633.023438 482.050781 606.546875 482.050781 606.546875 L 309.382812 576.554688 L 292.148438 625.445312 C 286.992188 640.257812 279.921875 662.148438 273.335938 689.082031 C 272.367188 693.0625 271.128906 698.257812 269.988281 703.535156 C 340.265625 715.015625 419.910156 707.238281 491.636719 673.90625 " fill-opacity="1" fill-rule="nonzero"/><path fill="#121212" d="M 273.777344 621.574219 C 269.957031 634.636719 263.96875 652.703125 270.597656 661.378906 C 282.648438 677.140625 292.640625 674.613281 307.511719 669.1875 C 337.253906 658.347656 384.714844 641.21875 398.570312 650.738281 L 399.1875 621.574219 L 273.777344 621.574219 " fill-opacity="1" fill-rule="nonzero"/><path fill="#4b4a7c" d="M 444.328125 341.894531 C 469.027344 341.78125 491.597656 355.75 502.40625 377.8125 C 514.925781 403.378906 532.59375 470.277344 533.285156 499.492188 C 534.492188 550.5625 489.757812 553.441406 488.425781 553.515625 C 488.410156 553.515625 488.398438 553.527344 488.398438 553.546875 C 488.539062 555.023438 493.769531 610.515625 494.179688 620.363281 C 494.9375 638.378906 461.519531 666.492188 423.140625 652.640625 C 384.953125 638.863281 280.625 611.410156 270.03125 634.785156 C 270.015625 634.820312 269.96875 634.804688 269.976562 634.765625 L 313.742188 472.40625 C 313.75 472.382812 313.734375 472.367188 313.714844 472.367188 L 277.789062 474.101562 C 277.785156 474.101562 277.777344 474.101562 277.773438 474.097656 L 248.511719 457.175781 C 248.5 457.167969 248.496094 457.160156 248.5 457.144531 L 255.910156 424.324219 C 269.980469 368.257812 307.640625 342.527344 356.234375 342.304688 L 444.328125 341.894531 " fill-opacity="1" fill-rule="nonzero"/><path fill="#ffffff" d="M 329.117188 467.152344 C 322.402344 465.910156 324.242188 458.128906 300.644531 456.71875 C 232.5625 452.664062 265.558594 418.09375 304.558594 424.679688 C 317.484375 426.863281 322.570312 435.226562 327.433594 437.347656 C 368.242188 455.152344 342.503906 469.625 329.117188 467.152344 " fill-opacity="1" fill-rule="nonzero"/><path fill="#121212" d="M 329.320312 466.058594 C 336.152344 467.320312 346.386719 463.832031 348.140625 458.105469 C 349.199219 454.640625 347.859375 447.472656 326.988281 438.363281 C 325.277344 437.621094 323.617188 436.230469 321.699219 434.621094 C 317.753906 431.316406 312.84375 427.207031 304.375 425.777344 C 286.476562 422.753906 269.96875 428.523438 264.347656 435.84375 C 262.976562 437.625 261.628906 440.375 262.992188 443.359375 C 264.402344 446.453125 270.902344 453.835938 300.710938 455.613281 C 316.917969 456.578125 321.460938 460.535156 324.785156 463.421875 C 326.308594 464.746094 327.410156 465.707031 329.320312 466.058594 Z M 332.40625 468.546875 C 331.199219 468.546875 330.023438 468.449219 328.917969 468.246094 C 326.410156 467.777344 324.910156 466.480469 323.324219 465.097656 C 320.246094 462.417969 316.027344 458.75 300.582031 457.828125 C 278.421875 456.507812 264.355469 451.699219 260.96875 444.285156 C 259.53125 441.125 260.085938 437.738281 262.585938 434.488281 C 268.609375 426.644531 286.023438 420.425781 304.746094 423.585938 C 313.808594 425.113281 319.191406 429.625 323.125 432.917969 C 324.914062 434.417969 326.460938 435.707031 327.878906 436.328125 C 349.207031 445.636719 351.824219 453.660156 350.261719 458.753906 C 348.40625 464.8125 339.808594 468.546875 332.40625 468.546875 " fill-opacity="1" fill-rule="nonzero"/><path fill="#ffffff" d="M 414.832031 351.449219 C 417.101562 349.511719 415.898438 345.796875 412.925781 345.441406 L 408.308594 344.882812 C 403.347656 344.285156 399.210938 340.988281 397.601562 336.421875 L 389.996094 280.261719 L 374.398438 285.839844 L 353.765625 275.636719 L 355.609375 335.644531 C 355.460938 340.875 352.046875 345.5 347 347.304688 L 340.96875 349.460938 C 337.796875 350.59375 337.648438 354.898438 340.726562 356.238281 C 353.003906 361.589844 402.929688 361.636719 414.832031 351.449219 " fill-opacity="1" fill-rule="nonzero"/><path fill="#121212" d="M 354.929688 277.453125 L 356.714844 335.613281 C 356.554688 341.40625 352.886719 346.378906 347.375 348.351562 L 341.34375 350.507812 C 340.109375 350.949219 339.640625 351.992188 339.613281 352.820312 C 339.582031 353.644531 339.976562 354.707031 341.167969 355.222656 C 347.058594 357.792969 362.15625 359.167969 377.878906 358.5625 C 395.53125 357.886719 409.078125 354.914062 414.105469 350.609375 C 414.808594 350.011719 415.070312 349.121094 414.796875 348.226562 C 414.578125 347.503906 413.933594 346.683594 412.792969 346.542969 L 408.175781 345.988281 C 402.78125 345.335938 398.328125 341.8125 396.550781 336.796875 C 396.527344 336.726562 396.507812 336.648438 396.496094 336.574219 L 389.078125 281.773438 L 374.773438 286.886719 C 374.488281 286.988281 374.175781 286.972656 373.90625 286.839844 Z M 370.660156 360.925781 C 357.40625 360.925781 345.5 359.535156 340.28125 357.261719 C 338.433594 356.457031 337.324219 354.722656 337.390625 352.746094 C 337.460938 350.757812 338.691406 349.097656 340.597656 348.417969 L 346.625 346.261719 C 351.273438 344.597656 354.359375 340.417969 354.5 335.617188 L 352.648438 275.671875 C 352.636719 275.28125 352.832031 274.914062 353.160156 274.703125 C 353.488281 274.492188 353.90625 274.46875 354.253906 274.640625 L 374.46875 284.636719 L 389.621094 279.21875 C 389.933594 279.105469 390.285156 279.140625 390.570312 279.316406 C 390.859375 279.492188 391.050781 279.78125 391.09375 280.117188 L 398.683594 336.160156 C 400.199219 340.320312 403.929688 343.238281 408.441406 343.78125 L 413.058594 344.335938 C 414.902344 344.558594 416.386719 345.804688 416.917969 347.582031 C 417.449219 349.316406 416.917969 351.121094 415.550781 352.300781 C 407.765625 358.957031 386.671875 360.453125 377.960938 360.785156 C 375.507812 360.875 373.058594 360.925781 370.660156 360.925781 " fill-opacity="1" fill-rule="nonzero"/><path fill="#ffffff" d="M 396.910156 235.605469 C 423.492188 245.390625 418.921875 262.589844 418.921875 262.589844 C 418.589844 267.320312 418.398438 275.984375 419.28125 279.125 C 420.003906 281.714844 424.253906 286.589844 424.457031 288.027344 C 424.660156 289.46875 422.359375 292.421875 417.757812 293.46875 C 417.757812 293.46875 416.011719 316.453125 409.984375 320.21875 C 403.960938 323.984375 380.761719 316.753906 380.761719 316.753906 L 376.855469 315.195312 C 364.285156 310.152344 356.601562 299.667969 352.941406 286.691406 C 352.941406 286.691406 336.015625 213.183594 396.910156 235.605469 " fill-opacity="1" fill-rule="nonzero"/><path fill="#121212" d="M 381.132812 315.710938 C 387.484375 317.683594 404.820312 322.144531 409.398438 319.28125 C 413.949219 316.433594 416.175781 299.625 416.648438 293.386719 C 416.6875 292.902344 417.035156 292.496094 417.507812 292.390625 C 421.804688 291.414062 423.445312 288.832031 423.359375 288.1875 C 423.265625 287.730469 422.1875 286.15625 421.402344 285.007812 C 420.050781 283.035156 418.648438 280.992188 418.210938 279.425781 C 417.167969 275.714844 417.570312 265.960938 417.8125 262.511719 C 417.816406 262.445312 417.828125 262.375 417.84375 262.304688 C 418.015625 261.648438 421.757812 245.941406 396.53125 236.652344 C 380.539062 230.765625 368.664062 231.09375 361.242188 237.636719 C 346.078125 250.988281 353.941406 286.089844 354.023438 286.445312 C 357.84375 300 365.886719 309.601562 377.265625 314.164062 Z M 404.300781 322.410156 C 395.492188 322.410156 382.296875 318.402344 380.425781 317.824219 C 380.398438 317.808594 380.375 317.800781 380.34375 317.789062 L 376.4375 316.226562 C 364.398438 311.398438 355.902344 301.289062 351.871094 286.996094 C 351.511719 285.449219 343.617188 250.195312 359.769531 235.96875 C 367.851562 228.847656 380.480469 228.375 397.292969 234.566406 C 423.316406 244.144531 420.371094 261.125 420.023438 262.753906 C 419.675781 267.746094 419.550781 275.980469 420.347656 278.824219 C 420.6875 280.039062 422.101562 282.097656 423.234375 283.757812 C 424.632812 285.792969 425.429688 286.992188 425.554688 287.875 C 425.859375 290.019531 423.183594 293.085938 418.800781 294.351562 C 418.402344 298.917969 416.441406 317.496094 410.574219 321.164062 C 409.140625 322.058594 406.914062 322.410156 404.300781 322.410156 " fill-opacity="1" fill-rule="nonzero"/><path fill="#121212" d="M 388.160156 223.164062 C 395.148438 224.867188 401.980469 229.226562 405.589844 229.617188 C 411.410156 230.238281 415.613281 222.761719 422.96875 225.480469 C 429.433594 227.863281 433.070312 233.363281 433.988281 239.570312 C 434.144531 240.601562 434.1875 241.699219 434.085938 242.863281 C 432.71875 258.550781 422.902344 261.882812 418.921875 262.589844 C 418.921875 262.589844 395.84375 260.457031 391.339844 261.546875 C 387.136719 262.570312 380.625 269.121094 378.667969 278.433594 C 378.410156 279.632812 377.359375 280.511719 376.128906 280.605469 C 374.6875 280.710938 373.382812 279.722656 373.136719 278.304688 C 372.367188 273.832031 370.257812 264.890625 365.71875 264.625 C 360.421875 264.320312 353.679688 274.789062 360.597656 281.351562 C 362.730469 283.371094 362.023438 287.046875 359.296875 288.148438 C 357.027344 289.058594 354.1875 289.113281 351.121094 286.625 C 351.121094 286.625 337.453125 262.675781 343.972656 242.460938 C 350.488281 222.246094 378.867188 220.894531 388.160156 223.164062 " fill-opacity="1" fill-rule="nonzero"/><path fill="#121212" d="M 425.269531 287.421875 C 424.96875 287.421875 424.671875 287.304688 424.453125 287.066406 C 424.035156 286.617188 424.0625 285.914062 424.515625 285.496094 C 426.140625 283.984375 427.324219 280.597656 427.515625 276.871094 C 427.652344 274.1875 427.285156 271.664062 426.476562 269.753906 C 425.792969 268.128906 424.871094 267.171875 423.953125 267.125 C 423.929688 267.125 423.902344 267.125 423.878906 267.125 C 422.222656 267.125 420.449219 269.925781 419.730469 273.707031 C 419.613281 274.308594 419.035156 274.699219 418.429688 274.585938 C 417.828125 274.472656 417.429688 273.894531 417.546875 273.289062 C 418.53125 268.125 421.148438 264.769531 424.066406 264.90625 C 425.894531 265 427.476562 266.414062 428.523438 268.890625 C 429.460938 271.097656 429.890625 273.976562 429.734375 276.980469 C 429.507812 281.324219 428.085938 285.210938 426.023438 287.125 C 425.8125 287.324219 425.539062 287.421875 425.269531 287.421875 " fill-opacity="1" fill-rule="nonzero"/><path fill="#121212" d="M 407.839844 266.796875 C 404.78125 266.796875 402.003906 271.164062 401.730469 276.464844 C 401.589844 279.21875 402.109375 281.824219 403.199219 283.804688 C 404.199219 285.613281 405.539062 286.648438 406.976562 286.722656 C 410.105469 286.871094 412.96875 282.453125 413.25 277.054688 C 413.390625 274.304688 412.871094 271.695312 411.78125 269.71875 C 410.78125 267.910156 409.445312 266.875 408.007812 266.800781 C 407.949219 266.800781 407.894531 266.796875 407.839844 266.796875 Z M 407.144531 288.949219 C 407.050781 288.949219 406.953125 288.945312 406.863281 288.941406 C 404.628906 288.824219 402.636719 287.382812 401.25 284.878906 C 399.964844 282.539062 399.347656 279.515625 399.507812 276.355469 C 399.863281 269.523438 403.652344 264.335938 408.117188 264.582031 C 410.355469 264.695312 412.34375 266.136719 413.722656 268.648438 C 415.011719 270.980469 415.632812 274.007812 415.46875 277.167969 C 415.121094 283.855469 411.496094 288.949219 407.144531 288.949219 " fill-opacity="1" fill-rule="nonzero"/><path fill="#121212" d="M 401.441406 272.644531 C 401.40625 272.644531 401.375 272.644531 401.339844 272.640625 L 375.980469 270.371094 C 375.375 270.320312 374.917969 269.777344 374.976562 269.164062 C 375.03125 268.554688 375.574219 268.097656 376.183594 268.15625 L 401.539062 270.425781 C 402.148438 270.484375 402.601562 271.023438 402.546875 271.632812 C 402.496094 272.210938 402.011719 272.644531 401.441406 272.644531 " fill-opacity="1" fill-rule="nonzero"/><path fill="#4b4a7c" d="M 413.933594 188.238281 L 425.480469 217.722656 C 430.144531 229.824219 413.804688 247.289062 388.980469 256.726562 C 364.15625 266.167969 340.253906 264.011719 335.589844 251.90625 L 324.042969 222.425781 L 413.933594 188.238281 " fill-opacity="1" fill-rule="nonzero"/><path fill="#121212" d="M 325.488281 223.0625 L 336.625 251.503906 C 341.0625 263.023438 364.375 264.898438 388.589844 255.691406 C 405.382812 249.304688 419.132812 238.667969 423.628906 228.597656 C 425.355469 224.730469 425.632812 221.207031 424.445312 218.121094 L 413.300781 189.664062 Z M 359.625 263.722656 C 357.910156 263.722656 356.242188 263.652344 354.628906 263.503906 C 344.101562 262.554688 336.972656 258.578125 334.550781 252.308594 L 323.011719 222.832031 C 322.902344 222.554688 322.90625 222.246094 323.027344 221.972656 C 323.148438 221.703125 323.375 221.492188 323.648438 221.386719 L 413.535156 187.195312 C 414.105469 186.984375 414.746094 187.261719 414.96875 187.832031 L 426.515625 217.320312 C 427.925781 220.976562 427.636719 225.074219 425.660156 229.503906 C 420.867188 240.25 406.964844 251.082031 389.375 257.769531 C 379.136719 261.664062 368.765625 263.722656 359.625 263.722656 " fill-opacity="1" fill-rule="nonzero"/><path fill="#8572b7" d="M 318.078125 214.402344 L 356.644531 177.296875 C 357.390625 176.65625 358.34375 176.296875 359.328125 176.277344 L 412.980469 178.308594 L 431.335938 171.328125 L 434.75 180.191406 C 434.960938 180.746094 434.863281 181.417969 434.328125 181.878906 L 379.554688 228.738281 C 378.808594 229.382812 377.859375 229.742188 376.867188 229.761719 L 304.59375 231.21875 C 303.882812 231.238281 303.355469 230.796875 303.144531 230.242188 L 299.726562 221.382812 L 318.078125 214.402344 " fill-opacity="1" fill-rule="nonzero"/><path fill="#121212" d="M 318.078125 214.402344 L 318.089844 214.402344 Z M 301.164062 222.023438 L 304.179688 229.847656 C 304.21875 229.945312 304.320312 230.109375 304.5625 230.109375 C 304.5625 230.109375 304.566406 230.109375 304.570312 230.109375 L 376.84375 228.65625 C 377.570312 228.636719 378.28125 228.375 378.832031 227.902344 L 433.601562 181.039062 C 433.789062 180.878906 433.75 180.691406 433.710938 180.59375 L 430.695312 172.757812 L 413.375 179.347656 C 413.238281 179.402344 413.082031 179.429688 412.9375 179.417969 L 359.285156 177.386719 C 358.625 177.402344 357.914062 177.671875 357.363281 178.144531 L 318.851562 215.203125 C 318.742188 215.308594 318.617188 215.386719 318.476562 215.441406 Z M 304.5625 232.332031 C 303.460938 232.332031 302.503906 231.675781 302.105469 230.644531 L 298.691406 221.78125 C 298.582031 221.507812 298.589844 221.199219 298.710938 220.929688 C 298.832031 220.664062 299.054688 220.449219 299.332031 220.347656 L 317.472656 213.449219 L 355.875 176.5 C 356.863281 175.648438 358.066406 175.1875 359.304688 175.164062 L 412.796875 177.191406 L 430.9375 170.289062 C 431.507812 170.074219 432.148438 170.359375 432.367188 170.929688 L 435.785156 179.792969 C 436.191406 180.84375 435.902344 181.996094 435.046875 182.726562 L 380.277344 229.585938 C 379.332031 230.394531 378.128906 230.851562 376.894531 230.875 L 304.617188 232.332031 C 304.597656 232.332031 304.578125 232.332031 304.5625 232.332031 " fill-opacity="1" fill-rule="nonzero"/><path fill="#4b4a7c" d="M 300.148438 219.695312 L 354.917969 172.835938 C 355.667969 172.191406 356.617188 171.832031 357.605469 171.8125 L 429.878906 170.355469 C 431.300781 170.328125 431.988281 172.097656 430.910156 173.023438 L 376.136719 219.882812 C 375.390625 220.527344 374.4375 220.886719 373.453125 220.90625 L 301.175781 222.363281 C 299.753906 222.390625 299.070312 220.617188 300.148438 219.695312 " fill-opacity="1" fill-rule="nonzero"/><path fill="#121212" d="M 300.871094 220.535156 C 300.695312 220.6875 300.714844 220.859375 300.761719 220.980469 C 300.800781 221.085938 300.882812 221.269531 301.15625 221.25 L 373.429688 219.796875 C 374.15625 219.777344 374.863281 219.511719 375.417969 219.035156 L 430.1875 172.175781 C 430.359375 172.027344 430.339844 171.851562 430.292969 171.730469 C 430.257812 171.632812 430.167969 171.453125 429.902344 171.460938 L 357.628906 172.921875 C 356.898438 172.9375 356.195312 173.207031 355.640625 173.675781 Z M 301.144531 223.472656 C 300.042969 223.472656 299.082031 222.8125 298.6875 221.773438 C 298.285156 220.722656 298.578125 219.578125 299.425781 218.847656 L 354.195312 171.988281 C 355.136719 171.179688 356.34375 170.726562 357.582031 170.703125 L 429.855469 169.242188 C 430.988281 169.246094 431.972656 169.882812 432.375 170.941406 C 432.769531 171.988281 432.480469 173.136719 431.628906 173.867188 L 376.859375 220.726562 C 375.917969 221.53125 374.714844 221.992188 373.472656 222.015625 L 301.199219 223.472656 C 301.179688 223.472656 301.164062 223.472656 301.144531 223.472656 " fill-opacity="1" fill-rule="nonzero"/><path fill="#8572b7" d="M 333.933594 248.125 C 335.28125 248.089844 336.429688 249.109375 336.554688 250.453125 L 340.15625 288.351562 L 329.820312 288.617188 L 331.441406 250.585938 C 331.5 249.234375 332.589844 248.160156 333.933594 248.125 " fill-opacity="1" fill-rule="nonzero"/><path fill="#121212" d="M 334.003906 249.234375 C 333.992188 249.234375 333.980469 249.234375 333.964844 249.234375 C 333.207031 249.253906 332.585938 249.867188 332.558594 250.628906 L 330.984375 287.476562 L 338.9375 287.269531 L 335.453125 250.558594 C 335.382812 249.808594 334.75 249.234375 334.003906 249.234375 Z M 329.820312 289.726562 C 329.527344 289.726562 329.242188 289.609375 329.03125 289.394531 C 328.816406 289.171875 328.703125 288.878906 328.714844 288.570312 L 330.335938 250.535156 C 330.417969 248.613281 331.988281 247.0625 333.910156 247.011719 C 333.941406 247.011719 333.972656 247.011719 334.003906 247.011719 C 335.882812 247.011719 337.480469 248.460938 337.660156 250.34375 L 341.261719 288.246094 C 341.289062 288.550781 341.195312 288.855469 340.984375 289.089844 C 340.78125 289.316406 340.492188 289.453125 340.183594 289.460938 L 329.851562 289.726562 C 329.84375 289.726562 329.832031 289.726562 329.820312 289.726562 " fill-opacity="1" fill-rule="nonzero"/><path fill="#121212" d="M 334.402344 248.90625 C 333.796875 248.90625 333.300781 248.421875 333.292969 247.8125 L 332.910156 221.886719 C 332.902344 221.566406 333.039062 221.253906 333.285156 221.039062 L 364.164062 193.886719 C 364.625 193.480469 365.324219 193.523438 365.730469 193.984375 C 366.132812 194.445312 366.089844 195.148438 365.632812 195.550781 L 335.140625 222.371094 L 335.515625 247.78125 C 335.519531 248.394531 335.03125 248.898438 334.421875 248.90625 C 334.414062 248.90625 334.40625 248.90625 334.402344 248.90625 " fill-opacity="1" fill-rule="nonzero"/><path fill="#ffffff" d="M 361.019531 382.421875 C 361.019531 382.421875 370.890625 397.914062 379.785156 395.175781 C 384.457031 393.738281 389.015625 378.464844 390.882812 377.921875 C 396.84375 376.1875 408.199219 373.351562 415.167969 360.898438 C 421.679688 349.265625 420.265625 343.050781 418.585938 340.199219 C 417.808594 338.882812 417.824219 337.25 418.679688 335.984375 C 419.925781 334.148438 421.128906 331.367188 419.875 328.5 C 419.433594 327.496094 419.476562 326.347656 419.90625 325.339844 C 421.566406 321.484375 424.625 312.621094 418.667969 310.875 C 417.058594 310.402344 415.3125 311.007812 414.332031 312.359375 C 412.441406 314.96875 408.496094 319.882812 403.613281 322.988281 C 396.714844 327.378906 392.578125 330.378906 389.113281 332.355469 C 386.144531 334.046875 384.578125 319.226562 377.441406 313.660156 C 371.109375 308.714844 368.953125 311.21875 368.316406 313.539062 C 367.6875 315.859375 371.605469 316.78125 373.839844 327.828125 C 376.457031 340.753906 373.726562 351.636719 372.929688 357.457031 C 372 364.277344 361.019531 382.421875 361.019531 382.421875 " fill-opacity="1" fill-rule="nonzero"/><path fill="#121212" d="M 362.332031 382.390625 C 364.175781 385.070312 372.382812 396.289062 379.457031 394.113281 C 381.84375 393.382812 384.730469 387.175781 386.636719 383.074219 C 388.578125 378.898438 389.410156 377.195312 390.570312 376.855469 L 391.324219 376.636719 C 397.460938 374.871094 407.734375 371.910156 414.199219 360.351562 C 420.542969 349.027344 419.066406 343.214844 417.628906 340.757812 C 416.617188 339.042969 416.667969 336.972656 417.757812 335.363281 C 418.84375 333.765625 419.910156 331.351562 418.855469 328.949219 C 418.308594 327.699219 418.320312 326.222656 418.886719 324.902344 C 420.992188 320.003906 421.609375 315.945312 420.589844 313.769531 C 420.15625 312.851562 419.425781 312.253906 418.355469 311.941406 C 417.199219 311.601562 415.941406 312.035156 415.230469 313.015625 C 413.273438 315.714844 409.234375 320.726562 404.207031 323.925781 C 401.210938 325.832031 398.761719 327.460938 396.601562 328.894531 C 393.835938 330.730469 391.648438 332.1875 389.664062 333.316406 C 389.128906 333.621094 388.554688 333.679688 387.996094 333.484375 C 386.480469 332.949219 385.566406 330.617188 384.183594 327.085938 C 382.570312 322.976562 380.363281 317.347656 376.757812 314.535156 C 373.230469 311.78125 371.496094 311.773438 370.777344 312.015625 C 369.964844 312.285156 369.574219 313.152344 369.390625 313.832031 C 369.28125 314.230469 369.511719 314.625 370.246094 315.738281 C 371.476562 317.601562 373.535156 320.722656 374.929688 327.609375 C 377.167969 338.644531 375.582031 348.144531 374.53125 354.429688 C 374.335938 355.609375 374.15625 356.671875 374.03125 357.605469 C 373.167969 363.941406 364.289062 379.105469 362.332031 382.390625 Z M 377.613281 396.609375 C 368.855469 396.609375 360.464844 383.625 360.078125 383.019531 C 359.851562 382.664062 359.847656 382.210938 360.066406 381.847656 C 360.175781 381.667969 370.941406 363.820312 371.828125 357.304688 C 371.957031 356.355469 372.140625 355.269531 372.339844 354.0625 C 373.363281 347.941406 374.90625 338.6875 372.753906 328.046875 C 371.445312 321.585938 369.535156 318.691406 368.390625 316.964844 C 367.539062 315.667969 366.863281 314.648438 367.246094 313.246094 C 367.710938 311.546875 368.714844 310.359375 370.078125 309.90625 C 372.132812 309.21875 374.765625 310.164062 378.128906 312.78125 C 382.210938 315.96875 384.542969 321.925781 386.25 326.273438 C 387.007812 328.210938 388.035156 330.832031 388.65625 331.335938 C 390.558594 330.246094 392.6875 328.828125 395.375 327.042969 C 397.539062 325.605469 399.996094 323.972656 403.019531 322.050781 C 407.730469 319.050781 411.566406 314.285156 413.429688 311.707031 C 414.695312 309.96875 416.921875 309.207031 418.984375 309.808594 C 420.671875 310.308594 421.890625 311.320312 422.597656 312.824219 C 424.371094 316.585938 422.3125 322.554688 420.929688 325.777344 C 420.601562 326.539062 420.589844 327.367188 420.894531 328.054688 C 422.050781 330.695312 421.605469 333.648438 419.597656 336.609375 C 418.992188 337.5 418.972656 338.664062 419.542969 339.632812 C 421.601562 343.132812 422.679688 349.757812 416.140625 361.441406 C 409.226562 373.789062 397.980469 377.03125 391.9375 378.773438 L 391.300781 378.957031 C 390.765625 379.457031 389.597656 381.976562 388.652344 384.007812 C 385.699219 390.355469 383.199219 395.289062 380.113281 396.238281 C 379.277344 396.496094 378.445312 396.609375 377.613281 396.609375 " fill-opacity="1" fill-rule="nonzero"/><path fill="#4b4a7c" d="M 393.554688 389.277344 L 363.652344 370.222656 C 363.652344 370.222656 323.226562 435.585938 292.613281 457.769531 C 277.707031 468.570312 248.792969 455.871094 248.792969 455.871094 C 248.792969 455.871094 221.035156 562.554688 274.613281 577.800781 C 363.867188 603.207031 393.554688 389.277344 393.554688 389.277344 " fill-opacity="1" fill-rule="nonzero"/><path fill="#d3c6f6" d="M 483.496094 555.90625 C 468.59375 555.90625 450.070312 550.746094 428.308594 540.515625 C 402.265625 528.28125 379.902344 512.691406 368.890625 504.492188 C 368.398438 504.125 368.296875 503.425781 368.664062 502.9375 C 369.03125 502.445312 369.726562 502.34375 370.21875 502.707031 C 404.605469 528.324219 456.488281 556.964844 489.527344 553.371094 C 490.136719 553.304688 490.6875 553.746094 490.753906 554.351562 C 490.820312 554.964844 490.378906 555.511719 489.769531 555.578125 C 487.753906 555.796875 485.664062 555.90625 483.496094 555.90625 " fill-opacity="1" fill-rule="nonzero"/><path fill="#d3c6f6" d="M 438.214844 473.707031 C 419.578125 473.707031 385.171875 457.601562 383.574219 456.84375 C 383.015625 456.582031 382.78125 455.921875 383.039062 455.367188 C 383.300781 454.808594 383.96875 454.574219 384.519531 454.835938 C 384.945312 455.035156 427.234375 474.839844 442.878906 471.003906 C 469.246094 464.546875 462.988281 430.800781 462.921875 430.464844 C 462.804688 429.859375 463.195312 429.277344 463.800781 429.160156 C 464.40625 429.039062 464.988281 429.433594 465.105469 430.035156 C 465.175781 430.394531 471.808594 466.210938 443.40625 473.164062 C 441.882812 473.539062 440.132812 473.707031 438.214844 473.707031 " fill-opacity="1" fill-rule="nonzero"/><path fill="#d3c6f6" d="M 289.992188 461.984375 C 289.652344 461.984375 289.320312 461.832031 289.101562 461.539062 C 288.734375 461.046875 288.832031 460.351562 289.324219 459.984375 C 321.554688 435.894531 361.503906 369.789062 361.90625 369.125 C 362.21875 368.597656 362.902344 368.429688 363.429688 368.746094 C 363.957031 369.0625 364.125 369.742188 363.808594 370.269531 C 363.40625 370.9375 323.234375 437.410156 290.65625 461.761719 C 290.457031 461.914062 290.222656 461.984375 289.992188 461.984375 " fill-opacity="1" fill-rule="nonzero"/><path fill="#d3c6f6" d="M 287.402344 582.050781 C 286.253906 582.050781 285.101562 582 283.949219 581.898438 C 283.335938 581.84375 282.882812 581.308594 282.9375 580.699219 C 282.988281 580.085938 283.523438 579.636719 284.140625 579.6875 C 300.320312 581.082031 316.050781 572.050781 330.925781 552.84375 C 342.953125 537.3125 354.417969 515.164062 365 487.019531 C 381.851562 442.203125 391.089844 396.144531 392.316406 389.808594 L 379.921875 381.910156 C 379.402344 381.582031 379.25 380.898438 379.578125 380.378906 C 379.90625 379.859375 380.597656 379.710938 381.113281 380.039062 L 394.148438 388.339844 C 394.53125 388.582031 394.730469 389.035156 394.644531 389.480469 C 394.550781 389.976562 385.207031 439.582031 367.089844 487.78125 C 356.425781 516.136719 344.855469 538.484375 332.6875 554.195312 C 318.367188 572.695312 303.148438 582.050781 287.402344 582.050781 " fill-opacity="1" fill-rule="nonzero"/><path fill="#ffffff" d="M 167.214844 270.257812 C 167.417969 290.726562 150.945312 308.011719 130.421875 308.867188 C 109.898438 309.722656 93.101562 293.828125 92.898438 273.355469 C 92.699219 252.890625 109.171875 235.605469 129.691406 234.746094 C 150.214844 233.890625 167.015625 249.789062 167.214844 270.257812 " fill-opacity="1" fill-rule="nonzero"/><path fill="#121212" d="M 128.789062 311.183594 C 118.851562 311.1875 109.539062 307.511719 102.402344 300.734375 C 94.902344 293.609375 90.714844 283.910156 90.613281 273.421875 C 90.398438 251.742188 107.90625 233.371094 129.636719 232.464844 C 142.765625 231.921875 155.070312 237.898438 162.542969 248.464844 C 162.894531 248.964844 162.777344 249.65625 162.277344 250.011719 C 161.777344 250.367188 161.082031 250.246094 160.726562 249.746094 C 153.691406 239.800781 142.109375 234.167969 129.730469 234.6875 C 109.183594 235.542969 92.632812 252.90625 92.835938 273.398438 C 92.929688 283.28125 96.875 292.417969 103.933594 299.121094 C 111.03125 305.863281 120.425781 309.347656 130.386719 308.929688 C 150.933594 308.070312 167.480469 290.707031 167.28125 270.21875 C 167.273438 269.605469 167.769531 269.101562 168.378906 269.097656 C 168.382812 269.097656 168.386719 269.097656 168.390625 269.097656 C 169 269.097656 169.496094 269.585938 169.503906 270.195312 C 169.714844 291.875 152.210938 310.242188 130.480469 311.152344 C 129.914062 311.171875 129.351562 311.183594 128.789062 311.183594 " fill-opacity="1" fill-rule="nonzero"/><path fill="#4b4a7c" d="M 127.398438 294.011719 L 127.347656 288.867188 C 123.710938 288.855469 120.171875 288.03125 118.101562 286.925781 L 119.664062 280.523438 C 121.957031 281.671875 125.171875 282.679688 128.699219 282.53125 C 131.789062 282.402344 133.894531 281.121094 133.875 278.957031 C 133.855469 276.902344 132.105469 275.675781 128.074219 274.488281 C 122.25 272.785156 118.261719 270.242188 118.210938 264.992188 C 118.164062 260.230469 121.492188 256.355469 127.285156 254.976562 L 127.234375 249.835938 L 132.554688 249.613281 L 132.601562 254.375 C 136.238281 254.382812 138.6875 255.042969 140.488281 255.832031 L 138.972656 262.015625 C 137.558594 261.480469 135.046875 260.335938 131.140625 260.5 C 127.613281 260.648438 126.488281 262.210938 126.503906 263.722656 C 126.519531 265.511719 128.429688 266.570312 133.0625 268.109375 C 139.542969 270.113281 142.175781 272.980469 142.222656 277.851562 C 142.269531 282.667969 138.890625 286.925781 132.660156 288.265625 L 132.714844 293.785156 L 127.398438 294.011719 " fill-opacity="1" fill-rule="nonzero"/><path fill="#8572b7" d="M 215.96875 405.433594 L 108.324219 405.433594 C 101.863281 405.433594 97.03125 399.546875 98.332031 393.257812 L 114.664062 314.40625 C 116.035156 307.777344 121.914062 303.015625 128.726562 303.015625 L 221.058594 303.015625 L 215.96875 405.433594 " fill-opacity="1" fill-rule="nonzero"/><path fill="#121212" d="M 128.730469 304.128906 C 122.46875 304.128906 117.011719 308.542969 115.75 314.632812 L 99.417969 393.484375 C 98.871094 396.136719 99.539062 398.867188 101.253906 400.972656 C 102.988281 403.101562 105.566406 404.324219 108.324219 404.324219 L 214.910156 404.324219 L 219.890625 304.128906 Z M 215.96875 406.546875 L 108.324219 406.546875 C 104.894531 406.546875 101.6875 405.027344 99.53125 402.371094 C 97.390625 399.746094 96.558594 396.339844 97.246094 393.035156 L 113.574219 314.183594 C 115.046875 307.070312 121.421875 301.90625 128.730469 301.90625 L 221.058594 301.90625 C 221.359375 301.90625 221.652344 302.03125 221.863281 302.25 C 222.070312 302.472656 222.183594 302.769531 222.167969 303.070312 L 217.074219 405.488281 C 217.046875 406.082031 216.558594 406.546875 215.96875 406.546875 " fill-opacity="1" fill-rule="nonzero"/><path fill="#4b4a7c" d="M 229.75 405.433594 L 208.859375 405.433594 C 202.398438 405.433594 197.5625 399.546875 198.867188 393.257812 L 216.851562 306.410156 C 217.261719 304.433594 219.011719 303.015625 221.039062 303.015625 L 226.414062 303.015625 C 228.640625 303.015625 230.492188 304.714844 230.675781 306.917969 L 238.03125 396.507812 C 238.425781 401.316406 234.605469 405.433594 229.75 405.433594 " fill-opacity="1" fill-rule="nonzero"/><path fill="#121212" d="M 221.039062 304.128906 C 219.542969 304.128906 218.242188 305.183594 217.941406 306.632812 L 199.953125 393.484375 C 199.402344 396.136719 200.074219 398.867188 201.785156 400.972656 C 203.519531 403.101562 206.097656 404.324219 208.859375 404.324219 L 229.75 404.324219 C 231.792969 404.324219 233.683594 403.5 235.0625 402 C 236.429688 400.519531 237.089844 398.601562 236.925781 396.597656 L 229.566406 307.007812 C 229.433594 305.394531 228.046875 304.128906 226.414062 304.128906 Z M 229.75 406.546875 L 208.859375 406.546875 C 205.429688 406.546875 202.222656 405.027344 200.0625 402.371094 C 197.925781 399.746094 197.09375 396.339844 197.777344 393.035156 L 215.765625 306.183594 C 216.277344 303.707031 218.496094 301.90625 221.039062 301.90625 L 226.414062 301.90625 C 229.195312 301.90625 231.554688 304.070312 231.78125 306.828125 L 239.140625 396.414062 C 239.351562 399.003906 238.460938 401.589844 236.695312 403.503906 C 234.917969 405.4375 232.382812 406.546875 229.75 406.546875 " fill-opacity="1" fill-rule="nonzero"/><path fill="#121212" d="M 196.300781 345.519531 L 117.023438 345.519531 C 116.40625 345.519531 115.910156 345.023438 115.910156 344.410156 C 115.910156 343.792969 116.40625 343.296875 117.023438 343.296875 L 196.300781 343.296875 C 198.296875 343.296875 200.007812 341.953125 200.46875 340.03125 L 207.894531 308.878906 C 208.039062 308.28125 208.636719 307.914062 209.234375 308.058594 C 209.832031 308.199219 210.199219 308.796875 210.054688 309.394531 L 202.628906 340.546875 C 201.929688 343.476562 199.328125 345.519531 196.300781 345.519531 " fill-opacity="1" fill-rule="nonzero"/><path fill="#ffffff" d="M 168.945312 344.410156 L 167.226562 353.867188 C 166.84375 355.46875 165.402344 356.597656 163.75 356.597656 L 147.058594 356.597656 C 145.238281 356.597656 143.921875 354.875 144.410156 353.136719 L 146.214844 344.410156 L 168.945312 344.410156 " fill-opacity="1" fill-rule="nonzero"/><path fill="#121212" d="M 147.117188 345.519531 L 145.5 353.363281 C 145.492188 353.386719 145.488281 353.410156 145.480469 353.4375 C 145.34375 353.925781 145.441406 354.4375 145.746094 354.839844 C 146.058594 355.25 146.539062 355.488281 147.058594 355.488281 L 163.75 355.488281 C 164.898438 355.488281 165.878906 354.714844 166.144531 353.609375 L 167.613281 345.519531 Z M 163.75 357.710938 L 147.058594 357.710938 C 145.835938 357.710938 144.710938 357.152344 143.976562 356.183594 C 143.253906 355.230469 143.019531 354.027344 143.328125 352.878906 L 145.125 344.183594 C 145.230469 343.667969 145.6875 343.296875 146.214844 343.296875 L 168.945312 343.296875 C 169.273438 343.296875 169.585938 343.445312 169.796875 343.695312 C 170.007812 343.949219 170.09375 344.285156 170.039062 344.605469 L 168.320312 354.066406 C 167.800781 356.234375 165.929688 357.710938 163.75 357.710938 " fill-opacity="1" fill-rule="nonzero"/><path fill="#121212" d="M 190.695312 398.625 L 107.457031 398.625 C 106.84375 398.625 106.34375 398.128906 106.34375 397.515625 C 106.34375 396.902344 106.84375 396.402344 107.457031 396.402344 L 190.695312 396.402344 C 191.308594 396.402344 191.804688 396.902344 191.804688 397.515625 C 191.804688 398.128906 191.308594 398.625 190.695312 398.625 " fill-opacity="1" fill-rule="nonzero"/><path fill="#4b4a7c" d="M 150.710938 297.90625 L 142.34375 297.90625 C 139.421875 297.90625 138.925781 300.957031 138.925781 302.835938 L 154.128906 302.835938 C 154.128906 300.957031 153.632812 297.90625 150.710938 297.90625 " fill-opacity="1" fill-rule="nonzero"/><path fill="#121212" d="M 140.097656 301.722656 L 152.957031 301.722656 C 152.785156 300.316406 152.21875 299.015625 150.710938 299.015625 L 142.34375 299.015625 C 140.832031 299.015625 140.265625 300.316406 140.097656 301.722656 Z M 154.128906 303.945312 L 138.921875 303.945312 C 138.308594 303.945312 137.8125 303.445312 137.8125 302.835938 C 137.8125 299.054688 139.507812 296.796875 142.34375 296.796875 L 150.710938 296.796875 C 153.546875 296.796875 155.238281 299.054688 155.238281 302.835938 C 155.238281 303.445312 154.742188 303.945312 154.128906 303.945312 " fill-opacity="1" fill-rule="nonzero"/><path fill="#4b4a7c" d="M 206.007812 297.90625 L 197.667969 297.90625 C 194.394531 297.90625 194.246094 300.957031 194.246094 302.835938 L 209.425781 302.835938 C 209.425781 300.957031 209.078125 297.90625 206.007812 297.90625 " fill-opacity="1" fill-rule="nonzero"/><path fill="#121212" d="M 195.398438 301.722656 L 208.261719 301.722656 C 207.976562 299.015625 206.625 299.015625 206.007812 299.015625 L 197.667969 299.015625 C 196.207031 299.015625 195.554688 299.75 195.398438 301.722656 Z M 209.425781 303.945312 L 194.246094 303.945312 C 193.632812 303.945312 193.136719 303.445312 193.136719 302.835938 C 193.136719 301.339844 193.136719 296.796875 197.667969 296.796875 L 206.007812 296.796875 C 207.699219 296.796875 210.539062 297.582031 210.539062 302.835938 C 210.539062 303.445312 210.039062 303.945312 209.425781 303.945312 " fill-opacity="1" fill-rule="nonzero"/><path fill="#ffffff" d="M 204.699219 297.726562 L 205.824219 291.078125 C 206.625 286.367188 203.425781 282.035156 198.679688 282.035156 L 154.601562 282.035156 C 149.855469 282.035156 145.363281 286.367188 144.566406 291.078125 L 143.4375 297.726562 L 149.882812 297.726562 L 150.757812 292.550781 C 151.378906 288.882812 154.875 286.421875 158.566406 286.421875 L 194.113281 286.421875 C 198.3125 286.421875 200.296875 288.882812 199.671875 292.550781 L 198.796875 297.726562 L 204.699219 297.726562 " fill-opacity="1" fill-rule="nonzero"/><path fill="#121212" d="M 200.113281 296.613281 L 203.761719 296.613281 L 204.730469 290.894531 C 205.082031 288.820312 204.554688 286.765625 203.28125 285.257812 C 202.128906 283.894531 200.496094 283.148438 198.679688 283.148438 L 154.601562 283.148438 C 150.570312 283.148438 146.394531 286.9375 145.660156 291.261719 L 144.753906 296.613281 L 148.941406 296.613281 L 149.660156 292.363281 C 150.34375 288.347656 154.171875 285.3125 158.570312 285.3125 L 194.113281 285.3125 C 196.519531 285.3125 198.414062 286.050781 199.601562 287.453125 C 200.722656 288.785156 201.128906 290.613281 200.769531 292.738281 Z M 204.699219 298.832031 L 198.796875 298.832031 C 198.46875 298.832031 198.160156 298.691406 197.949219 298.441406 C 197.738281 298.191406 197.648438 297.859375 197.699219 297.535156 L 198.578125 292.363281 C 198.75 291.347656 198.773438 289.917969 197.902344 288.886719 C 197.152344 288.003906 195.84375 287.53125 194.113281 287.53125 L 158.570312 287.53125 C 155.242188 287.53125 152.355469 289.769531 151.851562 292.738281 L 150.976562 297.910156 C 150.886719 298.445312 150.421875 298.832031 149.882812 298.832031 L 143.4375 298.832031 C 143.113281 298.832031 142.800781 298.691406 142.589844 298.441406 C 142.378906 298.191406 142.289062 297.859375 142.34375 297.535156 L 143.46875 290.894531 C 144.386719 285.492188 149.484375 280.925781 154.601562 280.925781 L 198.679688 280.925781 C 201.160156 280.925781 203.398438 281.957031 204.980469 283.824219 C 206.671875 285.828125 207.378906 288.542969 206.917969 291.261719 L 205.792969 297.910156 C 205.703125 298.445312 205.238281 298.832031 204.699219 298.832031 " fill-opacity="1" fill-rule="nonzero"/><path fill="#8572b7" d="M 196.085938 279.796875 L 159.273438 279.796875 C 157.789062 279.796875 156.382812 280.992188 156.132812 282.460938 L 155.589844 285.660156 C 155.34375 287.128906 156.339844 288.324219 157.824219 288.324219 L 194.640625 288.324219 C 196.121094 288.324219 197.527344 287.128906 197.777344 285.660156 L 198.320312 282.460938 C 198.566406 280.992188 197.570312 279.796875 196.085938 279.796875 " fill-opacity="1" fill-rule="nonzero"/><path fill="#121212" d="M 159.273438 280.90625 C 158.324219 280.90625 157.386719 281.703125 157.226562 282.644531 L 156.6875 285.84375 C 156.621094 286.234375 156.699219 286.582031 156.914062 286.835938 C 157.121094 287.082031 157.445312 287.214844 157.824219 287.214844 L 194.640625 287.214844 C 195.585938 287.214844 196.523438 286.414062 196.683594 285.46875 L 197.222656 282.277344 C 197.289062 281.886719 197.210938 281.535156 196.996094 281.289062 C 196.789062 281.042969 196.464844 280.90625 196.085938 280.90625 Z M 194.640625 289.4375 L 157.824219 289.4375 C 156.78125 289.4375 155.851562 289.019531 155.214844 288.269531 C 154.585938 287.519531 154.324219 286.5 154.496094 285.46875 L 155.039062 282.277344 C 155.378906 280.261719 157.238281 278.683594 159.273438 278.683594 L 196.085938 278.683594 C 197.132812 278.683594 198.058594 279.101562 198.695312 279.855469 C 199.328125 280.601562 199.589844 281.621094 199.414062 282.644531 L 198.871094 285.84375 C 198.53125 287.859375 196.671875 289.4375 194.640625 289.4375 " fill-opacity="1" fill-rule="nonzero"/><path fill="#8572b7" d="M 208.664062 398.625 C 208.273438 398.625 207.898438 398.425781 207.695312 398.0625 C 207.394531 397.527344 207.582031 396.847656 208.113281 396.546875 L 221.980469 388.699219 L 221.980469 309.136719 C 221.980469 308.523438 222.476562 308.027344 223.089844 308.027344 C 223.707031 308.027344 224.203125 308.523438 224.203125 309.136719 L 224.203125 389.347656 C 224.203125 389.746094 223.988281 390.117188 223.636719 390.3125 L 209.207031 398.480469 C 209.035156 398.578125 208.847656 398.625 208.664062 398.625 " fill-opacity="1" fill-rule="nonzero"/><path fill="#ffffff" d="M 688.273438 425.730469 L 573.019531 425.730469 C 571.589844 425.730469 570.425781 424.570312 570.425781 423.136719 L 570.425781 346.382812 C 570.425781 344.945312 571.589844 343.789062 573.019531 343.789062 L 688.273438 343.789062 C 689.703125 343.789062 690.867188 344.945312 690.867188 346.382812 L 690.867188 423.136719 C 690.867188 424.570312 689.703125 425.730469 688.273438 425.730469 " fill-opacity="1" fill-rule="nonzero"/><path fill="#121212" d="M 685.515625 426.734375 L 670.390625 426.734375 C 669.78125 426.734375 669.285156 426.234375 669.285156 425.625 C 669.285156 425.011719 669.78125 424.511719 670.390625 424.511719 L 685.515625 424.511719 C 688.066406 424.511719 690.144531 422.453125 690.144531 419.917969 L 690.144531 349.296875 C 690.144531 346.761719 688.066406 344.703125 685.515625 344.703125 L 580.945312 344.703125 C 580.332031 344.703125 579.835938 344.207031 579.835938 343.59375 C 579.835938 342.976562 580.332031 342.484375 580.945312 342.484375 L 685.515625 342.484375 C 689.292969 342.484375 692.367188 345.539062 692.367188 349.296875 L 692.367188 419.917969 C 692.367188 423.679688 689.292969 426.734375 685.515625 426.734375 " fill-opacity="1" fill-rule="nonzero"/><path fill="#121212" d="M 614.527344 426.734375 L 576.5625 426.734375 C 572.785156 426.734375 569.707031 423.675781 569.707031 419.917969 L 569.707031 388.484375 C 569.707031 387.867188 570.199219 387.375 570.816406 387.375 C 571.429688 387.375 571.929688 387.867188 571.929688 388.484375 L 571.929688 419.917969 C 571.929688 422.449219 574.003906 424.511719 576.5625 424.511719 L 614.527344 424.511719 C 615.140625 424.511719 615.636719 425.007812 615.636719 425.625 C 615.636719 426.234375 615.140625 426.734375 614.527344 426.734375 " fill-opacity="1" fill-rule="nonzero"/><path fill="#121212" d="M 631.039062 416.140625 C 630.425781 416.140625 629.929688 415.640625 629.929688 415.027344 L 629.929688 355.292969 C 629.929688 354.675781 630.425781 354.179688 631.039062 354.179688 C 631.65625 354.179688 632.152344 354.675781 632.152344 355.292969 L 632.152344 415.027344 C 632.152344 415.640625 631.65625 416.140625 631.039062 416.140625 " fill-opacity="1" fill-rule="nonzero"/><path fill="#121212" d="M 627.265625 359.722656 L 631.035156 355.945312 L 634.800781 359.722656 L 634.800781 356.519531 L 631.035156 352.753906 L 627.265625 356.519531 L 627.265625 359.722656 " fill-opacity="1" fill-rule="nonzero"/><path fill="#121212" d="M 676.214844 392.054688 L 583.320312 392.054688 C 582.710938 392.054688 582.210938 391.554688 582.210938 390.9375 C 582.210938 390.332031 582.710938 389.832031 583.320312 389.832031 L 676.214844 389.832031 C 676.828125 389.832031 677.324219 390.332031 677.324219 390.9375 C 677.324219 391.554688 676.828125 392.054688 676.214844 392.054688 " fill-opacity="1" fill-rule="nonzero"/><path fill="#121212" d="M 671.789062 394.710938 L 675.558594 390.941406 L 671.789062 387.175781 L 674.988281 387.175781 L 678.753906 390.941406 L 674.988281 394.710938 L 671.789062 394.710938 " fill-opacity="1" fill-rule="nonzero"/><path fill="#4b4a7c" d="M 631.25 412.019531 C 620.09375 412.019531 611.015625 403 611.015625 391.910156 L 611.015625 380.644531 C 611.015625 370.785156 602.933594 362.761719 593 362.761719 L 583.324219 362.761719 C 582.710938 362.761719 582.214844 362.265625 582.214844 361.648438 C 582.214844 361.035156 582.710938 360.535156 583.324219 360.535156 L 593 360.535156 C 604.15625 360.535156 613.234375 369.558594 613.234375 380.644531 L 613.234375 391.910156 C 613.234375 401.773438 621.316406 409.796875 631.25 409.796875 C 641.1875 409.796875 649.265625 401.773438 649.265625 391.910156 L 649.265625 380.644531 C 649.265625 369.558594 658.34375 360.535156 669.5 360.535156 L 675.175781 360.535156 C 675.789062 360.535156 676.285156 361.035156 676.285156 361.648438 C 676.285156 362.265625 675.789062 362.761719 675.175781 362.761719 L 669.5 362.761719 C 659.570312 362.761719 651.488281 370.785156 651.488281 380.644531 L 651.488281 391.910156 C 651.488281 403 642.40625 412.019531 631.25 412.019531 " fill-opacity="1" fill-rule="nonzero"/><path fill="#4b4a7c" d="M 538.191406 377.421875 L 588.253906 377.421875 L 538.191406 326.128906 Z M 590.886719 379.640625 L 537.078125 379.640625 C 536.46875 379.640625 535.972656 379.144531 535.972656 378.535156 L 535.972656 323.398438 C 535.972656 322.945312 536.246094 322.539062 536.660156 322.367188 C 537.078125 322.199219 537.558594 322.300781 537.875 322.621094 L 591.683594 377.753906 C 591.992188 378.074219 592.085938 378.546875 591.914062 378.960938 C 591.738281 379.378906 591.335938 379.640625 590.886719 379.640625 " fill-opacity="1" fill-rule="nonzero"/><path fill="#4b4a7c" d="M 542.152344 378.53125 C 542.152344 381.320312 539.878906 383.578125 537.074219 383.578125 C 534.269531 383.578125 532 381.320312 532 378.53125 C 532 375.746094 534.269531 373.492188 537.074219 373.492188 C 539.878906 373.492188 542.152344 375.746094 542.152344 378.53125 " fill-opacity="1" fill-rule="nonzero"/><path fill="#121212" d="M 537.082031 374.597656 C 534.894531 374.597656 533.113281 376.363281 533.113281 378.53125 C 533.113281 380.695312 534.894531 382.460938 537.082031 382.460938 C 539.269531 382.460938 541.050781 380.695312 541.050781 378.53125 C 541.050781 376.363281 539.269531 374.597656 537.082031 374.597656 Z M 537.082031 384.683594 C 533.667969 384.683594 530.894531 381.925781 530.894531 378.53125 C 530.894531 375.136719 533.667969 372.375 537.082031 372.375 C 540.496094 372.375 543.269531 375.136719 543.269531 378.53125 C 543.269531 381.925781 540.496094 384.683594 537.082031 384.683594 " fill-opacity="1" fill-rule="nonzero"/><path fill="#4b4a7c" d="M 595.964844 378.53125 C 595.964844 381.316406 593.691406 383.574219 590.886719 383.574219 C 588.082031 383.574219 585.8125 381.316406 585.8125 378.53125 C 585.8125 375.746094 588.082031 373.492188 590.886719 373.492188 C 593.691406 373.492188 595.964844 375.746094 595.964844 378.53125 " fill-opacity="1" fill-rule="nonzero"/><path fill="#121212" d="M 590.886719 374.601562 C 588.699219 374.601562 586.914062 376.367188 586.914062 378.535156 C 586.914062 380.699219 588.699219 382.460938 590.886719 382.460938 C 593.070312 382.460938 594.855469 380.699219 594.855469 378.535156 C 594.855469 376.367188 593.070312 374.601562 590.886719 374.601562 Z M 590.886719 384.6875 C 587.476562 384.6875 584.699219 381.925781 584.699219 378.535156 C 584.699219 375.136719 587.476562 372.378906 590.886719 372.378906 C 594.296875 372.378906 597.078125 375.136719 597.078125 378.535156 C 597.078125 381.925781 594.296875 384.6875 590.886719 384.6875 " fill-opacity="1" fill-rule="nonzero"/><path fill="#4b4a7c" d="M 542.152344 323.398438 C 542.152344 326.1875 539.878906 328.445312 537.074219 328.445312 C 534.269531 328.445312 532 326.1875 532 323.398438 C 532 320.613281 534.269531 318.359375 537.074219 318.359375 C 539.878906 318.359375 542.152344 320.613281 542.152344 323.398438 " fill-opacity="1" fill-rule="nonzero"/><path fill="#121212" d="M 537.082031 319.464844 C 534.894531 319.464844 533.113281 321.226562 533.113281 323.394531 C 533.113281 325.566406 534.894531 327.324219 537.082031 327.324219 C 539.269531 327.324219 541.050781 325.566406 541.050781 323.394531 C 541.050781 321.226562 539.269531 319.464844 537.082031 319.464844 Z M 537.082031 329.550781 C 533.667969 329.550781 530.894531 326.789062 530.894531 323.394531 C 530.894531 320.003906 533.667969 317.238281 537.082031 317.238281 C 540.496094 317.238281 543.269531 320.003906 543.269531 323.394531 C 543.269531 326.789062 540.496094 329.550781 537.082031 329.550781 " fill-opacity="1" fill-rule="nonzero"/><path fill="#ffffff" d="M 629.988281 243.355469 L 537.734375 243.355469 C 535.9375 243.355469 534.476562 241.894531 534.476562 240.09375 L 534.476562 147.496094 C 534.476562 145.695312 535.9375 144.234375 537.734375 144.234375 L 629.988281 144.234375 C 631.792969 144.234375 633.253906 145.695312 633.253906 147.496094 L 633.253906 240.09375 C 633.253906 241.894531 631.792969 243.355469 629.988281 243.355469 " fill-opacity="1" fill-rule="nonzero"/><path fill="#121212" d="M 541.667969 145.34375 C 538.3125 145.34375 535.585938 148.074219 535.585938 151.425781 L 535.585938 236.160156 C 535.585938 239.515625 538.3125 242.246094 541.667969 242.246094 L 626.058594 242.246094 C 629.410156 242.246094 632.140625 239.515625 632.140625 236.160156 L 632.140625 151.425781 C 632.140625 148.074219 629.410156 145.34375 626.058594 145.34375 Z M 626.058594 244.464844 L 541.667969 244.464844 C 537.089844 244.464844 533.363281 240.738281 533.363281 236.160156 L 533.363281 151.425781 C 533.363281 146.847656 537.089844 143.121094 541.667969 143.121094 L 626.058594 143.121094 C 630.636719 143.121094 634.359375 146.847656 634.359375 151.425781 L 634.359375 236.160156 C 634.359375 240.738281 630.636719 244.464844 626.058594 244.464844 " fill-opacity="1" fill-rule="nonzero"/><path fill="#8572b7" d="M 547.398438 209.871094 C 546.976562 209.871094 546.570312 209.625 546.382812 209.210938 C 546.132812 208.652344 546.382812 207.992188 546.949219 207.742188 C 580.914062 192.546875 606.964844 171.117188 620.023438 156.125 C 620.421875 155.664062 621.125 155.613281 621.589844 156.019531 C 622.050781 156.417969 622.101562 157.121094 621.695312 157.585938 C 608.488281 172.753906 582.148438 194.429688 547.851562 209.773438 C 547.703125 209.835938 547.550781 209.871094 547.398438 209.871094 " fill-opacity="1" fill-rule="nonzero"/><path fill="#8572b7" d="M 621.546875 163.921875 C 621.539062 163.921875 621.539062 163.921875 621.535156 163.921875 C 620.917969 163.917969 620.425781 163.414062 620.433594 162.796875 L 620.503906 156.660156 L 614 156.460938 C 613.386719 156.441406 612.90625 155.933594 612.925781 155.316406 C 612.945312 154.703125 613.453125 154.191406 614.074219 154.238281 L 621.660156 154.472656 C 622.269531 154.492188 622.746094 154.992188 622.738281 155.597656 L 622.652344 162.828125 C 622.648438 163.433594 622.152344 163.921875 621.546875 163.921875 " fill-opacity="1" fill-rule="nonzero"/><path fill="#d3c6f6" d="M 555.140625 232.949219 L 548.511719 232.949219 C 547.472656 232.949219 546.632812 232.109375 546.632812 231.070312 L 546.632812 221.644531 C 546.632812 220.609375 547.472656 219.769531 548.511719 219.769531 L 555.140625 219.769531 C 556.175781 219.769531 557.015625 220.609375 557.015625 221.644531 L 557.015625 231.070312 C 557.015625 232.109375 556.175781 232.949219 555.140625 232.949219 " fill-opacity="1" fill-rule="nonzero"/><path fill="#d3c6f6" d="M 576.765625 232.949219 L 570.136719 232.949219 C 569.101562 232.949219 568.261719 232.109375 568.261719 231.074219 L 568.261719 209.976562 C 568.261719 208.941406 569.101562 208.101562 570.136719 208.101562 L 576.765625 208.101562 C 577.796875 208.101562 578.640625 208.941406 578.640625 209.976562 L 578.640625 231.074219 C 578.640625 232.109375 577.796875 232.949219 576.765625 232.949219 " fill-opacity="1" fill-rule="nonzero"/><path fill="#d3c6f6" d="M 598.394531 232.945312 L 591.765625 232.945312 C 590.726562 232.945312 589.886719 232.109375 589.886719 231.070312 L 589.886719 197.46875 C 589.886719 196.429688 590.726562 195.59375 591.765625 195.59375 L 598.394531 195.59375 C 599.433594 195.59375 600.269531 196.429688 600.269531 197.46875 L 600.269531 231.070312 C 600.269531 232.109375 599.433594 232.945312 598.394531 232.945312 " fill-opacity="1" fill-rule="nonzero"/><path fill="#8572b7" d="M 620.023438 232.945312 L 613.394531 232.945312 C 612.359375 232.945312 611.519531 232.105469 611.519531 231.066406 L 611.519531 181.316406 C 611.519531 180.277344 612.359375 179.441406 613.394531 179.441406 L 620.023438 179.441406 C 621.058594 179.441406 621.898438 180.277344 621.898438 181.316406 L 621.898438 231.066406 C 621.898438 232.105469 621.058594 232.945312 620.023438 232.945312 " fill-opacity="1" fill-rule="nonzero"/><path fill="#ffffff" d="M 535.464844 168.664062 C 523.269531 168.664062 513.386719 158.847656 513.386719 146.738281 C 513.386719 134.628906 523.269531 124.8125 535.464844 124.8125 C 547.652344 124.8125 557.535156 134.628906 557.535156 146.738281 C 557.535156 158.847656 547.652344 168.664062 535.464844 168.664062 Z M 577.925781 137.457031 C 577.851562 136.941406 577.429688 136.546875 576.910156 136.507812 L 569.398438 135.898438 C 568.957031 135.863281 568.585938 135.566406 568.445312 135.160156 C 567.957031 133.769531 567.378906 132.421875 566.730469 131.132812 C 566.53125 130.742188 566.574219 130.277344 566.859375 129.941406 L 571.621094 124.140625 C 571.953125 123.742188 571.957031 123.167969 571.636719 122.761719 L 567.570312 117.597656 C 567.246094 117.1875 566.6875 117.054688 566.214844 117.273438 L 559.398438 120.484375 C 559 120.671875 558.539062 120.605469 558.199219 120.324219 C 557.085938 119.375 555.917969 118.496094 554.691406 117.699219 C 554.324219 117.457031 554.132812 117.03125 554.203125 116.601562 L 555.410156 109.199219 C 555.5 108.6875 555.210938 108.191406 554.726562 107.996094 L 548.609375 105.542969 C 548.125 105.351562 547.570312 105.519531 547.273438 105.941406 L 542.996094 112.097656 C 542.738281 112.460938 542.304688 112.632812 541.875 112.550781 C 540.445312 112.289062 538.988281 112.113281 537.511719 112.03125 C 537.070312 112.003906 536.683594 111.734375 536.53125 111.328125 L 533.859375 104.320312 C 533.671875 103.832031 533.175781 103.542969 532.660156 103.613281 L 526.128906 104.535156 C 525.605469 104.605469 525.214844 105.023438 525.175781 105.539062 L 524.558594 113.011719 C 524.523438 113.449219 524.230469 113.8125 523.8125 113.960938 C 522.417969 114.445312 521.066406 115.011719 519.761719 115.660156 C 519.371094 115.855469 518.90625 115.8125 518.566406 115.535156 L 512.734375 110.800781 C 512.328125 110.476562 511.75 110.46875 511.339844 110.789062 L 506.140625 114.832031 C 505.730469 115.148438 505.601562 115.707031 505.824219 116.175781 L 509.050781 122.953125 C 509.238281 123.347656 509.171875 123.808594 508.882812 124.140625 C 507.929688 125.246094 507.054688 126.414062 506.246094 127.628906 C 506.003906 127.996094 505.578125 128.191406 505.140625 128.121094 L 497.695312 126.914062 C 497.183594 126.832031 496.679688 127.113281 496.484375 127.59375 L 494.019531 133.679688 C 493.824219 134.160156 493.992188 134.707031 494.417969 135.003906 L 500.609375 139.257812 C 500.972656 139.507812 501.144531 139.941406 501.066406 140.371094 C 500.800781 141.789062 500.625 143.242188 500.542969 144.710938 C 500.519531 145.144531 500.242188 145.53125 499.832031 145.683594 L 492.78125 148.339844 C 492.292969 148.523438 492.003906 149.019531 492.074219 149.53125 L 492.996094 156.027344 C 493.070312 156.539062 493.492188 156.933594 494.011719 156.972656 L 501.523438 157.582031 C 501.960938 157.617188 502.332031 157.910156 502.480469 158.324219 C 502.964844 159.710938 503.539062 161.054688 504.191406 162.347656 C 504.390625 162.738281 504.34375 163.199219 504.066406 163.539062 L 499.296875 169.335938 C 498.976562 169.738281 498.964844 170.3125 499.28125 170.71875 L 503.355469 175.882812 C 503.675781 176.289062 504.242188 176.421875 504.707031 176.203125 L 511.527344 172.992188 C 511.921875 172.808594 512.390625 172.875 512.722656 173.160156 C 513.835938 174.101562 515.007812 174.980469 516.230469 175.785156 C 516.597656 176.019531 516.792969 176.449219 516.722656 176.878906 L 515.507812 184.28125 C 515.429688 184.789062 515.710938 185.289062 516.191406 185.484375 L 522.3125 187.933594 C 522.792969 188.125 523.351562 187.964844 523.644531 187.535156 L 527.933594 181.378906 C 528.179688 181.023438 528.613281 180.851562 529.042969 180.929688 C 530.480469 181.195312 531.933594 181.367188 533.410156 181.449219 C 533.847656 181.472656 534.238281 181.746094 534.390625 182.15625 L 537.0625 189.164062 C 537.25 189.644531 537.742188 189.941406 538.265625 189.863281 L 544.796875 188.945312 C 545.3125 188.871094 545.707031 188.453125 545.75 187.941406 L 546.359375 180.472656 C 546.398438 180.035156 546.691406 179.667969 547.105469 179.523438 C 548.503906 179.035156 549.855469 178.464844 551.160156 177.816406 C 551.550781 177.621094 552.019531 177.664062 552.359375 177.945312 L 558.1875 182.675781 C 558.59375 183 559.171875 183.011719 559.578125 182.691406 L 564.777344 178.648438 C 565.1875 178.328125 565.320312 177.773438 565.097656 177.304688 L 561.871094 170.527344 C 561.683594 170.132812 561.746094 169.671875 562.035156 169.339844 C 562.988281 168.234375 563.867188 167.0625 564.675781 165.847656 C 564.914062 165.484375 565.34375 165.292969 565.777344 165.363281 L 573.222656 166.5625 C 573.738281 166.644531 574.242188 166.363281 574.433594 165.886719 L 576.90625 159.800781 C 577.097656 159.320312 576.929688 158.769531 576.503906 158.480469 L 570.308594 154.21875 C 569.949219 153.972656 569.773438 153.539062 569.851562 153.109375 C 570.121094 151.6875 570.292969 150.234375 570.378906 148.769531 C 570.40625 148.335938 570.679688 147.953125 571.09375 147.796875 L 578.140625 145.136719 C 578.625 144.957031 578.917969 144.460938 578.851562 143.945312 L 577.925781 137.457031 " fill-opacity="1" fill-rule="nonzero"/><path fill="#121212" d="M 535.460938 125.921875 C 523.898438 125.921875 514.5 135.261719 514.5 146.742188 C 514.5 158.21875 523.898438 167.554688 535.460938 167.554688 C 547.019531 167.554688 556.425781 158.21875 556.425781 146.742188 C 556.425781 135.261719 547.019531 125.921875 535.460938 125.921875 Z M 535.460938 169.777344 C 522.679688 169.777344 512.273438 159.441406 512.273438 146.742188 C 512.273438 134.039062 522.679688 123.703125 535.460938 123.703125 C 548.246094 123.703125 558.644531 134.039062 558.644531 146.742188 C 558.644531 159.441406 548.246094 169.777344 535.460938 169.777344 Z M 576.820312 137.609375 Z M 528.839844 179.800781 C 528.980469 179.800781 529.109375 179.8125 529.246094 179.835938 C 530.621094 180.09375 532.042969 180.261719 533.476562 180.339844 C 534.347656 180.386719 535.117188 180.945312 535.425781 181.757812 L 538.097656 188.765625 L 544.636719 187.84375 L 545.257812 180.378906 C 545.328125 179.507812 545.914062 178.761719 546.738281 178.476562 C 548.09375 178.003906 549.410156 177.445312 550.660156 176.824219 C 551.445312 176.433594 552.386719 176.535156 553.058594 177.078125 L 558.886719 181.816406 L 564.09375 177.773438 L 560.867188 171.003906 C 560.492188 170.21875 560.621094 169.277344 561.191406 168.617188 C 562.113281 167.542969 562.972656 166.40625 563.75 165.238281 C 564.230469 164.507812 565.097656 164.128906 565.953125 164.265625 L 573.402344 165.464844 L 575.871094 159.382812 L 569.679688 155.136719 C 568.964844 154.644531 568.601562 153.769531 568.765625 152.910156 C 569.019531 151.542969 569.1875 150.128906 569.273438 148.707031 C 569.320312 147.828125 569.882812 147.0625 570.699219 146.753906 L 577.746094 144.101562 L 576.824219 137.617188 L 569.308594 137.007812 C 568.441406 136.9375 567.691406 136.355469 567.394531 135.53125 C 566.921875 134.1875 566.367188 132.882812 565.738281 131.632812 C 565.339844 130.847656 565.445312 129.90625 565.996094 129.238281 L 570.761719 123.4375 L 566.695312 118.28125 L 559.867188 121.492188 C 559.085938 121.859375 558.148438 121.738281 557.484375 121.164062 C 556.40625 120.25 555.261719 119.398438 554.082031 118.625 C 553.347656 118.144531 552.964844 117.277344 553.105469 116.421875 L 554.316406 109.023438 L 548.195312 106.578125 L 543.902344 112.734375 C 543.410156 113.445312 542.535156 113.796875 541.671875 113.644531 C 540.300781 113.390625 538.878906 113.21875 537.445312 113.140625 C 536.570312 113.09375 535.800781 112.535156 535.492188 111.722656 L 532.816406 104.714844 L 526.277344 105.632812 L 525.664062 113.101562 C 525.589844 113.972656 525.011719 114.71875 524.179688 115.007812 C 522.828125 115.480469 521.507812 116.03125 520.257812 116.65625 C 519.476562 117.042969 518.535156 116.941406 517.863281 116.398438 L 512.035156 111.664062 L 506.824219 115.710938 L 510.054688 122.476562 C 510.429688 123.265625 510.296875 124.203125 509.726562 124.867188 C 508.808594 125.933594 507.945312 127.074219 507.171875 128.246094 C 506.683594 128.976562 505.824219 129.355469 504.960938 129.214844 L 497.523438 128.011719 L 495.042969 134.101562 L 501.238281 138.34375 C 501.957031 138.839844 502.316406 139.714844 502.15625 140.574219 C 501.898438 141.941406 501.730469 143.355469 501.648438 144.777344 C 501.601562 145.652344 501.039062 146.414062 500.222656 146.722656 L 493.171875 149.378906 L 494.09375 155.871094 L 501.613281 156.476562 C 502.484375 156.542969 503.230469 157.125 503.519531 157.953125 C 503.996094 159.292969 504.554688 160.605469 505.183594 161.847656 C 505.578125 162.628906 505.480469 163.570312 504.921875 164.242188 L 500.160156 170.042969 L 504.222656 175.199219 L 511.054688 171.992188 C 511.835938 171.621094 512.777344 171.742188 513.4375 172.3125 C 514.515625 173.226562 515.660156 174.082031 516.839844 174.851562 C 517.574219 175.335938 517.957031 176.195312 517.820312 177.058594 L 516.605469 184.460938 L 522.722656 186.902344 L 527.015625 180.746094 C 527.433594 180.148438 528.121094 179.800781 528.839844 179.800781 Z M 538.097656 190.988281 C 537.183594 190.988281 536.359375 190.433594 536.023438 189.558594 L 533.351562 182.546875 C 531.824219 182.472656 530.3125 182.292969 528.847656 182.023438 L 524.558594 188.171875 C 523.964844 189.027344 522.871094 189.351562 521.898438 188.964844 L 515.78125 186.515625 C 514.808594 186.125 514.246094 185.132812 514.414062 184.101562 L 515.625 176.699219 C 514.367188 175.890625 513.148438 174.980469 512.003906 174.003906 L 505.183594 177.207031 C 504.230469 177.652344 503.125 177.390625 502.484375 176.570312 L 498.410156 171.40625 C 497.761719 170.585938 497.78125 169.441406 498.441406 168.632812 L 503.207031 162.832031 C 502.527344 161.519531 501.933594 160.121094 501.433594 158.691406 L 493.917969 158.082031 C 492.875 157.996094 492.046875 157.214844 491.894531 156.183594 L 490.972656 149.6875 C 490.828125 148.648438 491.410156 147.667969 492.390625 147.300781 L 499.441406 144.644531 C 499.519531 143.132812 499.699219 141.621094 499.972656 140.164062 L 493.785156 135.917969 C 492.925781 135.324219 492.597656 134.230469 492.988281 133.265625 L 495.457031 127.175781 C 495.847656 126.210938 496.84375 125.648438 497.875 125.824219 L 505.320312 127.023438 C 506.148438 125.769531 507.0625 124.554688 508.042969 123.414062 L 504.820312 116.65625 C 504.371094 115.710938 504.636719 114.597656 505.460938 113.957031 L 510.660156 109.910156 C 511.480469 109.269531 512.621094 109.285156 513.433594 109.941406 L 519.261719 114.671875 C 520.601562 114 522.007812 113.414062 523.449219 112.910156 L 524.066406 105.449219 C 524.148438 104.40625 524.933594 103.582031 525.96875 103.433594 L 532.503906 102.515625 C 533.539062 102.371094 534.527344 102.949219 534.894531 103.925781 L 537.566406 110.929688 C 539.09375 111.007812 540.613281 111.1875 542.074219 111.457031 L 546.359375 105.308594 C 546.960938 104.453125 548.050781 104.128906 549.023438 104.511719 L 555.140625 106.964844 C 556.113281 107.359375 556.679688 108.347656 556.503906 109.382812 L 555.296875 116.785156 C 556.554688 117.589844 557.773438 118.503906 558.917969 119.476562 L 565.742188 116.273438 C 566.683594 115.824219 567.792969 116.089844 568.441406 116.90625 L 572.511719 122.070312 C 573.15625 122.898438 573.148438 124.039062 572.480469 124.84375 L 567.714844 130.644531 C 568.394531 131.964844 568.988281 133.363281 569.492188 134.789062 L 577 135.398438 C 578.042969 135.480469 578.875 136.265625 579.019531 137.296875 L 579.945312 143.789062 C 580.09375 144.828125 579.511719 145.808594 578.53125 146.175781 L 571.480469 148.835938 C 571.402344 150.351562 571.21875 151.855469 570.945312 153.3125 L 577.128906 157.558594 C 577.996094 158.15625 578.324219 159.246094 577.929688 160.21875 L 575.464844 166.300781 C 575.070312 167.269531 574.078125 167.835938 573.042969 167.664062 L 565.601562 166.457031 C 564.773438 167.710938 563.855469 168.921875 562.875 170.066406 L 566.101562 176.828125 C 566.550781 177.773438 566.285156 178.882812 565.460938 179.527344 L 560.261719 183.570312 C 559.4375 184.207031 558.292969 184.195312 557.488281 183.542969 L 551.65625 178.808594 C 550.316406 179.476562 548.914062 180.070312 547.472656 180.574219 L 546.855469 188.035156 C 546.769531 189.074219 545.984375 189.902344 544.945312 190.042969 L 538.417969 190.964844 C 538.308594 190.980469 538.207031 190.988281 538.097656 190.988281 " fill-opacity="1" fill-rule="nonzero"/><path fill="#ffffff" d="M 322.574219 101.992188 C 342.925781 116.007812 345.246094 148.492188 329.019531 177.261719 C 329.007812 177.273438 329.003906 177.289062 328.996094 177.300781 C 327.792969 179.894531 340.601562 196.953125 340.601562 196.953125 C 340.601562 196.953125 320.492188 189.929688 318.332031 192.414062 C 297.136719 216.855469 266.511719 225.6875 246.476562 211.886719 C 224.402344 196.683594 223.542969 159.75 244.554688 129.40625 C 265.570312 99.054688 300.5 86.78125 322.574219 101.992188 " fill-opacity="1" fill-rule="nonzero"/><path fill="#121212" d="M 260.207031 221.957031 C 251.839844 221.957031 244.09375 219.691406 237.640625 215.246094 C 221.882812 204.390625 216.117188 182.675781 222.589844 158.578125 C 222.75 157.984375 223.359375 157.632812 223.953125 157.792969 C 224.542969 157.953125 224.894531 158.5625 224.738281 159.152344 C 218.511719 182.320312 223.941406 203.109375 238.902344 213.414062 C 248.253906 219.855469 260.53125 221.4375 273.46875 217.859375 C 286.386719 214.289062 299.109375 205.863281 309.289062 194.128906 C 311.289062 191.816406 321.640625 194.648438 329.421875 197.210938 C 328.238281 195.570312 326.703125 193.390625 325.214844 191.15625 C 318.769531 181.460938 319.425781 180.039062 319.777344 179.273438 L 319.847656 179.148438 C 335.964844 150.578125 333.339844 118.847656 313.738281 105.34375 C 303.933594 98.589844 291.046875 97.1875 277.457031 101.398438 C 263.824219 105.621094 250.71875 115.074219 240.550781 128.019531 C 240.171875 128.5 239.476562 128.585938 238.992188 128.207031 C 238.511719 127.828125 238.425781 127.128906 238.804688 126.648438 C 249.246094 113.351562 262.738281 103.632812 276.796875 99.273438 C 291.054688 94.859375 304.621094 96.363281 314.996094 103.515625 C 335.535156 117.664062 338.460938 150.613281 321.820312 180.175781 C 321.65625 181.988281 327.613281 191.175781 333.285156 198.726562 L 335.476562 201.644531 L 332.027344 200.441406 C 322.996094 197.285156 312.371094 194.589844 310.9375 195.613281 C 300.503906 207.648438 287.398438 216.320312 274.058594 220.003906 C 269.332031 221.308594 264.679688 221.957031 260.207031 221.957031 " fill-opacity="1" fill-rule="nonzero"/><path fill="#4b4a7c" d="M 261.851562 175.28125 L 256.144531 179.96875 C 255.351562 180.621094 254.167969 180.527344 253.476562 179.753906 L 219.570312 142.023438 C 218.835938 141.203125 218.925781 139.953125 219.765625 139.265625 L 228.425781 132.15625 C 229.265625 131.464844 230.523438 131.609375 231.191406 132.480469 L 262.144531 172.640625 C 262.777344 173.460938 262.648438 174.625 261.851562 175.28125 " fill-opacity="1" fill-rule="nonzero"/><path fill="#4b4a7c" d="M 262.109375 192.183594 C 260.953125 188.878906 262.574219 185.433594 265.730469 184.5 C 268.890625 183.566406 272.386719 185.496094 273.546875 188.804688 C 274.703125 192.113281 273.078125 195.554688 269.921875 196.492188 C 266.761719 197.425781 263.265625 195.496094 262.109375 192.183594 " fill-opacity="1" fill-rule="nonzero"/><path fill="#4b4a7c" d="M 289.140625 177.863281 C 287.699219 174.210938 289.164062 170.703125 292.625 169.382812 C 296.089844 168.058594 299.476562 169.71875 300.914062 173.371094 C 302.277344 176.820312 301.050781 180.359375 297.390625 181.757812 C 293.929688 183.074219 290.503906 181.320312 289.140625 177.863281 Z M 285.867188 163.214844 L 284.660156 160.722656 C 281.964844 155.621094 281.449219 149.121094 284.0625 141.304688 C 286.453125 134.378906 287.40625 129.585938 285.65625 125.140625 C 283.671875 120.105469 279.171875 118.824219 272.902344 121.101562 C 269.339844 122.460938 266.273438 125.941406 264.539062 128.765625 L 259.296875 121.800781 C 261.628906 118.1875 266.644531 114.457031 271.886719 112.457031 C 283.269531 108.113281 291.175781 113.15625 294.132812 120.65625 C 296.78125 127.371094 294.925781 133.640625 292.394531 141.078125 C 290.066406 147.875 290.195312 152.824219 292.476562 157.738281 L 293.585938 160.269531 L 285.867188 163.214844 " fill-opacity="1" fill-rule="nonzero"/><path fill="#ffffff" d="M 617.839844 595.539062 C 614.902344 601.230469 609.898438 604.507812 606.644531 602.859375 C 603.394531 601.207031 603.132812 595.253906 606.066406 589.558594 C 609 583.863281 614.007812 580.585938 617.261719 582.238281 C 620.511719 583.886719 620.769531 589.84375 617.839844 595.539062 Z M 644.003906 571.628906 C 637.21875 571.894531 626.144531 574.273438 624.582031 572.480469 C 623.023438 570.6875 632.445312 559.972656 633.589844 552.027344 C 634.726562 544.082031 632.226562 529.34375 608.734375 531.953125 C 589.445312 534.097656 548.671875 555.4375 547.371094 599.910156 C 544.707031 691.054688 647.21875 655.085938 654.226562 601.671875 C 657.382812 577.585938 650.792969 571.371094 644.003906 571.628906 " fill-opacity="1" fill-rule="nonzero"/><path fill="#121212" d="M 617.839844 595.535156 L 617.847656 595.535156 Z M 615.386719 582.914062 C 612.746094 582.914062 609.25 585.808594 607.054688 590.070312 C 605.285156 593.515625 604.683594 597.203125 605.488281 599.695312 C 605.828125 600.75 606.386719 601.484375 607.148438 601.867188 C 609.804688 603.214844 614.25 600.085938 616.847656 595.03125 C 618.625 591.582031 619.222656 587.894531 618.417969 585.398438 C 618.082031 584.347656 617.519531 583.613281 616.757812 583.230469 C 616.339844 583.015625 615.875 582.914062 615.386719 582.914062 Z M 608.5 604.398438 C 607.667969 604.398438 606.875 604.21875 606.144531 603.851562 C 604.855469 603.195312 603.894531 601.992188 603.371094 600.382812 C 602.378906 597.300781 603.019531 593.066406 605.078125 589.050781 C 608.34375 582.71875 613.910156 579.285156 617.761719 581.246094 C 619.050781 581.902344 620.007812 583.101562 620.535156 584.714844 C 621.527344 587.800781 620.890625 592.035156 618.824219 596.046875 C 616.1875 601.171875 612.027344 604.398438 608.5 604.398438 Z M 588.253906 656.84375 C 586.8125 656.84375 585.386719 656.785156 583.980469 656.65625 C 559.023438 654.414062 545.273438 633.71875 546.261719 599.875 C 547.550781 555.847656 587.503906 533.195312 608.613281 530.847656 C 618.484375 529.75 625.761719 531.539062 630.234375 536.15625 C 635.542969 541.636719 635.117188 549.195312 634.6875 552.1875 C 634.042969 556.6875 630.972656 561.859375 628.503906 566.015625 C 627.207031 568.203125 625.601562 570.902344 625.523438 571.8125 C 626.671875 572.402344 632.175781 571.742188 635.851562 571.300781 C 637.761719 571.070312 639.734375 570.835938 641.542969 570.679688 C 642.140625 570.625 642.6875 571.078125 642.746094 571.691406 C 642.792969 572.300781 642.34375 572.839844 641.730469 572.890625 C 639.960938 573.042969 638.011719 573.277344 636.121094 573.507812 C 629.117188 574.347656 625.089844 574.75 623.75 573.207031 C 622.5 571.777344 623.953125 569.324219 626.589844 564.882812 C 628.960938 560.894531 631.902344 555.929688 632.488281 551.871094 C 632.875 549.199219 633.265625 542.476562 628.640625 537.703125 C 624.667969 533.601562 618.015625 532.039062 608.859375 533.054688 C 588.417969 535.324219 549.730469 557.273438 548.484375 599.941406 C 547.535156 632.457031 560.542969 652.320312 584.179688 654.445312 C 597.886719 655.683594 614.105469 650.539062 627.566406 640.691406 C 641.605469 630.429688 650.875 616.46875 653.003906 602.382812 C 653.097656 601.777344 653.667969 601.359375 654.273438 601.453125 C 654.871094 601.542969 655.292969 602.113281 655.199219 602.71875 C 652.980469 617.378906 643.390625 631.875 628.878906 642.484375 C 616.363281 651.636719 601.484375 656.84375 588.253906 656.84375 " fill-opacity="1" fill-rule="nonzero"/><path fill="#4b4a7c" d="M 623.957031 554.671875 C 623.957031 559.144531 620.3125 562.765625 615.8125 562.765625 C 611.316406 562.765625 607.664062 559.144531 607.664062 554.671875 C 607.664062 550.207031 611.316406 546.582031 615.8125 546.582031 C 620.3125 546.582031 623.957031 550.207031 623.957031 554.671875 " fill-opacity="1" fill-rule="nonzero"/><path fill="#8572b7" d="M 598.457031 557.285156 C 598.457031 561.753906 594.808594 565.375 590.308594 565.375 C 585.808594 565.375 582.160156 561.753906 582.160156 557.285156 C 582.160156 552.816406 585.808594 549.191406 590.308594 549.191406 C 594.808594 549.191406 598.457031 552.816406 598.457031 557.285156 " fill-opacity="1" fill-rule="nonzero"/><path fill="#d3c6f6" d="M 578.449219 575.589844 C 578.449219 580.058594 574.800781 583.679688 570.304688 583.679688 C 565.800781 583.679688 562.15625 580.058594 562.15625 575.589844 C 562.15625 571.117188 565.800781 567.496094 570.304688 567.496094 C 574.800781 567.496094 578.449219 571.117188 578.449219 575.589844 " fill-opacity="1" fill-rule="nonzero"/><path fill="#d3c6f6" d="M 563.929688 593.242188 C 560.054688 593.242188 556.898438 596.375 556.898438 600.222656 C 556.898438 604.074219 560.054688 607.203125 563.929688 607.203125 C 567.808594 607.203125 570.964844 604.074219 570.964844 600.222656 C 570.964844 596.375 567.808594 593.242188 563.929688 593.242188 Z M 563.929688 609.425781 C 558.828125 609.425781 554.671875 605.296875 554.671875 600.222656 C 554.671875 595.148438 558.828125 591.019531 563.929688 591.019531 C 569.035156 591.019531 573.1875 595.148438 573.1875 600.222656 C 573.1875 605.296875 569.035156 609.425781 563.929688 609.425781 " fill-opacity="1" fill-rule="nonzero"/><path fill="#ffffff" d="M 647.003906 580.453125 L 655.027344 590.511719 L 590.929688 636.25 L 578.835938 640.824219 C 578.835938 640.824219 586 630.640625 586.472656 630.242188 L 647.003906 580.453125 " fill-opacity="1" fill-rule="nonzero"/><path fill="#121212" d="M 587.222656 631.0625 C 586.773438 631.578125 584.191406 635.179688 581.835938 638.5 L 590.402344 635.261719 L 653.417969 590.292969 L 646.835938 582.027344 Z M 578.832031 641.933594 C 578.496094 641.933594 578.164062 641.78125 577.953125 641.503906 C 577.652344 641.121094 577.644531 640.582031 577.921875 640.183594 C 582.738281 633.351562 585.371094 629.722656 585.75 629.394531 L 646.292969 579.59375 C 646.523438 579.40625 646.824219 579.324219 647.117188 579.351562 C 647.414062 579.382812 647.6875 579.53125 647.871094 579.761719 L 655.890625 589.820312 C 656.082031 590.0625 656.164062 590.367188 656.121094 590.667969 C 656.082031 590.96875 655.917969 591.242188 655.667969 591.417969 L 591.570312 637.152344 C 591.496094 637.210938 591.410156 637.253906 591.320312 637.292969 L 579.222656 641.863281 C 579.097656 641.910156 578.960938 641.933594 578.832031 641.933594 " fill-opacity="1" fill-rule="nonzero"/><path fill="#8572b7" d="M 647.003906 580.453125 L 655.027344 590.511719 L 640.832031 600.640625 L 633.480469 591.578125 L 647.003906 580.453125 " fill-opacity="1" fill-rule="nonzero"/><path fill="#121212" d="M 635.035156 591.734375 L 641.03125 599.132812 L 653.417969 590.292969 L 646.835938 582.027344 Z M 640.828125 601.753906 C 640.5 601.753906 640.183594 601.613281 639.964844 601.34375 L 632.613281 592.28125 C 632.226562 591.804688 632.296875 591.105469 632.773438 590.722656 L 646.292969 579.59375 C 646.523438 579.40625 646.824219 579.324219 647.117188 579.351562 C 647.414062 579.382812 647.6875 579.53125 647.871094 579.761719 L 655.890625 589.820312 C 656.082031 590.0625 656.164062 590.367188 656.121094 590.667969 C 656.082031 590.96875 655.917969 591.242188 655.667969 591.417969 L 641.472656 601.546875 C 641.277344 601.683594 641.054688 601.753906 640.828125 601.753906 " fill-opacity="1" fill-rule="nonzero"/><path fill="#4b4a7c" d="M 656.109375 564.765625 C 648.925781 570.566406 646.410156 575.914062 646.882812 580.488281 L 646.882812 580.492188 L 655.023438 590.59375 C 655.023438 590.59375 655.039062 590.601562 655.046875 590.605469 C 659.472656 592.066406 665.308594 590.753906 672.570312 584.898438 C 683.347656 576.203125 690.257812 553.925781 690.257812 553.925781 C 690.257812 553.925781 666.898438 556.070312 656.109375 564.765625 " fill-opacity="1" fill-rule="nonzero"/><path fill="#121212" d="M 656.109375 564.765625 L 656.121094 564.765625 Z M 655.675781 589.636719 C 660.136719 590.9375 665.714844 589 671.871094 584.035156 C 680.601562 576.996094 686.84375 560.476562 688.65625 555.226562 C 683.125 555.914062 665.542969 558.589844 656.808594 565.632812 C 650.703125 570.554688 647.652344 575.535156 647.957031 580.058594 Z M 658.589844 592.277344 C 657.238281 592.277344 655.941406 592.070312 654.699219 591.660156 C 654.496094 591.589844 654.289062 591.460938 654.15625 591.292969 L 646.011719 581.191406 C 645.886719 581.03125 645.800781 580.835938 645.78125 580.628906 C 645.214844 575.132812 648.457031 569.515625 655.414062 563.90625 C 666.332031 555.097656 689.1875 552.910156 690.15625 552.820312 C 690.53125 552.796875 690.890625 552.9375 691.125 553.226562 C 691.355469 553.519531 691.429688 553.902344 691.324219 554.257812 C 691.035156 555.179688 684.183594 576.957031 673.269531 585.765625 C 667.890625 590.097656 662.976562 592.277344 658.589844 592.277344 " fill-opacity="1" fill-rule="nonzero"/><path fill="#4b4a7c" d="M 107.40625 679.320312 L 228.792969 679.320312 L 228.792969 672.515625 L 224.113281 672.515625 L 224.125 644.183594 L 228.792969 644.152344 L 229.09375 636.613281 L 107.707031 636.613281 C 102.421875 636.613281 94.382812 645.09375 94.382812 650.84375 L 94.382812 666.371094 C 94.382812 672.121094 102.117188 679.320312 107.40625 679.320312 " fill-opacity="1" fill-rule="nonzero"/><path fill="#ffffff" d="M 105.257812 672.511719 L 224.546875 672.511719 L 224.546875 644.175781 L 105.257812 644.175781 C 103.109375 644.175781 101.363281 645.921875 101.363281 648.074219 L 101.363281 668.613281 C 101.363281 670.765625 103.109375 672.511719 105.257812 672.511719 " fill-opacity="1" fill-rule="nonzero"/><path fill="#121212" d="M 109.957031 645.285156 C 105.828125 645.285156 102.472656 648.644531 102.472656 652.769531 L 102.472656 663.921875 C 102.472656 668.042969 105.828125 671.398438 109.957031 671.398438 L 223.4375 671.398438 L 223.4375 645.285156 Z M 224.546875 673.621094 L 109.957031 673.621094 C 104.605469 673.621094 100.253906 669.269531 100.253906 663.921875 L 100.253906 652.769531 C 100.253906 647.417969 104.605469 643.066406 109.957031 643.066406 L 224.546875 643.066406 C 225.160156 643.066406 225.65625 643.5625 225.65625 644.179688 L 225.65625 672.511719 C 225.65625 673.125 225.160156 673.621094 224.546875 673.621094 " fill-opacity="1" fill-rule="nonzero"/><path fill="#8572b7" d="M 218.550781 654.113281 L 114.070312 654.113281 C 113.457031 654.113281 112.960938 653.617188 112.960938 653.003906 C 112.960938 652.386719 113.457031 651.890625 114.070312 651.890625 L 218.550781 651.890625 C 219.164062 651.890625 219.664062 652.386719 219.664062 653.003906 C 219.664062 653.617188 219.164062 654.113281 218.550781 654.113281 " fill-opacity="1" fill-rule="nonzero"/><path fill="#8572b7" d="M 186.660156 662.941406 L 114.070312 662.941406 C 113.457031 662.941406 112.960938 662.441406 112.960938 661.832031 C 112.960938 661.214844 113.457031 660.722656 114.070312 660.722656 L 186.660156 660.722656 C 187.273438 660.722656 187.773438 661.214844 187.773438 661.832031 C 187.773438 662.441406 187.273438 662.941406 186.660156 662.941406 " fill-opacity="1" fill-rule="nonzero"/><path fill="#ffffff" d="M 148.351562 581.027344 L 133.085938 585.113281 L 112.519531 509.242188 L 127.78125 505.160156 L 148.351562 581.027344 " fill-opacity="1" fill-rule="nonzero"/><path fill="#121212" d="M 113.882812 510.03125 L 133.867188 583.753906 L 146.984375 580.242188 L 127 506.519531 Z M 132.304688 586.46875 L 111.152344 508.460938 L 128.566406 503.800781 L 149.714844 581.8125 L 132.304688 586.46875 " fill-opacity="1" fill-rule="nonzero"/><path fill="#8572b7" d="M 119.285156 517.71875 C 118.792969 517.71875 118.34375 517.390625 118.210938 516.890625 C 118.054688 516.296875 118.410156 515.691406 119.003906 515.535156 L 125.746094 513.773438 C 126.339844 513.621094 126.945312 513.976562 127.101562 514.570312 C 127.257812 515.160156 126.902344 515.769531 126.308594 515.921875 L 119.566406 517.6875 C 119.472656 517.710938 119.378906 517.71875 119.285156 517.71875 " fill-opacity="1" fill-rule="nonzero"/><path fill="#ffffff" d="M 124.640625 595.980469 C 115.011719 595.855469 106.164062 587.589844 106.164062 577.402344 C 106.164062 567.21875 115.011719 558.953125 124.640625 558.828125 L 124.640625 549.003906 C 110.566406 549.128906 96.273438 561.796875 96.273438 577.402344 C 96.273438 593.015625 110.566406 605.679688 124.640625 605.800781 L 124.640625 595.980469 " fill-opacity="1" fill-rule="nonzero"/><path fill="#121212" d="M 123.617188 606.898438 C 123.601562 606.898438 123.589844 606.898438 123.574219 606.898438 C 109.960938 606.40625 94.792969 594.171875 94.792969 577.402344 C 94.792969 560.664062 110.347656 548.015625 124.257812 547.890625 C 124.542969 547.898438 124.839844 548.007812 125.050781 548.214844 C 125.261719 548.421875 125.378906 548.707031 125.378906 549.003906 L 125.378906 558.828125 C 125.378906 559.4375 124.890625 559.929688 124.28125 559.941406 C 115.023438 560.058594 106.902344 568.21875 106.902344 577.402344 C 106.902344 586.535156 114.691406 594.527344 123.914062 594.859375 C 124.527344 594.882812 125.003906 595.394531 124.984375 596.007812 C 124.960938 596.621094 124.457031 597.109375 123.832031 597.078125 C 113.453125 596.703125 104.683594 587.695312 104.683594 577.402344 C 104.683594 567.234375 113.035156 558.480469 123.15625 557.765625 L 123.15625 550.152344 C 110.585938 550.90625 97.011719 562.371094 97.011719 577.402344 C 97.011719 592.90625 111.054688 604.222656 123.65625 604.675781 C 124.269531 604.699219 124.746094 605.214844 124.726562 605.828125 C 124.703125 606.425781 124.210938 606.898438 123.617188 606.898438 " fill-opacity="1" fill-rule="nonzero"/><path fill="#ffffff" d="M 147.898438 563.839844 L 124.589844 570.074219 L 115.183594 535.386719 L 138.488281 529.152344 L 147.898438 563.839844 " fill-opacity="1" fill-rule="nonzero"/><path fill="#121212" d="M 116.546875 536.171875 L 125.375 568.714844 L 146.535156 563.054688 L 137.707031 530.511719 Z M 123.808594 571.433594 L 113.816406 534.605469 L 139.269531 527.789062 L 149.261719 564.621094 L 123.808594 571.433594 " fill-opacity="1" fill-rule="nonzero"/><path fill="#ffffff" d="M 141.597656 626.125 L 123.609375 626.125 L 123.609375 605.921875 L 141.597656 605.921875 L 141.597656 626.125 " fill-opacity="1" fill-rule="nonzero"/><path fill="#121212" d="M 141.597656 627.238281 L 135.449219 627.238281 C 134.835938 627.238281 134.339844 626.734375 134.339844 626.125 C 134.339844 625.511719 134.835938 625.011719 135.449219 625.011719 L 140.488281 625.011719 L 140.488281 607.035156 L 124.722656 607.035156 L 124.722656 625.011719 L 125.492188 625.011719 C 126.101562 625.011719 126.601562 625.511719 126.601562 626.125 C 126.601562 626.734375 126.101562 627.238281 125.492188 627.238281 L 123.609375 627.238281 C 122.996094 627.238281 122.5 626.734375 122.5 626.125 L 122.5 605.921875 C 122.5 605.3125 122.996094 604.816406 123.609375 604.816406 L 141.597656 604.816406 C 142.210938 604.816406 142.710938 605.3125 142.710938 605.921875 L 142.710938 626.125 C 142.710938 626.734375 142.210938 627.238281 141.597656 627.238281 " fill-opacity="1" fill-rule="nonzero"/><path fill="#ffffff" d="M 164.386719 605.570312 L 123.609375 605.570312 L 123.609375 595.96875 L 164.386719 595.96875 L 164.386719 605.570312 " fill-opacity="1" fill-rule="nonzero"/><path fill="#121212" d="M 164.386719 606.898438 L 123.609375 606.898438 C 122.996094 606.898438 122.5 606.402344 122.5 605.789062 C 122.5 605.175781 122.996094 604.675781 123.609375 604.675781 L 163.273438 604.675781 L 163.273438 597.082031 L 124.722656 597.082031 L 124.722656 600.390625 C 124.722656 601.003906 124.222656 601.5 123.609375 601.5 C 122.996094 601.5 122.5 601.003906 122.5 600.390625 L 122.5 595.96875 C 122.5 595.355469 122.996094 594.859375 123.609375 594.859375 L 164.386719 594.859375 C 165 594.859375 165.496094 595.355469 165.496094 595.96875 L 165.496094 605.789062 C 165.496094 606.402344 165 606.898438 164.386719 606.898438 " fill-opacity="1" fill-rule="nonzero"/><path fill="#ffffff" d="M 157.140625 635.734375 L 109.421875 635.734375 L 109.421875 626.132812 L 157.140625 626.132812 L 157.140625 635.734375 " fill-opacity="1" fill-rule="nonzero"/><path fill="#121212" d="M 157.140625 636.84375 L 109.421875 636.84375 C 108.808594 636.84375 108.3125 636.347656 108.3125 635.734375 L 108.3125 626.132812 C 108.3125 625.515625 108.808594 625.019531 109.421875 625.019531 L 127.25 625.019531 C 127.863281 625.019531 128.359375 625.515625 128.359375 626.132812 C 128.359375 626.746094 127.863281 627.242188 127.25 627.242188 L 110.53125 627.242188 L 110.53125 634.621094 L 156.03125 634.621094 L 156.03125 627.242188 L 134.308594 627.242188 C 133.695312 627.242188 133.199219 626.746094 133.199219 626.132812 C 133.199219 625.515625 133.695312 625.019531 134.308594 625.019531 L 157.140625 625.019531 C 157.753906 625.019531 158.25 625.515625 158.25 626.132812 L 158.25 635.734375 C 158.25 636.347656 157.753906 636.84375 157.140625 636.84375 " fill-opacity="1" fill-rule="nonzero"/><path fill="#ffffff" d="M 207.691406 625.957031 L 194.621094 607.046875 L 194.621094 580.015625 L 177.589844 580.015625 L 177.589844 607.046875 L 164.558594 625.957031 C 161.703125 630.164062 164.734375 635.921875 169.84375 635.921875 L 202.40625 635.921875 C 207.511719 635.921875 210.542969 630.164062 207.691406 625.957031 " fill-opacity="1" fill-rule="nonzero"/><path fill="#121212" d="M 178.699219 581.125 L 178.699219 607.390625 L 165.472656 626.585938 C 164.367188 628.210938 164.265625 630.238281 165.195312 632 C 166.128906 633.757812 167.863281 634.808594 169.84375 634.808594 L 202.40625 634.808594 C 204.382812 634.808594 206.117188 633.757812 207.050781 632 C 207.984375 630.238281 207.878906 628.214844 206.773438 626.585938 L 193.511719 607.394531 L 193.511719 581.125 Z M 202.40625 637.03125 L 169.84375 637.03125 C 167.027344 637.03125 164.558594 635.539062 163.234375 633.039062 C 161.910156 630.539062 162.058594 627.65625 163.636719 625.332031 L 176.476562 606.703125 L 176.476562 578.902344 L 195.734375 578.902344 L 195.734375 606.699219 L 208.609375 625.332031 C 210.1875 627.65625 210.339844 630.539062 209.011719 633.039062 C 207.6875 635.539062 205.21875 637.03125 202.40625 637.03125 " fill-opacity="1" fill-rule="nonzero"/><path fill="#8572b7" d="M 187.214844 603.5625 C 186.601562 603.5625 186.105469 603.066406 186.105469 602.449219 L 186.105469 589.210938 C 186.105469 588.597656 186.601562 588.097656 187.214844 588.097656 C 187.828125 588.097656 188.328125 588.597656 188.328125 589.210938 L 188.328125 602.449219 C 188.328125 603.066406 187.828125 603.5625 187.214844 603.5625 " fill-opacity="1" fill-rule="nonzero"/><path fill="#121212" d="M 135.679688 163.929688 C 135.667969 163.929688 135.65625 163.929688 135.644531 163.929688 C 135.035156 163.90625 134.550781 163.398438 134.570312 162.785156 L 134.730469 157.765625 C 134.75 157.148438 135.265625 156.640625 135.875 156.6875 C 136.488281 156.707031 136.96875 157.222656 136.949219 157.835938 L 136.792969 162.855469 C 136.773438 163.457031 136.28125 163.929688 135.679688 163.929688 " fill-opacity="1" fill-rule="nonzero"/><path fill="#121212" d="M 136.234375 146.359375 C 136.222656 146.359375 136.210938 146.359375 136.199219 146.359375 C 135.585938 146.339844 135.105469 145.828125 135.125 145.214844 L 135.285156 140.195312 C 135.300781 139.578125 135.816406 139.066406 136.425781 139.117188 C 137.042969 139.136719 137.523438 139.648438 137.503906 140.265625 L 137.34375 145.285156 C 137.328125 145.886719 136.832031 146.359375 136.234375 146.359375 " fill-opacity="1" fill-rule="nonzero"/><path fill="#121212" d="M 147.238281 153.148438 C 147.21875 153.148438 147.203125 153.148438 147.183594 153.144531 L 142.207031 152.917969 C 141.597656 152.890625 141.121094 152.371094 141.148438 151.757812 C 141.175781 151.144531 141.691406 150.660156 142.308594 150.699219 L 147.289062 150.929688 C 147.898438 150.957031 148.375 151.476562 148.347656 152.085938 C 148.320312 152.683594 147.828125 153.148438 147.238281 153.148438 " fill-opacity="1" fill-rule="nonzero"/><path fill="#121212" d="M 129.816406 152.347656 C 129.800781 152.347656 129.78125 152.347656 129.765625 152.347656 L 124.789062 152.121094 C 124.175781 152.09375 123.699219 151.570312 123.730469 150.960938 C 123.757812 150.347656 124.265625 149.859375 124.890625 149.902344 L 129.867188 150.128906 C 130.480469 150.15625 130.953125 150.675781 130.925781 151.292969 C 130.898438 151.886719 130.40625 152.347656 129.816406 152.347656 " fill-opacity="1" fill-rule="nonzero"/><path fill="#121212" d="M 176.777344 521.003906 C 176.480469 521.003906 176.1875 520.890625 175.96875 520.660156 L 172.507812 516.996094 C 172.085938 516.550781 172.105469 515.847656 172.550781 515.425781 C 172.996094 515.003906 173.699219 515.023438 174.121094 515.46875 L 177.582031 519.128906 C 178.003906 519.578125 177.984375 520.277344 177.539062 520.703125 C 177.324219 520.90625 177.050781 521.003906 176.777344 521.003906 " fill-opacity="1" fill-rule="nonzero"/><path fill="#121212" d="M 188.894531 533.820312 C 188.597656 533.820312 188.304688 533.703125 188.085938 533.472656 L 184.625 529.808594 C 184.203125 529.367188 184.222656 528.664062 184.667969 528.242188 C 185.113281 527.816406 185.816406 527.835938 186.238281 528.285156 L 189.699219 531.949219 C 190.121094 532.390625 190.101562 533.09375 189.65625 533.515625 C 189.441406 533.722656 189.167969 533.820312 188.894531 533.820312 " fill-opacity="1" fill-rule="nonzero"/><path fill="#121212" d="M 172.820312 533.082031 C 172.515625 533.082031 172.214844 532.960938 171.996094 532.71875 C 171.582031 532.261719 171.621094 531.5625 172.074219 531.152344 L 175.753906 527.816406 C 176.210938 527.402344 176.914062 527.4375 177.324219 527.894531 C 177.734375 528.347656 177.703125 529.050781 177.246094 529.464844 L 173.566406 532.796875 C 173.351562 532.988281 173.085938 533.082031 172.820312 533.082031 " fill-opacity="1" fill-rule="nonzero"/><path fill="#121212" d="M 185.707031 521.414062 C 185.402344 521.414062 185.101562 521.289062 184.882812 521.046875 C 184.46875 520.59375 184.503906 519.890625 184.960938 519.480469 L 188.640625 516.144531 C 189.097656 515.730469 189.800781 515.769531 190.210938 516.222656 C 190.621094 516.679688 190.585938 517.378906 190.132812 517.792969 L 186.453125 521.125 C 186.238281 521.320312 185.972656 521.414062 185.707031 521.414062 " fill-opacity="1" fill-rule="nonzero"/><path fill="#121212" d="M 622.617188 297.683594 C 625.203125 297.8125 627.402344 295.851562 627.539062 293.296875 C 627.609375 292.058594 627.1875 290.875 626.351562 289.949219 C 625.515625 289.027344 624.367188 288.484375 623.121094 288.414062 C 620.542969 288.285156 618.332031 290.246094 618.195312 292.804688 C 618.128906 294.039062 618.554688 295.230469 619.382812 296.148438 C 620.21875 297.074219 621.371094 297.617188 622.617188 297.683594 Z M 622.875 299.914062 C 622.75 299.914062 622.625 299.910156 622.5 299.902344 C 620.664062 299.808594 618.96875 299.003906 617.742188 297.640625 C 616.503906 296.273438 615.878906 294.515625 615.976562 292.683594 C 616.179688 288.90625 619.4375 285.988281 623.238281 286.199219 C 625.078125 286.292969 626.769531 287.097656 628 288.460938 C 629.234375 289.824219 629.859375 291.585938 629.761719 293.417969 C 629.5625 297.070312 626.511719 299.914062 622.875 299.914062 " fill-opacity="1" fill-rule="nonzero"/><path fill="#121212" d="M 208.191406 472.46875 C 205.726562 472.46875 203.65625 474.390625 203.523438 476.863281 C 203.457031 478.101562 203.878906 479.285156 204.710938 480.210938 C 205.546875 481.132812 206.695312 481.675781 207.945312 481.742188 C 210.523438 481.871094 212.730469 479.914062 212.867188 477.359375 C 212.933594 476.121094 212.511719 474.933594 211.675781 474.011719 C 210.84375 473.085938 209.695312 472.542969 208.445312 472.476562 C 208.359375 472.472656 208.273438 472.46875 208.191406 472.46875 Z M 208.199219 483.972656 C 208.074219 483.972656 207.953125 483.972656 207.828125 483.964844 C 205.988281 483.867188 204.296875 483.0625 203.0625 481.699219 C 201.832031 480.332031 201.203125 478.574219 201.304688 476.742188 C 201.507812 472.964844 204.757812 470.058594 208.5625 470.257812 C 210.402344 470.355469 212.09375 471.160156 213.324219 472.519531 C 214.558594 473.886719 215.183594 475.644531 215.085938 477.476562 C 214.890625 481.128906 211.835938 483.972656 208.199219 483.972656 " fill-opacity="1" fill-rule="nonzero"/><path fill="#8572b7" d="M 636.429688 675.601562 C 633.726562 675.460938 631.652344 673.167969 631.792969 670.484375 C 631.941406 667.800781 634.246094 665.742188 636.953125 665.886719 C 639.652344 666.03125 641.726562 668.324219 641.582031 671.007812 C 641.433594 673.6875 639.128906 675.746094 636.429688 675.601562 " fill-opacity="1" fill-rule="nonzero"/></svg>