<svg xmlns="http://www.w3.org/2000/svg" xmlns:xlink="http://www.w3.org/1999/xlink" width="1080" zoomAndPan="magnify" viewBox="0 0 810 809.999993" height="1080" preserveAspectRatio="xMidYMid meet" version="1.0"><path fill="#caddff" d="M 147.78125 570.835938 C 162.960938 607.6875 198.496094 625.097656 221.210938 636.222656 C 243.863281 647.320312 269.492188 655.273438 296.734375 659.660156 C 322.699219 663.84375 351.074219 654.332031 378.769531 651.679688 C 413.136719 648.386719 446.976562 650.011719 479.925781 634.949219 C 502.675781 624.546875 524.554688 611.171875 544.804688 594.597656 C 567.742188 575.828125 680.792969 477.492188 654.609375 344.488281 C 631.464844 226.90625 514.566406 158.785156 416.078125 149.800781 C 334.488281 142.355469 227.898438 172.128906 190.171875 243.898438 C 166.449219 289.035156 194.890625 303.335938 175.433594 405.570312 C 158.59375 494.058594 129.214844 525.757812 147.78125 570.835938 " fill-opacity="1" fill-rule="nonzero"/><path fill="#000000" d="M 481.382812 634.515625 C 476.800781 600.152344 473.328125 577.902344 473.328125 577.902344 L 328.25 552.695312 L 313.769531 593.785156 C 309.4375 606.234375 303.496094 624.632812 297.964844 647.269531 C 297.148438 650.613281 296.109375 654.980469 295.152344 659.417969 C 354.199219 669.0625 421.117188 662.527344 481.382812 634.515625 " fill-opacity="1" fill-rule="nonzero"/><path fill="#000000" d="M 298.332031 590.53125 C 295.125 601.507812 290.09375 616.695312 295.664062 623.984375 C 305.789062 637.234375 314.183594 635.109375 326.679688 630.550781 C 351.667969 621.4375 391.546875 607.042969 403.1875 615.042969 L 403.703125 590.53125 L 298.332031 590.53125 " fill-opacity="1" fill-rule="nonzero"/><path fill="#5479f7" d="M 441.632812 355.472656 C 462.386719 355.378906 481.347656 367.117188 490.429688 385.660156 C 500.949219 407.148438 515.796875 463.371094 516.375 487.929688 C 517.390625 530.847656 479.800781 533.269531 478.6875 533.332031 C 478.671875 533.332031 478.660156 533.34375 478.664062 533.355469 C 478.777344 534.597656 483.175781 581.238281 483.519531 589.515625 C 484.15625 604.65625 456.078125 628.285156 423.832031 616.640625 C 391.746094 605.0625 304.089844 581.988281 295.1875 601.632812 C 295.171875 601.664062 295.136719 601.648438 295.140625 601.617188 L 331.914062 465.160156 C 331.921875 465.144531 331.90625 465.128906 331.890625 465.128906 L 301.703125 466.589844 C 301.699219 466.589844 301.695312 466.585938 301.691406 466.582031 L 277.105469 452.363281 C 277.097656 452.355469 277.09375 452.347656 277.09375 452.335938 L 283.320312 424.753906 C 295.144531 377.628906 326.785156 356.007812 367.617188 355.820312 L 441.632812 355.472656 " fill-opacity="1" fill-rule="nonzero"/><path fill="#ffffff" d="M 344.832031 460.746094 C 339.191406 459.703125 340.734375 453.160156 320.910156 451.980469 C 263.707031 448.570312 291.429688 419.515625 324.199219 425.050781 C 335.058594 426.886719 339.332031 433.914062 343.417969 435.699219 C 377.703125 450.660156 356.078125 462.824219 344.832031 460.746094 " fill-opacity="1" fill-rule="nonzero"/><path fill="#000000" d="M 345.003906 459.828125 C 350.742188 460.886719 359.34375 457.957031 360.8125 453.144531 C 361.707031 450.230469 360.582031 444.207031 343.042969 436.550781 C 341.605469 435.925781 340.210938 434.757812 338.597656 433.40625 C 335.28125 430.628906 331.15625 427.171875 324.042969 425.972656 C 309.003906 423.429688 295.136719 428.28125 290.410156 434.433594 C 289.257812 435.929688 288.128906 438.242188 289.273438 440.75 C 290.457031 443.351562 295.917969 449.554688 320.964844 451.046875 C 334.582031 451.859375 338.398438 455.183594 341.191406 457.613281 C 342.472656 458.722656 343.398438 459.53125 345.003906 459.828125 Z M 347.597656 461.917969 C 346.578125 461.917969 345.59375 461.835938 344.664062 461.664062 C 342.554688 461.273438 341.296875 460.179688 339.964844 459.019531 C 337.378906 456.769531 333.835938 453.6875 320.855469 452.910156 C 302.234375 451.800781 290.417969 447.757812 287.574219 441.527344 C 286.363281 438.871094 286.832031 436.027344 288.929688 433.296875 C 293.992188 426.703125 308.625 421.476562 324.355469 424.132812 C 331.96875 425.414062 336.492188 429.207031 339.796875 431.972656 C 341.300781 433.234375 342.597656 434.320312 343.792969 434.839844 C 361.710938 442.664062 363.910156 449.40625 362.597656 453.691406 C 361.039062 458.78125 353.816406 461.917969 347.597656 461.917969 " fill-opacity="1" fill-rule="nonzero"/><path fill="#ffffff" d="M 416.851562 363.503906 C 418.757812 361.875 417.746094 358.75 415.25 358.453125 L 411.371094 357.984375 C 407.203125 357.480469 403.726562 354.710938 402.371094 350.875 L 395.980469 303.675781 L 382.878906 308.363281 L 365.539062 299.785156 L 367.089844 350.21875 C 366.964844 354.617188 364.097656 358.503906 359.859375 360.019531 L 354.792969 361.832031 C 352.125 362.785156 352 366.402344 354.585938 367.53125 C 364.902344 372.027344 406.851562 372.066406 416.851562 363.503906 " fill-opacity="1" fill-rule="nonzero"/><path fill="#000000" d="M 366.519531 301.3125 L 368.019531 350.191406 C 367.882812 355.0625 364.800781 359.242188 360.171875 360.898438 L 355.105469 362.710938 C 354.066406 363.082031 353.675781 363.960938 353.648438 364.65625 C 353.625 365.347656 353.957031 366.242188 354.957031 366.675781 C 359.90625 368.832031 372.59375 369.988281 385.800781 369.484375 C 400.632812 368.914062 412.015625 366.414062 416.242188 362.796875 C 416.832031 362.292969 417.050781 361.546875 416.820312 360.792969 C 416.636719 360.1875 416.097656 359.496094 415.136719 359.382812 L 411.257812 358.914062 C 406.726562 358.367188 402.984375 355.40625 401.492188 351.1875 C 401.46875 351.128906 401.453125 351.0625 401.445312 351 L 395.210938 304.941406 L 383.195312 309.242188 C 382.953125 309.328125 382.691406 309.316406 382.464844 309.199219 Z M 379.738281 371.464844 C 368.601562 371.464844 358.597656 370.300781 354.210938 368.386719 C 352.660156 367.710938 351.726562 366.253906 351.785156 364.59375 C 351.839844 362.921875 352.875 361.527344 354.476562 360.953125 L 359.542969 359.144531 C 363.445312 357.746094 366.042969 354.234375 366.15625 350.195312 L 364.605469 299.816406 C 364.59375 299.488281 364.757812 299.175781 365.035156 299.003906 C 365.308594 298.824219 365.660156 298.804688 365.953125 298.949219 L 382.9375 307.351562 L 395.667969 302.796875 C 395.929688 302.703125 396.226562 302.730469 396.464844 302.878906 C 396.707031 303.023438 396.867188 303.269531 396.90625 303.550781 L 403.285156 350.652344 C 404.554688 354.148438 407.6875 356.605469 411.484375 357.058594 L 415.359375 357.523438 C 416.910156 357.710938 418.15625 358.757812 418.605469 360.253906 C 419.046875 361.710938 418.605469 363.230469 417.457031 364.21875 C 410.914062 369.8125 393.1875 371.070312 385.871094 371.347656 C 383.808594 371.425781 381.75 371.464844 379.738281 371.464844 " fill-opacity="1" fill-rule="nonzero"/><path fill="#ffffff" d="M 401.792969 266.140625 C 424.128906 274.363281 420.285156 288.820312 420.285156 288.820312 C 420.007812 292.796875 419.847656 300.078125 420.589844 302.71875 C 421.195312 304.894531 424.769531 308.992188 424.9375 310.199219 C 425.109375 311.410156 423.175781 313.894531 419.308594 314.773438 C 419.308594 314.773438 417.84375 334.089844 412.777344 337.257812 C 407.714844 340.417969 388.226562 334.34375 388.226562 334.34375 L 384.945312 333.03125 C 374.378906 328.792969 367.921875 319.984375 364.847656 309.078125 C 364.847656 309.078125 350.628906 247.296875 401.792969 266.140625 " fill-opacity="1" fill-rule="nonzero"/><path fill="#000000" d="M 388.535156 333.46875 C 393.875 335.125 408.4375 338.871094 412.285156 336.464844 C 416.109375 334.074219 417.980469 319.945312 418.378906 314.703125 C 418.410156 314.296875 418.703125 313.957031 419.097656 313.867188 C 422.710938 313.046875 424.085938 310.875 424.015625 310.335938 C 423.9375 309.953125 423.03125 308.628906 422.371094 307.664062 C 421.234375 306.003906 420.058594 304.289062 419.6875 302.972656 C 418.8125 299.851562 419.152344 291.652344 419.355469 288.757812 C 419.355469 288.699219 419.371094 288.640625 419.382812 288.582031 C 419.527344 288.027344 422.671875 274.828125 401.472656 267.019531 C 388.035156 262.074219 378.0625 262.347656 371.824219 267.847656 C 359.082031 279.070312 365.6875 308.574219 365.757812 308.871094 C 368.96875 320.261719 375.726562 328.332031 385.289062 332.164062 Z M 408.003906 339.097656 C 400.601562 339.097656 389.515625 335.726562 387.941406 335.242188 C 387.921875 335.230469 387.898438 335.222656 387.875 335.214844 L 384.59375 333.898438 C 374.476562 329.839844 367.335938 321.34375 363.949219 309.332031 C 363.648438 308.035156 357.015625 278.40625 370.585938 266.449219 C 377.378906 260.464844 387.988281 260.066406 402.117188 265.269531 C 423.980469 273.320312 421.503906 287.589844 421.210938 288.957031 C 420.921875 293.15625 420.8125 300.074219 421.484375 302.464844 C 421.769531 303.484375 422.957031 305.214844 423.910156 306.609375 C 425.085938 308.324219 425.757812 309.328125 425.859375 310.070312 C 426.113281 311.875 423.867188 314.449219 420.183594 315.515625 C 419.851562 319.355469 418.203125 334.96875 413.273438 338.050781 C 412.070312 338.800781 410.199219 339.097656 408.003906 339.097656 " fill-opacity="1" fill-rule="nonzero"/><path fill="#000000" d="M 394.441406 255.683594 C 400.3125 257.117188 406.050781 260.78125 409.085938 261.109375 C 413.976562 261.632812 417.507812 255.347656 423.6875 257.628906 C 429.117188 259.632812 432.171875 264.257812 432.945312 269.472656 C 433.074219 270.339844 433.113281 271.261719 433.03125 272.242188 C 431.878906 285.425781 423.632812 288.226562 420.285156 288.820312 C 420.285156 288.820312 400.894531 287.027344 397.113281 287.945312 C 393.578125 288.804688 388.109375 294.3125 386.464844 302.136719 C 386.25 303.144531 385.367188 303.886719 384.332031 303.960938 C 383.121094 304.050781 382.023438 303.222656 381.820312 302.027344 C 381.171875 298.269531 379.398438 290.753906 375.585938 290.53125 C 371.136719 290.277344 365.46875 299.074219 371.285156 304.589844 C 373.074219 306.285156 372.480469 309.378906 370.1875 310.300781 C 368.28125 311.066406 365.898438 311.113281 363.320312 309.019531 C 363.320312 309.019531 351.835938 288.890625 357.3125 271.902344 C 362.789062 254.914062 386.632812 253.777344 394.441406 255.683594 " fill-opacity="1" fill-rule="nonzero"/><path fill="#000000" d="M 425.621094 309.691406 C 425.367188 309.691406 425.117188 309.589844 424.933594 309.394531 C 424.582031 309.011719 424.605469 308.421875 424.984375 308.074219 C 426.355469 306.800781 427.347656 303.957031 427.507812 300.820312 C 427.621094 298.566406 427.3125 296.445312 426.636719 294.839844 C 426.0625 293.476562 425.285156 292.671875 424.515625 292.632812 C 424.496094 292.632812 424.472656 292.632812 424.453125 292.632812 C 423.0625 292.632812 421.570312 294.984375 420.964844 298.164062 C 420.867188 298.667969 420.382812 299 419.875 298.902344 C 419.367188 298.808594 419.035156 298.320312 419.132812 297.816406 C 419.960938 293.472656 422.15625 290.652344 424.609375 290.769531 C 426.144531 290.84375 427.476562 292.035156 428.355469 294.113281 C 429.140625 295.972656 429.5 298.390625 429.371094 300.917969 C 429.183594 304.566406 427.988281 307.832031 426.253906 309.441406 C 426.074219 309.609375 425.847656 309.691406 425.621094 309.691406 " fill-opacity="1" fill-rule="nonzero"/><path fill="#000000" d="M 410.976562 292.355469 C 408.40625 292.355469 406.070312 296.027344 405.84375 300.484375 C 405.726562 302.796875 406.160156 304.988281 407.074219 306.648438 C 407.914062 308.171875 409.042969 309.042969 410.25 309.105469 C 412.878906 309.230469 415.285156 305.515625 415.523438 300.980469 C 415.640625 298.664062 415.203125 296.476562 414.289062 294.8125 C 413.449219 293.292969 412.324219 292.421875 411.117188 292.359375 C 411.070312 292.359375 411.023438 292.355469 410.976562 292.355469 Z M 410.390625 310.976562 C 410.3125 310.976562 410.230469 310.972656 410.15625 310.96875 C 408.277344 310.871094 406.605469 309.660156 405.4375 307.554688 C 404.359375 305.589844 403.839844 303.042969 403.976562 300.390625 C 404.273438 294.648438 407.457031 290.289062 411.210938 290.496094 C 413.089844 290.589844 414.757812 291.804688 415.917969 293.910156 C 417.003906 295.875 417.523438 298.417969 417.386719 301.074219 C 417.09375 306.691406 414.046875 310.976562 410.390625 310.976562 " fill-opacity="1" fill-rule="nonzero"/><path fill="#000000" d="M 405.601562 297.269531 C 405.570312 297.269531 405.542969 297.269531 405.515625 297.269531 L 384.207031 295.363281 C 383.695312 295.316406 383.316406 294.859375 383.363281 294.347656 C 383.410156 293.832031 383.867188 293.449219 384.378906 293.5 L 405.683594 295.40625 C 406.195312 295.457031 406.574219 295.90625 406.53125 296.421875 C 406.488281 296.90625 406.078125 297.269531 405.601562 297.269531 " fill-opacity="1" fill-rule="nonzero"/><path fill="#5479f7" d="M 416.097656 226.332031 L 425.796875 251.113281 C 429.714844 261.285156 415.984375 275.960938 395.132812 283.894531 C 374.273438 291.828125 354.191406 290.015625 350.269531 279.84375 L 340.570312 255.0625 L 416.097656 226.332031 " fill-opacity="1" fill-rule="nonzero"/><path fill="#000000" d="M 341.785156 255.601562 L 351.140625 279.503906 C 354.871094 289.1875 374.457031 290.761719 394.800781 283.023438 C 408.910156 277.652344 420.464844 268.714844 424.242188 260.253906 C 425.691406 257 425.925781 254.039062 424.925781 251.445312 L 415.5625 227.53125 Z M 370.464844 289.773438 C 369.023438 289.773438 367.621094 289.710938 366.265625 289.589844 C 357.421875 288.792969 351.429688 285.449219 349.398438 280.179688 L 339.703125 255.40625 C 339.609375 255.171875 339.613281 254.914062 339.714844 254.683594 C 339.816406 254.457031 340.003906 254.28125 340.238281 254.191406 L 415.761719 225.457031 C 416.242188 225.277344 416.777344 225.511719 416.964844 225.992188 L 426.664062 250.773438 C 427.851562 253.847656 427.609375 257.292969 425.949219 261.011719 C 421.917969 270.046875 410.242188 279.148438 395.460938 284.769531 C 386.859375 288.042969 378.144531 289.773438 370.464844 289.773438 " fill-opacity="1" fill-rule="nonzero"/><path fill="#99b9ff" d="M 335.558594 248.320312 L 367.960938 217.136719 C 368.589844 216.597656 369.386719 216.296875 370.214844 216.277344 L 415.292969 217.988281 L 430.71875 212.121094 L 433.585938 219.566406 C 433.765625 220.035156 433.679688 220.597656 433.230469 220.988281 L 387.210938 260.371094 C 386.582031 260.914062 385.785156 261.214844 384.953125 261.230469 L 324.226562 262.457031 C 323.632812 262.46875 323.1875 262.101562 323.007812 261.632812 L 320.136719 254.1875 L 335.558594 248.320312 " fill-opacity="1" fill-rule="nonzero"/><path fill="#000000" d="M 335.554688 248.324219 L 335.566406 248.324219 Z M 321.34375 254.726562 L 323.878906 261.300781 C 323.910156 261.386719 323.996094 261.523438 324.199219 261.523438 C 324.203125 261.523438 324.207031 261.523438 324.207031 261.523438 L 384.933594 260.300781 C 385.542969 260.285156 386.140625 260.0625 386.605469 259.667969 L 432.621094 220.28125 C 432.777344 220.148438 432.746094 219.988281 432.714844 219.90625 L 430.179688 213.324219 L 415.625 218.859375 C 415.511719 218.90625 415.378906 218.929688 415.257812 218.917969 L 370.179688 217.210938 C 369.625 217.222656 369.027344 217.449219 368.566406 217.847656 L 336.207031 248.996094 C 336.113281 249.082031 336.007812 249.148438 335.890625 249.195312 Z M 324.199219 263.390625 C 323.277344 263.390625 322.46875 262.839844 322.136719 261.972656 L 319.265625 254.523438 C 319.175781 254.292969 319.183594 254.035156 319.285156 253.808594 C 319.386719 253.582031 319.574219 253.402344 319.804688 253.316406 L 335.050781 247.519531 L 367.3125 216.464844 C 368.144531 215.75 369.15625 215.363281 370.195312 215.34375 L 415.140625 217.046875 L 430.382812 211.246094 C 430.859375 211.066406 431.402344 211.304688 431.582031 211.785156 L 434.453125 219.234375 C 434.796875 220.117188 434.550781 221.085938 433.835938 221.699219 L 387.816406 261.082031 C 387.023438 261.761719 386.011719 262.144531 384.972656 262.167969 L 324.246094 263.390625 C 324.230469 263.390625 324.214844 263.390625 324.199219 263.390625 " fill-opacity="1" fill-rule="nonzero"/><path fill="#5479f7" d="M 320.492188 252.769531 L 366.511719 213.386719 C 367.140625 212.84375 367.9375 212.542969 368.765625 212.527344 L 429.492188 211.300781 C 430.6875 211.277344 431.265625 212.765625 430.359375 213.542969 L 384.339844 252.925781 C 383.710938 253.46875 382.910156 253.769531 382.082031 253.789062 L 321.355469 255.011719 C 320.160156 255.035156 319.585938 253.546875 320.492188 252.769531 " fill-opacity="1" fill-rule="nonzero"/><path fill="#000000" d="M 321.097656 253.476562 C 320.953125 253.605469 320.96875 253.75 321.007812 253.851562 C 321.039062 253.9375 321.109375 254.09375 321.335938 254.078125 L 382.0625 252.855469 C 382.675781 252.839844 383.265625 252.613281 383.734375 252.214844 L 429.753906 212.832031 C 429.898438 212.707031 429.882812 212.558594 429.839844 212.457031 C 429.8125 212.375 429.738281 212.226562 429.511719 212.230469 L 368.789062 213.457031 C 368.175781 213.472656 367.582031 213.699219 367.117188 214.089844 Z M 321.328125 255.945312 C 320.402344 255.945312 319.59375 255.390625 319.261719 254.515625 C 318.925781 253.632812 319.171875 252.671875 319.886719 252.058594 L 365.902344 212.671875 C 366.695312 211.996094 367.707031 211.613281 368.75 211.59375 L 429.472656 210.367188 C 430.425781 210.371094 431.25 210.90625 431.589844 211.792969 C 431.921875 212.671875 431.679688 213.640625 430.964844 214.253906 L 384.945312 253.636719 C 384.15625 254.316406 383.144531 254.699219 382.101562 254.71875 L 321.375 255.945312 C 321.359375 255.945312 321.34375 255.945312 321.328125 255.945312 " fill-opacity="1" fill-rule="nonzero"/><path fill="#99b9ff" d="M 348.878906 276.664062 C 350.011719 276.636719 350.972656 277.492188 351.082031 278.621094 L 354.105469 310.472656 L 345.425781 310.695312 L 346.785156 278.730469 C 346.832031 277.597656 347.75 276.695312 348.878906 276.664062 " fill-opacity="1" fill-rule="nonzero"/><path fill="#000000" d="M 348.9375 277.59375 C 348.925781 277.59375 348.917969 277.59375 348.90625 277.59375 C 348.265625 277.613281 347.746094 278.128906 347.722656 278.769531 L 346.398438 309.734375 L 353.082031 309.5625 L 350.152344 278.707031 C 350.09375 278.078125 349.5625 277.59375 348.9375 277.59375 Z M 345.425781 311.628906 C 345.175781 311.628906 344.9375 311.527344 344.757812 311.351562 C 344.578125 311.164062 344.484375 310.914062 344.492188 310.65625 L 345.855469 278.691406 C 345.925781 277.074219 347.246094 275.769531 348.859375 275.730469 C 348.882812 275.730469 348.910156 275.730469 348.9375 275.730469 C 350.515625 275.730469 351.859375 276.945312 352.011719 278.527344 L 355.035156 310.382812 C 355.058594 310.640625 354.980469 310.898438 354.804688 311.089844 C 354.632812 311.285156 354.390625 311.398438 354.128906 311.402344 L 345.449219 311.628906 C 345.441406 311.628906 345.433594 311.628906 345.425781 311.628906 " fill-opacity="1" fill-rule="nonzero"/><path fill="#000000" d="M 349.273438 277.320312 C 348.761719 277.320312 348.347656 276.914062 348.339844 276.402344 L 348.019531 254.613281 C 348.011719 254.339844 348.128906 254.078125 348.332031 253.898438 L 374.28125 231.078125 C 374.664062 230.738281 375.253906 230.773438 375.59375 231.160156 C 375.933594 231.546875 375.898438 232.136719 375.511719 232.480469 L 349.890625 255.019531 L 350.207031 276.375 C 350.210938 276.890625 349.800781 277.316406 349.289062 277.320312 C 349.28125 277.320312 349.277344 277.320312 349.273438 277.320312 " fill-opacity="1" fill-rule="nonzero"/><path fill="#ffffff" d="M 371.636719 389.535156 C 371.636719 389.535156 379.929688 402.554688 387.40625 400.253906 C 391.328125 399.046875 395.160156 386.207031 396.726562 385.753906 C 401.738281 384.292969 411.277344 381.914062 417.132812 371.445312 C 422.605469 361.667969 421.414062 356.445312 420.003906 354.046875 C 419.351562 352.941406 419.363281 351.570312 420.082031 350.503906 C 421.128906 348.960938 422.140625 346.625 421.085938 344.214844 C 420.71875 343.375 420.75 342.40625 421.117188 341.558594 C 422.507812 338.320312 425.078125 330.871094 420.074219 329.402344 C 418.71875 329.003906 417.253906 329.511719 416.429688 330.648438 C 414.839844 332.84375 411.527344 336.972656 407.425781 339.582031 C 401.628906 343.273438 398.152344 345.792969 395.242188 347.453125 C 392.746094 348.875 391.429688 336.421875 385.433594 331.742188 C 380.113281 327.589844 378.300781 329.691406 377.769531 331.640625 C 377.238281 333.59375 380.53125 334.367188 382.410156 343.652344 C 384.609375 354.515625 382.3125 363.660156 381.644531 368.550781 C 380.863281 374.285156 371.636719 389.535156 371.636719 389.535156 " fill-opacity="1" fill-rule="nonzero"/><path fill="#000000" d="M 372.738281 389.507812 C 374.285156 391.761719 381.183594 401.1875 387.128906 399.363281 C 389.132812 398.746094 391.558594 393.53125 393.160156 390.082031 C 394.792969 386.574219 395.492188 385.140625 396.464844 384.855469 L 397.097656 384.671875 C 402.257812 383.1875 410.886719 380.699219 416.320312 370.988281 C 421.648438 361.46875 420.410156 356.582031 419.199219 354.519531 C 418.351562 353.074219 418.394531 351.335938 419.308594 349.984375 C 420.222656 348.640625 421.117188 346.613281 420.234375 344.59375 C 419.773438 343.542969 419.78125 342.300781 420.257812 341.191406 C 422.027344 337.074219 422.546875 333.664062 421.6875 331.835938 C 421.324219 331.066406 420.710938 330.5625 419.8125 330.300781 C 418.839844 330.015625 417.785156 330.375 417.183594 331.199219 C 415.539062 333.46875 412.144531 337.683594 407.925781 340.371094 C 405.40625 341.972656 403.347656 343.34375 401.535156 344.546875 C 399.210938 346.089844 397.371094 347.3125 395.707031 348.265625 C 395.253906 348.519531 394.773438 348.570312 394.304688 348.40625 C 393.027344 347.953125 392.261719 345.996094 391.097656 343.027344 C 389.742188 339.574219 387.890625 334.839844 384.859375 332.480469 C 381.894531 330.164062 380.441406 330.160156 379.835938 330.359375 C 379.152344 330.585938 378.824219 331.316406 378.667969 331.886719 C 378.578125 332.222656 378.769531 332.554688 379.390625 333.488281 C 380.421875 335.054688 382.152344 337.679688 383.324219 343.464844 C 385.203125 352.742188 383.871094 360.726562 382.988281 366.007812 C 382.824219 367 382.675781 367.894531 382.570312 368.679688 C 381.84375 374 374.382812 386.75 372.738281 389.507812 Z M 385.578125 401.457031 C 378.21875 401.457031 371.167969 390.546875 370.847656 390.039062 C 370.65625 389.738281 370.652344 389.355469 370.835938 389.050781 C 370.925781 388.898438 379.972656 373.902344 380.71875 368.421875 C 380.828125 367.625 380.980469 366.714844 381.148438 365.699219 C 382.007812 360.554688 383.304688 352.777344 381.496094 343.835938 C 380.394531 338.402344 378.789062 335.972656 377.832031 334.519531 C 377.113281 333.433594 376.546875 332.574219 376.871094 331.394531 C 377.257812 329.96875 378.101562 328.96875 379.246094 328.585938 C 380.972656 328.011719 383.1875 328.804688 386.011719 331.003906 C 389.441406 333.683594 391.402344 338.691406 392.835938 342.34375 C 393.472656 343.972656 394.335938 346.175781 394.859375 346.597656 C 396.457031 345.683594 398.246094 344.492188 400.5 342.992188 C 402.320312 341.78125 404.386719 340.410156 406.925781 338.792969 C 410.886719 336.273438 414.105469 332.265625 415.671875 330.101562 C 416.734375 328.640625 418.609375 328 420.339844 328.507812 C 421.757812 328.925781 422.78125 329.773438 423.375 331.039062 C 424.867188 334.203125 423.136719 339.21875 421.972656 341.929688 C 421.699219 342.566406 421.6875 343.261719 421.941406 343.839844 C 422.917969 346.058594 422.539062 348.542969 420.855469 351.03125 C 420.347656 351.78125 420.328125 352.757812 420.808594 353.574219 C 422.539062 356.511719 423.441406 362.082031 417.949219 371.902344 C 412.140625 382.277344 402.691406 385.003906 397.613281 386.464844 L 397.078125 386.621094 C 396.632812 387.042969 395.648438 389.160156 394.851562 390.867188 C 392.375 396.203125 390.273438 400.351562 387.679688 401.144531 C 386.976562 401.363281 386.277344 401.457031 385.578125 401.457031 " fill-opacity="1" fill-rule="nonzero"/><path fill="#5479f7" d="M 398.972656 395.296875 L 373.847656 379.28125 C 373.847656 379.28125 339.882812 434.214844 314.160156 452.859375 C 301.636719 461.9375 277.34375 451.265625 277.34375 451.265625 C 277.34375 451.265625 254.019531 540.925781 299.039062 553.742188 C 374.03125 575.09375 398.972656 395.296875 398.972656 395.296875 " fill-opacity="1" fill-rule="nonzero"/><path fill="#caddff" d="M 474.542969 535.339844 C 462.023438 535.339844 446.457031 531.003906 428.171875 522.40625 C 406.292969 512.121094 387.503906 499.019531 378.25 492.128906 C 377.835938 491.820312 377.753906 491.234375 378.058594 490.820312 C 378.367188 490.40625 378.953125 490.324219 379.367188 490.628906 C 408.257812 512.160156 451.851562 536.230469 479.609375 533.207031 C 480.121094 533.15625 480.585938 533.523438 480.640625 534.035156 C 480.699219 534.550781 480.324219 535.007812 479.816406 535.066406 C 478.121094 535.246094 476.363281 535.339844 474.542969 535.339844 " fill-opacity="1" fill-rule="nonzero"/><path fill="#caddff" d="M 436.496094 466.257812 C 420.839844 466.257812 391.929688 452.71875 390.585938 452.082031 C 390.117188 451.863281 389.921875 451.308594 390.136719 450.839844 C 390.359375 450.375 390.917969 450.175781 391.382812 450.394531 C 391.738281 450.5625 427.269531 467.207031 440.417969 463.984375 C 462.570312 458.558594 457.3125 430.195312 457.257812 429.910156 C 457.15625 429.402344 457.488281 428.914062 457.996094 428.816406 C 458.503906 428.714844 458.992188 429.046875 459.089844 429.550781 C 459.148438 429.855469 464.722656 459.953125 440.859375 465.800781 C 439.578125 466.113281 438.105469 466.257812 436.496094 466.257812 " fill-opacity="1" fill-rule="nonzero"/><path fill="#caddff" d="M 311.957031 456.402344 C 311.671875 456.402344 311.394531 456.273438 311.207031 456.027344 C 310.898438 455.617188 310.984375 455.03125 311.398438 454.722656 C 338.480469 434.476562 372.042969 378.917969 372.378906 378.359375 C 372.644531 377.914062 373.21875 377.773438 373.660156 378.039062 C 374.105469 378.304688 374.246094 378.878906 373.980469 379.320312 C 373.640625 379.882812 339.890625 435.75 312.515625 456.21875 C 312.347656 456.34375 312.152344 456.402344 311.957031 456.402344 " fill-opacity="1" fill-rule="nonzero"/><path fill="#caddff" d="M 309.78125 557.3125 C 308.816406 557.3125 307.847656 557.269531 306.878906 557.1875 C 306.367188 557.140625 305.984375 556.691406 306.03125 556.175781 C 306.074219 555.664062 306.523438 555.285156 307.039062 555.328125 C 320.636719 556.5 333.855469 548.910156 346.351562 532.765625 C 356.457031 519.710938 366.089844 501.097656 374.980469 477.445312 C 389.140625 439.777344 396.902344 401.066406 397.933594 395.742188 L 387.515625 389.105469 C 387.082031 388.828125 386.953125 388.253906 387.230469 387.816406 C 387.507812 387.382812 388.085938 387.253906 388.519531 387.53125 L 399.472656 394.507812 C 399.792969 394.710938 399.960938 395.09375 399.890625 395.46875 C 399.8125 395.882812 391.957031 437.574219 376.734375 478.082031 C 367.777344 501.917969 358.054688 520.695312 347.832031 533.902344 C 335.796875 549.449219 323.011719 557.3125 309.78125 557.3125 " fill-opacity="1" fill-rule="nonzero"/><path fill="#ffffff" d="M 208.800781 295.265625 C 208.96875 312.46875 195.128906 326.996094 177.882812 327.714844 C 160.640625 328.433594 146.527344 315.074219 146.359375 297.871094 C 146.1875 280.667969 160.03125 266.140625 177.273438 265.421875 C 194.515625 264.703125 208.632812 278.0625 208.800781 295.265625 " fill-opacity="1" fill-rule="nonzero"/><path fill="#000000" d="M 176.511719 329.664062 C 168.164062 329.664062 160.339844 326.574219 154.34375 320.878906 C 148.042969 314.890625 144.523438 306.742188 144.4375 297.925781 C 144.257812 279.707031 158.964844 264.261719 177.222656 263.503906 C 188.257812 263.046875 198.59375 268.070312 204.871094 276.949219 C 205.171875 277.371094 205.070312 277.953125 204.648438 278.25 C 204.230469 278.546875 203.644531 278.449219 203.347656 278.027344 C 197.4375 269.667969 187.707031 264.933594 177.300781 265.367188 C 160.039062 266.089844 146.132812 280.683594 146.304688 297.90625 C 146.386719 306.210938 149.695312 313.890625 155.628906 319.523438 C 161.59375 325.191406 169.484375 328.121094 177.855469 327.769531 C 195.117188 327.046875 209.023438 312.453125 208.855469 295.234375 C 208.847656 294.71875 209.265625 294.292969 209.777344 294.292969 C 209.78125 294.292969 209.785156 294.292969 209.789062 294.292969 C 210.300781 294.292969 210.714844 294.703125 210.722656 295.214844 C 210.902344 313.433594 196.191406 328.871094 177.933594 329.636719 C 177.460938 329.652344 176.984375 329.664062 176.511719 329.664062 " fill-opacity="1" fill-rule="nonzero"/><path fill="#5479f7" d="M 175.34375 315.230469 L 175.300781 310.90625 C 172.246094 310.898438 169.273438 310.203125 167.53125 309.273438 L 168.847656 303.894531 C 170.773438 304.859375 173.472656 305.707031 176.4375 305.582031 C 179.035156 305.472656 180.804688 304.394531 180.785156 302.578125 C 180.769531 300.851562 179.296875 299.820312 175.914062 298.820312 C 171.019531 297.386719 167.667969 295.253906 167.625 290.839844 C 167.585938 286.835938 170.382812 283.582031 175.25 282.421875 L 175.207031 278.101562 L 179.675781 277.914062 L 179.714844 281.917969 C 182.773438 281.925781 184.832031 282.476562 186.34375 283.140625 L 185.070312 288.335938 C 183.878906 287.886719 181.773438 286.929688 178.488281 287.0625 C 175.527344 287.1875 174.582031 288.503906 174.59375 289.773438 C 174.609375 291.277344 176.210938 292.167969 180.101562 293.460938 C 185.546875 295.144531 187.761719 297.554688 187.800781 301.648438 C 187.839844 305.695312 185.003906 309.273438 179.765625 310.402344 L 179.8125 315.039062 L 175.34375 315.230469 " fill-opacity="1" fill-rule="nonzero"/><path fill="#99b9ff" d="M 249.761719 408.875 L 159.320312 408.875 C 153.890625 408.875 149.828125 403.925781 150.921875 398.640625 L 164.644531 332.371094 C 165.796875 326.796875 170.734375 322.796875 176.460938 322.796875 L 254.039062 322.796875 L 249.761719 408.875 " fill-opacity="1" fill-rule="nonzero"/><path fill="#000000" d="M 176.460938 323.734375 C 171.203125 323.734375 166.617188 327.445312 165.558594 332.558594 L 151.835938 398.832031 C 151.375 401.0625 151.9375 403.355469 153.378906 405.125 C 154.835938 406.914062 157 407.941406 159.320312 407.941406 L 248.875 407.941406 L 253.058594 323.734375 Z M 249.761719 409.808594 L 159.320312 409.808594 C 156.4375 409.808594 153.742188 408.53125 151.929688 406.300781 C 150.132812 404.09375 149.433594 401.234375 150.007812 398.453125 L 163.730469 332.183594 C 164.96875 326.203125 170.324219 321.863281 176.460938 321.863281 L 254.039062 321.863281 C 254.292969 321.863281 254.539062 321.96875 254.714844 322.15625 C 254.890625 322.339844 254.984375 322.589844 254.96875 322.84375 L 250.691406 408.921875 C 250.667969 409.421875 250.257812 409.808594 249.761719 409.808594 " fill-opacity="1" fill-rule="nonzero"/><path fill="#5479f7" d="M 261.339844 408.875 L 243.789062 408.875 C 238.359375 408.875 234.296875 403.925781 235.394531 398.640625 L 250.503906 325.648438 C 250.847656 323.988281 252.320312 322.796875 254.023438 322.796875 L 258.539062 322.796875 C 260.410156 322.796875 261.964844 324.226562 262.117188 326.078125 L 268.300781 401.375 C 268.632812 405.414062 265.421875 408.875 261.339844 408.875 " fill-opacity="1" fill-rule="nonzero"/><path fill="#000000" d="M 254.023438 323.734375 C 252.765625 323.734375 251.671875 324.617188 251.417969 325.839844 L 236.304688 398.832031 C 235.84375 401.0625 236.40625 403.355469 237.847656 405.125 C 239.304688 406.914062 241.46875 407.941406 243.789062 407.941406 L 261.339844 407.941406 C 263.058594 407.941406 264.644531 407.25 265.804688 405.988281 C 266.953125 404.746094 267.507812 403.132812 267.371094 401.449219 L 261.1875 326.152344 C 261.078125 324.796875 259.914062 323.734375 258.539062 323.734375 Z M 261.339844 409.808594 L 243.789062 409.808594 C 240.90625 409.808594 238.214844 408.53125 236.398438 406.300781 C 234.601562 404.09375 233.902344 401.234375 234.476562 398.453125 L 249.589844 325.460938 C 250.023438 323.375 251.886719 321.863281 254.023438 321.863281 L 258.539062 321.863281 C 260.875 321.863281 262.859375 323.683594 263.050781 326 L 269.230469 401.296875 C 269.410156 403.472656 268.664062 405.644531 267.179688 407.253906 C 265.683594 408.878906 263.554688 409.808594 261.339844 409.808594 " fill-opacity="1" fill-rule="nonzero"/><path fill="#000000" d="M 233.238281 358.519531 L 166.625 358.519531 C 166.109375 358.519531 165.691406 358.101562 165.691406 357.585938 C 165.691406 357.070312 166.109375 356.652344 166.625 356.652344 L 233.238281 356.652344 C 234.914062 356.652344 236.351562 355.523438 236.738281 353.90625 L 242.980469 327.726562 C 243.097656 327.222656 243.605469 326.914062 244.105469 327.035156 C 244.605469 327.152344 244.914062 327.65625 244.796875 328.15625 L 238.554688 354.339844 C 237.964844 356.800781 235.78125 358.519531 233.238281 358.519531 " fill-opacity="1" fill-rule="nonzero"/><path fill="#ffffff" d="M 210.25 357.585938 L 208.808594 365.535156 C 208.488281 366.878906 207.277344 367.832031 205.886719 367.832031 L 191.863281 367.832031 C 190.335938 367.832031 189.230469 366.382812 189.640625 364.921875 L 191.152344 357.585938 L 210.25 357.585938 " fill-opacity="1" fill-rule="nonzero"/><path fill="#000000" d="M 191.914062 358.519531 L 190.550781 365.109375 C 190.546875 365.132812 190.542969 365.152344 190.539062 365.175781 C 190.421875 365.585938 190.503906 366.011719 190.761719 366.351562 C 191.023438 366.699219 191.425781 366.898438 191.863281 366.898438 L 205.886719 366.898438 C 206.851562 366.898438 207.679688 366.25 207.902344 365.320312 L 209.132812 358.519531 Z M 205.886719 368.765625 L 191.863281 368.765625 C 190.835938 368.765625 189.890625 368.296875 189.273438 367.480469 C 188.667969 366.683594 188.472656 365.671875 188.730469 364.703125 L 190.238281 357.398438 C 190.328125 356.960938 190.710938 356.652344 191.152344 356.652344 L 210.253906 356.652344 C 210.527344 356.652344 210.792969 356.777344 210.96875 356.988281 C 211.144531 357.199219 211.21875 357.480469 211.171875 357.753906 L 209.726562 365.703125 C 209.292969 367.527344 207.71875 368.765625 205.886719 368.765625 " fill-opacity="1" fill-rule="nonzero"/><path fill="#000000" d="M 228.527344 403.152344 L 158.589844 403.152344 C 158.074219 403.152344 157.65625 402.734375 157.65625 402.21875 C 157.65625 401.703125 158.074219 401.285156 158.589844 401.285156 L 228.527344 401.285156 C 229.042969 401.285156 229.460938 401.703125 229.460938 402.21875 C 229.460938 402.734375 229.042969 403.152344 228.527344 403.152344 " fill-opacity="1" fill-rule="nonzero"/><path fill="#5479f7" d="M 194.929688 318.503906 L 187.902344 318.503906 C 185.445312 318.503906 185.027344 321.066406 185.027344 322.644531 L 197.804688 322.644531 C 197.804688 321.066406 197.386719 318.503906 194.929688 318.503906 " fill-opacity="1" fill-rule="nonzero"/><path fill="#000000" d="M 186.015625 321.710938 L 196.820312 321.710938 C 196.675781 320.527344 196.199219 319.4375 194.929688 319.4375 L 187.902344 319.4375 C 186.632812 319.4375 186.15625 320.527344 186.015625 321.710938 Z M 197.804688 323.578125 L 185.027344 323.578125 C 184.511719 323.578125 184.09375 323.160156 184.09375 322.644531 C 184.09375 319.46875 185.519531 317.570312 187.902344 317.570312 L 194.929688 317.570312 C 197.3125 317.570312 198.738281 319.46875 198.738281 322.644531 C 198.738281 323.160156 198.320312 323.578125 197.804688 323.578125 " fill-opacity="1" fill-rule="nonzero"/><path fill="#5479f7" d="M 241.394531 318.503906 L 234.386719 318.503906 C 231.636719 318.503906 231.511719 321.066406 231.511719 322.644531 L 244.265625 322.644531 C 244.265625 321.066406 243.972656 318.503906 241.394531 318.503906 " fill-opacity="1" fill-rule="nonzero"/><path fill="#000000" d="M 232.480469 321.710938 L 243.289062 321.710938 C 243.046875 319.4375 241.910156 319.4375 241.394531 319.4375 L 234.386719 319.4375 C 233.160156 319.4375 232.613281 320.050781 232.480469 321.710938 Z M 244.265625 323.578125 L 231.511719 323.578125 C 230.996094 323.578125 230.578125 323.160156 230.578125 322.644531 C 230.578125 321.390625 230.578125 317.570312 234.386719 317.570312 L 241.394531 317.570312 C 242.816406 317.570312 245.199219 318.230469 245.199219 322.644531 C 245.199219 323.160156 244.78125 323.578125 244.265625 323.578125 " fill-opacity="1" fill-rule="nonzero"/><path fill="#ffffff" d="M 240.292969 318.351562 L 241.238281 312.765625 C 241.910156 308.804688 239.222656 305.164062 235.234375 305.164062 L 198.203125 305.164062 C 194.214844 305.164062 190.441406 308.804688 189.769531 312.765625 L 188.824219 318.351562 L 194.234375 318.351562 L 194.972656 314.003906 C 195.492188 310.917969 198.433594 308.851562 201.535156 308.851562 L 231.398438 308.851562 C 234.925781 308.851562 236.59375 310.917969 236.070312 314.003906 L 235.335938 318.351562 L 240.292969 318.351562 " fill-opacity="1" fill-rule="nonzero"/><path fill="#000000" d="M 236.441406 317.414062 L 239.503906 317.414062 L 240.320312 312.609375 C 240.613281 310.867188 240.171875 309.136719 239.105469 307.875 C 238.136719 306.726562 236.761719 306.097656 235.234375 306.097656 L 198.203125 306.097656 C 194.816406 306.097656 191.304688 309.285156 190.6875 312.917969 L 189.925781 317.414062 L 193.445312 317.414062 L 194.050781 313.847656 C 194.625 310.46875 197.839844 307.917969 201.535156 307.917969 L 231.398438 307.917969 C 233.421875 307.917969 235.015625 308.539062 236.011719 309.71875 C 236.953125 310.835938 237.292969 312.371094 236.992188 314.160156 Z M 240.292969 319.28125 L 235.335938 319.28125 C 235.058594 319.28125 234.796875 319.164062 234.621094 318.953125 C 234.445312 318.742188 234.367188 318.460938 234.414062 318.191406 L 235.152344 313.847656 C 235.296875 312.988281 235.316406 311.789062 234.582031 310.921875 C 233.953125 310.179688 232.851562 309.785156 231.398438 309.785156 L 201.535156 309.785156 C 198.738281 309.785156 196.3125 311.664062 195.890625 314.160156 L 195.15625 318.507812 C 195.078125 318.953125 194.691406 319.28125 194.234375 319.28125 L 188.824219 319.28125 C 188.546875 319.28125 188.285156 319.164062 188.109375 318.953125 C 187.933594 318.742188 187.855469 318.460938 187.902344 318.191406 L 188.847656 312.609375 C 189.617188 308.070312 193.902344 304.230469 198.203125 304.230469 L 235.234375 304.230469 C 237.320312 304.230469 239.203125 305.097656 240.53125 306.667969 C 241.953125 308.351562 242.546875 310.632812 242.160156 312.917969 L 241.214844 318.507812 C 241.136719 318.953125 240.746094 319.28125 240.292969 319.28125 " fill-opacity="1" fill-rule="nonzero"/><path fill="#99b9ff" d="M 233.054688 303.28125 L 202.125 303.28125 C 200.878906 303.28125 199.695312 304.285156 199.488281 305.523438 L 199.03125 308.210938 C 198.824219 309.445312 199.664062 310.449219 200.910156 310.449219 L 231.839844 310.449219 C 233.089844 310.449219 234.269531 309.445312 234.476562 308.210938 L 234.933594 305.523438 C 235.140625 304.285156 234.300781 303.28125 233.054688 303.28125 " fill-opacity="1" fill-rule="nonzero"/><path fill="#000000" d="M 202.125 304.214844 C 201.328125 304.214844 200.542969 304.886719 200.40625 305.675781 L 199.953125 308.367188 C 199.898438 308.691406 199.964844 308.984375 200.144531 309.199219 C 200.316406 309.402344 200.589844 309.515625 200.910156 309.515625 L 231.839844 309.515625 C 232.636719 309.515625 233.421875 308.84375 233.558594 308.050781 L 234.011719 305.367188 C 234.066406 305.039062 234 304.742188 233.824219 304.535156 C 233.648438 304.328125 233.375 304.214844 233.054688 304.214844 Z M 231.839844 311.386719 L 200.910156 311.386719 C 200.03125 311.386719 199.253906 311.035156 198.71875 310.402344 C 198.1875 309.773438 197.96875 308.917969 198.113281 308.050781 L 198.566406 305.367188 C 198.855469 303.675781 200.417969 302.347656 202.125 302.347656 L 233.054688 302.347656 C 233.9375 302.347656 234.714844 302.699219 235.25 303.332031 C 235.78125 303.957031 236 304.8125 235.851562 305.675781 L 235.398438 308.367188 C 235.113281 310.058594 233.546875 311.386719 231.839844 311.386719 " fill-opacity="1" fill-rule="nonzero"/><path fill="#99b9ff" d="M 243.625 403.152344 C 243.296875 403.152344 242.984375 402.984375 242.8125 402.679688 C 242.558594 402.230469 242.714844 401.660156 243.164062 401.40625 L 254.8125 394.808594 L 254.8125 327.941406 C 254.8125 327.425781 255.230469 327.007812 255.746094 327.007812 C 256.261719 327.007812 256.679688 327.425781 256.679688 327.941406 L 256.679688 395.355469 C 256.679688 395.691406 256.5 396 256.207031 396.167969 L 244.082031 403.03125 C 243.9375 403.113281 243.78125 403.152344 243.625 403.152344 " fill-opacity="1" fill-rule="nonzero"/><path fill="#ffffff" d="M 646.597656 425.933594 L 549.761719 425.933594 C 548.558594 425.933594 547.582031 424.957031 547.582031 423.753906 L 547.582031 359.246094 C 547.582031 358.039062 548.558594 357.0625 549.761719 357.0625 L 646.597656 357.0625 C 647.800781 357.0625 648.78125 358.039062 648.78125 359.246094 L 648.78125 423.753906 C 648.78125 424.957031 647.800781 425.933594 646.597656 425.933594 " fill-opacity="1" fill-rule="nonzero"/><path fill="#000000" d="M 644.28125 426.777344 L 631.574219 426.777344 C 631.0625 426.777344 630.644531 426.359375 630.644531 425.84375 C 630.644531 425.328125 631.0625 424.910156 631.574219 424.910156 L 644.28125 424.910156 C 646.425781 424.910156 648.171875 423.175781 648.171875 421.050781 L 648.171875 361.695312 C 648.171875 359.566406 646.425781 357.832031 644.28125 357.832031 L 556.421875 357.832031 C 555.90625 357.832031 555.488281 357.414062 555.488281 356.902344 C 555.488281 356.382812 555.90625 355.96875 556.421875 355.96875 L 644.28125 355.96875 C 647.457031 355.96875 650.039062 358.535156 650.039062 361.695312 L 650.039062 421.050781 C 650.039062 424.207031 647.457031 426.777344 644.28125 426.777344 " fill-opacity="1" fill-rule="nonzero"/><path fill="#000000" d="M 584.636719 426.777344 L 552.738281 426.777344 C 549.5625 426.777344 546.976562 424.207031 546.976562 421.046875 L 546.976562 394.628906 C 546.976562 394.113281 547.394531 393.695312 547.914062 393.695312 C 548.425781 393.695312 548.847656 394.113281 548.847656 394.628906 L 548.847656 421.046875 C 548.847656 423.175781 550.589844 424.910156 552.738281 424.910156 L 584.636719 424.910156 C 585.152344 424.910156 585.570312 425.328125 585.570312 425.84375 C 585.570312 426.355469 585.152344 426.777344 584.636719 426.777344 " fill-opacity="1" fill-rule="nonzero"/><path fill="#000000" d="M 598.511719 417.875 C 597.996094 417.875 597.578125 417.453125 597.578125 416.9375 L 597.578125 366.734375 C 597.578125 366.214844 597.996094 365.796875 598.511719 365.796875 C 599.027344 365.796875 599.445312 366.214844 599.445312 366.734375 L 599.445312 416.9375 C 599.445312 417.453125 599.027344 417.875 598.511719 417.875 " fill-opacity="1" fill-rule="nonzero"/><path fill="#000000" d="M 595.339844 370.457031 L 598.507812 367.285156 L 601.671875 370.457031 L 601.671875 367.765625 L 598.507812 364.601562 L 595.339844 367.765625 L 595.339844 370.457031 " fill-opacity="1" fill-rule="nonzero"/><path fill="#000000" d="M 636.46875 397.628906 L 558.417969 397.628906 C 557.902344 397.628906 557.484375 397.210938 557.484375 396.691406 C 557.484375 396.183594 557.902344 395.761719 558.417969 395.761719 L 636.46875 395.761719 C 636.984375 395.761719 637.402344 396.183594 637.402344 396.691406 C 637.402344 397.210938 636.984375 397.628906 636.46875 397.628906 " fill-opacity="1" fill-rule="nonzero"/><path fill="#000000" d="M 632.75 399.863281 L 635.917969 396.695312 L 632.75 393.53125 L 635.4375 393.53125 L 638.601562 396.695312 L 635.4375 399.863281 L 632.75 399.863281 " fill-opacity="1" fill-rule="nonzero"/><path fill="#5479f7" d="M 598.6875 414.410156 C 589.316406 414.410156 581.6875 406.828125 581.6875 397.507812 L 581.6875 388.042969 C 581.6875 379.753906 574.898438 373.007812 566.550781 373.007812 L 558.421875 373.007812 C 557.902344 373.007812 557.488281 372.59375 557.488281 372.074219 C 557.488281 371.558594 557.902344 371.140625 558.421875 371.140625 L 566.550781 371.140625 C 575.925781 371.140625 583.550781 378.722656 583.550781 388.042969 L 583.550781 397.507812 C 583.550781 405.800781 590.34375 412.542969 598.6875 412.542969 C 607.035156 412.542969 613.824219 405.800781 613.824219 397.507812 L 613.824219 388.042969 C 613.824219 378.722656 621.453125 371.140625 630.828125 371.140625 L 635.59375 371.140625 C 636.109375 371.140625 636.527344 371.558594 636.527344 372.074219 C 636.527344 372.59375 636.109375 373.007812 635.59375 373.007812 L 630.828125 373.007812 C 622.484375 373.007812 615.695312 379.753906 615.695312 388.042969 L 615.695312 397.507812 C 615.695312 406.828125 608.0625 414.410156 598.6875 414.410156 " fill-opacity="1" fill-rule="nonzero"/><path fill="#5479f7" d="M 520.5 385.332031 L 562.5625 385.332031 L 520.5 342.222656 Z M 564.773438 387.199219 L 519.5625 387.199219 C 519.050781 387.199219 518.632812 386.777344 518.632812 386.265625 L 518.632812 339.929688 C 518.632812 339.546875 518.863281 339.203125 519.214844 339.0625 C 519.5625 338.917969 519.96875 339.003906 520.234375 339.273438 L 565.441406 385.609375 C 565.703125 385.882812 565.78125 386.277344 565.636719 386.625 C 565.492188 386.976562 565.152344 387.199219 564.773438 387.199219 " fill-opacity="1" fill-rule="nonzero"/><path fill="#5479f7" d="M 523.828125 386.265625 C 523.828125 388.609375 521.917969 390.503906 519.5625 390.503906 C 517.207031 390.503906 515.296875 388.609375 515.296875 386.265625 C 515.296875 383.925781 517.207031 382.03125 519.5625 382.03125 C 521.917969 382.03125 523.828125 383.925781 523.828125 386.265625 " fill-opacity="1" fill-rule="nonzero"/><path fill="#000000" d="M 519.566406 382.957031 C 517.730469 382.957031 516.230469 384.445312 516.230469 386.265625 C 516.230469 388.085938 517.730469 389.566406 519.566406 389.566406 C 521.40625 389.566406 522.898438 388.085938 522.898438 386.265625 C 522.898438 384.445312 521.40625 382.957031 519.566406 382.957031 Z M 519.566406 391.433594 C 516.699219 391.433594 514.371094 389.117188 514.371094 386.265625 C 514.371094 383.410156 516.699219 381.089844 519.566406 381.089844 C 522.433594 381.089844 524.765625 383.410156 524.765625 386.265625 C 524.765625 389.117188 522.433594 391.433594 519.566406 391.433594 " fill-opacity="1" fill-rule="nonzero"/><path fill="#5479f7" d="M 569.042969 386.265625 C 569.042969 388.605469 567.128906 390.503906 564.773438 390.503906 C 562.417969 390.503906 560.511719 388.605469 560.511719 386.265625 C 560.511719 383.925781 562.417969 382.027344 564.773438 382.027344 C 567.128906 382.027344 569.042969 383.925781 569.042969 386.265625 " fill-opacity="1" fill-rule="nonzero"/><path fill="#000000" d="M 564.773438 382.960938 C 562.9375 382.960938 561.4375 384.445312 561.4375 386.269531 C 561.4375 388.085938 562.9375 389.566406 564.773438 389.566406 C 566.609375 389.566406 568.109375 388.085938 568.109375 386.269531 C 568.109375 384.445312 566.609375 382.960938 564.773438 382.960938 Z M 564.773438 391.4375 C 561.910156 391.4375 559.574219 389.117188 559.574219 386.269531 C 559.574219 383.414062 561.910156 381.09375 564.773438 381.09375 C 567.640625 381.09375 569.976562 383.414062 569.976562 386.269531 C 569.976562 389.117188 567.640625 391.4375 564.773438 391.4375 " fill-opacity="1" fill-rule="nonzero"/><path fill="#5479f7" d="M 523.828125 339.929688 C 523.828125 342.269531 521.917969 344.167969 519.5625 344.167969 C 517.207031 344.167969 515.296875 342.269531 515.296875 339.929688 C 515.296875 337.589844 517.207031 335.691406 519.5625 335.691406 C 521.917969 335.691406 523.828125 337.589844 523.828125 339.929688 " fill-opacity="1" fill-rule="nonzero"/><path fill="#000000" d="M 519.566406 336.621094 C 517.730469 336.621094 516.230469 338.101562 516.230469 339.925781 C 516.230469 341.75 517.730469 343.230469 519.566406 343.230469 C 521.40625 343.230469 522.898438 341.75 522.898438 339.925781 C 522.898438 338.101562 521.40625 336.621094 519.566406 336.621094 Z M 519.566406 345.097656 C 516.699219 345.097656 514.371094 342.777344 514.371094 339.925781 C 514.371094 337.074219 516.699219 334.75 519.566406 334.75 C 522.433594 334.75 524.765625 337.074219 524.765625 339.925781 C 524.765625 342.777344 522.433594 345.097656 519.566406 345.097656 " fill-opacity="1" fill-rule="nonzero"/><path fill="#ffffff" d="M 597.628906 272.65625 L 520.113281 272.65625 C 518.605469 272.65625 517.378906 271.425781 517.378906 269.914062 L 517.378906 192.089844 C 517.378906 190.574219 518.605469 189.347656 520.113281 189.347656 L 597.628906 189.347656 C 599.144531 189.347656 600.371094 190.574219 600.371094 192.089844 L 600.371094 269.914062 C 600.371094 271.425781 599.144531 272.65625 597.628906 272.65625 " fill-opacity="1" fill-rule="nonzero"/><path fill="#000000" d="M 523.421875 190.28125 C 520.601562 190.28125 518.308594 192.574219 518.308594 195.390625 L 518.308594 266.605469 C 518.308594 269.425781 520.601562 271.722656 523.421875 271.722656 L 594.328125 271.722656 C 597.140625 271.722656 599.4375 269.425781 599.4375 266.605469 L 599.4375 195.390625 C 599.4375 192.574219 597.140625 190.28125 594.328125 190.28125 Z M 594.328125 273.589844 L 523.421875 273.589844 C 519.574219 273.589844 516.441406 270.457031 516.441406 266.605469 L 516.441406 195.390625 C 516.441406 191.542969 519.574219 188.414062 523.421875 188.414062 L 594.328125 188.414062 C 598.171875 188.414062 601.300781 191.542969 601.300781 195.390625 L 601.300781 266.605469 C 601.300781 270.457031 598.171875 273.589844 594.328125 273.589844 " fill-opacity="1" fill-rule="nonzero"/><path fill="#99b9ff" d="M 528.234375 244.511719 C 527.878906 244.511719 527.539062 244.304688 527.382812 243.960938 C 527.171875 243.488281 527.382812 242.933594 527.855469 242.726562 C 556.394531 229.953125 578.285156 211.941406 589.253906 199.34375 C 589.589844 198.953125 590.183594 198.914062 590.570312 199.25 C 590.960938 199.589844 591 200.179688 590.660156 200.570312 C 579.5625 213.316406 557.429688 231.535156 528.617188 244.429688 C 528.492188 244.484375 528.359375 244.511719 528.234375 244.511719 " fill-opacity="1" fill-rule="nonzero"/><path fill="#99b9ff" d="M 590.535156 205.894531 C 590.527344 205.894531 590.527344 205.894531 590.523438 205.894531 C 590.007812 205.890625 589.59375 205.46875 589.601562 204.949219 L 589.660156 199.792969 L 584.195312 199.625 C 583.679688 199.605469 583.273438 199.179688 583.292969 198.664062 C 583.308594 198.144531 583.734375 197.714844 584.257812 197.757812 L 590.628906 197.953125 C 591.140625 197.96875 591.542969 198.390625 591.535156 198.898438 L 591.464844 204.976562 C 591.460938 205.484375 591.042969 205.894531 590.535156 205.894531 " fill-opacity="1" fill-rule="nonzero"/><path fill="#caddff" d="M 534.738281 263.910156 L 529.171875 263.910156 C 528.296875 263.910156 527.59375 263.203125 527.59375 262.332031 L 527.59375 254.410156 C 527.59375 253.539062 528.296875 252.832031 529.171875 252.832031 L 534.738281 252.832031 C 535.609375 252.832031 536.3125 253.539062 536.3125 254.410156 L 536.3125 262.332031 C 536.3125 263.203125 535.609375 263.910156 534.738281 263.910156 " fill-opacity="1" fill-rule="nonzero"/><path fill="#caddff" d="M 552.910156 263.910156 L 547.339844 263.910156 C 546.46875 263.910156 545.761719 263.203125 545.761719 262.332031 L 545.761719 244.601562 C 545.761719 243.730469 546.46875 243.023438 547.339844 243.023438 L 552.910156 243.023438 C 553.777344 243.023438 554.484375 243.730469 554.484375 244.601562 L 554.484375 262.332031 C 554.484375 263.203125 553.777344 263.910156 552.910156 263.910156 " fill-opacity="1" fill-rule="nonzero"/><path fill="#caddff" d="M 571.082031 263.90625 L 565.511719 263.90625 C 564.640625 263.90625 563.933594 263.203125 563.933594 262.328125 L 563.933594 234.089844 C 563.933594 233.21875 564.640625 232.511719 565.511719 232.511719 L 571.082031 232.511719 C 571.953125 232.511719 572.660156 233.21875 572.660156 234.089844 L 572.660156 262.328125 C 572.660156 263.203125 571.953125 263.90625 571.082031 263.90625 " fill-opacity="1" fill-rule="nonzero"/><path fill="#99b9ff" d="M 589.253906 263.90625 L 583.683594 263.90625 C 582.816406 263.90625 582.109375 263.199219 582.109375 262.328125 L 582.109375 220.511719 C 582.109375 219.640625 582.816406 218.9375 583.683594 218.9375 L 589.253906 218.9375 C 590.125 218.9375 590.832031 219.640625 590.832031 220.511719 L 590.832031 262.328125 C 590.832031 263.199219 590.125 263.90625 589.253906 263.90625 " fill-opacity="1" fill-rule="nonzero"/><path fill="#ffffff" d="M 518.207031 209.882812 C 507.960938 209.882812 499.65625 201.632812 499.65625 191.453125 C 499.65625 181.273438 507.960938 173.023438 518.207031 173.023438 C 528.449219 173.023438 536.753906 181.273438 536.753906 191.453125 C 536.753906 201.632812 528.449219 209.882812 518.207031 209.882812 Z M 553.882812 183.652344 C 553.824219 183.21875 553.46875 182.886719 553.03125 182.855469 L 546.71875 182.34375 C 546.347656 182.3125 546.039062 182.0625 545.917969 181.71875 C 545.507812 180.554688 545.023438 179.421875 544.476562 178.335938 C 544.3125 178.007812 544.347656 177.617188 544.585938 177.335938 L 548.585938 172.460938 C 548.867188 172.125 548.867188 171.644531 548.597656 171.300781 L 545.183594 166.960938 C 544.910156 166.617188 544.441406 166.503906 544.046875 166.691406 L 538.316406 169.386719 C 537.984375 169.542969 537.59375 169.488281 537.308594 169.25 C 536.375 168.453125 535.394531 167.714844 534.363281 167.046875 C 534.054688 166.84375 533.890625 166.488281 533.953125 166.125 L 534.964844 159.902344 C 535.039062 159.472656 534.800781 159.054688 534.390625 158.890625 L 529.253906 156.832031 C 528.84375 156.667969 528.378906 156.808594 528.128906 157.164062 L 524.535156 162.339844 C 524.320312 162.644531 523.953125 162.789062 523.59375 162.71875 C 522.394531 162.5 521.167969 162.351562 519.925781 162.285156 C 519.554688 162.261719 519.234375 162.035156 519.101562 161.691406 L 516.859375 155.800781 C 516.703125 155.394531 516.285156 155.148438 515.851562 155.207031 L 510.363281 155.980469 C 509.925781 156.042969 509.597656 156.394531 509.5625 156.828125 L 509.042969 163.105469 C 509.015625 163.472656 508.769531 163.78125 508.417969 163.902344 C 507.246094 164.3125 506.109375 164.789062 505.015625 165.332031 C 504.6875 165.496094 504.292969 165.460938 504.007812 165.230469 L 499.109375 161.25 C 498.769531 160.976562 498.285156 160.972656 497.9375 161.238281 L 493.570312 164.636719 C 493.226562 164.90625 493.117188 165.375 493.304688 165.765625 L 496.015625 171.464844 C 496.171875 171.792969 496.117188 172.183594 495.875 172.460938 C 495.074219 173.390625 494.335938 174.371094 493.660156 175.394531 C 493.453125 175.699219 493.097656 175.863281 492.730469 175.804688 L 486.472656 174.792969 C 486.042969 174.722656 485.617188 174.957031 485.457031 175.363281 L 483.382812 180.476562 C 483.21875 180.882812 483.363281 181.34375 483.722656 181.589844 L 488.921875 185.167969 C 489.226562 185.375 489.371094 185.742188 489.304688 186.101562 C 489.082031 187.292969 488.933594 188.515625 488.863281 189.75 C 488.847656 190.113281 488.613281 190.4375 488.265625 190.566406 L 482.34375 192.800781 C 481.933594 192.953125 481.691406 193.367188 481.75 193.800781 L 482.523438 199.257812 C 482.585938 199.6875 482.941406 200.023438 483.378906 200.054688 L 489.691406 200.566406 C 490.058594 200.597656 490.367188 200.839844 490.496094 201.191406 C 490.902344 202.355469 491.382812 203.484375 491.933594 204.574219 C 492.097656 204.898438 492.058594 205.289062 491.824219 205.574219 L 487.820312 210.445312 C 487.546875 210.78125 487.539062 211.265625 487.808594 211.609375 L 491.230469 215.949219 C 491.5 216.289062 491.972656 216.402344 492.367188 216.214844 L 498.09375 213.519531 C 498.429688 213.363281 498.820312 213.421875 499.097656 213.660156 C 500.035156 214.453125 501.019531 215.1875 502.046875 215.863281 C 502.355469 216.0625 502.519531 216.421875 502.460938 216.785156 L 501.441406 223.003906 C 501.375 223.433594 501.609375 223.855469 502.015625 224.019531 L 507.15625 226.074219 C 507.5625 226.238281 508.027344 226.101562 508.277344 225.742188 L 511.878906 220.566406 C 512.085938 220.265625 512.453125 220.121094 512.8125 220.1875 C 514.019531 220.410156 515.242188 220.554688 516.480469 220.625 C 516.851562 220.644531 517.175781 220.875 517.308594 221.21875 L 519.550781 227.109375 C 519.707031 227.511719 520.121094 227.761719 520.558594 227.699219 L 526.046875 226.925781 C 526.480469 226.863281 526.816406 226.511719 526.851562 226.082031 L 527.363281 219.804688 C 527.394531 219.4375 527.640625 219.128906 527.988281 219.007812 C 529.164062 218.59375 530.296875 218.117188 531.394531 217.574219 C 531.722656 217.410156 532.117188 217.445312 532.402344 217.679688 L 537.300781 221.65625 C 537.640625 221.929688 538.128906 221.9375 538.46875 221.667969 L 542.835938 218.273438 C 543.179688 218.003906 543.292969 217.535156 543.105469 217.144531 L 540.394531 211.445312 C 540.234375 211.117188 540.292969 210.726562 540.53125 210.449219 C 541.332031 209.519531 542.074219 208.535156 542.75 207.511719 C 542.953125 207.210938 543.3125 207.046875 543.679688 207.105469 L 549.933594 208.113281 C 550.367188 208.183594 550.789062 207.945312 550.949219 207.546875 L 553.027344 202.429688 C 553.191406 202.027344 553.046875 201.566406 552.6875 201.320312 L 547.484375 197.738281 C 547.183594 197.53125 547.035156 197.167969 547.101562 196.808594 C 547.328125 195.613281 547.472656 194.390625 547.542969 193.160156 C 547.566406 192.792969 547.792969 192.472656 548.144531 192.34375 L 554.0625 190.109375 C 554.472656 189.957031 554.71875 189.539062 554.660156 189.105469 L 553.882812 183.652344 " fill-opacity="1" fill-rule="nonzero"/><path fill="#000000" d="M 518.207031 173.957031 C 508.488281 173.957031 500.589844 181.808594 500.589844 191.457031 C 500.589844 201.101562 508.488281 208.949219 518.207031 208.949219 C 527.914062 208.949219 535.820312 201.101562 535.820312 191.457031 C 535.820312 181.808594 527.914062 173.957031 518.207031 173.957031 Z M 518.207031 210.816406 C 507.464844 210.816406 498.722656 202.128906 498.722656 191.457031 C 498.722656 180.777344 507.464844 172.089844 518.207031 172.089844 C 528.945312 172.089844 537.683594 180.777344 537.683594 191.457031 C 537.683594 202.128906 528.945312 210.816406 518.207031 210.816406 Z M 552.957031 183.78125 Z M 512.640625 219.238281 C 512.757812 219.238281 512.871094 219.25 512.984375 219.269531 C 514.136719 219.484375 515.332031 219.625 516.535156 219.691406 C 517.269531 219.734375 517.917969 220.203125 518.175781 220.882812 L 520.421875 226.777344 L 525.914062 226 L 526.433594 219.726562 C 526.496094 218.996094 526.988281 218.367188 527.679688 218.125 C 528.816406 217.730469 529.925781 217.261719 530.976562 216.738281 C 531.632812 216.410156 532.425781 216.496094 532.988281 216.953125 L 537.886719 220.933594 L 542.265625 217.535156 L 539.550781 211.847656 C 539.234375 211.1875 539.34375 210.398438 539.824219 209.839844 C 540.597656 208.9375 541.320312 207.984375 541.972656 207 C 542.378906 206.386719 543.105469 206.066406 543.824219 206.183594 L 550.082031 207.191406 L 552.15625 202.082031 L 546.953125 198.511719 C 546.355469 198.097656 546.046875 197.363281 546.1875 196.640625 C 546.402344 195.492188 546.542969 194.304688 546.613281 193.109375 C 546.652344 192.367188 547.125 191.726562 547.8125 191.46875 L 553.730469 189.234375 L 552.960938 183.785156 L 546.644531 183.273438 C 545.914062 183.214844 545.285156 182.726562 545.035156 182.035156 C 544.640625 180.90625 544.171875 179.804688 543.644531 178.753906 C 543.308594 178.097656 543.398438 177.308594 543.859375 176.742188 L 547.863281 171.867188 L 544.449219 167.535156 L 538.710938 170.234375 C 538.054688 170.542969 537.269531 170.441406 536.707031 169.960938 C 535.800781 169.191406 534.839844 168.476562 533.851562 167.824219 C 533.234375 167.421875 532.910156 166.695312 533.03125 165.972656 L 534.046875 159.753906 L 528.90625 157.699219 L 525.296875 162.875 C 524.882812 163.472656 524.148438 163.769531 523.425781 163.640625 C 522.269531 163.425781 521.074219 163.28125 519.871094 163.214844 C 519.136719 163.175781 518.492188 162.707031 518.234375 162.023438 L 515.984375 156.136719 L 510.488281 156.90625 L 509.972656 163.179688 C 509.910156 163.914062 509.425781 164.539062 508.726562 164.785156 C 507.589844 165.183594 506.480469 165.644531 505.429688 166.171875 C 504.773438 166.496094 503.984375 166.410156 503.417969 165.953125 L 498.519531 161.976562 L 494.144531 165.375 L 496.859375 171.0625 C 497.171875 171.722656 497.0625 172.511719 496.582031 173.070312 C 495.8125 173.964844 495.085938 174.925781 494.433594 175.910156 C 494.027344 176.523438 493.304688 176.84375 492.578125 176.726562 L 486.328125 175.714844 L 484.246094 180.832031 L 489.449219 184.398438 C 490.054688 184.8125 490.355469 185.550781 490.222656 186.273438 C 490.007812 187.421875 489.867188 188.609375 489.792969 189.804688 C 489.753906 190.539062 489.285156 191.179688 488.597656 191.441406 L 482.671875 193.671875 L 483.449219 199.128906 L 489.765625 199.636719 C 490.496094 199.695312 491.125 200.183594 491.367188 200.878906 C 491.765625 202.003906 492.238281 203.105469 492.765625 204.152344 C 493.097656 204.808594 493.011719 205.601562 492.546875 206.164062 L 488.546875 211.039062 L 491.960938 215.371094 L 497.695312 212.675781 C 498.355469 212.363281 499.144531 212.46875 499.699219 212.949219 C 500.605469 213.714844 501.566406 214.433594 502.558594 215.082031 C 503.175781 215.488281 503.496094 216.210938 503.382812 216.933594 L 502.363281 223.15625 L 507.503906 225.210938 L 511.109375 220.035156 C 511.457031 219.53125 512.039062 219.238281 512.640625 219.238281 Z M 520.421875 228.644531 C 519.652344 228.644531 518.960938 228.175781 518.679688 227.441406 L 516.429688 221.550781 C 515.148438 221.488281 513.878906 221.335938 512.648438 221.105469 L 509.042969 226.277344 C 508.546875 226.996094 507.625 227.265625 506.808594 226.945312 L 501.667969 224.882812 C 500.851562 224.558594 500.378906 223.722656 500.519531 222.855469 L 501.539062 216.632812 C 500.480469 215.953125 499.457031 215.191406 498.496094 214.367188 L 492.765625 217.0625 C 491.964844 217.4375 491.035156 217.214844 490.496094 216.527344 L 487.074219 212.1875 C 486.527344 211.496094 486.542969 210.535156 487.101562 209.855469 L 491.105469 204.980469 C 490.535156 203.875 490.035156 202.703125 489.613281 201.5 L 483.300781 200.984375 C 482.425781 200.914062 481.726562 200.257812 481.601562 199.390625 L 480.824219 193.933594 C 480.703125 193.058594 481.191406 192.234375 482.015625 191.925781 L 487.941406 189.691406 C 488.007812 188.421875 488.15625 187.152344 488.386719 185.929688 L 483.1875 182.359375 C 482.464844 181.859375 482.191406 180.941406 482.515625 180.128906 L 484.589844 175.011719 C 484.921875 174.199219 485.757812 173.726562 486.625 173.875 L 492.878906 174.882812 C 493.578125 173.828125 494.34375 172.808594 495.167969 171.851562 L 492.460938 166.171875 C 492.082031 165.375 492.304688 164.441406 493 163.902344 L 497.367188 160.5 C 498.054688 159.964844 499.015625 159.972656 499.699219 160.527344 L 504.59375 164.503906 C 505.722656 163.9375 506.902344 163.445312 508.113281 163.023438 L 508.628906 156.75 C 508.699219 155.875 509.359375 155.183594 510.230469 155.058594 L 515.71875 154.285156 C 516.589844 154.164062 517.417969 154.648438 517.726562 155.46875 L 519.972656 161.359375 C 521.257812 161.421875 522.53125 161.574219 523.761719 161.800781 L 527.363281 156.632812 C 527.867188 155.914062 528.785156 155.640625 529.601562 155.964844 L 534.742188 158.023438 C 535.558594 158.355469 536.03125 159.1875 535.886719 160.054688 L 534.871094 166.277344 C 535.929688 166.953125 536.953125 167.722656 537.914062 168.539062 L 543.648438 165.847656 C 544.4375 165.472656 545.371094 165.695312 545.914062 166.382812 L 549.335938 170.722656 C 549.875 171.414062 549.867188 172.375 549.308594 173.050781 L 545.304688 177.929688 C 545.875 179.039062 546.375 180.210938 546.800781 181.410156 L 553.109375 181.921875 C 553.984375 181.992188 554.683594 182.648438 554.804688 183.519531 L 555.582031 188.976562 C 555.707031 189.847656 555.214844 190.671875 554.390625 190.980469 L 548.46875 193.214844 C 548.402344 194.488281 548.25 195.753906 548.019531 196.980469 L 553.214844 200.546875 C 553.945312 201.046875 554.21875 201.964844 553.886719 202.78125 L 551.816406 207.894531 C 551.488281 208.707031 550.652344 209.183594 549.78125 209.039062 L 543.527344 208.023438 C 542.835938 209.078125 542.0625 210.09375 541.238281 211.058594 L 543.949219 216.742188 C 544.328125 217.535156 544.105469 218.46875 543.410156 219.011719 L 539.042969 222.40625 C 538.351562 222.945312 537.390625 222.933594 536.710938 222.386719 L 531.8125 218.40625 C 530.6875 218.96875 529.507812 219.464844 528.296875 219.890625 L 527.777344 226.160156 C 527.707031 227.03125 527.046875 227.730469 526.175781 227.851562 L 520.6875 228.625 C 520.597656 228.636719 520.511719 228.644531 520.421875 228.644531 " fill-opacity="1" fill-rule="nonzero"/><path fill="#ffffff" d="M 339.335938 153.84375 C 356.433594 165.625 358.382812 192.925781 344.75 217.105469 C 344.742188 217.117188 344.734375 217.128906 344.730469 217.140625 C 343.71875 219.320312 354.480469 233.65625 354.480469 233.65625 C 354.480469 233.65625 337.585938 227.75 335.769531 229.84375 C 317.960938 250.382812 292.230469 257.804688 275.394531 246.207031 C 256.847656 233.429688 256.125 202.386719 273.78125 176.886719 C 291.4375 151.378906 320.789062 141.0625 339.335938 153.84375 " fill-opacity="1" fill-rule="nonzero"/><path fill="#000000" d="M 286.933594 254.671875 C 279.902344 254.671875 273.394531 252.765625 267.972656 249.03125 C 254.734375 239.90625 249.886719 221.65625 255.328125 201.40625 C 255.460938 200.90625 255.972656 200.609375 256.46875 200.746094 C 256.96875 200.878906 257.265625 201.390625 257.128906 201.886719 C 251.902344 221.355469 256.460938 238.832031 269.03125 247.492188 C 276.890625 252.90625 287.203125 254.234375 298.074219 251.226562 C 308.929688 248.226562 319.621094 241.144531 328.171875 231.28125 C 329.855469 229.339844 338.550781 231.71875 345.085938 233.871094 C 344.09375 232.496094 342.804688 230.664062 341.554688 228.785156 C 336.136719 220.636719 336.691406 219.441406 336.984375 218.796875 L 337.042969 218.691406 C 350.585938 194.679688 348.378906 168.011719 331.910156 156.664062 C 323.671875 150.984375 312.84375 149.808594 301.425781 153.347656 C 289.972656 156.894531 278.960938 164.839844 270.417969 175.71875 C 270.097656 176.125 269.511719 176.195312 269.109375 175.878906 C 268.703125 175.558594 268.632812 174.972656 268.949219 174.570312 C 277.722656 163.394531 289.0625 155.222656 300.871094 151.5625 C 312.851562 147.851562 324.25 149.117188 332.96875 155.125 C 350.226562 167.015625 352.683594 194.707031 338.699219 219.554688 C 338.5625 221.078125 343.570312 228.800781 348.332031 235.144531 L 350.175781 237.601562 L 347.277344 236.585938 C 339.6875 233.933594 330.761719 231.667969 329.558594 232.527344 C 320.789062 242.644531 309.777344 249.933594 298.570312 253.027344 C 294.597656 254.128906 290.691406 254.671875 286.933594 254.671875 " fill-opacity="1" fill-rule="nonzero"/><path fill="#5479f7" d="M 288.316406 215.441406 L 283.519531 219.378906 C 282.851562 219.929688 281.859375 219.851562 281.277344 219.203125 L 252.789062 187.488281 C 252.171875 186.800781 252.246094 185.75 252.953125 185.171875 L 260.230469 179.195312 C 260.9375 178.613281 261.992188 178.738281 262.554688 179.46875 L 288.558594 213.222656 C 289.089844 213.914062 288.984375 214.890625 288.316406 215.441406 " fill-opacity="1" fill-rule="nonzero"/><path fill="#5479f7" d="M 288.53125 229.648438 C 287.558594 226.871094 288.921875 223.972656 291.574219 223.191406 C 294.230469 222.40625 297.167969 224.027344 298.140625 226.808594 C 299.113281 229.589844 297.746094 232.480469 295.09375 233.269531 C 292.441406 234.054688 289.5 232.433594 288.53125 229.648438 " fill-opacity="1" fill-rule="nonzero"/><path fill="#5479f7" d="M 311.242188 217.613281 C 310.03125 214.542969 311.261719 211.59375 314.171875 210.484375 C 317.082031 209.371094 319.925781 210.765625 321.136719 213.835938 C 322.28125 216.738281 321.25 219.710938 318.175781 220.882812 C 315.265625 221.992188 312.386719 220.515625 311.242188 217.613281 Z M 308.492188 205.300781 L 307.476562 203.207031 C 305.214844 198.917969 304.78125 193.453125 306.976562 186.886719 C 308.984375 181.066406 309.785156 177.035156 308.316406 173.300781 C 306.648438 169.070312 302.867188 167.992188 297.597656 169.90625 C 294.605469 171.046875 292.03125 173.976562 290.574219 176.347656 L 286.167969 170.496094 C 288.125 167.457031 292.339844 164.320312 296.746094 162.640625 C 306.308594 158.988281 312.953125 163.230469 315.4375 169.535156 C 317.660156 175.175781 316.105469 180.445312 313.976562 186.695312 C 312.019531 192.40625 312.128906 196.566406 314.046875 200.699219 L 314.980469 202.824219 L 308.492188 205.300781 " fill-opacity="1" fill-rule="nonzero"/><path fill="#ffffff" d="M 587.417969 568.648438 C 584.953125 573.433594 580.746094 576.1875 578.011719 574.804688 C 575.285156 573.414062 575.066406 568.410156 577.527344 563.625 C 579.992188 558.835938 584.199219 556.082031 586.933594 557.472656 C 589.664062 558.859375 589.882812 563.863281 587.417969 568.648438 Z M 609.40625 548.554688 C 603.703125 548.777344 594.398438 550.777344 593.085938 549.269531 C 591.773438 547.761719 599.691406 538.757812 600.652344 532.082031 C 601.609375 525.402344 599.507812 513.015625 579.769531 515.210938 C 563.5625 517.011719 529.304688 534.945312 528.210938 572.324219 C 525.972656 648.929688 612.105469 618.695312 617.992188 573.804688 C 620.648438 553.558594 615.105469 548.339844 609.40625 548.554688 " fill-opacity="1" fill-rule="nonzero"/><path fill="#000000" d="M 587.421875 568.648438 L 587.425781 568.648438 Z M 585.359375 558.039062 C 583.140625 558.039062 580.203125 560.472656 578.359375 564.050781 C 576.871094 566.949219 576.367188 570.046875 577.042969 572.144531 C 577.328125 573.03125 577.796875 573.644531 578.4375 573.96875 C 580.667969 575.101562 584.402344 572.472656 586.589844 568.222656 C 588.078125 565.324219 588.585938 562.222656 587.90625 560.128906 C 587.621094 559.242188 587.148438 558.628906 586.511719 558.304688 C 586.160156 558.125 585.769531 558.039062 585.359375 558.039062 Z M 579.570312 576.09375 C 578.871094 576.09375 578.207031 575.945312 577.59375 575.636719 C 576.511719 575.085938 575.703125 574.074219 575.265625 572.71875 C 574.429688 570.128906 574.96875 566.570312 576.699219 563.199219 C 579.441406 557.875 584.121094 554.988281 587.355469 556.636719 C 588.441406 557.1875 589.242188 558.195312 589.683594 559.554688 C 590.519531 562.144531 589.984375 565.703125 588.246094 569.078125 C 586.03125 573.386719 582.539062 576.09375 579.570312 576.09375 Z M 562.5625 620.175781 C 561.351562 620.175781 560.152344 620.125 558.972656 620.015625 C 538 618.132812 526.449219 600.738281 527.28125 572.292969 C 528.363281 535.289062 561.933594 516.25 579.667969 514.28125 C 587.964844 513.359375 594.074219 514.859375 597.835938 518.742188 C 602.296875 523.347656 601.9375 529.699219 601.578125 532.214844 C 601.035156 535.996094 598.457031 540.34375 596.378906 543.835938 C 595.289062 545.675781 593.941406 547.945312 593.875 548.707031 C 594.839844 549.203125 599.464844 548.648438 602.554688 548.277344 C 604.160156 548.085938 605.816406 547.886719 607.335938 547.757812 C 607.839844 547.710938 608.300781 548.09375 608.34375 548.605469 C 608.386719 549.121094 608.007812 549.570312 607.492188 549.617188 C 606.003906 549.742188 604.367188 549.941406 602.78125 550.132812 C 596.894531 550.839844 593.511719 551.175781 592.386719 549.882812 C 591.335938 548.679688 592.558594 546.617188 594.773438 542.886719 C 596.765625 539.53125 599.238281 535.359375 599.730469 531.949219 C 600.050781 529.703125 600.382812 524.054688 596.496094 520.042969 C 593.15625 516.59375 587.566406 515.28125 579.875 516.136719 C 562.699219 518.042969 530.195312 536.488281 529.144531 572.351562 C 528.347656 599.675781 539.28125 616.375 559.140625 618.15625 C 570.65625 619.199219 584.285156 614.875 595.59375 606.597656 C 607.386719 597.972656 615.175781 586.238281 616.964844 574.402344 C 617.046875 573.894531 617.523438 573.542969 618.03125 573.621094 C 618.535156 573.695312 618.890625 574.175781 618.808594 574.683594 C 616.949219 587.007812 608.890625 599.191406 596.695312 608.105469 C 586.179688 615.796875 573.679688 620.175781 562.5625 620.175781 " fill-opacity="1" fill-rule="nonzero"/><path fill="#5479f7" d="M 592.5625 534.304688 C 592.5625 538.058594 589.496094 541.105469 585.714844 541.105469 C 581.9375 541.105469 578.871094 538.058594 578.871094 534.304688 C 578.871094 530.550781 581.9375 527.503906 585.714844 527.503906 C 589.496094 527.503906 592.5625 530.550781 592.5625 534.304688 " fill-opacity="1" fill-rule="nonzero"/><path fill="#99b9ff" d="M 571.132812 536.5 C 571.132812 540.253906 568.070312 543.296875 564.289062 543.296875 C 560.507812 543.296875 557.441406 540.253906 557.441406 536.5 C 557.441406 532.742188 560.507812 529.695312 564.289062 529.695312 C 568.070312 529.695312 571.132812 532.742188 571.132812 536.5 " fill-opacity="1" fill-rule="nonzero"/><path fill="#caddff" d="M 554.324219 551.882812 C 554.324219 555.640625 551.257812 558.683594 547.480469 558.683594 C 543.699219 558.683594 540.632812 555.640625 540.632812 551.882812 C 540.632812 548.125 543.699219 545.082031 547.480469 545.082031 C 551.257812 545.082031 554.324219 548.125 554.324219 551.882812 " fill-opacity="1" fill-rule="nonzero"/><path fill="#caddff" d="M 542.125 566.71875 C 538.867188 566.71875 536.214844 569.351562 536.214844 572.585938 C 536.214844 575.820312 538.867188 578.453125 542.125 578.453125 C 545.382812 578.453125 548.035156 575.820312 548.035156 572.585938 C 548.035156 569.351562 545.382812 566.71875 542.125 566.71875 Z M 542.125 580.320312 C 537.835938 580.320312 534.347656 576.851562 534.347656 572.585938 C 534.347656 568.320312 537.835938 564.851562 542.125 564.851562 C 546.414062 564.851562 549.902344 568.320312 549.902344 572.585938 C 549.902344 576.851562 546.414062 580.320312 542.125 580.320312 " fill-opacity="1" fill-rule="nonzero"/><path fill="#ffffff" d="M 611.925781 555.972656 L 618.664062 564.425781 L 564.8125 602.867188 L 554.648438 606.710938 C 554.648438 606.710938 560.667969 598.152344 561.066406 597.816406 L 611.925781 555.972656 " fill-opacity="1" fill-rule="nonzero"/><path fill="#000000" d="M 561.695312 598.503906 C 561.320312 598.9375 559.148438 601.964844 557.167969 604.757812 L 564.367188 602.035156 L 617.316406 564.238281 L 611.785156 557.292969 Z M 554.644531 607.644531 C 554.363281 607.644531 554.085938 607.515625 553.90625 607.28125 C 553.652344 606.957031 553.648438 606.507812 553.882812 606.171875 C 557.925781 600.429688 560.136719 597.378906 560.457031 597.105469 L 611.328125 555.25 C 611.519531 555.09375 611.773438 555.023438 612.019531 555.046875 C 612.269531 555.070312 612.496094 555.195312 612.652344 555.390625 L 619.390625 563.84375 C 619.550781 564.046875 619.621094 564.300781 619.585938 564.554688 C 619.550781 564.808594 619.414062 565.039062 619.203125 565.1875 L 565.347656 603.625 C 565.285156 603.671875 565.210938 603.710938 565.140625 603.742188 L 554.972656 607.582031 C 554.867188 607.625 554.753906 607.644531 554.644531 607.644531 " fill-opacity="1" fill-rule="nonzero"/><path fill="#99b9ff" d="M 611.925781 555.972656 L 618.664062 564.425781 L 606.738281 572.9375 L 600.5625 565.320312 L 611.925781 555.972656 " fill-opacity="1" fill-rule="nonzero"/><path fill="#000000" d="M 601.867188 565.453125 L 606.90625 571.671875 L 617.316406 564.238281 L 611.785156 557.292969 Z M 606.734375 573.875 C 606.460938 573.875 606.195312 573.753906 606.011719 573.527344 L 599.835938 565.910156 C 599.507812 565.511719 599.566406 564.925781 599.96875 564.601562 L 611.328125 555.25 C 611.519531 555.09375 611.773438 555.023438 612.019531 555.046875 C 612.269531 555.070312 612.496094 555.195312 612.652344 555.390625 L 619.390625 563.84375 C 619.550781 564.046875 619.621094 564.300781 619.585938 564.554688 C 619.550781 564.808594 619.414062 565.039062 619.203125 565.1875 L 607.277344 573.699219 C 607.113281 573.816406 606.925781 573.875 606.734375 573.875 " fill-opacity="1" fill-rule="nonzero"/><path fill="#5479f7" d="M 619.578125 542.785156 C 613.539062 547.660156 611.425781 552.15625 611.820312 556 L 611.820312 556.003906 L 618.660156 564.492188 C 618.660156 564.492188 618.675781 564.5 618.683594 564.503906 C 622.398438 565.734375 627.304688 564.628906 633.40625 559.707031 C 642.460938 552.398438 648.269531 533.675781 648.269531 533.675781 C 648.269531 533.675781 628.640625 535.480469 619.578125 542.785156 " fill-opacity="1" fill-rule="nonzero"/><path fill="#000000" d="M 619.574219 542.785156 L 619.585938 542.785156 Z M 619.210938 563.691406 C 622.957031 564.78125 627.644531 563.152344 632.820312 558.980469 C 640.152344 553.0625 645.398438 539.179688 646.921875 534.769531 C 642.273438 535.347656 627.5 537.597656 620.164062 543.515625 C 615.03125 547.652344 612.46875 551.839844 612.722656 555.640625 Z M 621.660156 565.90625 C 620.523438 565.90625 619.433594 565.734375 618.390625 565.386719 C 618.21875 565.332031 618.046875 565.222656 617.933594 565.082031 L 611.09375 556.59375 C 610.984375 556.457031 610.914062 556.292969 610.894531 556.121094 C 610.417969 551.5 613.144531 546.777344 618.992188 542.0625 C 628.164062 534.660156 647.371094 532.820312 648.183594 532.746094 C 648.496094 532.726562 648.800781 532.847656 648.996094 533.089844 C 649.191406 533.332031 649.253906 533.65625 649.160156 533.953125 C 648.921875 534.730469 643.164062 553.03125 633.992188 560.433594 C 629.472656 564.074219 625.34375 565.90625 621.660156 565.90625 " fill-opacity="1" fill-rule="nonzero"/><path fill="#5479f7" d="M 158.546875 639.0625 L 260.539062 639.0625 L 260.539062 633.347656 L 256.605469 633.347656 L 256.613281 609.535156 L 260.539062 609.507812 L 260.789062 603.171875 L 158.800781 603.171875 C 154.359375 603.171875 147.605469 610.300781 147.605469 615.132812 L 147.605469 628.183594 C 147.605469 633.015625 154.105469 639.0625 158.546875 639.0625 " fill-opacity="1" fill-rule="nonzero"/><path fill="#ffffff" d="M 156.742188 633.339844 L 256.96875 633.339844 L 256.96875 609.527344 L 156.742188 609.527344 C 154.933594 609.527344 153.46875 610.996094 153.46875 612.804688 L 153.46875 630.066406 C 153.46875 631.875 154.933594 633.339844 156.742188 633.339844 " fill-opacity="1" fill-rule="nonzero"/><path fill="#000000" d="M 160.6875 610.460938 C 157.222656 610.460938 154.402344 613.28125 154.402344 616.75 L 154.402344 626.121094 C 154.402344 629.585938 157.222656 632.40625 160.6875 632.40625 L 256.035156 632.40625 L 256.035156 610.460938 Z M 256.96875 634.273438 L 160.6875 634.273438 C 156.191406 634.273438 152.539062 630.617188 152.539062 626.121094 L 152.539062 616.75 C 152.539062 612.253906 156.191406 608.59375 160.6875 608.59375 L 256.96875 608.59375 C 257.488281 608.59375 257.902344 609.011719 257.902344 609.527344 L 257.902344 633.339844 C 257.902344 633.855469 257.488281 634.273438 256.96875 634.273438 " fill-opacity="1" fill-rule="nonzero"/><path fill="#99b9ff" d="M 251.933594 617.878906 L 164.148438 617.878906 C 163.632812 617.878906 163.214844 617.460938 163.214844 616.945312 C 163.214844 616.429688 163.632812 616.011719 164.148438 616.011719 L 251.933594 616.011719 C 252.449219 616.011719 252.867188 616.429688 252.867188 616.945312 C 252.867188 617.460938 252.449219 617.878906 251.933594 617.878906 " fill-opacity="1" fill-rule="nonzero"/><path fill="#99b9ff" d="M 225.136719 625.300781 L 164.148438 625.300781 C 163.632812 625.300781 163.214844 624.878906 163.214844 624.367188 C 163.214844 623.847656 163.632812 623.433594 164.148438 623.433594 L 225.136719 623.433594 C 225.652344 623.433594 226.070312 623.847656 226.070312 624.367188 C 226.070312 624.878906 225.652344 625.300781 225.136719 625.300781 " fill-opacity="1" fill-rule="nonzero"/><path fill="#ffffff" d="M 192.949219 556.453125 L 180.121094 559.886719 L 162.84375 496.121094 L 175.667969 492.691406 L 192.949219 556.453125 " fill-opacity="1" fill-rule="nonzero"/><path fill="#000000" d="M 163.988281 496.78125 L 180.78125 558.742188 L 191.800781 555.792969 L 175.011719 493.832031 Z M 179.464844 561.027344 L 161.695312 495.464844 L 176.324219 491.546875 L 194.09375 557.113281 L 179.464844 561.027344 " fill-opacity="1" fill-rule="nonzero"/><path fill="#99b9ff" d="M 168.527344 503.246094 C 168.113281 503.246094 167.734375 502.96875 167.625 502.546875 C 167.496094 502.050781 167.792969 501.542969 168.292969 501.410156 L 173.957031 499.929688 C 174.457031 499.800781 174.964844 500.097656 175.09375 500.597656 C 175.226562 501.097656 174.925781 501.605469 174.429688 501.734375 L 168.765625 503.21875 C 168.683594 503.238281 168.605469 503.246094 168.527344 503.246094 " fill-opacity="1" fill-rule="nonzero"/><path fill="#ffffff" d="M 173.027344 569.019531 C 164.9375 568.917969 157.503906 561.96875 157.503906 553.40625 C 157.503906 544.847656 164.9375 537.902344 173.027344 537.796875 L 173.027344 529.539062 C 161.203125 529.644531 149.191406 540.289062 149.191406 553.40625 C 149.191406 566.527344 161.203125 577.171875 173.027344 577.273438 L 173.027344 569.019531 " fill-opacity="1" fill-rule="nonzero"/><path fill="#000000" d="M 172.167969 578.199219 C 172.15625 578.199219 172.144531 578.199219 172.132812 578.199219 C 160.695312 577.785156 147.949219 567.5 147.949219 553.40625 C 147.949219 539.339844 161.019531 528.710938 172.707031 528.605469 C 172.945312 528.609375 173.195312 528.699219 173.371094 528.875 C 173.546875 529.050781 173.648438 529.289062 173.648438 529.539062 L 173.648438 537.796875 C 173.648438 538.308594 173.238281 538.722656 172.726562 538.730469 C 164.949219 538.828125 158.125 545.6875 158.125 553.40625 C 158.125 561.082031 164.667969 567.796875 172.417969 568.078125 C 172.929688 568.097656 173.332031 568.53125 173.316406 569.046875 C 173.296875 569.558594 172.875 569.972656 172.347656 569.941406 C 163.628906 569.628906 156.257812 562.058594 156.257812 553.40625 C 156.257812 544.863281 163.277344 537.503906 171.78125 536.902344 L 171.78125 530.503906 C 161.21875 531.140625 149.816406 540.773438 149.816406 553.40625 C 149.816406 566.4375 161.613281 575.949219 172.199219 576.332031 C 172.714844 576.351562 173.117188 576.78125 173.097656 577.296875 C 173.082031 577.800781 172.667969 578.199219 172.167969 578.199219 " fill-opacity="1" fill-rule="nonzero"/><path fill="#ffffff" d="M 192.570312 542.007812 L 172.988281 547.25 L 165.082031 518.09375 L 184.664062 512.855469 L 192.570312 542.007812 " fill-opacity="1" fill-rule="nonzero"/><path fill="#000000" d="M 166.226562 518.753906 L 173.644531 546.105469 L 191.421875 541.347656 L 184.003906 513.996094 Z M 172.328125 548.390625 L 163.933594 517.4375 L 185.320312 511.710938 L 193.714844 542.664062 L 172.328125 548.390625 " fill-opacity="1" fill-rule="nonzero"/><path fill="#ffffff" d="M 187.277344 594.355469 L 172.164062 594.355469 L 172.164062 577.378906 L 187.277344 577.378906 L 187.277344 594.355469 " fill-opacity="1" fill-rule="nonzero"/><path fill="#000000" d="M 187.277344 595.289062 L 182.109375 595.289062 C 181.59375 595.289062 181.175781 594.871094 181.175781 594.355469 C 181.175781 593.839844 181.59375 593.421875 182.109375 593.421875 L 186.34375 593.421875 L 186.34375 578.3125 L 173.09375 578.3125 L 173.09375 593.421875 L 173.742188 593.421875 C 174.257812 593.421875 174.675781 593.839844 174.675781 594.355469 C 174.675781 594.871094 174.257812 595.289062 173.742188 595.289062 L 172.164062 595.289062 C 171.644531 595.289062 171.230469 594.871094 171.230469 594.355469 L 171.230469 577.378906 C 171.230469 576.863281 171.644531 576.445312 172.164062 576.445312 L 187.277344 576.445312 C 187.789062 576.445312 188.210938 576.863281 188.210938 577.378906 L 188.210938 594.355469 C 188.210938 594.871094 187.789062 595.289062 187.277344 595.289062 " fill-opacity="1" fill-rule="nonzero"/><path fill="#ffffff" d="M 206.421875 577.082031 L 172.164062 577.082031 L 172.164062 569.011719 L 206.421875 569.011719 L 206.421875 577.082031 " fill-opacity="1" fill-rule="nonzero"/><path fill="#000000" d="M 206.421875 578.199219 L 172.164062 578.199219 C 171.644531 578.199219 171.230469 577.78125 171.230469 577.265625 C 171.230469 576.75 171.644531 576.332031 172.164062 576.332031 L 205.488281 576.332031 L 205.488281 569.945312 L 173.09375 569.945312 L 173.09375 572.726562 C 173.09375 573.242188 172.679688 573.660156 172.164062 573.660156 C 171.644531 573.660156 171.230469 573.242188 171.230469 572.726562 L 171.230469 569.011719 C 171.230469 568.496094 171.644531 568.078125 172.164062 568.078125 L 206.421875 568.078125 C 206.9375 568.078125 207.355469 568.496094 207.355469 569.011719 L 207.355469 577.265625 C 207.355469 577.78125 206.9375 578.199219 206.421875 578.199219 " fill-opacity="1" fill-rule="nonzero"/><path fill="#ffffff" d="M 200.335938 602.429688 L 160.238281 602.429688 L 160.238281 594.363281 L 200.335938 594.363281 L 200.335938 602.429688 " fill-opacity="1" fill-rule="nonzero"/><path fill="#000000" d="M 200.335938 603.363281 L 160.238281 603.363281 C 159.726562 603.363281 159.308594 602.949219 159.308594 602.429688 L 159.308594 594.363281 C 159.308594 593.84375 159.726562 593.425781 160.238281 593.425781 L 175.21875 593.425781 C 175.734375 593.425781 176.152344 593.84375 176.152344 594.363281 C 176.152344 594.878906 175.734375 595.296875 175.21875 595.296875 L 161.171875 595.296875 L 161.171875 601.496094 L 199.402344 601.496094 L 199.402344 595.296875 L 181.152344 595.296875 C 180.636719 595.296875 180.21875 594.878906 180.21875 594.363281 C 180.21875 593.84375 180.636719 593.425781 181.152344 593.425781 L 200.335938 593.425781 C 200.851562 593.425781 201.269531 593.84375 201.269531 594.363281 L 201.269531 602.429688 C 201.269531 602.949219 200.851562 603.363281 200.335938 603.363281 " fill-opacity="1" fill-rule="nonzero"/><path fill="#ffffff" d="M 242.808594 594.214844 L 231.828125 578.320312 L 231.828125 555.601562 L 217.515625 555.601562 L 217.515625 578.320312 L 206.566406 594.214844 C 204.167969 597.75 206.714844 602.589844 211.007812 602.589844 L 238.367188 602.589844 C 242.65625 602.589844 245.207031 597.75 242.808594 594.214844 " fill-opacity="1" fill-rule="nonzero"/><path fill="#000000" d="M 218.449219 556.535156 L 218.449219 578.609375 L 207.335938 594.742188 C 206.40625 596.109375 206.320312 597.8125 207.105469 599.292969 C 207.886719 600.769531 209.34375 601.65625 211.007812 601.65625 L 238.367188 601.65625 C 240.027344 601.65625 241.484375 600.769531 242.269531 599.292969 C 243.050781 597.8125 242.964844 596.113281 242.035156 594.742188 L 230.894531 578.613281 L 230.894531 556.535156 Z M 238.367188 603.523438 L 211.007812 603.523438 C 208.640625 603.523438 206.566406 602.265625 205.453125 600.167969 C 204.339844 598.066406 204.46875 595.644531 205.792969 593.691406 L 216.582031 578.03125 L 216.582031 554.667969 L 232.761719 554.667969 L 232.761719 578.03125 L 243.578125 593.691406 C 244.90625 595.644531 245.03125 598.066406 243.917969 600.167969 C 242.804688 602.265625 240.730469 603.523438 238.367188 603.523438 " fill-opacity="1" fill-rule="nonzero"/><path fill="#99b9ff" d="M 225.605469 575.394531 C 225.089844 575.394531 224.671875 574.976562 224.671875 574.457031 L 224.671875 563.332031 C 224.671875 562.816406 225.089844 562.394531 225.605469 562.394531 C 226.121094 562.394531 226.539062 562.816406 226.539062 563.332031 L 226.539062 574.457031 C 226.539062 574.976562 226.121094 575.394531 225.605469 575.394531 " fill-opacity="1" fill-rule="nonzero"/><path fill="#000000" d="M 182.304688 205.902344 C 182.292969 205.902344 182.285156 205.902344 182.273438 205.902344 C 181.757812 205.882812 181.355469 205.453125 181.371094 204.9375 L 181.503906 200.71875 C 181.519531 200.203125 181.953125 199.777344 182.464844 199.8125 C 182.980469 199.832031 183.386719 200.265625 183.371094 200.777344 L 183.238281 204.996094 C 183.222656 205.503906 182.808594 205.902344 182.304688 205.902344 " fill-opacity="1" fill-rule="nonzero"/><path fill="#000000" d="M 182.769531 191.136719 C 182.761719 191.136719 182.75 191.136719 182.742188 191.136719 C 182.226562 191.117188 181.820312 190.6875 181.835938 190.175781 L 181.96875 185.953125 C 181.984375 185.433594 182.417969 185.003906 182.929688 185.046875 C 183.445312 185.066406 183.851562 185.496094 183.835938 186.011719 L 183.703125 190.230469 C 183.6875 190.738281 183.273438 191.136719 182.769531 191.136719 " fill-opacity="1" fill-rule="nonzero"/><path fill="#000000" d="M 192.011719 196.839844 C 192 196.839844 191.984375 196.839844 191.96875 196.835938 L 187.789062 196.648438 C 187.273438 196.621094 186.875 196.1875 186.898438 195.667969 C 186.921875 195.15625 187.355469 194.75 187.875 194.78125 L 192.054688 194.972656 C 192.570312 195 192.96875 195.433594 192.945312 195.945312 C 192.921875 196.449219 192.507812 196.839844 192.011719 196.839844 " fill-opacity="1" fill-rule="nonzero"/><path fill="#000000" d="M 177.375 196.167969 C 177.363281 196.167969 177.347656 196.167969 177.332031 196.167969 L 173.152344 195.976562 C 172.636719 195.953125 172.238281 195.515625 172.261719 195.003906 C 172.285156 194.484375 172.714844 194.078125 173.238281 194.113281 L 177.417969 194.304688 C 177.933594 194.328125 178.332031 194.761719 178.308594 195.28125 C 178.285156 195.777344 177.871094 196.167969 177.375 196.167969 " fill-opacity="1" fill-rule="nonzero"/><path fill="#000000" d="M 216.832031 506.007812 C 216.585938 506.007812 216.335938 505.910156 216.15625 505.714844 L 213.246094 502.640625 C 212.890625 502.265625 212.90625 501.675781 213.28125 501.320312 C 213.660156 500.964844 214.246094 500.980469 214.601562 501.355469 L 217.511719 504.433594 C 217.863281 504.808594 217.847656 505.398438 217.472656 505.753906 C 217.292969 505.925781 217.0625 506.007812 216.832031 506.007812 " fill-opacity="1" fill-rule="nonzero"/><path fill="#000000" d="M 227.015625 516.78125 C 226.765625 516.78125 226.519531 516.679688 226.335938 516.484375 L 223.425781 513.40625 C 223.074219 513.035156 223.089844 512.445312 223.464844 512.089844 C 223.839844 511.730469 224.429688 511.75 224.78125 512.125 L 227.691406 515.203125 C 228.046875 515.578125 228.027344 516.167969 227.65625 516.523438 C 227.476562 516.695312 227.246094 516.78125 227.015625 516.78125 " fill-opacity="1" fill-rule="nonzero"/><path fill="#000000" d="M 213.507812 516.160156 C 213.253906 516.160156 213 516.054688 212.816406 515.851562 C 212.46875 515.46875 212.5 514.878906 212.882812 514.535156 L 215.976562 511.730469 C 216.355469 511.382812 216.949219 511.414062 217.292969 511.796875 C 217.640625 512.179688 217.609375 512.769531 217.226562 513.117188 L 214.132812 515.917969 C 213.957031 516.078125 213.730469 516.160156 213.507812 516.160156 " fill-opacity="1" fill-rule="nonzero"/><path fill="#000000" d="M 224.335938 506.351562 C 224.082031 506.351562 223.828125 506.246094 223.644531 506.042969 C 223.296875 505.664062 223.328125 505.074219 223.707031 504.726562 L 226.800781 501.921875 C 227.183594 501.574219 227.773438 501.605469 228.121094 501.988281 C 228.464844 502.371094 228.4375 502.960938 228.054688 503.308594 L 224.960938 506.109375 C 224.785156 506.273438 224.558594 506.351562 224.335938 506.351562 " fill-opacity="1" fill-rule="nonzero"/><path fill="#000000" d="M 591.433594 318.316406 C 593.605469 318.425781 595.457031 316.777344 595.570312 314.628906 C 595.628906 313.589844 595.273438 312.59375 594.570312 311.816406 C 593.871094 311.039062 592.90625 310.582031 591.859375 310.527344 C 589.691406 310.417969 587.832031 312.066406 587.71875 314.214844 C 587.664062 315.253906 588.019531 316.253906 588.71875 317.027344 C 589.421875 317.804688 590.386719 318.257812 591.433594 318.316406 Z M 591.652344 320.191406 C 591.546875 320.191406 591.441406 320.1875 591.335938 320.179688 C 589.792969 320.101562 588.371094 319.425781 587.335938 318.28125 C 586.296875 317.132812 585.773438 315.652344 585.855469 314.113281 C 586.027344 310.9375 588.761719 308.488281 591.957031 308.664062 C 593.5 308.742188 594.921875 309.417969 595.957031 310.5625 C 596.996094 311.710938 597.519531 313.191406 597.4375 314.730469 C 597.269531 317.800781 594.707031 320.191406 591.652344 320.191406 " fill-opacity="1" fill-rule="nonzero"/><path fill="#000000" d="M 243.230469 465.214844 C 241.15625 465.214844 239.417969 466.828125 239.304688 468.90625 C 239.25 469.949219 239.605469 470.945312 240.304688 471.71875 C 241.007812 472.496094 241.96875 472.953125 243.019531 473.011719 C 245.1875 473.117188 247.042969 471.472656 247.15625 469.324219 C 247.214844 468.28125 246.859375 467.289062 246.15625 466.511719 C 245.457031 465.734375 244.492188 465.277344 243.441406 465.222656 C 243.371094 465.21875 243.296875 465.214844 243.230469 465.214844 Z M 243.234375 474.882812 C 243.132812 474.882812 243.027344 474.882812 242.921875 474.875 C 241.375 474.792969 239.957031 474.117188 238.917969 472.972656 C 237.882812 471.824219 237.359375 470.347656 237.441406 468.808594 C 237.609375 465.632812 240.34375 463.1875 243.539062 463.355469 C 245.085938 463.441406 246.507812 464.113281 247.542969 465.257812 C 248.578125 466.40625 249.105469 467.886719 249.023438 469.425781 C 248.855469 472.496094 246.292969 474.882812 243.234375 474.882812 " fill-opacity="1" fill-rule="nonzero"/><path fill="#99b9ff" d="M 603.039062 635.941406 C 600.769531 635.820312 599.023438 633.894531 599.144531 631.640625 C 599.269531 629.382812 601.207031 627.652344 603.480469 627.773438 C 605.746094 627.894531 607.488281 629.820312 607.367188 632.078125 C 607.246094 634.332031 605.308594 636.0625 603.039062 635.941406 " fill-opacity="1" fill-rule="nonzero"/></svg>