<svg xmlns="http://www.w3.org/2000/svg" xmlns:xlink="http://www.w3.org/1999/xlink" width="1080" zoomAndPan="magnify" viewBox="0 0 810 809.999993" height="1080" preserveAspectRatio="xMidYMid meet" version="1.0"><defs><clipPath id="a301dbc262"><path d="M 81 228.675781 L 616.355469 228.675781 L 616.355469 581.367188 L 81 581.367188 Z M 81 228.675781 " clip-rule="nonzero"/></clipPath></defs><g clip-path="url(#a301dbc262)"><path fill="#8c52ff" d="M 543.695312 308.929688 C 545.019531 314.414062 541.652344 319.929688 536.183594 321.253906 C 530.707031 322.574219 525.199219 319.199219 523.871094 313.722656 C 522.546875 308.234375 525.914062 302.722656 531.382812 301.398438 C 536.859375 300.074219 542.367188 303.445312 543.695312 308.929688 Z M 582.679688 334.070312 L 558.5 319.269531 C 555.203125 317.253906 555.984375 312.261719 559.730469 311.355469 L 587.273438 304.703125 C 588.5625 315.003906 586.828125 325.128906 582.679688 334.070312 Z M 552.328125 362.027344 L 545.660156 334.445312 C 544.753906 330.683594 548.832031 327.710938 552.125 329.726562 L 576.3125 344.523438 C 570.265625 352.304688 562.066406 358.476562 552.328125 362.027344 Z M 537.726562 327.652344 C 528.726562 329.820312 519.664062 324.277344 517.488281 315.261719 C 515.304688 306.25 520.835938 297.175781 529.835938 295 C 538.839844 292.824219 547.898438 298.367188 550.078125 307.386719 C 552.261719 316.402344 546.730469 325.476562 537.726562 327.652344 Z M 511.109375 360.28125 L 525.867188 336.070312 C 527.875 332.773438 532.863281 333.558594 533.773438 337.3125 L 540.441406 364.898438 C 530.15625 366.1875 520.039062 364.445312 511.109375 360.28125 Z M 500.667969 353.894531 C 492.898438 347.828125 486.726562 339.613281 483.175781 329.855469 L 510.710938 323.203125 C 514.457031 322.296875 517.433594 326.382812 515.425781 329.683594 Z M 480.292969 317.949219 C 479.003906 307.648438 480.734375 297.519531 484.882812 288.578125 L 509.066406 303.375 C 512.363281 305.390625 511.578125 310.386719 507.828125 311.296875 Z M 515.238281 260.621094 L 521.90625 288.207031 C 522.8125 291.960938 518.730469 294.941406 515.4375 292.921875 L 491.253906 278.125 C 497.300781 270.34375 505.5 264.175781 515.238281 260.621094 Z M 556.453125 262.367188 L 541.699219 286.578125 C 539.6875 289.875 534.703125 289.089844 533.792969 285.332031 L 527.125 257.75 C 537.410156 256.460938 547.523438 258.207031 556.453125 262.367188 Z M 566.894531 268.757812 C 574.667969 274.816406 580.839844 283.035156 584.390625 292.792969 L 556.855469 299.445312 C 553.101562 300.355469 550.128906 296.261719 552.140625 292.96875 Z M 616.238281 316.175781 C 616.164062 315.832031 615.359375 312.882812 614.441406 312.679688 L 604.84375 310.558594 C 603.15625 310.183594 601.925781 308.734375 601.816406 307.011719 C 601.765625 306.269531 601.707031 305.527344 601.632812 304.78125 C 601.464844 303.058594 602.453125 301.433594 604.0625 300.792969 L 613.195312 297.171875 C 614.070312 296.828125 614.398438 293.792969 614.40625 293.433594 C 614.429688 292.640625 614.078125 291.117188 613.679688 290.421875 C 613.503906 290.113281 611.828125 287.558594 610.894531 287.648438 L 601.113281 288.601562 C 599.390625 288.765625 597.769531 287.773438 597.132812 286.160156 C 596.859375 285.46875 596.570312 284.777344 596.277344 284.09375 C 595.585938 282.507812 596.027344 280.660156 597.355469 279.558594 L 604.925781 273.285156 C 605.648438 272.683594 605.023438 269.691406 604.921875 269.351562 C 604.691406 268.585938 603.890625 267.25 603.296875 266.710938 C 603.039062 266.472656 600.65625 264.558594 599.792969 264.9375 L 590.796875 268.867188 C 589.214844 269.554688 587.367188 269.113281 586.261719 267.785156 C 585.785156 267.203125 585.300781 266.640625 584.804688 266.082031 C 583.660156 264.785156 583.503906 262.886719 584.425781 261.425781 L 589.6875 253.121094 C 590.191406 252.328125 588.675781 249.671875 588.472656 249.378906 C 588.019531 248.722656 586.847656 247.699219 586.113281 247.371094 C 585.789062 247.222656 582.941406 246.144531 582.234375 246.765625 L 574.875 253.300781 C 573.585938 254.449219 571.691406 254.59375 570.234375 253.667969 C 569.605469 253.269531 568.96875 252.878906 568.332031 252.507812 C 566.839844 251.628906 566.109375 249.871094 566.535156 248.195312 L 568.980469 238.652344 C 569.210938 237.738281 566.953125 235.683594 566.667969 235.46875 C 566.035156 234.984375 564.601562 234.375 563.808594 234.285156 C 563.453125 234.246094 560.410156 234.097656 559.929688 234.914062 L 554.960938 243.394531 C 554.082031 244.886719 552.328125 245.613281 550.652344 245.183594 C 549.933594 244.996094 549.207031 244.824219 548.476562 244.660156 C 546.792969 244.285156 545.558594 242.84375 545.445312 241.117188 L 544.824219 231.300781 C 544.761719 230.355469 541.976562 229.105469 541.644531 228.984375 C 540.894531 228.71875 539.347656 228.578125 538.558594 228.746094 C 538.214844 228.8125 535.269531 229.617188 535.070312 230.539062 L 532.953125 240.148438 C 532.585938 241.839844 531.144531 243.074219 529.421875 243.183594 C 528.675781 243.234375 527.9375 243.292969 527.195312 243.363281 C 525.472656 243.53125 523.851562 242.539062 523.210938 240.933594 L 519.589844 231.777344 C 519.246094 230.898438 516.210938 230.574219 515.855469 230.5625 C 515.050781 230.519531 513.542969 230.90625 512.847656 231.289062 C 512.535156 231.453125 509.992188 233.136719 510.082031 234.074219 L 511.039062 243.871094 C 511.203125 245.59375 510.214844 247.222656 508.609375 247.855469 C 507.914062 248.128906 507.226562 248.414062 506.542969 248.714844 C 504.960938 249.402344 503.113281 248.960938 502.011719 247.628906 L 495.742188 240.042969 C 495.144531 239.316406 492.160156 239.945312 491.820312 240.042969 C 491.046875 240.253906 489.726562 241.085938 489.183594 241.660156 C 488.9375 241.921875 487.039062 244.304688 487.410156 245.167969 L 491.34375 254.191406 C 492.035156 255.777344 491.59375 257.628906 490.261719 258.730469 C 489.6875 259.203125 489.125 259.695312 488.570312 260.1875 C 487.277344 261.335938 485.378906 261.488281 483.917969 260.5625 L 475.625 255.285156 C 474.828125 254.78125 472.183594 256.304688 471.890625 256.5 C 471.222656 256.941406 470.226562 258.140625 469.882812 258.859375 C 469.730469 259.179688 468.660156 262.039062 469.285156 262.742188 L 475.8125 270.121094 C 476.960938 271.417969 477.109375 273.3125 476.1875 274.769531 C 475.789062 275.398438 475.402344 276.035156 475.023438 276.679688 C 474.152344 278.164062 472.398438 278.898438 470.722656 278.46875 L 461.195312 276.019531 C 460.28125 275.78125 458.238281 278.050781 458.015625 278.324219 C 457.515625 278.953125 456.941406 280.402344 456.835938 281.191406 C 456.792969 281.542969 456.65625 284.59375 457.464844 285.074219 L 465.941406 290.0625 C 467.429688 290.9375 468.15625 292.699219 467.726562 294.375 C 467.542969 295.09375 467.375 295.824219 467.207031 296.550781 C 466.835938 298.238281 465.398438 299.476562 463.675781 299.585938 L 453.871094 300.199219 C 452.933594 300.261719 451.6875 303.050781 451.5625 303.378906 C 451.28125 304.132812 451.183594 305.683594 451.328125 306.472656 C 451.390625 306.820312 452.199219 309.769531 453.117188 309.972656 L 462.714844 312.09375 C 464.402344 312.46875 465.636719 313.910156 465.75 315.636719 C 465.796875 316.382812 465.859375 317.125 465.929688 317.867188 C 466.101562 319.589844 465.113281 321.21875 463.503906 321.855469 L 454.371094 325.476562 C 453.492188 325.824219 453.171875 328.859375 453.160156 329.214844 C 453.117188 330.015625 453.503906 331.523438 453.886719 332.226562 C 454.050781 332.535156 455.734375 335.09375 456.671875 335.003906 L 466.453125 334.050781 C 468.171875 333.882812 469.792969 334.878906 470.433594 336.488281 C 470.707031 337.183594 470.992188 337.871094 471.289062 338.554688 C 471.980469 340.144531 471.539062 341.988281 470.207031 343.09375 L 462.640625 349.367188 C 461.917969 349.964844 462.546875 352.957031 462.640625 353.292969 C 462.855469 354.074219 463.683594 355.390625 464.261719 355.941406 C 464.519531 356.183594 466.910156 358.089844 467.765625 357.710938 L 476.769531 353.785156 C 478.351562 353.09375 480.199219 353.539062 481.304688 354.867188 C 481.78125 355.445312 482.265625 356.007812 482.761719 356.570312 C 483.910156 357.867188 484.0625 359.761719 483.140625 361.226562 L 477.878906 369.53125 C 477.375 370.324219 478.898438 372.972656 479.09375 373.273438 C 479.53125 373.941406 480.730469 374.933594 481.449219 375.28125 C 481.765625 375.433594 484.625 376.507812 485.332031 375.882812 L 492.6875 369.351562 C 493.980469 368.203125 495.871094 368.054688 497.335938 368.980469 C 497.960938 369.378906 498.597656 369.765625 499.234375 370.144531 C 500.722656 371.023438 501.457031 372.78125 501.027344 374.457031 L 498.585938 384 C 498.351562 384.90625 500.617188 386.957031 500.898438 387.179688 C 501.519531 387.683594 502.96875 388.257812 503.757812 388.359375 C 504.105469 388.410156 507.15625 388.550781 507.628906 387.738281 L 512.605469 379.257812 C 513.480469 377.765625 515.238281 377.035156 516.914062 377.464844 C 517.632812 377.652344 518.355469 377.824219 519.085938 377.988281 C 520.773438 378.363281 522.007812 379.808594 522.121094 381.535156 L 522.742188 391.351562 C 522.796875 392.289062 525.589844 393.535156 525.917969 393.667969 C 526.667969 393.945312 528.21875 394.050781 529 393.90625 C 529.351562 393.839844 532.289062 393.027344 532.496094 392.109375 L 534.605469 382.5 C 534.976562 380.808594 536.417969 379.578125 538.144531 379.46875 C 538.882812 379.417969 539.628906 379.359375 540.371094 379.289062 C 542.09375 379.117188 543.714844 380.109375 544.355469 381.71875 L 547.976562 390.871094 C 548.320312 391.75 551.355469 392.078125 551.710938 392.089844 C 552.503906 392.109375 554.023438 391.761719 554.714844 391.359375 C 555.023438 391.1875 557.574219 389.515625 557.484375 388.574219 L 556.527344 378.777344 C 556.359375 377.050781 557.351562 375.429688 558.957031 374.796875 C 559.652344 374.515625 560.339844 374.230469 561.019531 373.9375 C 562.605469 373.25 564.453125 373.6875 565.550781 375.019531 L 571.820312 382.605469 C 572.417969 383.332031 575.40625 382.710938 575.746094 382.605469 C 576.511719 382.382812 577.84375 381.578125 578.382812 380.984375 C 578.621094 380.726562 580.527344 378.339844 580.148438 377.476562 L 576.222656 368.457031 C 575.53125 366.871094 575.972656 365.023438 577.300781 363.921875 C 577.875 363.441406 578.4375 362.957031 578.996094 362.464844 C 580.289062 361.316406 582.1875 361.160156 583.644531 362.089844 L 591.941406 367.363281 C 592.738281 367.867188 595.386719 366.351562 595.675781 366.144531 C 596.332031 365.695312 597.355469 364.523438 597.683594 363.789062 C 597.828125 363.464844 598.90625 360.613281 598.28125 359.90625 L 591.753906 352.53125 C 590.605469 351.234375 590.457031 349.335938 591.378906 347.875 C 591.773438 347.246094 592.164062 346.613281 592.539062 345.972656 C 593.414062 344.480469 595.167969 343.75 596.839844 344.179688 L 606.371094 346.632812 C 607.28125 346.867188 609.332031 344.605469 609.546875 344.320312 C 610.03125 343.6875 610.640625 342.253906 610.722656 341.460938 C 610.765625 341.105469 610.910156 338.050781 610.09375 337.578125 L 601.625 332.585938 C 600.132812 331.707031 599.40625 329.953125 599.835938 328.273438 C 600.019531 327.550781 600.195312 326.828125 600.351562 326.09375 C 600.726562 324.40625 602.167969 323.175781 603.890625 323.0625 L 613.695312 322.445312 C 614.632812 322.390625 615.886719 319.601562 616 319.265625 C 616.265625 318.515625 616.402344 316.964844 616.238281 316.175781 Z M 174.058594 503.085938 C 174.058594 511.328125 167.378906 518.015625 159.148438 518.015625 C 150.917969 518.015625 144.242188 511.328125 144.242188 503.085938 C 144.242188 494.839844 150.917969 488.152344 159.148438 488.152344 C 167.378906 488.152344 174.058594 494.839844 174.058594 503.085938 Z M 159.042969 529.585938 C 144.429688 529.585938 132.585938 517.722656 132.585938 503.085938 C 132.585938 488.445312 144.429688 476.582031 159.042969 476.582031 C 173.65625 476.582031 185.5 488.445312 185.5 503.085938 C 185.5 517.722656 173.65625 529.585938 159.042969 529.585938 Z M 189.164062 486.121094 C 188.402344 484.800781 187.554688 483.535156 186.628906 482.332031 L 192.15625 474.726562 C 192.449219 474.316406 191.628906 472.714844 191.519531 472.535156 C 191.277344 472.128906 190.628906 471.464844 190.21875 471.226562 C 190.039062 471.121094 188.441406 470.296875 188.03125 470.59375 L 180.441406 476.132812 C 179.238281 475.203125 177.976562 474.351562 176.652344 473.585938 L 178.851562 464.449219 C 178.96875 463.960938 177.601562 462.792969 177.429688 462.667969 C 177.046875 462.394531 176.199219 462.027344 175.730469 461.964844 C 175.519531 461.933594 173.726562 461.785156 173.464844 462.214844 L 168.566406 470.234375 C 167.113281 469.84375 165.621094 469.542969 164.09375 469.34375 L 162.636719 460.058594 C 162.558594 459.558594 160.847656 459.003906 160.640625 458.953125 C 160.183594 458.847656 159.257812 458.839844 158.800781 458.953125 C 158.59375 459.007812 156.882812 459.558594 156.808594 460.058594 L 155.347656 469.34375 C 153.820312 469.542969 152.328125 469.84375 150.875 470.234375 L 145.976562 462.214844 C 145.714844 461.785156 143.921875 461.933594 143.71875 461.964844 C 143.246094 462.027344 142.394531 462.394531 142.011719 462.667969 C 141.839844 462.792969 140.472656 463.960938 140.59375 464.449219 L 142.789062 473.585938 C 141.464844 474.351562 140.203125 475.203125 139.003906 476.132812 L 131.410156 470.59375 C 131.003906 470.296875 129.402344 471.121094 129.222656 471.226562 C 128.8125 471.464844 128.164062 472.128906 127.921875 472.535156 C 127.8125 472.714844 126.992188 474.316406 127.285156 474.726562 L 132.8125 482.332031 C 131.886719 483.535156 131.039062 484.800781 130.277344 486.121094 L 121.152344 483.917969 C 120.664062 483.804688 119.5 485.175781 119.375 485.347656 C 119.089844 485.71875 118.742188 486.585938 118.667969 487.046875 C 118.636719 487.257812 118.492188 489.054688 118.921875 489.3125 L 126.925781 494.21875 C 126.539062 495.675781 126.238281 497.175781 126.042969 498.703125 L 116.765625 500.164062 C 116.269531 500.246094 115.722656 501.957031 115.667969 502.160156 C 115.546875 502.621094 115.558594 503.546875 115.667969 504.007812 C 115.71875 504.210938 116.269531 505.925781 116.765625 506.003906 L 126.042969 507.464844 C 126.238281 508.992188 126.539062 510.492188 126.925781 511.949219 L 118.921875 516.855469 C 118.492188 517.113281 118.640625 518.910156 118.667969 519.121094 C 118.738281 519.589844 119.101562 520.441406 119.375 520.828125 C 119.5 520.996094 120.664062 522.371094 121.152344 522.25 L 130.277344 520.046875 C 131.039062 521.367188 131.886719 522.632812 132.8125 523.835938 L 127.285156 531.449219 C 126.992188 531.851562 127.816406 533.453125 127.921875 533.632812 C 128.160156 534.042969 128.824219 534.691406 129.222656 534.941406 C 129.402344 535.050781 131.003906 535.871094 131.410156 535.574219 L 139.003906 530.039062 C 140.203125 530.96875 141.464844 531.816406 142.789062 532.582031 L 140.59375 541.71875 C 140.472656 542.207031 141.84375 543.371094 142.011719 543.5 C 142.390625 543.785156 143.246094 544.128906 143.71875 544.207031 C 143.921875 544.238281 145.714844 544.386719 145.976562 543.957031 L 150.875 535.933594 C 152.328125 536.324219 153.820312 536.628906 155.347656 536.824219 L 156.808594 546.113281 C 156.882812 546.609375 158.59375 547.160156 158.800781 547.214844 C 159.257812 547.335938 160.183594 547.324219 160.640625 547.214844 C 160.847656 547.164062 162.558594 546.609375 162.636719 546.113281 L 164.09375 536.824219 C 165.621094 536.628906 167.113281 536.324219 168.566406 535.933594 L 173.464844 543.957031 C 173.726562 544.386719 175.519531 544.238281 175.730469 544.207031 C 176.191406 544.128906 177.050781 543.785156 177.429688 543.5 C 177.597656 543.371094 178.96875 542.207031 178.851562 541.71875 L 176.652344 532.582031 C 177.976562 531.816406 179.238281 530.96875 180.441406 530.039062 L 188.03125 535.574219 C 188.441406 535.871094 190.039062 535.050781 190.21875 534.941406 C 190.617188 534.691406 191.28125 534.042969 191.519531 533.632812 C 191.628906 533.453125 192.449219 531.851562 192.15625 531.449219 L 186.628906 523.835938 C 187.554688 522.632812 188.402344 521.367188 189.164062 520.046875 L 198.289062 522.25 C 198.777344 522.371094 199.945312 520.996094 200.066406 520.828125 C 200.34375 520.441406 200.710938 519.589844 200.773438 519.121094 C 200.804688 518.910156 200.949219 517.113281 200.519531 516.855469 L 192.515625 511.949219 C 192.90625 510.492188 193.203125 508.992188 193.402344 507.464844 L 202.675781 506.003906 C 203.167969 505.925781 203.722656 504.210938 203.773438 504.007812 C 203.882812 503.546875 203.894531 502.621094 203.773438 502.160156 C 203.71875 501.957031 203.167969 500.246094 202.675781 500.164062 L 193.402344 498.703125 C 193.203125 497.175781 192.90625 495.675781 192.515625 494.21875 L 200.519531 489.3125 C 200.949219 489.054688 200.804688 487.257812 200.773438 487.046875 C 200.699219 486.585938 200.351562 485.71875 200.066406 485.347656 C 199.941406 485.175781 198.777344 483.804688 198.289062 483.917969 Z M 159.148438 558.890625 C 128.382812 558.890625 103.445312 533.902344 103.445312 503.085938 C 103.445312 472.265625 128.382812 447.28125 159.148438 447.28125 C 189.914062 447.28125 214.855469 472.265625 214.855469 503.085938 C 214.855469 533.902344 189.914062 558.890625 159.148438 558.890625 Z M 235.203125 497.324219 L 223.292969 495.230469 C 222.554688 489.097656 220.957031 483.230469 218.632812 477.75 L 227.890625 469.980469 C 228.574219 469.40625 227.734375 465.992188 227.605469 465.597656 C 227.320312 464.714844 226.421875 463.121094 225.789062 462.441406 C 225.503906 462.136719 222.972656 459.691406 222.140625 460.003906 L 210.777344 464.15625 C 207.136719 459.316406 202.839844 455.011719 198.015625 451.367188 L 202.15625 439.988281 C 202.464844 439.144531 200.03125 436.609375 199.722656 436.328125 C 199.035156 435.710938 197.460938 434.777344 196.570312 434.507812 C 196.175781 434.386719 192.769531 433.539062 192.195312 434.222656 L 184.4375 443.5 C 178.96875 441.167969 173.113281 439.570312 166.988281 438.832031 L 164.898438 426.898438 C 164.75 426.019531 161.371094 425.039062 160.972656 424.949219 C 160.0625 424.761719 158.234375 424.742188 157.328125 424.949219 C 156.929688 425.046875 153.550781 426.019531 153.398438 426.898438 L 151.308594 438.832031 C 145.183594 439.570312 139.328125 441.167969 133.859375 443.5 L 126.105469 434.222656 C 125.53125 433.539062 122.121094 434.386719 121.726562 434.507812 C 120.839844 434.777344 119.261719 435.710938 118.570312 436.328125 C 118.269531 436.609375 115.832031 439.144531 116.140625 439.988281 L 120.285156 451.367188 C 115.457031 455.011719 111.160156 459.316406 107.523438 464.15625 L 96.164062 460.003906 C 95.324219 459.691406 92.792969 462.136719 92.507812 462.441406 C 91.875 463.121094 90.976562 464.714844 90.691406 465.597656 C 90.566406 465.992188 89.722656 469.40625 90.40625 469.980469 L 99.667969 477.75 C 97.339844 483.230469 95.742188 489.097656 95.003906 495.230469 L 83.097656 497.324219 C 82.21875 497.480469 81.246094 500.859375 81.15625 501.261719 C 80.941406 502.171875 80.960938 504.003906 81.15625 504.90625 C 81.238281 505.308594 82.21875 508.695312 83.097656 508.84375 L 95.003906 510.941406 C 95.742188 517.074219 97.339844 522.9375 99.667969 528.417969 L 90.40625 536.191406 C 89.722656 536.761719 90.574219 540.175781 90.691406 540.570312 C 90.960938 541.464844 91.890625 543.042969 92.507812 543.730469 C 92.789062 544.035156 95.324219 546.476562 96.164062 546.167969 L 107.523438 542.015625 C 111.160156 546.851562 115.457031 551.15625 120.285156 554.800781 L 116.140625 566.179688 C 115.832031 567.023438 118.273438 569.554688 118.570312 569.839844 C 119.25 570.472656 120.84375 571.375 121.726562 571.660156 C 122.117188 571.785156 125.53125 572.628906 126.105469 571.945312 L 133.859375 562.671875 C 139.328125 565.003906 145.183594 566.601562 151.308594 567.34375 L 153.398438 579.273438 C 153.550781 580.148438 156.929688 581.125 157.328125 581.21875 C 158.234375 581.429688 160.0625 581.414062 160.972656 581.21875 C 161.371094 581.132812 164.75 580.148438 164.898438 579.273438 L 166.988281 567.34375 C 173.113281 566.601562 178.96875 565.003906 184.4375 562.671875 L 192.195312 571.945312 C 192.769531 572.628906 196.183594 571.785156 196.570312 571.660156 C 197.453125 571.375 199.046875 570.472656 199.722656 569.839844 C 200.023438 569.554688 202.464844 567.023438 202.15625 566.179688 L 198.015625 554.800781 C 202.839844 551.15625 207.136719 546.851562 210.777344 542.015625 L 222.140625 546.167969 C 222.972656 546.476562 225.507812 544.035156 225.789062 543.730469 C 226.40625 543.042969 227.335938 541.464844 227.605469 540.570312 C 227.726562 540.175781 228.574219 536.761719 227.890625 536.191406 L 218.632812 528.417969 C 220.957031 522.9375 222.554688 517.074219 223.292969 510.941406 L 235.203125 508.84375 C 236.082031 508.695312 237.058594 505.308594 237.148438 504.90625 C 237.339844 504.003906 237.359375 502.171875 237.148438 501.261719 C 237.054688 500.859375 236.082031 497.480469 235.203125 497.324219 " fill-opacity="1" fill-rule="nonzero"/></g><path fill="#50d634" d="M 704.1875 361.515625 C 704.175781 361.863281 704.0625 362.195312 704 362.511719 C 703.941406 362.828125 703.875 363.125 703.820312 363.40625 C 703.480469 364.488281 703.257812 365.207031 703.257812 365.207031 C 703.257812 365.207031 702.953125 365.902344 702.488281 366.941406 C 702.355469 367.183594 702.199219 367.449219 702.039062 367.730469 C 701.875 368.007812 701.746094 368.328125 701.519531 368.601562 C 701.101562 369.171875 700.710938 369.816406 700.1875 370.355469 C 699.25 371.53125 698.046875 372.453125 697.164062 373.152344 C 696.683594 373.464844 696.289062 373.71875 696.015625 373.890625 C 695.875 373.980469 695.765625 374.050781 695.691406 374.101562 C 695.613281 374.140625 695.570312 374.160156 695.570312 374.160156 C 695.570312 374.160156 695.402344 374.246094 695.105469 374.398438 C 694.957031 374.472656 694.78125 374.5625 694.578125 374.664062 C 694.472656 374.722656 694.367188 374.78125 694.253906 374.839844 C 694.132812 374.890625 694.003906 374.933594 693.875 374.984375 C 693.339844 375.175781 692.75 375.484375 692.058594 375.640625 C 691.714844 375.734375 691.367188 375.855469 691.007812 375.945312 C 690.644531 376.003906 690.277344 376.074219 689.90625 376.144531 C 689.722656 376.171875 689.539062 376.234375 689.351562 376.242188 C 689.164062 376.257812 688.976562 376.273438 688.792969 376.289062 C 688.425781 376.3125 688.066406 376.367188 687.710938 376.382812 C 687.359375 376.378906 687.023438 376.371094 686.699219 376.367188 C 686.378906 376.367188 686.070312 376.382812 685.792969 376.332031 C 685.230469 376.261719 684.765625 376.21875 684.4375 376.1875 C 684.117188 376.117188 683.933594 376.078125 683.933594 376.078125 C 683.933594 376.078125 683.746094 376.039062 683.429688 375.96875 C 683.269531 375.9375 683.070312 375.898438 682.84375 375.855469 C 682.621094 375.8125 682.378906 375.703125 682.105469 375.625 C 681.835938 375.539062 681.542969 375.445312 681.230469 375.351562 C 680.914062 375.269531 680.617188 375.085938 680.289062 374.957031 C 679.96875 374.804688 679.621094 374.6875 679.289062 374.515625 C 678.972656 374.328125 678.640625 374.140625 678.3125 373.960938 C 678.148438 373.867188 677.976562 373.792969 677.824219 373.6875 C 677.667969 373.578125 677.519531 373.46875 677.371094 373.359375 C 677.066406 373.148438 676.765625 372.945312 676.476562 372.746094 C 676.210938 372.511719 675.957031 372.285156 675.71875 372.074219 C 675.472656 371.859375 675.21875 371.6875 675.039062 371.464844 C 674.660156 371.050781 674.328125 370.71875 674.09375 370.484375 C 673.886719 370.230469 673.777344 370.078125 673.777344 370.078125 C 673.777344 370.078125 673.660156 369.929688 673.460938 369.671875 C 673.355469 369.539062 673.230469 369.386719 673.085938 369.207031 C 672.945312 369.019531 672.828125 368.792969 672.671875 368.558594 C 672.519531 368.316406 672.347656 368.0625 672.171875 367.792969 C 672.015625 367.507812 671.875 367.195312 671.710938 366.886719 C 671.339844 366.269531 671.125 365.542969 670.824219 364.855469 C 670.367188 363.417969 670.007812 361.945312 669.941406 360.816406 C 669.902344 360.257812 669.824219 359.789062 669.851562 359.457031 C 669.863281 359.128906 669.863281 358.945312 669.863281 358.945312 C 669.863281 358.945312 669.863281 358.753906 669.863281 358.429688 C 669.832031 358.097656 669.941406 357.636719 669.988281 357.074219 C 670.074219 355.949219 670.472656 354.492188 670.945312 353.050781 C 671.539062 351.65625 672.199219 350.296875 672.878906 349.390625 C 673.210938 348.941406 673.4375 348.523438 673.675781 348.292969 C 673.890625 348.050781 674.015625 347.910156 674.015625 347.910156 C 674.015625 347.910156 674.140625 347.765625 674.351562 347.515625 C 674.539062 347.246094 674.910156 346.945312 675.3125 346.550781 C 676.101562 345.75 677.34375 344.875 678.632812 344.097656 C 679.316406 343.777344 679.960938 343.371094 680.636719 343.152344 C 680.96875 343.027344 681.277344 342.886719 681.585938 342.777344 C 681.894531 342.6875 682.191406 342.609375 682.464844 342.527344 C 682.734375 342.453125 682.980469 342.359375 683.203125 342.3125 C 683.429688 342.273438 683.628906 342.246094 683.789062 342.214844 C 684.113281 342.148438 684.296875 342.113281 684.296875 342.113281 C 684.296875 342.113281 684.480469 342.074219 684.804688 342.019531 C 685.136719 341.996094 685.605469 341.960938 686.164062 341.898438 C 686.441406 341.851562 686.753906 341.894531 687.070312 341.890625 C 687.394531 341.890625 687.734375 341.890625 688.085938 341.890625 C 688.433594 341.929688 688.796875 341.976562 689.164062 342.015625 C 689.347656 342.03125 689.53125 342.050781 689.722656 342.066406 C 689.90625 342.089844 690.085938 342.144531 690.269531 342.183594 C 690.640625 342.265625 691.003906 342.339844 691.367188 342.410156 C 691.726562 342.5 692.074219 342.640625 692.414062 342.738281 C 692.746094 342.859375 693.089844 342.914062 693.378906 343.0625 C 693.679688 343.199219 693.960938 343.324219 694.21875 343.433594 C 694.472656 343.550781 694.726562 343.628906 694.921875 343.75 C 695.121094 343.863281 695.296875 343.964844 695.441406 344.046875 C 695.726562 344.207031 695.890625 344.296875 695.890625 344.296875 C 695.890625 344.296875 696.054688 344.390625 696.34375 344.546875 C 696.609375 344.738281 696.988281 345.015625 697.457031 345.332031 C 697.699219 345.472656 697.917969 345.691406 698.160156 345.902344 C 698.40625 346.113281 698.664062 346.332031 698.933594 346.558594 C 699.183594 346.804688 699.425781 347.082031 699.683594 347.34375 C 699.8125 347.476562 699.945312 347.609375 700.074219 347.746094 C 700.207031 347.875 700.308594 348.039062 700.425781 348.183594 C 700.65625 348.484375 700.886719 348.777344 701.121094 349.066406 C 701.335938 349.371094 701.515625 349.691406 701.710938 349.980469 C 702.128906 350.554688 702.371094 351.179688 702.648438 351.671875 C 702.714844 351.796875 702.785156 351.910156 702.832031 352.03125 C 702.882812 352.152344 702.921875 352.265625 702.964844 352.375 C 703.046875 352.585938 703.121094 352.777344 703.183594 352.929688 C 703.308594 353.234375 703.378906 353.410156 703.378906 353.410156 C 703.378906 353.410156 703.398438 353.453125 703.433594 353.535156 C 703.457031 353.617188 703.492188 353.742188 703.53125 353.902344 C 703.625 354.222656 703.757812 354.671875 703.910156 355.214844 C 704.117188 356.324219 704.410156 357.8125 704.339844 359.320312 C 704.378906 360.074219 704.246094 360.8125 704.1875 361.515625 Z M 719.769531 356.851562 C 719.703125 356.140625 719.664062 355.664062 719.664062 355.664062 C 719.664062 355.664062 718.84375 355.515625 717.621094 355.339844 C 716.410156 355.160156 714.746094 354.988281 713.09375 354.886719 C 712.351562 354.832031 711.609375 354.808594 710.902344 354.785156 C 710.828125 354.378906 710.753906 353.988281 710.6875 353.628906 C 710.484375 352.867188 710.289062 352.230469 710.164062 351.789062 C 710.101562 351.566406 710.046875 351.394531 710.015625 351.273438 C 709.964844 351.160156 709.941406 351.097656 709.941406 351.097656 C 709.941406 351.097656 709.84375 350.847656 709.675781 350.417969 C 709.589844 350.207031 709.484375 349.945312 709.367188 349.644531 C 709.308594 349.496094 709.242188 349.335938 709.175781 349.167969 C 709.101562 349.007812 709.011719 348.835938 708.921875 348.664062 C 708.746094 348.339844 708.578125 347.984375 708.382812 347.613281 C 708.921875 347.15625 709.484375 346.667969 710.039062 346.15625 C 711.261719 345.042969 712.40625 343.890625 713.257812 342.988281 C 714.109375 342.085938 714.65625 341.449219 714.65625 341.449219 C 714.65625 341.449219 714.398438 341.050781 714.007812 340.449219 C 713.613281 339.847656 713 339.113281 712.417969 338.355469 C 711.847656 337.585938 711.152344 336.925781 710.664062 336.398438 C 710.171875 335.882812 709.835938 335.535156 709.835938 335.535156 C 709.835938 335.535156 709.121094 335.941406 708.054688 336.609375 C 706.992188 337.277344 705.609375 338.195312 704.285156 339.175781 C 703.683594 339.613281 703.097656 340.0625 702.550781 340.496094 C 702.234375 340.226562 701.941406 339.957031 701.625 339.765625 C 700.980469 339.308594 700.4375 338.929688 700.0625 338.664062 C 699.660156 338.4375 699.429688 338.304688 699.429688 338.304688 C 699.429688 338.304688 699.199219 338.175781 698.796875 337.953125 C 698.597656 337.835938 698.351562 337.699219 698.066406 337.542969 C 697.792969 337.378906 697.441406 337.257812 697.082031 337.09375 C 696.75 336.949219 696.386719 336.789062 696.003906 336.625 C 696.125 335.925781 696.238281 335.1875 696.335938 334.445312 C 696.777344 331.222656 696.84375 327.878906 696.84375 327.878906 C 696.84375 327.878906 696.390625 327.734375 695.707031 327.519531 C 695.023438 327.328125 694.078125 327.152344 693.144531 326.945312 C 692.210938 326.722656 691.253906 326.65625 690.539062 326.574219 C 689.828125 326.496094 689.351562 326.449219 689.351562 326.449219 C 689.351562 326.449219 689.277344 326.644531 689.15625 326.980469 C 689.039062 327.316406 688.867188 327.808594 688.675781 328.410156 C 688.289062 329.601562 687.820312 331.199219 687.4375 332.796875 C 687.257812 333.519531 687.097656 334.242188 686.957031 334.925781 C 686.542969 334.925781 686.144531 334.902344 685.777344 334.953125 C 684.992188 335.023438 684.332031 335.082031 683.871094 335.121094 C 683.417969 335.191406 683.160156 335.253906 683.160156 335.253906 C 683.160156 335.253906 682.898438 335.300781 682.445312 335.386719 C 682.21875 335.425781 681.941406 335.480469 681.625 335.542969 C 681.3125 335.605469 680.96875 335.726562 680.582031 335.832031 C 680.234375 335.929688 679.851562 336.039062 679.449219 336.15625 C 679.097656 335.546875 678.707031 334.90625 678.3125 334.292969 C 676.574219 331.535156 674.46875 328.921875 674.46875 328.921875 C 674.46875 328.921875 674.359375 328.96875 674.164062 329.046875 C 673.976562 329.132812 673.6875 329.222656 673.371094 329.386719 C 672.734375 329.707031 671.878906 330.140625 671.035156 330.585938 C 670.203125 331.054688 669.414062 331.59375 668.804688 331.972656 C 668.503906 332.171875 668.25 332.328125 668.082031 332.453125 C 667.917969 332.578125 667.820312 332.652344 667.820312 332.652344 C 667.820312 332.652344 668.96875 335.816406 670.433594 338.742188 C 670.761719 339.414062 671.09375 340.0625 671.429688 340.675781 C 671.109375 340.945312 670.816406 341.210938 670.554688 341.472656 C 669.988281 342.023438 669.488281 342.453125 669.207031 342.828125 C 668.90625 343.179688 668.734375 343.378906 668.734375 343.378906 C 668.734375 343.378906 668.558594 343.578125 668.261719 343.925781 C 667.9375 344.261719 667.597656 344.828125 667.128906 345.46875 C 666.914062 345.761719 666.695312 346.097656 666.480469 346.445312 C 665.820312 346.210938 665.121094 345.976562 664.414062 345.757812 C 661.296875 344.761719 657.996094 344.109375 657.996094 344.109375 C 657.996094 344.109375 657.75 344.523438 657.476562 345.183594 C 657.191406 345.84375 656.8125 346.714844 656.4375 347.589844 C 656.140625 348.5 655.847656 349.40625 655.632812 350.085938 C 655.402344 350.765625 655.3125 351.238281 655.3125 351.238281 C 655.3125 351.238281 658.222656 352.925781 661.226562 354.226562 C 661.902344 354.53125 662.582031 354.816406 663.234375 355.070312 C 663.164062 355.480469 663.109375 355.875 663.074219 356.238281 C 663.003906 357.023438 662.886719 357.683594 662.910156 358.140625 C 662.90625 358.605469 662.90625 358.871094 662.90625 358.871094 C 662.90625 358.871094 662.90625 359.132812 662.898438 359.59375 C 662.867188 360.058594 662.957031 360.714844 663.019531 361.503906 C 663.046875 361.867188 663.089844 362.261719 663.15625 362.671875 C 662.496094 362.917969 661.8125 363.1875 661.125 363.472656 C 658.09375 364.707031 655.148438 366.335938 655.148438 366.335938 C 655.148438 366.335938 655.175781 366.449219 655.214844 366.65625 C 655.257812 366.859375 655.347656 367.144531 655.445312 367.488281 C 655.648438 368.175781 655.882812 369.101562 656.203125 370.003906 C 656.546875 370.894531 656.902344 371.78125 657.171875 372.445312 C 657.300781 372.773438 657.457031 373.035156 657.546875 373.222656 C 657.640625 373.410156 657.691406 373.519531 657.691406 373.519531 C 657.691406 373.519531 660.992188 372.9375 664.117188 372.015625 C 664.820312 371.8125 665.53125 371.585938 666.203125 371.363281 C 666.429688 371.710938 666.644531 372.046875 666.84375 372.355469 C 667.058594 372.683594 667.238281 373.003906 667.433594 373.257812 C 667.632812 373.511719 667.804688 373.734375 667.945312 373.917969 C 668.230469 374.28125 668.394531 374.488281 668.394531 374.488281 C 668.394531 374.488281 668.554688 374.699219 668.851562 375.054688 C 669.167969 375.390625 669.625 375.863281 670.171875 376.4375 C 670.410156 376.71875 670.726562 376.960938 671.039062 377.230469 C 670.695312 377.839844 670.335938 378.488281 669.992188 379.152344 C 669.234375 380.605469 668.53125 382.117188 668.035156 383.269531 C 667.78125 383.847656 667.585938 384.328125 667.457031 384.664062 C 667.324219 384.996094 667.246094 385.1875 667.246094 385.1875 C 667.246094 385.1875 667.640625 385.464844 668.226562 385.878906 C 668.820312 386.285156 669.582031 386.867188 670.433594 387.3125 C 671.265625 387.777344 672.089844 388.265625 672.738281 388.570312 C 673.390625 388.859375 673.824219 389.050781 673.824219 389.050781 C 673.824219 389.050781 675.980469 386.496094 677.773438 383.78125 C 678.1875 383.15625 678.585938 382.527344 678.957031 381.921875 C 679.355469 382.046875 679.734375 382.171875 680.085938 382.28125 C 680.464844 382.398438 680.804688 382.53125 681.117188 382.597656 C 681.433594 382.660156 681.707031 382.714844 681.929688 382.765625 C 682.386719 382.859375 682.644531 382.917969 682.644531 382.917969 C 682.644531 382.917969 682.902344 382.972656 683.351562 383.066406 C 683.8125 383.109375 684.472656 383.1875 685.261719 383.269531 C 685.625 383.324219 686.019531 383.320312 686.4375 383.320312 C 686.5625 384.015625 686.703125 384.738281 686.867188 385.460938 C 687.222656 387.070312 687.652344 388.675781 688.011719 389.875 C 688.371094 391.082031 688.644531 391.859375 688.644531 391.859375 C 688.644531 391.859375 689.125 391.816406 689.835938 391.753906 C 690.550781 391.679688 691.507812 391.640625 692.445312 391.4375 C 693.378906 391.257812 694.328125 391.105469 695.015625 390.917969 C 695.710938 390.71875 696.171875 390.585938 696.171875 390.585938 C 696.171875 390.585938 696.171875 389.753906 696.128906 388.511719 C 696.085938 387.269531 695.992188 385.652344 695.800781 384.003906 C 695.722656 383.253906 695.621094 382.515625 695.511719 381.824219 C 695.902344 381.667969 696.265625 381.511719 696.609375 381.382812 C 696.792969 381.3125 696.972656 381.242188 697.136719 381.175781 C 697.296875 381.089844 697.449219 381.015625 697.59375 380.941406 C 697.878906 380.789062 698.132812 380.664062 698.335938 380.558594 C 698.746094 380.351562 698.980469 380.226562 698.980469 380.226562 C 698.980469 380.226562 699.039062 380.199219 699.148438 380.140625 C 699.253906 380.078125 699.410156 379.976562 699.605469 379.855469 C 699.988281 379.601562 700.550781 379.257812 701.210938 378.8125 C 701.5 378.589844 701.808594 378.34375 702.140625 378.089844 C 702.679688 378.539062 703.257812 379.003906 703.851562 379.457031 C 705.160156 380.46875 706.527344 381.433594 707.554688 382.097656 C 708.589844 382.777344 709.300781 383.199219 709.300781 383.199219 C 709.300781 383.199219 709.644531 382.871094 710.164062 382.378906 C 710.417969 382.121094 710.738281 381.847656 711.035156 381.507812 C 711.328125 381.167969 711.636719 380.808594 711.953125 380.445312 C 712.265625 380.082031 712.574219 379.71875 712.863281 379.378906 C 713.144531 379.023438 713.375 378.671875 713.589844 378.382812 C 714 377.796875 714.273438 377.402344 714.273438 377.402344 C 714.273438 377.402344 713.742188 376.761719 712.921875 375.84375 C 712.105469 374.929688 710.9375 373.722656 709.742188 372.585938 C 709.203125 372.066406 708.652344 371.566406 708.125 371.101562 C 708.328125 370.738281 708.523438 370.394531 708.703125 370.074219 C 709.046875 369.367188 709.292969 368.746094 709.480469 368.328125 C 709.664062 367.902344 709.769531 367.660156 709.769531 367.660156 C 709.769531 367.660156 709.851562 367.410156 709.992188 366.96875 C 710.125 366.527344 710.351562 365.902344 710.558594 365.136719 C 710.632812 364.777344 710.71875 364.394531 710.804688 363.984375 C 711.507812 363.984375 712.246094 363.96875 712.996094 363.933594 C 714.648438 363.871094 716.320312 363.730469 717.53125 363.582031 C 718.757812 363.429688 719.578125 363.300781 719.578125 363.300781 C 719.578125 363.300781 719.632812 362.824219 719.707031 362.113281 C 719.742188 361.753906 719.800781 361.335938 719.824219 360.890625 C 719.828125 360.441406 719.832031 359.960938 719.84375 359.484375 C 719.84375 359.003906 719.84375 358.523438 719.847656 358.074219 C 719.851562 357.625 719.789062 357.210938 719.769531 356.851562 Z M 536.015625 451.128906 C 537.601562 456.816406 534.28125 462.71875 528.597656 464.304688 C 522.917969 465.886719 517.023438 462.558594 515.4375 456.863281 C 513.847656 451.167969 517.167969 445.269531 522.851562 443.6875 C 528.539062 442.097656 534.433594 445.433594 536.015625 451.128906 Z M 537.328125 495.621094 C 514.378906 502.019531 490.578125 488.570312 484.167969 465.578125 C 477.757812 442.589844 491.171875 418.761719 514.125 412.367188 C 537.074219 405.96875 560.875 419.421875 567.28125 442.410156 C 573.691406 465.402344 560.28125 489.222656 537.328125 495.621094 Z M 575.367188 460.527344 C 575.960938 455.953125 575.933594 451.242188 575.214844 446.515625 L 583.660156 442.480469 C 584.28125 442.179688 584.3125 439.453125 584.292969 439.132812 C 584.246094 438.421875 583.878906 437.046875 583.535156 436.417969 C 583.378906 436.136719 581.953125 433.8125 581.261719 433.882812 L 571.945312 434.796875 C 570.117188 430.375 567.707031 426.332031 564.832031 422.730469 L 570.121094 415.007812 C 570.511719 414.433594 569.175781 412.058594 569 411.792969 C 568.605469 411.195312 567.601562 410.191406 566.984375 409.816406 C 566.714844 409.652344 564.316406 408.355469 563.753906 408.757812 L 556.144531 414.21875 C 552.425781 411.363281 548.320312 409.050781 543.964844 407.332031 L 544.6875 397.984375 C 544.742188 397.289062 542.398438 395.902344 542.113281 395.757812 C 541.472656 395.4375 540.101562 395.074219 539.382812 395.054688 C 539.0625 395.050781 536.34375 395.125 536.058594 395.753906 L 532.199219 404.289062 C 527.632812 403.683594 522.933594 403.707031 518.214844 404.425781 L 514.171875 395.960938 C 513.878906 395.339844 511.152344 395.308594 510.835938 395.328125 C 510.121094 395.375 508.753906 395.742188 508.121094 396.085938 C 507.839844 396.242188 505.523438 397.667969 505.59375 398.359375 L 506.511719 407.691406 C 502.101562 409.519531 498.066406 411.921875 494.46875 414.804688 L 486.753906 409.5 C 486.183594 409.105469 483.820312 410.445312 483.550781 410.617188 C 482.941406 411.003906 481.960938 412.027344 481.578125 412.632812 C 481.40625 412.902344 480.113281 415.300781 480.519531 415.867188 L 485.980469 423.492188 C 483.140625 427.214844 480.824219 431.324219 479.117188 435.6875 L 469.777344 434.953125 C 469.089844 434.898438 467.710938 437.25 467.5625 437.53125 C 467.226562 438.171875 466.890625 439.542969 466.859375 440.261719 C 466.847656 440.582031 466.933594 443.308594 467.5625 443.589844 L 476.085938 447.464844 C 475.488281 452.035156 475.519531 456.742188 476.242188 461.46875 L 467.792969 465.511719 C 467.167969 465.804688 467.148438 468.53125 467.164062 468.851562 C 467.195312 469.574219 467.585938 470.9375 467.917969 471.570312 C 468.066406 471.855469 469.5 474.175781 470.1875 474.105469 L 479.507812 473.191406 C 481.332031 477.617188 483.742188 481.65625 486.617188 485.261719 L 481.328125 492.984375 C 480.9375 493.550781 482.28125 495.921875 482.449219 496.195312 C 482.839844 496.804688 483.859375 497.785156 484.46875 498.171875 C 484.738281 498.34375 487.132812 499.636719 487.695312 499.230469 L 495.308594 493.769531 C 499.027344 496.621094 503.128906 498.941406 507.484375 500.660156 L 506.761719 510.007812 C 506.707031 510.699219 509.054688 512.082031 509.335938 512.226562 C 509.976562 512.5625 511.347656 512.902344 512.066406 512.929688 C 512.386719 512.945312 515.105469 512.867188 515.390625 512.234375 L 519.25 503.703125 C 523.816406 504.308594 528.519531 504.277344 533.234375 503.558594 L 537.277344 512.023438 C 537.578125 512.652344 540.296875 512.671875 540.617188 512.660156 C 541.335938 512.628906 542.695312 512.238281 543.332031 511.902344 C 543.609375 511.753906 545.925781 510.320312 545.855469 509.632812 L 544.9375 500.300781 C 549.351562 498.472656 553.386719 496.0625 556.980469 493.1875 L 564.699219 498.492188 C 565.265625 498.886719 567.636719 497.550781 567.902344 497.371094 C 568.5 496.976562 569.5 495.972656 569.875 495.359375 C 570.039062 495.082031 571.335938 492.6875 570.929688 492.125 L 565.472656 484.492188 C 568.316406 480.773438 570.625 476.667969 572.332031 472.304688 L 581.671875 473.039062 C 582.359375 473.09375 583.75 470.746094 583.886719 470.457031 C 584.207031 469.820312 584.570312 468.445312 584.589844 467.726562 C 584.597656 467.410156 584.523438 464.683594 583.886719 464.394531 Z M 557.734375 455.175781 L 552.460938 453.667969 C 552.449219 452.5 552.359375 451.324219 552.191406 450.144531 L 557.15625 447.875 C 557.636719 450.320312 557.824219 452.765625 557.734375 455.175781 Z M 554.886719 467.210938 L 550.539062 463.761719 C 550.980469 462.671875 551.351562 461.554688 551.644531 460.40625 L 557.136719 460.214844 C 556.652344 462.632812 555.894531 464.984375 554.886719 467.210938 Z M 547.671875 477.3125 L 544.917969 472.359375 C 545.742188 471.515625 546.511719 470.617188 547.214844 469.675781 L 552.433594 471.632812 C 551.078125 473.691406 549.480469 475.597656 547.671875 477.3125 Z M 537.105469 483.929688 L 536.433594 478.132812 C 537.527344 477.671875 538.578125 477.136719 539.582031 476.542969 L 543.769531 480.449219 C 541.730469 481.847656 539.496094 483.019531 537.105469 483.929688 Z M 531.15625 473.789062 C 520.257812 476.828125 508.953125 470.4375 505.910156 459.519531 C 502.867188 448.597656 509.238281 437.28125 520.136719 434.242188 C 531.039062 431.210938 542.34375 437.597656 545.382812 448.511719 C 548.425781 459.433594 542.058594 470.746094 531.15625 473.789062 Z M 524.738281 486.011719 L 526.382812 480.21875 C 527.550781 480.210938 528.722656 480.125 529.90625 479.957031 L 532.351562 485.328125 C 529.804688 485.867188 527.25 486.089844 524.738281 486.011719 Z M 512.472656 483.136719 L 516.300781 478.289062 C 517.394531 478.734375 518.511719 479.109375 519.652344 479.402344 L 519.875 485.476562 C 517.308594 484.996094 514.824219 484.203125 512.472656 483.136719 Z M 508.21875 480.792969 C 506.027344 479.363281 504.003906 477.660156 502.210938 475.722656 L 507.714844 472.648438 C 508.558594 473.476562 509.453125 474.246094 510.394531 474.957031 Z M 495.613281 464.882812 L 501.941406 464.148438 C 502.40625 465.246094 502.9375 466.300781 503.53125 467.304688 L 499.210938 471.949219 C 497.75 469.792969 496.53125 467.429688 495.613281 464.882812 Z M 493.746094 452.339844 L 499.84375 454.082031 C 499.855469 455.25 499.945312 456.429688 500.113281 457.613281 L 494.320312 460.25 C 493.789062 457.601562 493.605469 454.945312 493.746094 452.339844 Z M 496.886719 440.117188 L 501.765625 443.984375 C 501.320312 445.078125 500.953125 446.195312 500.65625 447.34375 L 494.359375 447.566406 C 494.894531 444.972656 495.746094 442.480469 496.886719 440.117188 Z M 504.429688 430.082031 L 507.390625 435.390625 C 506.5625 436.234375 505.792969 437.132812 505.09375 438.078125 L 499.308594 435.910156 C 500.769531 433.78125 502.484375 431.816406 504.429688 430.082031 Z M 515.191406 423.753906 L 515.871094 429.617188 C 514.773438 430.082031 513.722656 430.613281 512.722656 431.210938 L 508.320312 427.101562 C 510.429688 425.738281 512.730469 424.609375 515.191406 423.753906 Z M 527.484375 422.019531 L 525.921875 427.53125 C 524.753906 427.539062 523.582031 427.625 522.402344 427.796875 L 519.984375 422.488281 C 522.5 422.027344 525.015625 421.878906 527.484375 422.019531 Z M 539.464844 425.085938 L 536.003906 429.460938 C 534.917969 429.019531 533.792969 428.648438 532.648438 428.355469 L 532.445312 422.6875 C 534.882812 423.21875 537.230469 424.023438 539.464844 425.085938 Z M 543.84375 427.605469 C 545.863281 428.988281 547.722656 430.605469 549.390625 432.425781 L 544.589844 435.101562 C 543.746094 434.269531 542.851562 433.503906 541.910156 432.800781 Z M 555.792969 442.972656 L 550.363281 443.601562 C 549.898438 442.503906 549.363281 441.449219 548.769531 440.441406 L 552.507812 436.429688 C 553.832031 438.441406 554.933594 440.632812 555.792969 442.972656 Z M 517.796875 416.125 C 494.929688 420.949219 481.511719 444.730469 489.214844 466.792969 C 495.578125 485.035156 514.757812 495.851562 533.652344 491.863281 C 556.523438 487.039062 569.9375 463.261719 562.238281 441.191406 C 555.875 422.953125 536.699219 412.136719 517.796875 416.125 Z M 186.746094 345.320312 C 186.019531 348.554688 182.8125 350.59375 179.578125 349.871094 C 176.339844 349.148438 174.300781 345.9375 175.027344 342.699219 C 175.75 339.464844 178.957031 337.421875 182.199219 338.148438 C 185.429688 338.871094 187.46875 342.085938 186.746094 345.320312 Z M 206.402344 347.929688 L 199.292969 345.78125 C 199.695312 341.628906 198.675781 337.59375 196.582031 334.230469 L 201.996094 329.136719 C 205.730469 334.4375 207.457031 341.121094 206.402344 347.929688 Z M 190.246094 368.078125 L 188.550781 360.839844 C 192.199219 359.175781 195.269531 356.34375 197.207031 352.710938 L 204.316406 354.855469 C 201.476562 361.011719 196.363281 365.691406 190.246094 368.078125 Z M 187.070312 354.511719 C 184.988281 355.738281 182.546875 356.347656 180.027344 356.164062 C 179.425781 356.125 178.828125 356.050781 178.226562 355.917969 C 177.015625 355.648438 175.894531 355.199219 174.871094 354.621094 C 172.699219 353.394531 170.988281 351.539062 169.917969 349.347656 C 169.136719 347.738281 168.707031 345.957031 168.691406 344.105469 C 168.6875 343.199219 168.773438 342.273438 168.976562 341.347656 C 169.320312 339.808594 169.949219 338.417969 170.78125 337.183594 C 171.804688 335.667969 173.152344 334.417969 174.707031 333.503906 C 176.78125 332.277344 179.222656 331.667969 181.742188 331.851562 C 182.34375 331.894531 182.945312 331.96875 183.546875 332.101562 C 184.753906 332.371094 185.878906 332.816406 186.902344 333.394531 C 189.074219 334.625 190.78125 336.484375 191.851562 338.671875 C 192.632812 340.277344 193.0625 342.058594 193.078125 343.910156 C 193.082031 344.820312 192.996094 345.742188 192.792969 346.671875 C 192.449219 348.207031 191.820312 349.605469 190.992188 350.835938 C 189.964844 352.351562 188.617188 353.605469 187.070312 354.511719 Z M 175.253906 369.210938 C 171.265625 368.324219 167.707031 366.550781 164.722656 364.148438 L 170.140625 359.070312 C 172.09375 360.464844 174.355469 361.503906 176.851562 362.058594 C 178.414062 362.40625 179.980469 362.546875 181.507812 362.496094 L 183.207031 369.730469 C 180.609375 369.964844 177.933594 369.808594 175.253906 369.210938 Z M 155.367188 340.089844 L 162.476562 342.234375 C 162.074219 346.386719 163.09375 350.425781 165.191406 353.792969 L 159.773438 358.878906 C 156.039062 353.578125 154.3125 346.902344 155.367188 340.089844 Z M 171.523438 319.945312 L 173.21875 327.175781 C 169.574219 328.84375 166.5 331.671875 164.5625 335.308594 L 157.453125 333.160156 C 160.292969 327.007812 165.40625 322.332031 171.523438 319.945312 Z M 186.519531 318.808594 C 190.503906 319.699219 194.0625 321.472656 197.046875 323.867188 L 191.628906 328.949219 C 189.675781 327.550781 187.414062 326.519531 184.917969 325.957031 C 183.355469 325.609375 181.792969 325.46875 180.261719 325.519531 L 178.558594 318.289062 C 181.160156 318.054688 183.835938 318.207031 186.519531 318.808594 Z M 224.839844 331.089844 L 213.480469 331.503906 C 212.59375 329.199219 211.464844 326.996094 210.117188 324.9375 L 217.121094 315.972656 C 217.449219 315.546875 216.53125 313.652344 216.40625 313.4375 C 216.125 312.957031 215.398438 312.132812 214.9375 311.8125 C 214.738281 311.675781 212.945312 310.558594 212.492188 310.839844 L 202.859375 316.878906 C 200.964844 315.34375 198.898438 313.992188 196.671875 312.863281 L 198.25 301.613281 C 198.324219 301.078125 196.570312 299.902344 196.363281 299.769531 C 195.882812 299.488281 194.835938 299.15625 194.28125 299.097656 C 194.035156 299.074219 191.925781 299.007812 191.675781 299.480469 L 186.351562 309.535156 C 183.875 309.140625 181.410156 309.019531 178.984375 309.148438 L 174.722656 298.609375 C 174.519531 298.109375 172.414062 297.964844 172.171875 297.960938 C 171.613281 297.949219 170.539062 298.1875 170.03125 298.417969 C 169.804688 298.519531 167.941406 299.515625 167.96875 300.050781 L 168.382812 311.414062 C 166.078125 312.296875 163.875 313.429688 161.8125 314.773438 L 152.851562 307.773438 C 152.425781 307.441406 150.53125 308.367188 150.316406 308.484375 C 149.824219 308.753906 149.015625 309.5 148.6875 309.949219 C 148.542969 310.152344 147.429688 311.945312 147.71875 312.398438 L 153.757812 322.03125 C 152.214844 323.925781 150.863281 326 149.742188 328.21875 L 138.484375 326.644531 C 137.957031 326.566406 136.773438 328.320312 136.648438 328.527344 C 136.359375 329.007812 136.03125 330.054688 135.976562 330.609375 C 135.949219 330.855469 135.886719 332.964844 136.359375 333.214844 L 146.410156 338.542969 C 146.011719 341.023438 145.894531 343.488281 146.027344 345.90625 L 135.488281 350.171875 C 134.988281 350.371094 134.84375 352.476562 134.835938 352.71875 C 134.828125 353.28125 135.066406 354.351562 135.292969 354.863281 C 135.390625 355.085938 136.390625 356.949219 136.929688 356.929688 L 148.289062 356.507812 C 149.175781 358.816406 150.304688 361.015625 151.648438 363.078125 L 144.648438 372.039062 C 144.316406 372.464844 145.242188 374.363281 145.363281 374.574219 C 145.632812 375.066406 146.378906 375.875 146.828125 376.203125 C 147.027344 376.347656 148.824219 377.460938 149.277344 377.171875 L 158.90625 371.132812 C 160.800781 372.675781 162.871094 374.027344 165.097656 375.15625 L 163.519531 386.40625 C 163.445312 386.933594 165.191406 388.117188 165.40625 388.242188 C 165.886719 388.519531 166.929688 388.871094 167.488281 388.914062 C 167.734375 388.933594 169.84375 389.011719 170.09375 388.535156 L 175.414062 378.484375 C 177.894531 378.878906 180.359375 379 182.785156 378.867188 L 187.042969 389.410156 C 187.242188 389.902344 189.347656 390.054688 189.597656 390.054688 C 190.152344 390.054688 191.230469 389.839844 191.734375 389.597656 C 191.960938 389.496094 193.820312 388.5 193.800781 387.960938 L 193.386719 376.609375 C 195.691406 375.71875 197.894531 374.585938 199.957031 373.242188 L 208.917969 380.246094 C 209.339844 380.574219 211.238281 379.652344 211.453125 379.527344 C 211.933594 379.253906 212.757812 378.523438 213.078125 378.066406 C 213.214844 377.859375 214.335938 376.070312 214.050781 375.613281 L 208.011719 365.988281 C 209.554688 364.089844 210.90625 362.019531 212.035156 359.792969 L 223.277344 361.371094 C 223.8125 361.445312 224.996094 359.699219 225.121094 359.484375 C 225.398438 359.003906 225.742188 357.960938 225.792969 357.40625 C 225.8125 357.15625 225.882812 355.046875 225.410156 354.796875 L 215.363281 349.476562 C 215.757812 346.996094 215.875 344.53125 215.746094 342.105469 L 226.28125 337.847656 C 226.78125 337.648438 226.933594 335.542969 226.933594 335.292969 C 226.933594 334.738281 226.710938 333.660156 226.472656 333.15625 C 226.367188 332.929688 225.375 331.070312 224.839844 331.089844 " fill-opacity="1" fill-rule="nonzero"/><path fill="#f4539f" d="M 343.578125 435.601562 C 328.832031 435.601562 316.882812 423.648438 316.882812 408.910156 C 316.882812 394.164062 328.832031 382.210938 343.578125 382.210938 C 358.320312 382.210938 370.269531 394.164062 370.269531 408.910156 C 370.269531 423.648438 358.320312 435.601562 343.578125 435.601562 Z M 381.652344 413.5625 C 381.835938 412.035156 381.9375 410.480469 381.9375 408.910156 C 381.9375 407.332031 381.835938 405.78125 381.652344 404.253906 L 392.078125 398.113281 C 392.582031 397.820312 392.324219 394.984375 392.285156 394.65625 C 392.183594 393.90625 391.710938 392.480469 391.359375 391.808594 C 391.199219 391.515625 389.742188 389.074219 389.160156 389.128906 L 377.121094 390.292969 C 375.605469 387.5625 373.761719 385.039062 371.644531 382.765625 L 376.472656 371.667969 C 376.707031 371.132812 374.835938 368.984375 374.601562 368.746094 C 374.078125 368.210938 372.867188 367.320312 372.183594 366.996094 C 371.878906 366.851562 369.269531 365.726562 368.832031 366.117188 L 359.773438 374.132812 C 356.988281 372.828125 354.015625 371.855469 350.917969 371.253906 L 348.296875 359.449219 C 348.171875 358.875 345.402344 358.242188 345.074219 358.179688 C 344.328125 358.046875 342.828125 358.054688 342.085938 358.179688 C 341.753906 358.242188 338.980469 358.875 338.855469 359.449219 L 336.238281 371.253906 C 333.136719 371.855469 330.171875 372.828125 327.378906 374.132812 L 318.328125 366.117188 C 317.886719 365.726562 315.273438 366.84375 314.972656 366.996094 C 314.292969 367.328125 313.078125 368.199219 312.550781 368.746094 C 312.324219 368.992188 310.449219 371.132812 310.6875 371.667969 L 315.511719 382.765625 C 313.394531 385.03125 311.554688 387.558594 310.035156 390.292969 L 298 389.128906 C 297.414062 389.074219 295.957031 391.515625 295.796875 391.808594 C 295.4375 392.472656 294.984375 393.90625 294.875 394.65625 C 294.824219 394.984375 294.574219 397.820312 295.078125 398.113281 L 305.5 404.253906 C 305.316406 405.78125 305.21875 407.332031 305.21875 408.910156 C 305.21875 410.480469 305.316406 412.039062 305.5 413.5625 L 295.078125 419.699219 C 294.574219 420 294.824219 422.828125 294.875 423.164062 C 294.984375 423.90625 295.4375 425.339844 295.796875 426.003906 C 295.957031 426.296875 297.414062 428.738281 298 428.683594 L 310.035156 427.527344 C 311.554688 430.253906 313.394531 432.78125 315.511719 435.050781 L 310.6875 446.148438 C 310.449219 446.679688 312.324219 448.820312 312.550781 449.066406 C 313.078125 449.617188 314.292969 450.488281 314.972656 450.824219 C 315.273438 450.972656 317.886719 452.085938 318.328125 451.695312 L 327.378906 443.6875 C 330.171875 444.984375 333.136719 445.960938 336.238281 446.5625 L 338.855469 458.371094 C 338.980469 458.9375 341.753906 459.578125 342.085938 459.632812 C 342.828125 459.757812 344.328125 459.765625 345.074219 459.632812 C 345.402344 459.574219 348.171875 458.9375 348.296875 458.371094 L 350.917969 446.5625 C 354.015625 445.957031 356.988281 444.984375 359.773438 443.6875 L 368.832031 451.695312 C 369.269531 452.085938 371.878906 450.96875 372.183594 450.824219 C 372.867188 450.496094 374.078125 449.605469 374.601562 449.066406 C 374.835938 448.828125 376.707031 446.679688 376.472656 446.148438 L 371.644531 435.046875 C 373.761719 432.777344 375.605469 430.253906 377.121094 427.527344 L 389.160156 428.683594 C 389.742188 428.738281 391.199219 426.296875 391.359375 426.003906 C 391.710938 425.335938 392.183594 423.914062 392.285156 423.164062 C 392.324219 422.828125 392.582031 420 392.078125 419.699219 Z M 343.382812 511.429688 C 286.933594 511.742188 240.691406 465.503906 241 409.050781 C 241.3125 353.28125 286.464844 308.132812 342.234375 307.820312 C 398.6875 307.507812 444.921875 353.75 444.613281 410.203125 C 444.304688 465.972656 399.152344 511.121094 343.382812 511.429688 Z M 437.476562 497.210938 C 438.269531 496.800781 439.421875 495.5625 439.726562 494.710938 C 439.863281 494.332031 440.769531 490.945312 439.792969 489.878906 L 432.535156 481.90625 C 431.730469 481.027344 431.671875 479.707031 432.394531 478.769531 C 433.660156 477.125 434.875 475.453125 436.050781 473.746094 C 436.722656 472.769531 438 472.417969 439.078125 472.910156 L 448.894531 477.351562 C 450.214844 477.945312 453.164062 476.042969 453.472656 475.789062 C 454.167969 475.222656 455.035156 473.773438 455.15625 472.878906 C 455.210938 472.480469 455.394531 468.976562 454.214844 468.132812 L 445.472656 461.863281 C 444.507812 461.171875 444.175781 459.886719 444.6875 458.8125 C 445.582031 456.953125 446.429688 455.0625 447.222656 453.140625 C 447.671875 452.046875 448.851562 451.4375 450.007812 451.691406 L 460.515625 453.988281 C 461.929688 454.296875 464.417969 451.828125 464.667969 451.511719 C 465.226562 450.8125 465.777344 449.214844 465.707031 448.3125 C 465.675781 447.914062 465.128906 444.449219 463.800781 443.871094 L 453.953125 439.554688 C 452.863281 439.078125 452.269531 437.898438 452.542969 436.742188 C 453.027344 434.738281 453.457031 432.710938 453.828125 430.664062 C 454.042969 429.496094 455.070312 428.652344 456.253906 428.660156 L 467.019531 428.722656 C 468.472656 428.734375 470.394531 425.792969 470.566406 425.4375 C 470.972656 424.640625 471.175781 422.957031 470.921875 422.089844 C 470.808594 421.707031 469.554688 418.433594 468.132812 418.144531 L 457.574219 415.964844 C 456.414062 415.722656 455.585938 414.6875 455.621094 413.5 C 455.648438 412.46875 455.664062 411.433594 455.664062 410.402344 C 455.664062 409.363281 455.648438 408.332031 455.621094 407.300781 C 455.585938 406.113281 456.414062 405.074219 457.574219 404.835938 L 468.132812 402.660156 C 469.554688 402.367188 470.820312 399.09375 470.921875 398.707031 C 471.152344 397.839844 471 396.15625 470.566406 395.359375 C 470.378906 395.007812 468.472656 392.070312 467.019531 392.074219 L 456.253906 392.140625 C 455.070312 392.148438 454.042969 391.304688 453.828125 390.136719 C 453.457031 388.089844 453.027344 386.058594 452.542969 384.054688 C 452.269531 382.90625 452.863281 381.71875 453.953125 381.242188 L 463.800781 376.925781 C 465.128906 376.347656 465.6875 372.882812 465.707031 372.484375 C 465.75 371.589844 465.257812 369.972656 464.667969 369.285156 C 464.410156 368.980469 461.929688 366.5 460.515625 366.808594 L 450.007812 369.109375 C 448.851562 369.359375 447.671875 368.757812 447.222656 367.660156 C 446.429688 365.738281 445.582031 363.84375 444.6875 361.984375 C 444.175781 360.910156 444.507812 359.628906 445.472656 358.933594 L 454.214844 352.664062 C 455.394531 351.820312 455.21875 348.3125 455.15625 347.925781 C 455.015625 347.039062 454.191406 345.558594 453.472656 345.007812 C 453.152344 344.765625 450.214844 342.851562 448.894531 343.453125 L 439.078125 347.894531 C 438 348.382812 436.722656 348.027344 436.050781 347.054688 C 434.875 345.34375 433.660156 343.671875 432.394531 342.035156 C 431.671875 341.089844 431.730469 339.769531 432.535156 338.890625 L 439.792969 330.925781 C 440.769531 329.851562 439.871094 326.457031 439.726562 326.089844 C 439.402344 325.253906 438.296875 323.976562 437.476562 323.589844 C 437.113281 323.414062 433.84375 322.15625 432.675781 323.019531 L 423.984375 329.40625 C 423.03125 330.113281 421.710938 330.03125 420.851562 329.214844 C 419.355469 327.785156 417.816406 326.398438 416.242188 325.054688 C 415.335938 324.285156 415.121094 322.980469 415.722656 321.960938 L 421.167969 312.65625 C 421.898438 311.40625 420.316406 308.277344 420.097656 307.941406 C 419.609375 307.191406 418.257812 306.175781 417.378906 305.960938 C 416.984375 305.871094 413.523438 305.316406 412.558594 306.402344 L 405.40625 314.445312 C 404.617188 315.328125 403.308594 315.527344 402.296875 314.910156 C 400.535156 313.820312 398.742188 312.789062 396.914062 311.800781 C 395.871094 311.234375 395.386719 309.996094 395.761719 308.875 L 399.152344 298.65625 C 399.605469 297.285156 397.410156 294.550781 397.125 294.269531 C 396.484375 293.640625 394.953125 292.921875 394.050781 292.902344 C 393.644531 292.886719 390.148438 293.074219 389.429688 294.332031 L 384.109375 303.679688 C 383.519531 304.710938 382.28125 305.175781 381.164062 304.777344 C 379.21875 304.089844 377.246094 303.445312 375.253906 302.859375 C 374.117188 302.527344 373.382812 301.417969 373.515625 300.242188 L 374.707031 289.550781 C 374.863281 288.105469 372.144531 285.890625 371.808594 285.675781 C 371.058594 285.191406 369.410156 284.8125 368.515625 284.972656 C 368.121094 285.046875 364.734375 285.957031 364.300781 287.332031 L 361.03125 297.59375 C 360.671875 298.722656 359.558594 299.441406 358.382812 299.285156 C 356.339844 299.015625 354.28125 298.804688 352.207031 298.648438 C 351.023438 298.558594 350.074219 297.625 349.960938 296.441406 L 348.898438 285.714844 C 348.757812 284.273438 345.632812 282.683594 345.257812 282.53125 C 344.425781 282.1875 342.734375 282.210938 341.894531 282.53125 C 341.519531 282.671875 338.402344 284.273438 338.257812 285.714844 L 337.191406 296.441406 C 337.078125 297.625 336.136719 298.558594 334.945312 298.648438 C 332.875 298.804688 330.8125 299.015625 328.773438 299.285156 C 327.59375 299.441406 326.480469 298.722656 326.121094 297.59375 L 322.859375 287.332031 C 322.417969 285.957031 319.03125 285.046875 318.636719 284.972656 C 317.746094 284.8125 316.101562 285.191406 315.347656 285.675781 C 315.011719 285.890625 312.289062 288.105469 312.453125 289.550781 L 313.640625 300.242188 C 313.769531 301.417969 313.042969 302.527344 311.902344 302.859375 C 309.90625 303.445312 307.9375 304.089844 305.988281 304.777344 C 304.871094 305.175781 303.632812 304.710938 303.042969 303.679688 L 297.722656 294.332031 C 297.003906 293.074219 293.507812 292.886719 293.105469 292.902344 C 292.199219 292.921875 290.667969 293.640625 290.03125 294.269531 C 289.75 294.550781 287.546875 297.285156 288.007812 298.65625 L 291.390625 308.875 C 291.765625 309.996094 291.28125 311.234375 290.238281 311.800781 C 288.414062 312.789062 286.617188 313.820312 284.855469 314.910156 C 283.847656 315.527344 282.535156 315.328125 281.746094 314.445312 L 274.597656 306.402344 C 273.632812 305.316406 270.167969 305.871094 269.78125 305.960938 C 268.894531 306.175781 267.546875 307.191406 267.054688 307.941406 C 266.839844 308.277344 265.253906 311.40625 265.984375 312.65625 L 271.429688 321.960938 C 272.03125 322.980469 271.816406 324.285156 270.914062 325.054688 C 269.339844 326.398438 267.804688 327.785156 266.304688 329.214844 C 265.449219 330.03125 264.121094 330.113281 263.167969 329.40625 L 254.476562 323.019531 C 253.3125 322.15625 250.039062 323.414062 249.675781 323.589844 C 248.863281 323.976562 247.75 325.253906 247.425781 326.089844 C 247.28125 326.457031 246.382812 329.851562 247.359375 330.925781 L 254.621094 338.890625 C 255.421875 339.769531 255.480469 341.089844 254.757812 342.035156 C 253.492188 343.671875 252.277344 345.34375 251.101562 347.054688 C 250.433594 348.027344 249.15625 348.382812 248.078125 347.894531 L 238.257812 343.453125 C 236.9375 342.851562 234 344.765625 233.679688 345.007812 C 232.960938 345.558594 232.140625 347.039062 231.996094 347.925781 C 231.933594 348.3125 231.761719 351.820312 232.9375 352.664062 L 241.679688 358.933594 C 242.644531 359.628906 242.976562 360.910156 242.464844 361.984375 C 241.570312 363.84375 240.722656 365.738281 239.933594 367.660156 C 239.480469 368.757812 238.300781 369.359375 237.144531 369.109375 L 226.640625 366.808594 C 225.226562 366.5 222.746094 368.980469 222.484375 369.285156 C 221.902344 369.972656 221.402344 371.589844 221.445312 372.484375 C 221.464844 372.882812 222.027344 376.347656 223.351562 376.925781 L 233.207031 381.242188 C 234.289062 381.71875 234.882812 382.90625 234.609375 384.054688 C 234.125 386.058594 233.699219 388.089844 233.324219 390.136719 C 233.109375 391.304688 232.085938 392.148438 230.898438 392.140625 L 220.132812 392.074219 C 218.6875 392.070312 216.773438 395.007812 216.585938 395.359375 C 216.152344 396.15625 216.007812 397.839844 216.230469 398.707031 C 216.335938 399.09375 217.605469 402.367188 219.019531 402.660156 L 229.582031 404.835938 C 230.738281 405.074219 231.570312 406.113281 231.535156 407.300781 C 231.507812 408.332031 231.488281 409.363281 231.488281 410.402344 C 231.488281 411.433594 231.507812 412.46875 231.535156 413.5 C 231.570312 414.6875 230.738281 415.722656 229.582031 415.964844 L 219.019531 418.144531 C 217.605469 418.433594 216.347656 421.707031 216.230469 422.089844 C 215.976562 422.957031 216.179688 424.640625 216.585938 425.4375 C 216.765625 425.792969 218.6875 428.734375 220.132812 428.722656 L 230.898438 428.660156 C 232.085938 428.652344 233.109375 429.496094 233.324219 430.664062 C 233.699219 432.710938 234.125 434.738281 234.609375 436.742188 C 234.882812 437.898438 234.289062 439.078125 233.207031 439.554688 L 223.351562 443.871094 C 222.027344 444.449219 221.476562 447.914062 221.445312 448.3125 C 221.375 449.214844 221.925781 450.8125 222.484375 451.511719 C 222.734375 451.828125 225.226562 454.296875 226.640625 453.988281 L 237.144531 451.691406 C 238.300781 451.4375 239.480469 452.046875 239.933594 453.140625 C 240.722656 455.0625 241.570312 456.953125 242.464844 458.8125 C 242.976562 459.886719 242.644531 461.171875 241.679688 461.863281 L 232.9375 468.132812 C 231.761719 468.976562 231.949219 472.480469 231.996094 472.878906 C 232.117188 473.773438 232.984375 475.222656 233.679688 475.789062 C 233.988281 476.042969 236.9375 477.945312 238.257812 477.351562 L 248.078125 472.910156 C 249.15625 472.417969 250.433594 472.769531 251.101562 473.746094 C 252.277344 475.453125 253.492188 477.125 254.757812 478.769531 C 255.480469 479.707031 255.421875 481.027344 254.621094 481.90625 L 247.359375 489.875 C 246.382812 490.945312 247.289062 494.332031 247.425781 494.710938 C 247.730469 495.5625 248.882812 496.800781 249.675781 497.210938 C 250.03125 497.394531 253.3125 498.640625 254.476562 497.785156 L 263.167969 491.390625 C 264.121094 490.6875 265.449219 490.765625 266.304688 491.585938 C 267.804688 493.011719 269.339844 494.398438 270.914062 495.742188 C 271.816406 496.511719 272.03125 497.820312 271.429688 498.84375 L 265.984375 508.144531 C 265.253906 509.394531 266.84375 512.515625 267.054688 512.863281 C 267.527344 513.628906 268.917969 514.597656 269.78125 514.839844 C 270.164062 514.941406 273.632812 515.480469 274.597656 514.398438 L 281.746094 506.351562 C 282.535156 505.46875 283.847656 505.269531 284.855469 505.894531 C 286.617188 506.976562 288.414062 508.015625 290.238281 509.003906 C 291.28125 509.566406 291.765625 510.800781 291.390625 511.921875 L 288.007812 522.140625 C 287.546875 523.515625 289.753906 526.238281 290.03125 526.527344 C 290.65625 527.1875 292.214844 527.851562 293.105469 527.898438 C 293.5 527.917969 297.003906 527.726562 297.722656 526.46875 L 303.042969 517.117188 C 303.632812 516.089844 304.871094 515.621094 305.988281 516.019531 C 307.9375 516.714844 309.90625 517.355469 311.902344 517.941406 C 313.042969 518.273438 313.769531 519.386719 313.640625 520.5625 L 312.453125 531.253906 C 312.289062 532.691406 315.011719 534.898438 315.347656 535.125 C 316.089844 535.636719 317.753906 535.960938 318.636719 535.824219 C 319.03125 535.765625 322.417969 534.847656 322.859375 533.464844 L 326.121094 523.203125 C 326.480469 522.074219 327.59375 521.363281 328.773438 521.515625 C 330.8125 521.78125 332.875 521.996094 334.945312 522.15625 C 336.136719 522.238281 337.078125 523.171875 337.191406 524.355469 L 338.257812 535.082031 C 338.402344 536.523438 341.519531 538.125 341.894531 538.269531 C 342.734375 538.585938 344.425781 538.617188 345.257812 538.269531 C 345.632812 538.117188 348.757812 536.523438 348.898438 535.082031 L 349.960938 524.355469 C 350.074219 523.171875 351.023438 522.238281 352.207031 522.15625 C 354.28125 521.996094 356.339844 521.78125 358.382812 521.515625 C 359.558594 521.363281 360.671875 522.074219 361.03125 523.203125 L 364.300781 533.464844 C 364.734375 534.847656 368.121094 535.765625 368.515625 535.824219 C 369.398438 535.960938 371.0625 535.636719 371.808594 535.125 C 372.140625 534.898438 374.863281 532.691406 374.707031 531.253906 L 373.515625 520.5625 C 373.382812 519.386719 374.117188 518.273438 375.253906 517.941406 C 377.246094 517.355469 379.21875 516.714844 381.164062 516.019531 C 382.28125 515.621094 383.519531 516.089844 384.109375 517.117188 L 389.429688 526.46875 C 390.148438 527.726562 393.652344 527.917969 394.050781 527.898438 C 394.945312 527.851562 396.5 527.1875 397.125 526.527344 C 397.398438 526.238281 399.605469 523.515625 399.152344 522.140625 L 395.761719 511.921875 C 395.386719 510.800781 395.871094 509.566406 396.914062 509.003906 C 398.742188 508.015625 400.535156 506.976562 402.296875 505.894531 C 403.308594 505.269531 404.617188 505.46875 405.40625 506.351562 L 412.558594 514.398438 C 413.523438 515.480469 416.988281 514.941406 417.378906 514.839844 C 418.238281 514.597656 419.625 513.628906 420.097656 512.863281 C 420.308594 512.515625 421.898438 509.394531 421.167969 508.144531 L 415.722656 498.84375 C 415.121094 497.820312 415.335938 496.511719 416.242188 495.742188 C 417.816406 494.398438 419.355469 493.011719 420.851562 491.585938 C 421.710938 490.765625 423.03125 490.6875 423.984375 491.390625 L 432.675781 497.785156 C 433.84375 498.640625 437.121094 497.394531 437.476562 497.210938 Z M 343.578125 419.863281 C 337.527344 419.863281 332.621094 414.957031 332.621094 408.910156 C 332.621094 402.855469 337.527344 397.953125 343.578125 397.953125 C 349.625 397.953125 354.53125 402.855469 354.53125 408.910156 C 354.53125 414.957031 349.625 419.863281 343.578125 419.863281 Z M 343.578125 390.832031 C 333.59375 390.832031 325.503906 398.925781 325.503906 408.910156 C 325.503906 418.886719 333.59375 426.980469 343.578125 426.980469 C 353.558594 426.980469 361.648438 418.886719 361.648438 408.910156 C 361.648438 398.925781 353.558594 390.832031 343.578125 390.832031 Z M 425.410156 414.035156 C 421.84375 414.617188 418.8125 411.585938 419.394531 408.027344 C 419.75 405.871094 421.484375 404.128906 423.648438 403.777344 C 427.207031 403.195312 430.238281 406.230469 429.65625 409.789062 C 429.300781 411.945312 427.566406 413.6875 425.410156 414.035156 Z M 417.007812 372.433594 C 414.21875 374.722656 410.070312 373.613281 408.796875 370.234375 C 408.023438 368.191406 408.660156 365.816406 410.351562 364.429688 C 413.140625 362.144531 417.289062 363.25 418.566406 366.628906 C 419.335938 368.675781 418.699219 371.050781 417.007812 372.433594 Z M 418.566406 451.183594 C 417.289062 454.5625 413.140625 455.667969 410.351562 453.382812 C 408.660156 451.996094 408.023438 449.625 408.796875 447.578125 C 410.070312 444.207031 414.21875 443.09375 417.007812 445.378906 C 418.699219 446.761719 419.335938 449.136719 418.566406 451.183594 Z M 343.578125 479.804688 C 304.421875 479.804688 272.679688 448.0625 272.679688 408.910156 C 272.679688 369.75 304.421875 338.007812 343.578125 338.007812 C 382.734375 338.007812 414.472656 369.75 414.472656 408.910156 C 414.472656 448.0625 382.734375 479.804688 343.578125 479.804688 Z M 387.378906 483.015625 C 384.585938 485.300781 380.441406 484.1875 379.167969 480.816406 C 378.398438 478.769531 379.03125 476.390625 380.722656 475.011719 C 383.515625 472.722656 387.660156 473.832031 388.933594 477.210938 C 389.707031 479.253906 389.070312 481.628906 387.378906 483.015625 Z M 348.707031 490.738281 C 348.351562 492.894531 346.617188 494.628906 344.460938 494.984375 C 340.894531 495.574219 337.863281 492.535156 338.445312 488.976562 C 338.800781 486.820312 340.542969 485.078125 342.699219 484.722656 C 346.257812 484.136719 349.292969 487.171875 348.707031 490.738281 Z M 307.984375 480.808594 C 306.710938 484.1875 302.566406 485.300781 299.773438 483.015625 C 298.082031 481.628906 297.449219 479.253906 298.21875 477.210938 C 299.496094 473.832031 303.636719 472.722656 306.429688 475.003906 C 308.121094 476.390625 308.757812 478.769531 307.984375 480.808594 Z M 276.800781 453.382812 C 274.011719 455.667969 269.863281 454.5625 268.589844 451.183594 C 267.816406 449.136719 268.457031 446.761719 270.144531 445.378906 C 272.9375 443.09375 277.085938 444.207031 278.359375 447.578125 C 279.128906 449.625 278.492188 451.996094 276.800781 453.382812 Z M 267.757812 409.789062 C 267.402344 411.945312 265.667969 413.6875 263.511719 414.035156 C 259.945312 414.617188 256.914062 411.585938 257.496094 408.027344 C 257.851562 405.871094 259.59375 404.128906 261.75 403.777344 C 265.308594 403.195312 268.34375 406.230469 267.757812 409.789062 Z M 268.589844 366.628906 C 269.863281 363.257812 274.011719 362.144531 276.800781 364.429688 C 278.492188 365.816406 279.128906 368.1875 278.359375 370.234375 C 277.085938 373.609375 272.9375 374.722656 270.144531 372.433594 C 268.457031 371.050781 267.816406 368.675781 268.589844 366.628906 Z M 299.773438 334.804688 C 302.566406 332.511719 306.710938 333.625 307.984375 337 C 308.757812 339.046875 308.121094 341.421875 306.429688 342.804688 C 303.636719 345.089844 299.496094 343.980469 298.21875 340.609375 C 297.449219 338.5625 298.082031 336.183594 299.773438 334.804688 Z M 338.445312 327.078125 C 338.800781 324.921875 340.542969 323.183594 342.699219 322.828125 C 346.257812 322.246094 349.292969 325.28125 348.707031 328.839844 C 348.351562 330.996094 346.617188 332.738281 344.460938 333.089844 C 340.894531 333.675781 337.863281 330.640625 338.445312 327.078125 Z M 379.167969 337 C 380.445312 333.625 384.585938 332.511719 387.378906 334.804688 C 389.070312 336.183594 389.707031 338.5625 388.933594 340.609375 C 387.660156 343.980469 383.515625 345.09375 380.722656 342.804688 C 379.03125 341.421875 378.398438 339.046875 379.167969 337 Z M 343.578125 317.667969 C 293.1875 317.667969 252.339844 358.515625 252.339844 408.910156 C 252.339844 459.296875 293.1875 500.144531 343.578125 500.144531 C 393.964844 500.144531 434.816406 459.296875 434.816406 408.910156 C 434.816406 358.515625 393.964844 317.667969 343.578125 317.667969 Z M 482.382812 538.230469 C 480.175781 548.847656 469.507812 555.378906 459.074219 552.503906 C 449.625 549.90625 443.742188 540.265625 445.742188 530.65625 C 447.941406 520.039062 458.613281 513.503906 469.050781 516.375 C 478.496094 518.980469 484.378906 528.617188 482.382812 538.230469 Z M 499.027344 539.105469 L 492.835938 536.074219 C 492.65625 535.984375 492.550781 535.800781 492.558594 535.601562 C 492.722656 531.773438 492.101562 528.023438 490.824219 524.554688 C 490.757812 524.371094 490.804688 524.160156 490.949219 524.023438 L 495.910156 519.230469 C 496.070312 519.082031 496.109375 518.839844 496.015625 518.640625 C 495.0625 516.714844 493.941406 514.875 492.664062 513.152344 C 492.53125 512.972656 492.296875 512.902344 492.09375 512.972656 L 485.574219 515.21875 C 485.386719 515.28125 485.179688 515.226562 485.042969 515.078125 C 482.546875 512.359375 479.5 510.101562 476.023438 508.5 C 475.84375 508.414062 475.726562 508.234375 475.734375 508.035156 L 475.863281 501.136719 C 475.867188 500.917969 475.726562 500.714844 475.519531 500.644531 C 474.511719 500.304688 473.480469 500.003906 472.429688 499.75 C 471.375 499.5 470.324219 499.296875 469.269531 499.136719 C 469.050781 499.105469 468.839844 499.222656 468.742188 499.421875 L 465.710938 505.621094 C 465.625 505.800781 465.441406 505.902344 465.238281 505.898438 C 461.414062 505.738281 457.675781 506.359375 454.210938 507.640625 C 454.027344 507.710938 453.816406 507.667969 453.679688 507.519531 L 448.902344 502.554688 C 448.746094 502.394531 448.507812 502.351562 448.308594 502.449219 C 446.386719 503.402344 444.550781 504.53125 442.824219 505.808594 C 442.648438 505.945312 442.578125 506.179688 442.648438 506.382812 L 444.878906 512.910156 C 444.945312 513.097656 444.886719 513.304688 444.742188 513.441406 C 442.023438 515.945312 439.769531 519 438.164062 522.480469 C 438.085938 522.664062 437.902344 522.777344 437.703125 522.773438 L 430.8125 522.648438 C 430.59375 522.644531 430.394531 522.785156 430.324219 522.992188 C 429.984375 524 429.6875 525.035156 429.429688 526.085938 C 429.175781 527.144531 428.972656 528.199219 428.816406 529.253906 C 428.78125 529.472656 428.898438 529.6875 429.097656 529.78125 L 435.28125 532.8125 C 435.460938 532.902344 435.570312 533.085938 435.558594 533.285156 C 435.402344 537.113281 436.015625 540.855469 437.292969 544.324219 C 437.363281 544.515625 437.316406 544.722656 437.171875 544.863281 L 432.210938 549.648438 C 432.050781 549.804688 432.007812 550.042969 432.105469 550.246094 C 433.054688 552.171875 434.179688 554.007812 435.457031 555.734375 C 435.589844 555.914062 435.820312 555.984375 436.03125 555.910156 L 442.546875 553.667969 C 442.734375 553.601562 442.941406 553.65625 443.078125 553.808594 C 445.578125 556.527344 448.621094 558.785156 452.09375 560.386719 C 452.28125 560.464844 452.394531 560.652344 452.390625 560.851562 L 452.261719 567.746094 C 452.253906 567.96875 452.394531 568.167969 452.605469 568.238281 C 453.609375 568.582031 454.640625 568.875 455.695312 569.128906 C 456.746094 569.386719 457.800781 569.589844 458.851562 569.742188 C 459.066406 569.777344 459.28125 569.664062 459.382812 569.464844 L 462.40625 563.265625 C 462.496094 563.085938 462.679688 562.976562 462.882812 562.984375 C 466.703125 563.144531 470.441406 562.527344 473.90625 561.238281 C 474.097656 561.175781 474.304688 561.21875 474.445312 561.363281 L 479.222656 566.332031 C 479.371094 566.488281 479.617188 566.53125 479.8125 566.433594 C 481.738281 565.480469 483.574219 564.355469 485.300781 563.070312 C 485.476562 562.941406 485.546875 562.707031 485.476562 562.496094 L 483.238281 555.972656 C 483.175781 555.785156 483.230469 555.578125 483.378906 555.441406 C 486.097656 552.933594 488.351562 549.886719 489.953125 546.40625 C 490.039062 546.222656 490.21875 546.105469 490.417969 546.113281 L 497.304688 546.238281 C 497.523438 546.242188 497.722656 546.101562 497.796875 545.890625 C 498.136719 544.882812 498.4375 543.851562 498.691406 542.792969 C 498.945312 541.738281 499.152344 540.6875 499.304688 539.628906 C 499.335938 539.414062 499.226562 539.199219 499.027344 539.105469 Z M 474.570312 536.976562 C 473.167969 542.792969 467.328125 546.371094 461.519531 544.972656 C 455.714844 543.570312 452.144531 537.722656 453.546875 531.90625 C 454.949219 526.09375 460.792969 522.515625 466.597656 523.910156 C 472.402344 525.3125 475.972656 531.164062 474.570312 536.976562 Z M 629.894531 414.175781 C 629.195312 417.300781 626.089844 419.265625 622.96875 418.566406 C 619.84375 417.867188 617.875 414.769531 618.574219 411.644531 C 619.269531 408.515625 622.375 406.546875 625.496094 407.246094 C 628.621094 407.945312 630.59375 411.046875 629.894531 414.175781 Z M 648.875 416.695312 L 642.007812 414.625 C 642.402344 410.609375 641.417969 406.714844 639.394531 403.460938 L 644.625 398.542969 C 648.226562 403.664062 649.894531 410.117188 648.875 416.695312 Z M 633.277344 436.148438 L 631.636719 429.164062 C 635.160156 427.554688 638.125 424.820312 639.996094 421.3125 L 646.871094 423.382812 C 644.121094 429.332031 639.183594 433.847656 633.277344 436.148438 Z M 630.203125 423.054688 C 628.191406 424.238281 625.835938 424.824219 623.402344 424.652344 C 622.824219 424.605469 622.242188 424.542969 621.664062 424.40625 C 620.496094 424.148438 619.414062 423.71875 618.421875 423.160156 C 616.324219 421.96875 614.675781 420.179688 613.644531 418.0625 C 612.886719 416.511719 612.472656 414.789062 612.457031 413 C 612.453125 412.125 612.53125 411.234375 612.730469 410.335938 C 613.066406 408.855469 613.667969 407.5 614.472656 406.3125 C 615.464844 404.851562 616.761719 403.644531 618.261719 402.761719 C 620.273438 401.578125 622.628906 400.988281 625.0625 401.167969 C 625.640625 401.207031 626.222656 401.277344 626.804688 401.40625 C 627.96875 401.667969 629.054688 402.097656 630.042969 402.65625 C 632.140625 403.84375 633.792969 405.640625 634.820312 407.75 C 635.578125 409.304688 635.992188 411.027344 636.007812 412.8125 C 636.015625 413.691406 635.933594 414.585938 635.734375 415.476562 C 635.398438 416.964844 634.796875 418.3125 633.992188 419.5 C 633 420.960938 631.703125 422.171875 630.203125 423.054688 Z M 618.792969 437.25 C 614.941406 436.390625 611.507812 434.679688 608.625 432.363281 L 613.855469 427.449219 C 615.742188 428.804688 617.925781 429.800781 620.335938 430.339844 C 621.847656 430.679688 623.355469 430.816406 624.839844 430.765625 L 626.476562 437.753906 C 623.96875 437.976562 621.386719 437.828125 618.792969 437.25 Z M 599.589844 409.117188 L 606.457031 411.195312 C 606.0625 415.203125 607.050781 419.101562 609.078125 422.355469 L 603.84375 427.269531 C 600.238281 422.148438 598.570312 415.703125 599.589844 409.117188 Z M 615.191406 389.664062 L 616.828125 396.652344 C 613.308594 398.257812 610.339844 400.992188 608.46875 404.503906 L 601.601562 402.429688 C 604.347656 396.488281 609.285156 391.96875 615.191406 389.664062 Z M 629.675781 388.566406 C 633.523438 389.429688 636.960938 391.136719 639.84375 393.453125 L 634.613281 398.363281 C 632.726562 397.015625 630.539062 396.011719 628.128906 395.472656 C 626.617188 395.132812 625.109375 395.003906 623.632812 395.050781 L 621.988281 388.066406 C 624.5 387.84375 627.085938 387.988281 629.675781 388.566406 Z M 668.265625 402.425781 C 668.164062 402.207031 667.203125 400.410156 666.683594 400.429688 L 655.714844 400.828125 C 654.859375 398.601562 653.765625 396.480469 652.46875 394.492188 L 659.230469 385.832031 C 659.550781 385.421875 658.65625 383.585938 658.539062 383.378906 C 658.269531 382.917969 657.570312 382.121094 657.125 381.8125 C 656.929688 381.679688 655.199219 380.601562 654.761719 380.875 L 645.457031 386.710938 C 643.625 385.222656 641.628906 383.914062 639.476562 382.828125 L 641 371.960938 C 641.074219 371.445312 639.382812 370.304688 639.179688 370.183594 C 638.71875 369.90625 637.707031 369.585938 637.171875 369.53125 C 636.933594 369.511719 634.894531 369.445312 634.652344 369.898438 L 629.511719 379.613281 C 627.121094 379.226562 624.738281 379.113281 622.398438 379.242188 L 618.28125 369.054688 C 618.085938 368.578125 616.054688 368.4375 615.816406 368.433594 C 615.277344 368.421875 614.242188 368.65625 613.753906 368.871094 C 613.535156 368.972656 611.738281 369.933594 611.757812 370.453125 L 612.15625 381.429688 C 609.929688 382.28125 607.804688 383.371094 605.816406 384.671875 L 597.152344 377.910156 C 596.75 377.589844 594.917969 378.484375 594.707031 378.597656 C 594.234375 378.859375 593.457031 379.578125 593.140625 380.011719 C 593 380.207031 591.921875 381.9375 592.203125 382.378906 L 598.03125 391.679688 C 596.546875 393.511719 595.242188 395.507812 594.148438 397.660156 L 583.285156 396.136719 C 582.769531 396.0625 581.632812 397.753906 581.507812 397.960938 C 581.234375 398.417969 580.914062 399.429688 580.859375 399.964844 C 580.832031 400.203125 580.769531 402.242188 581.226562 402.484375 L 590.933594 407.625 C 590.554688 410.023438 590.441406 412.402344 590.566406 414.742188 L 580.382812 418.855469 C 579.90625 419.050781 579.765625 421.082031 579.761719 421.320312 C 579.75 421.859375 579.980469 422.898438 580.199219 423.386719 C 580.300781 423.609375 581.261719 425.40625 581.777344 425.382812 L 592.75 424.980469 C 593.605469 427.210938 594.699219 429.332031 595.996094 431.324219 L 589.234375 439.984375 C 588.914062 440.386719 589.8125 442.222656 589.925781 442.433594 C 590.1875 442.902344 590.90625 443.6875 591.339844 444 C 591.535156 444.140625 593.265625 445.214844 593.707031 444.9375 L 603.003906 439.105469 C 604.835938 440.59375 606.835938 441.898438 608.988281 442.988281 L 607.460938 453.851562 C 607.390625 454.367188 609.078125 455.511719 609.285156 455.628906 C 609.75 455.898438 610.753906 456.234375 611.292969 456.277344 C 611.53125 456.296875 613.570312 456.367188 613.808594 455.910156 L 618.949219 446.207031 C 621.34375 446.585938 623.726562 446.699219 626.066406 446.578125 L 630.183594 456.753906 C 630.375 457.230469 632.410156 457.375 632.648438 457.375 C 633.183594 457.375 634.226562 457.167969 634.710938 456.9375 C 634.929688 456.835938 636.726562 455.878906 636.707031 455.359375 L 636.308594 444.390625 C 638.535156 443.53125 640.660156 442.445312 642.652344 441.140625 L 651.304688 447.902344 C 651.714844 448.222656 653.550781 447.335938 653.757812 447.210938 C 654.222656 446.945312 655.019531 446.242188 655.324219 445.796875 C 655.464844 445.601562 656.542969 443.871094 656.261719 443.433594 L 650.433594 434.132812 C 651.921875 432.300781 653.226562 430.300781 654.316406 428.148438 L 665.179688 429.675781 C 665.691406 429.746094 666.839844 428.058594 666.953125 427.855469 C 667.222656 427.390625 667.5625 426.382812 667.605469 425.84375 C 667.625 425.609375 667.695312 423.566406 667.238281 423.328125 L 657.53125 418.1875 C 657.914062 415.792969 658.027344 413.410156 657.898438 411.070312 L 668.082031 406.957031 C 668.558594 406.761719 668.703125 404.726562 668.703125 404.488281 C 668.703125 403.953125 668.496094 402.910156 668.265625 402.425781 " fill-opacity="1" fill-rule="nonzero"/></svg>