<?xml version="1.0" encoding="UTF-8"?>
<svg version="1.1" xmlns="http://www.w3.org/2000/svg" width="952" height="536">
<path d="M0 0 C3.2541212 1.46582036 6.26336159 3.27626227 9.3125 5.125 C11.19580773 6.2344437 13.07995832 7.34245759 14.96484375 8.44921875 C15.95081543 9.0323584 16.93678711 9.61549805 17.95263672 10.21630859 C23.05043716 13.20016775 28.21399348 16.0648302 33.375 18.9375 C44.30194176 25.04178201 55.20343698 31.19006241 66.09570312 37.35595703 C71.18806699 40.23860483 76.28142026 43.11950134 81.375 46 C82.30779785 46.52795166 83.2405957 47.05590332 84.20166016 47.59985352 C89.78714063 50.75868898 95.38556977 53.89290179 101 57 C101 59.64 101 62.28 101 65 C97.81281306 67.38883613 94.88905683 69.05527958 91 70 C86.36323247 68.77347075 82.63562865 66.3289617 78.625 63.75 C77.57828125 63.11835937 76.5315625 62.48671875 75.453125 61.8359375 C73.34798934 60.56246037 71.25181782 59.27404291 69.16503906 57.97070312 C65.91146833 55.94487599 62.63480171 53.96678849 59.3359375 52.015625 C58.35931152 51.43586914 57.38268555 50.85611328 56.37646484 50.25878906 C54.15364838 48.84397347 54.15364838 48.84397347 52 49 C52 48.34 52 47.68 52 47 C51.32582031 46.74476562 50.65164063 46.48953125 49.95703125 46.2265625 C46.44867244 44.77131195 43.07321448 43.09052165 39.6875 41.375 C39.04232422 41.05015625 38.39714844 40.7253125 37.73242188 40.390625 C36.15402459 39.59558044 34.57688306 38.79804366 33 38 C33 37.34 33 36.68 33 36 C32.13270264 35.73574219 31.26540527 35.47148438 30.37182617 35.19921875 C27.01897923 34.00675012 24.14560366 32.56138857 21.05078125 30.8125 C19.40819336 29.88824219 19.40819336 29.88824219 17.73242188 28.9453125 C16.60384766 28.30335937 15.47527344 27.66140625 14.3125 27 C13.17232422 26.35804687 12.03214844 25.71609375 10.85742188 25.0546875 C2.52060208 20.34706805 2.52060208 20.34706805 -1 18 C-7.0615681 18.06428936 -11.7382199 21.50737377 -16.75 24.5625 C-18.4508799 25.58836702 -20.15390195 26.61069347 -21.859375 27.62890625 C-22.60670898 28.08338135 -23.35404297 28.53785645 -24.12402344 29.00610352 C-26 30 -26 30 -28 30 C-28.33 30.66 -28.66 31.32 -29 32 C-31.00868649 33.16308443 -33.05993627 34.25273653 -35.125 35.3125 C-43.34680863 39.57863982 -51.38050264 44.15707305 -59.40478516 48.7824707 C-60.36046387 49.32863037 -61.31614258 49.87479004 -62.30078125 50.4375 C-63.15841064 50.93121094 -64.01604004 51.42492188 -64.8996582 51.93359375 C-67 53 -67 53 -69 53 C-69.495 53.99 -69.495 53.99 -70 55 C-72.25244414 56.29433712 -74.50160196 57.50650606 -76.8125 58.6875 C-82.90471794 61.85548261 -88.8293473 65.1964205 -94.70703125 68.75 C-97 70 -97 70 -99 70 C-99.33 70.66 -99.66 71.32 -100 72 C-102.50225064 73.4406021 -104.99927212 74.80249591 -107.5625 76.125 C-108.27341797 76.49753906 -108.98433594 76.87007813 -109.71679688 77.25390625 C-111.47518624 78.17440538 -113.237255 79.08786961 -115 80 C-111.51320266 82.9321615 -108.01624558 85.23283523 -104.01171875 87.3984375 C-103.44050293 87.70977127 -102.86928711 88.02110504 -102.28076172 88.34187317 C-101.05569139 89.00942628 -99.82953357 89.6749869 -98.60238647 90.3387146 C-95.32225919 92.11383185 -92.05121885 93.90547259 -88.78125 95.69921875 C-88.12001633 96.06185318 -87.45878265 96.42448761 -86.7775116 96.79811096 C-80.68298488 100.15232384 -74.67730714 103.64993614 -68.6875 107.1875 C-59.83746506 112.40520098 -50.87859678 117.37183499 -41.82519531 122.22705078 C-33.276543 126.82029331 -24.84246801 131.59790821 -16.43359375 136.44140625 C-15.67546387 136.87340332 -14.91733398 137.30540039 -14.13623047 137.75048828 C-12.76139744 138.55464776 -11.40393389 139.38968331 -10.07080078 140.26123047 C-7.22783906 142.07802061 -5.5360884 143.04345066 -2.12036133 142.76660156 C1.05272251 141.98704728 3.37989568 140.94625885 6.2109375 139.33203125 C7.19690918 138.77515625 8.18288086 138.21828125 9.19873047 137.64453125 C10.24689941 137.03996094 11.29506836 136.43539062 12.375 135.8125 C13.46828613 135.19117188 14.56157227 134.56984375 15.68798828 133.9296875 C24.41946903 128.95243052 33.10770628 123.89776658 41.76708984 118.79614258 C47.22391297 115.58599361 52.72564267 112.48751185 58.29345703 109.47412109 C62.72717826 107.05929079 67.11086323 104.55715847 71.5 102.0625 C77.98762208 98.38411784 84.4836288 94.72178897 91.00390625 91.1015625 C91.58847092 90.77693024 92.17303558 90.45229797 92.77531433 90.11782837 C95.69305814 88.49869135 98.61318744 86.88411291 101.53588867 85.27392578 C106.27533535 82.65741734 110.99854181 80.04152549 115.609375 77.203125 C116.25382568 76.8110083 116.89827637 76.4188916 117.56225586 76.01489258 C119.15237189 75.03606959 120.72750331 74.03300769 122.30078125 73.02734375 C125 72 125 72 128.23046875 72.75390625 C129.83304327 73.47495177 131.42821077 74.21410539 133 75 C133.30479799 82.70363671 133.51460394 90.40571681 133.65917969 98.11401367 C133.71945189 100.73439623 133.80129118 103.35437642 133.90527344 105.97338867 C134.05124303 109.7449854 134.11895586 113.51124652 134.171875 117.28515625 C134.23381042 118.45208511 134.29574585 119.61901398 134.35955811 120.82130432 C134.36240132 124.27384001 134.24458851 126.77320846 133 130 C129.22603611 133.29880323 124.21251393 137 119 137 C118.67 137.66 118.34 138.32 118 139 C112.57692308 142 112.57692308 142 110 142 C109.67 142.66 109.34 143.32 109 144 C107.03350464 145.14302543 105.0234704 146.21116475 103 147.25 C95.92816194 150.93703415 88.95373274 154.78258799 82 158.6875 C80.94135742 159.28183838 79.88271484 159.87617676 78.79199219 160.48852539 C75.52689192 162.32373184 72.26319838 164.16141414 69 166 C67.91267578 166.61230469 66.82535156 167.22460938 65.70507812 167.85546875 C62.55261502 169.63145097 59.40103072 171.40897776 56.25 173.1875 C55.29222656 173.72785889 54.33445312 174.26821777 53.34765625 174.82495117 C52.45433594 175.33002197 51.56101562 175.83509277 50.640625 176.35546875 C49.86235352 176.79528076 49.08408203 177.23509277 48.28222656 177.68823242 C46.61357914 178.64732983 44.96715604 179.64538555 43.33496094 180.6652832 C41 182 41 182 39 182 C38.67 182.66 38.34 183.32 38 184 C36.03350464 185.14302543 34.0234704 186.21116475 32 187.25 C26.79878417 189.94347505 21.66944078 192.73695144 16.58203125 195.640625 C14.90850586 196.59340332 14.90850586 196.59340332 13.20117188 197.56542969 C10.95789964 198.84609894 8.71824498 200.13312761 6.48242188 201.42675781 C5.44279297 202.01811523 4.40316406 202.60947266 3.33203125 203.21875 C2.40108643 203.75435547 1.4701416 204.28996094 0.51098633 204.84179688 C-2 206 -2 206 -6 206 C-6 205.34 -6 204.68 -6 204 C-8.31 203.34 -10.62 202.68 -13 202 C-13 201.34 -13 200.68 -13 200 C-14.2684375 199.62875 -14.2684375 199.62875 -15.5625 199.25 C-19.31620315 197.88501704 -22.57190546 196.0113926 -26 194 C-27.48417265 193.13767246 -28.96855801 192.27571096 -30.453125 191.4140625 C-31.23115479 190.961521 -32.00918457 190.50897949 -32.81079102 190.04272461 C-39.51898181 186.14376915 -46.23209982 182.27185635 -53.0625 178.58984375 C-62.73451693 173.35512182 -72.37242652 168.06321033 -81.74609375 162.30859375 C-85.09061544 160.36680039 -88.565195 158.71675741 -92.06640625 157.078125 C-94 156 -94 156 -95 154 C-95.845625 153.731875 -96.69125 153.46375 -97.5625 153.1875 C-101.12123476 151.9581189 -103.77463569 150.34373507 -106.90234375 148.30078125 C-109.02754665 146.982918 -111.18212387 145.88975479 -113.4375 144.8125 C-117 143 -117 143 -118 141 C-119.65 140.34 -121.3 139.68 -123 139 C-123 147.58 -123 156.16 -123 165 C-120.26009766 166.50626953 -120.26009766 166.50626953 -117.46484375 168.04296875 C-104.76327091 175.03133773 -92.08036504 182.04786766 -79.47094727 189.20166016 C-72.45399159 193.18241538 -65.41786784 197.12779266 -58.375 201.0625 C-50.64727103 205.38317605 -42.93613381 209.73075354 -35.25 214.125 C-34.41065918 214.60219482 -33.57131836 215.07938965 -32.70654297 215.57104492 C-28.17167647 218.15559559 -23.6732424 220.78920095 -19.203125 223.484375 C-18.24889648 224.05140137 -17.29466797 224.61842773 -16.31152344 225.20263672 C-14.47766566 226.29346043 -12.65226007 227.39865893 -10.83691406 228.52001953 C-10.01416992 229.00583496 -9.19142578 229.49165039 -8.34375 229.9921875 C-7.26383789 230.64743408 -7.26383789 230.64743408 -6.16210938 231.31591797 C-3.10129185 232.28434736 -1.82657677 231.4408389 1 230 C3.02252749 228.94840291 5.02910889 227.86585972 7.0234375 226.76171875 C7.59734222 226.44486618 8.17124695 226.12801361 8.76254272 225.80155945 C10.63504339 224.76654475 12.50508045 223.72716957 14.375 222.6875 C15.68644999 221.96096767 16.9979743 221.23456947 18.30957031 220.50830078 C28.01429726 215.12850649 37.68187433 209.684079 47.33203125 204.20703125 C52.30065408 201.38948497 57.2871608 198.60491479 62.27661133 195.82446289 C71.59933619 190.62772965 80.86196574 185.34767596 90.0625 179.9375 C94.03649435 177.61601866 98.0167783 175.30560784 102 173 C103.0842627 172.36980957 104.16852539 171.73961914 105.28564453 171.09033203 C108.55299874 169.20398017 111.83599699 167.34829278 115.125 165.5 C116.12668213 164.91726318 117.12836426 164.33452637 118.16040039 163.73413086 C125.15055675 159.86056655 125.15055675 159.86056655 129.6171875 160.59375 C132 162 132 162 133 163 C133.8351032 170.6195972 133.82881775 178.3676706 134.00927734 186.0246582 C134.0859839 188.6182783 134.19500332 191.21115815 134.33740234 193.80200195 C135.46369622 214.71602182 135.46369622 214.71602182 131.41732788 220.10961914 C127.43974552 223.53665677 122.95119105 225.49221297 118.04260254 227.24502563 C115.47227092 228.19505602 113.23148547 229.49843218 110.91015625 230.9453125 C109.62846974 231.67340082 108.3459826 232.40008254 107.0625 233.125 C106.39283203 233.50914062 105.72316406 233.89328125 105.03320312 234.2890625 C100.23581194 237 100.23581194 237 98 237 C97.67 237.66 97.34 238.32 97 239 C95.03350464 240.14302543 93.0234704 241.21116475 91 242.25 C71.41574349 252.46154845 51.81923149 263.1862175 33.046875 274.83203125 C31 276 31 276 29 276 C28.67 276.66 28.34 277.32 28 278 C26.55575011 278.8924801 25.066561 279.71248557 23.5625 280.5 C19.81325428 282.47302826 16.12545362 284.49853736 12.4765625 286.65234375 C11.68693115 287.11125 10.8972998 287.57015625 10.08374023 288.04296875 C8.50557008 288.96141072 6.9344836 289.89215141 5.37133789 290.8359375 C2.02751673 292.75900913 -0.18890801 293.99078305 -4.09375 294.03515625 C-7.71246481 292.74623229 -10.92281957 290.99295326 -14.1875 289 C-18.91262807 286.13275094 -18.91262807 286.13275094 -24 284 C-24 283.34 -24 282.68 -24 282 C-26.31 281.34 -28.62 280.68 -31 280 C-31 279.34 -31 278.68 -31 278 C-32.258125 277.731875 -33.51625 277.46375 -34.8125 277.1875 C-38.22753278 276.45970613 -39.59910408 275.47328474 -42 273 C-43.6597005 272.01412133 -45.3514047 271.08120877 -47.0625 270.1875 C-51.7628862 267.69392642 -56.30262543 265.02751188 -60.80859375 262.19921875 C-62.89726446 261.0562207 -64.67389518 260.45038476 -67 260 C-67 259.34 -67 258.68 -67 258 C-67.82371094 257.76667969 -68.64742188 257.53335937 -69.49609375 257.29296875 C-73.69127754 255.74491319 -77.25649673 253.63327587 -81.0625 251.3125 C-89.14116195 246.47126559 -97.26898571 241.69365664 -105.80078125 237.68359375 C-108.41492065 236.3078989 -110.72316768 234.87184514 -113.15234375 233.2109375 C-118.42255535 229.63555166 -123.95390864 226.631591 -129.5625 223.625 C-130.57119141 223.07972656 -131.57988281 222.53445312 -132.61914062 221.97265625 C-135.07735161 220.6445233 -137.53762815 219.32039765 -140 218 C-140.07100687 216.39126241 -140.12185177 214.78162556 -140.1640625 213.171875 C-140.20974365 211.82754395 -140.20974365 211.82754395 -140.25634766 210.45605469 C-140 208 -140 208 -137.375 205.25 C-133.08047165 203.65943395 -132.19371587 204.24349471 -128 206 C-124.4633715 207.83913821 -121.01426405 209.81953447 -117.5625 211.8125 C-115.48835005 212.99751626 -113.41412936 214.18240871 -111.33984375 215.3671875 C-110.28394043 215.97272461 -109.22803711 216.57826172 -108.14013672 217.20214844 C-103.31243992 219.96619441 -98.4690255 222.70220357 -93.625 225.4375 C-92.68277588 225.97028564 -91.74055176 226.50307129 -90.76977539 227.05200195 C-83.6901403 231.05311834 -76.59721506 235.03016672 -69.5 239 C-58.61984664 245.08582303 -47.76187313 251.21003299 -36.91308594 257.3515625 C-33.84122935 259.08984407 -30.76840148 260.82639815 -27.6953125 262.5625 C-26.65842285 263.14829834 -25.6215332 263.73409668 -24.55322266 264.33764648 C-22.57637824 265.4544229 -20.59949288 266.57112683 -18.62255859 267.68774414 C-17.72617676 268.19426514 -16.82979492 268.70078613 -15.90625 269.22265625 C-15.05933594 269.69461426 -14.21242188 270.16657227 -13.33984375 270.65283203 C-11.8681419 271.50016622 -10.4179039 272.38716225 -9.00390625 273.32763672 C-6.14424714 275.19939937 -4.58589223 276.08656137 -1.14453125 275.578125 C3.10112718 273.44738462 7.21573829 271.15361373 11.3125 268.75 C13.19599731 267.65908981 15.0801394 266.56929229 16.96484375 265.48046875 C18.44380127 264.62461182 18.44380127 264.62461182 19.95263672 263.75146484 C25.06871999 260.81100807 30.22211491 257.9378203 35.375 255.0625 C43.42872386 250.56274357 51.4720839 246.0456448 59.5 241.5 C67.52791987 236.95435307 75.57163026 232.43789433 83.625 227.9375 C94.79135786 221.69606519 105.9027232 215.36347341 117 209 C117 200.42 117 191.84 117 183 C112.05536365 184.33563616 112.05536365 184.33563616 111 187 C109.03350464 188.14302543 107.0234704 189.21116475 105 190.25 C97.92816194 193.93703415 90.95373274 197.78258799 84 201.6875 C82.94135742 202.28183838 81.88271484 202.87617676 80.79199219 203.48852539 C77.52689192 205.32373184 74.26319838 207.16141414 71 209 C69.91267578 209.61230469 68.82535156 210.22460938 67.70507812 210.85546875 C64.55261502 212.63145097 61.40103072 214.40897776 58.25 216.1875 C57.29222656 216.72785889 56.33445312 217.26821777 55.34765625 217.82495117 C54.45433594 218.33002197 53.56101562 218.83509277 52.640625 219.35546875 C51.86235352 219.79528076 51.08408203 220.23509277 50.28222656 220.68823242 C48.61357914 221.64732983 46.96715604 222.64538555 45.33496094 223.6652832 C43 225 43 225 41 225 C40.67 225.66 40.34 226.32 40 227 C38.03350464 228.14302543 36.0234704 229.21116475 34 230.25 C28.8147353 232.93805063 23.6954767 235.71956542 18.6171875 238.60546875 C16.95042969 239.55147949 16.95042969 239.55147949 15.25 240.51660156 C13.02049571 241.78553528 10.79386638 243.05953521 8.5703125 244.33886719 C7.53390625 244.92700195 6.4975 245.51513672 5.4296875 246.12109375 C4.50397949 246.6514624 3.57827148 247.18183105 2.62451172 247.72827148 C-1.3157692 249.63756668 -3.8004366 250.39985447 -8 249 C-8 248.34 -8 247.68 -8 247 C-8.721875 246.72397949 -9.44375 246.44795898 -10.1875 246.16357422 C-12.89845475 245.04201082 -15.42110737 243.77889367 -18 242.3828125 C-18.9588208 241.86444824 -19.9176416 241.34608398 -20.90551758 240.81201172 C-21.92669678 240.25529785 -22.94787598 239.69858398 -24 239.125 C-25.06436279 238.54637207 -26.12872559 237.96774414 -27.2253418 237.37158203 C-40.16065906 230.31246008 -52.91751379 222.95146132 -65.66162109 215.5546875 C-66.47453613 215.08289063 -67.28745117 214.61109375 -68.125 214.125 C-68.91986816 213.66351563 -69.71473633 213.20203125 -70.53369141 212.7265625 C-75.37279104 209.92330681 -80.24068675 207.18895798 -85.16796875 204.54296875 C-87.49619514 203.27448678 -89.80701263 201.98341621 -92.11328125 200.67578125 C-93.19959839 200.06017334 -93.19959839 200.06017334 -94.30786133 199.43212891 C-95.74252784 198.61756939 -97.17600927 197.80091821 -98.6081543 196.98193359 C-101.38127299 195.40869252 -103.96702739 194.01099087 -107 193 C-107 192.34 -107 191.68 -107 191 C-108.2998584 190.60361328 -108.2998584 190.60361328 -109.62597656 190.19921875 C-112.98624365 189.00488938 -115.87796394 187.55680021 -118.984375 185.8125 C-120.08394531 185.19632813 -121.18351562 184.58015625 -122.31640625 183.9453125 C-123.44949219 183.30335938 -124.58257812 182.66140625 -125.75 182 C-126.89855469 181.35804688 -128.04710937 180.71609375 -129.23046875 180.0546875 C-137.73155323 175.26844677 -137.73155323 175.26844677 -140 173 C-140.24050903 170.70944214 -140.24050903 170.70944214 -140.22705078 167.81591797 C-140.22689972 166.73494843 -140.22674866 165.65397888 -140.22659302 164.54025269 C-140.21627045 163.36939117 -140.20594788 162.19852966 -140.1953125 160.9921875 C-140.1924826 159.79643097 -140.18965271 158.60067444 -140.18673706 157.36868286 C-140.17551305 153.53735481 -140.15040431 149.70625778 -140.125 145.875 C-140.11497308 143.28255545 -140.10584673 140.69010725 -140.09765625 138.09765625 C-140.07556646 131.73169158 -140.04206706 125.36586229 -140 119 C-134.63609785 115.95232832 -134.63609785 115.95232832 -131.93139648 116.1550293 C-129.58758255 117.18042938 -127.3458505 118.296127 -125.09765625 119.51953125 C-124.13609619 120.04087646 -123.17453613 120.56222168 -122.18383789 121.09936523 C-121.15379639 121.66469971 -120.12375488 122.23003418 -119.0625 122.8125 C-117.9892749 123.39781494 -116.9160498 123.98312988 -115.81030273 124.58618164 C-108.15848803 128.7752384 -100.56482536 133.05952825 -93.00366211 137.40966797 C-86.23817638 141.30196525 -79.43897795 145.13078209 -72.625 148.9375 C-64.57152242 153.43770061 -56.52794048 157.95439185 -48.5 162.5 C-39.12753876 167.80643097 -29.73555754 173.07735803 -20.33398438 178.33203125 C-19.34720703 178.88375 -18.36042969 179.43546875 -17.34375 180.00390625 C-15.94962891 180.77565186 -15.94962891 180.77565186 -14.52734375 181.56298828 C-12.97626918 182.44490723 -11.44217867 183.35869394 -9.94140625 184.32373047 C-7.12703934 186.12273908 -5.51016557 187.04212734 -2.1262207 186.76269531 C1.04806848 185.98827287 3.35066095 184.95484836 6.17578125 183.33203125 C7.15691895 182.77499512 8.13805664 182.21795898 9.14892578 181.64404297 C10.19290527 181.03963379 11.23688477 180.43522461 12.3125 179.8125 C14.54541712 178.54009115 16.77849492 177.26796423 19.01171875 175.99609375 C20.17113128 175.33199082 21.33047319 174.66776459 22.48974609 174.00341797 C28.17692496 170.75023687 33.90383225 167.56790295 39.625 164.375 C45.76476454 160.9418336 51.89605556 157.49643419 58 154 C60.29035306 152.70592345 62.5817954 151.41399678 64.875 150.125 C65.54281494 149.74915771 66.21062988 149.37331543 66.89868164 148.98608398 C71.2620394 146.53239411 75.63117824 144.08929685 80.00390625 141.65234375 C82.14858163 140.45598752 84.29311049 139.25936857 86.4375 138.0625 C87.50605225 137.46630859 88.57460449 136.87011719 89.67553711 136.25585938 C96.8680477 132.22959019 104.00168748 128.11728288 111.05053711 123.84399414 C115.79012437 121 115.79012437 121 118 121 C117.67 112.42 117.34 103.84 117 95 C103.47077002 102.50572665 89.94484798 110.01744805 76.4375 117.5625 C75.43533447 118.1208252 74.43316895 118.67915039 73.40063477 119.25439453 C67.85047394 122.35860317 62.38071583 125.55421448 56.98071289 128.91381836 C55 130 55 130 53 130 C52.67 130.66 52.34 131.32 52 132 C46.57692308 135 46.57692308 135 44 135 C43.67 135.66 43.34 136.32 43 137 C41.03350464 138.14302543 39.0234704 139.21116475 37 140.25 C29.54582923 144.13116706 22.20407328 148.20049968 14.875 152.3125 C13.78445313 152.92319336 12.69390625 153.53388672 11.5703125 154.16308594 C5.88303148 157.32504261 5.88303148 157.32504261 0.34008789 160.7277832 C-2 162 -2 162 -4.87109375 161.4296875 C-8.37575952 159.82830464 -11.73200662 158.05537009 -15.0625 156.125 C-16.09080933 155.53779175 -16.09080933 155.53779175 -17.13989258 154.9387207 C-18.6359204 154.08368134 -20.13057883 153.22624256 -21.62402344 152.36669922 C-24.07163835 150.95879249 -26.52351486 149.55857384 -28.9765625 148.16015625 C-36.19702978 144.04236684 -43.41009307 139.91168418 -50.62109375 135.77734375 C-65.2825397 127.29532552 -65.2825397 127.29532552 -80.25 119.375 C-89.66666667 114.66666667 -89.66666667 114.66666667 -91 112 C-92.64232772 111.27544365 -94.31624835 110.62225605 -96 110 C-97.2735457 109.46474166 -98.54434384 108.9229052 -99.8125 108.375 C-100.864375 107.92125 -101.91625 107.4675 -103 107 C-103 106.34 -103 105.68 -103 105 C-105.31 104.34 -107.62 103.68 -110 103 C-110 102.34 -110 101.68 -110 101 C-110.87487061 100.73195557 -111.74974121 100.46391113 -112.65112305 100.18774414 C-115.87513221 99.04428678 -118.61528383 97.68743152 -121.58203125 95.99609375 C-122.59587891 95.42052734 -123.60972656 94.84496094 -124.65429688 94.25195312 C-125.69650391 93.65318359 -126.73871094 93.05441406 -127.8125 92.4375 C-128.87404297 91.83486328 -129.93558594 91.23222656 -131.02929688 90.61132812 C-138.84284319 86.15715681 -138.84284319 86.15715681 -140 85 C-140.07179964 83.48071962 -140.08392007 81.95832518 -140.0625 80.4375 C-140.05347656 79.61121094 -140.04445313 78.78492187 -140.03515625 77.93359375 C-140.02355469 77.29550781 -140.01195312 76.65742187 -140 76 C-127.85548628 69.02431216 -115.67345371 62.11970463 -103.44799805 55.28686523 C-96.41374698 51.35448414 -89.38935369 47.40526368 -82.375 43.4375 C-81.43269531 42.90447266 -80.49039063 42.37144531 -79.51953125 41.82226562 C-76.67946681 40.21523328 -73.83967774 38.60771555 -71 37 C-67.20870223 34.85351405 -63.41707032 32.70762086 -59.625 30.5625 C-58.6855957 30.03092285 -57.74619141 29.4993457 -56.77832031 28.95166016 C-51.72435175 26.09473301 -46.66367806 23.25039337 -41.59375 20.421875 C-40.52342529 19.8244751 -39.45310059 19.2270752 -38.3503418 18.61157227 C-36.21977585 17.42315803 -34.08844181 16.23611966 -31.95629883 15.05053711 C-27.21066389 12.40183677 -22.4960046 9.72399309 -17.85546875 6.89453125 C-17.07993652 6.42362061 -16.3044043 5.95270996 -15.50537109 5.4675293 C-14.09595979 4.60465324 -12.69325651 3.73066971 -11.29931641 2.84301758 C-7.31644783 0.40316025 -4.64405538 -0.85915024 0 0 Z " fill="#FE4938" transform="translate(470,8)"/>
<path d="M0 0 C7.92 0 15.84 0 24 0 C24 48.18 24 96.36 24 146 C16.08 146 8.16 146 0 146 C0 142.04 0 138.08 0 134 C-0.84304687 134.6496875 -1.68609375 135.299375 -2.5546875 135.96875 C-3.66126681 136.81275117 -4.76804815 137.65648749 -5.875 138.5 C-6.70837891 139.14388672 -6.70837891 139.14388672 -7.55859375 139.80078125 C-11.7734375 143 -11.7734375 143 -14 143 C-14.33 143.66 -14.66 144.32 -15 145 C-27.49999836 150.60622244 -39.90946658 149.05918503 -53 147 C-53 146.34 -53 145.68 -53 145 C-54.32 145 -55.64 145 -57 145 C-57 144.34 -57 143.68 -57 143 C-57.66 142.814375 -58.32 142.62875 -59 142.4375 C-63.332062 140.36172029 -66.51241176 137.26258254 -70 134 C-70.804375 133.2575 -70.804375 133.2575 -71.625 132.5 C-72.79735742 131.38093155 -73.90638748 130.19613869 -75 129 C-75 128.34 -75 127.68 -75 127 C-75.66 126.67 -76.32 126.34 -77 126 C-80 120.69230769 -80 120.69230769 -80 117 C-80.66 116.67 -81.32 116.34 -82 116 C-85.28349504 104.21804722 -87.56448432 88.66479325 -83 77 C-82.01 76.505 -82.01 76.505 -81 76 C-80.6411681 74.33863654 -80.31148068 72.67088859 -80 71 C-74.38813305 57.80127429 -63.98098484 49.39721001 -51.140625 43.76171875 C-40.80822812 40.08504468 -26.35016254 40.35171454 -16.359375 44.7265625 C-10.40515533 47.94026384 -5.28178003 51.77457597 0 56 C0 37.52 0 19.04 0 0 Z M-54 74 C-59.78234957 82.31304708 -62.04688485 90.92543278 -61 101 C-59.17285394 109.792374 -54.68639461 116.10281918 -48 122 C-40.02974411 127.21238188 -32.29795101 127.71599195 -23 127 C-14.40731172 124.89473416 -7.99078712 120.29116156 -3.1015625 112.92578125 C1.84676588 104.27498022 2.66505878 94.29022206 0.12109375 84.6796875 C-3.5392378 75.03960639 -8.92351485 69.75328333 -17.88671875 64.9453125 C-30.69990737 59.21371981 -45.03687358 63.83912841 -54 74 Z " fill="#0E0E0E" transform="translate(94,379)"/>
<path d="M0 0 C7.59 0 15.18 0 23 0 C23.33 18.48 23.66 36.96 24 56 C26.64 54.02 29.28 52.04 32 50 C40.42107891 44.25227948 48.05590158 41.4285991 58.3125 41.5625 C59.14136719 41.57079834 59.97023438 41.57909668 60.82421875 41.58764648 C74.24849064 41.95487978 86.01124609 47.44501013 95.3125 57.1875 C106.86962563 71.13657172 109.5427992 87.45199525 108 105 C105.98068903 118.79702991 98.45552012 131.55829458 87.359375 140.01171875 C74.21363713 148.76942401 60.39574313 150.60031197 44.98828125 147.8203125 C37.00034974 145.62754699 30.44028629 140.00911156 24 135 C23.67 138.63 23.34 142.26 23 146 C15.41 146 7.82 146 0 146 C0 97.82 0 49.64 0 0 Z M30 73 C24.01851878 80.73247038 21.14098459 89.20722432 22 99 C23.98032629 108.96819703 28.51281004 117.04374834 37.0234375 122.78125 C44.84085482 127.6014757 51.82132101 128.01878531 61 127 C64.75091479 125.83746482 67.7685592 124.21129617 71 122 C71.64453125 121.58878906 72.2890625 121.17757812 72.953125 120.75390625 C79.40077805 116.03029956 82.94835132 108.60022857 84.69921875 100.94140625 C85.893427 91.06671654 83.52193974 82.66183157 78.18359375 74.36328125 C77.59771484 73.68845703 77.59771484 73.68845703 77 73 C76.34 73 75.68 73 75 73 C75 72.34 75 71.68 75 71 C69.3413155 65.97005822 63.43641458 63.7605424 56 63 C54.96359375 62.89365234 54.96359375 62.89365234 53.90625 62.78515625 C44.40788451 62.31400717 36.58351477 66.4041102 30 73 Z " fill="#0B0B0B" transform="translate(442,379)"/>
<path d="M0 0 C1.26239502 0.00845947 1.26239502 0.00845947 2.55029297 0.01708984 C14.0381951 0.24155843 22.79746747 3.57349394 31.125 11.6875 C31.640625 12.22375 32.15625 12.76 32.6875 13.3125 C33.3475 13.3125 34.0075 13.3125 34.6875 13.3125 C35.0175 9.6825 35.3475 6.0525 35.6875 2.3125 C43.2775 2.3125 50.8675 2.3125 58.6875 2.3125 C58.6875 35.9725 58.6875 69.6325 58.6875 104.3125 C51.0975 104.3125 43.5075 104.3125 35.6875 104.3125 C35.3575 100.3525 35.0275 96.3925 34.6875 92.3125 C33.73875 93.17875 32.79 94.045 31.8125 94.9375 C21.9916181 103.24596609 10.95168526 108.08465102 -2.140625 107.53515625 C-17.36989032 105.97388265 -28.71911599 99.95151643 -38.9375 88.4375 C-41.3125 85.3125 -41.3125 85.3125 -42.3125 82.3125 C-42.9725 81.6525 -43.6325 80.9925 -44.3125 80.3125 C-48.90102371 68.43379842 -50.15967613 56.96909522 -50.3125 44.3125 C-49.6525 44.3125 -48.9925 44.3125 -48.3125 44.3125 C-48.3125 43.1575 -48.3125 42.0025 -48.3125 40.8125 C-46.94911102 29.13157283 -39.69376932 18.38860292 -31.25 10.58984375 C-21.90092403 3.34182342 -11.73812143 -0.08192109 0 0 Z M-17.3125 30.3125 C-23.70957162 37.60689841 -26.86018595 46.7202887 -26.25 56.4375 C-24.87461108 65.47163352 -21.35469995 73.34193918 -14.3125 79.3125 C-5.87148038 85.26189335 2.49722359 86.95713322 12.6875 85.3125 C18.18890255 83.35033309 23.8936212 80.92838587 27.6875 76.3125 C27.6875 75.6525 27.6875 74.9925 27.6875 74.3125 C28.3475 74.3125 29.0075 74.3125 29.6875 74.3125 C30.67419759 72.42057525 31.6515602 70.52378022 32.625 68.625 C33.17027344 67.56925781 33.71554688 66.51351562 34.27734375 65.42578125 C37.81174439 57.6226862 37.34139736 49.02360157 34.52734375 41.0078125 C31.61512811 34.77955397 28.51773538 30.03840414 22.6875 26.3125 C21.76130859 25.71501953 21.76130859 25.71501953 20.81640625 25.10546875 C15.6238701 22.14875299 10.59839185 21.50535128 4.6875 21.3125 C3.43453125 21.26996094 3.43453125 21.26996094 2.15625 21.2265625 C-5.39438865 21.48940119 -11.95981208 25.16307871 -17.3125 30.3125 Z " fill="#0D0D0D" transform="translate(178.3125,420.6875)"/>
<path d="M0 0 C3.03251397 2.01802015 4.53311478 3.62365418 5.9375 7 C6.5975 6.67 7.2575 6.34 7.9375 6 C8.2675 2.37 8.5975 -1.26 8.9375 -5 C16.5275 -5 24.1175 -5 31.9375 -5 C31.9375 28.66 31.9375 62.32 31.9375 97 C24.3475 97 16.7575 97 8.9375 97 C8.6075 93.04 8.2775 89.08 7.9375 85 C6.98875 85.86625 6.04 86.7325 5.0625 87.625 C-5.875 97 -5.875 97 -12.0625 97 C-12.0625 97.66 -12.0625 98.32 -12.0625 99 C-28.07708804 100.87226916 -41.02365397 99.74884608 -55.0625 91 C-56.03123047 90.48373047 -56.03123047 90.48373047 -57.01953125 89.95703125 C-66.48856491 84.37821007 -71.74405283 70.82142398 -75.14453125 60.81640625 C-76.21068389 56.38393337 -76.40697477 52.35154769 -76.375 47.8125 C-76.36936035 46.97388428 -76.3637207 46.13526855 -76.35791016 45.27124023 C-76.06384997 30.14460947 -70.87826155 17.15761303 -60.34765625 6.1875 C-43.86458805 -9.59116358 -19.38285338 -12.04549564 0 0 Z M-46.59765625 27.01953125 C-52.23421235 35.61404681 -52.92010711 43.8587959 -52.0625 54 C-51.20116837 57.37681152 -49.91416799 60.06047707 -48.0625 63 C-47.65 63.69609375 -47.2375 64.3921875 -46.8125 65.109375 C-42.80941046 71.15949896 -37.06237771 75.30231895 -30.17578125 77.640625 C-21.41244622 79.13087791 -12.61839877 78.96447299 -5.0625 74 C3.22407503 67.87771827 7.852668 61.12418419 9.9375 51 C11.03242714 42.62314778 8.66973451 35.46446902 4.9375 28 C4.2775 28 3.6175 28 2.9375 28 C2.83179688 27.401875 2.72609375 26.80375 2.6171875 26.1875 C1.38393467 22.21841042 -1.68895792 20.22916031 -5.0625 18 C-20.23562988 10.34297161 -36.17402366 13.30701713 -46.59765625 27.01953125 Z " fill="#0D0D0D" transform="translate(394.0625,428)"/>
<path d="M0 0 C8.25 0 16.5 0 25 0 C25 26.73 25 53.46 25 81 C31.48853356 75.34809928 31.48853356 75.34809928 37.68359375 69.44921875 C38.46541016 68.66869141 39.24722656 67.88816406 40.05273438 67.08398438 C40.83970703 66.29314453 41.62667969 65.50230469 42.4375 64.6875 C43.25154297 63.87732422 44.06558594 63.06714844 44.90429688 62.23242188 C45.67708984 61.45833984 46.44988281 60.68425781 47.24609375 59.88671875 C47.94404053 59.18764404 48.6419873 58.48856934 49.36108398 57.76831055 C51.07362678 56.08607832 51.07362678 56.08607832 52 54 C52.66 54 53.32 54 54 54 C54 53.34 54 52.68 54 52 C54.66 52 55.32 52 56 52 C56 51.34 56 50.68 56 50 C56.66 50 57.32 50 58 50 C58 49.34 58 48.68 58 48 C58.66 48 59.32 48 60 48 C60 47.34 60 46.68 60 46 C63.63306058 43.57795962 65.31819023 43.76697109 69.63671875 43.8046875 C70.93544922 43.81113281 72.23417969 43.81757813 73.57226562 43.82421875 C74.94401307 43.8409294 76.31575786 43.85785929 77.6875 43.875 C79.07095718 43.88503326 80.45442127 43.89415851 81.83789062 43.90234375 C85.22543452 43.92595033 88.61263072 43.95887963 92 44 C87.45657009 49.47251259 82.60038267 54.46135599 77.50390625 59.41796875 C75.87766982 61.01698299 74.25203584 62.61661012 72.62695312 64.21679688 C70.08237105 66.71791137 67.53425996 69.21495108 64.97583008 71.7019043 C62.49465818 74.11681696 60.02941474 76.54705239 57.56640625 78.98046875 C56.79261124 79.72532028 56.01881622 80.47017181 55.22157288 81.2375946 C54.52011642 81.93544571 53.81865997 82.63329681 53.09594727 83.35229492 C52.47228775 83.96183517 51.84862823 84.57137543 51.20606995 85.1993866 C49.77939545 86.9248739 49.77939545 86.9248739 50.16978455 89.05000305 C51.50236606 92.17994947 53.76960348 94.54225266 56 97.0625 C57.01506896 98.23503164 58.0293824 99.40821774 59.04296875 100.58203125 C59.799729 101.45335693 59.799729 101.45335693 60.57177734 102.34228516 C62.52689941 104.61156359 64.42277816 106.92610479 66.3125 109.25 C70.17400724 113.99038076 74.05157621 118.71713396 77.9375 123.4375 C78.53425537 124.16364502 79.13101074 124.88979004 79.74584961 125.63793945 C82.51697932 129.00571846 85.29783833 132.36324176 88.12109375 135.6875 C88.58974854 136.24123291 89.05840332 136.79496582 89.54125977 137.36547852 C90.79180623 138.83944313 92.04804789 140.30857044 93.3046875 141.77734375 C95 144 95 144 95 146 C90.90661348 146.04939115 86.81334202 146.08571501 82.71972656 146.10986328 C81.32679219 146.11992877 79.93387898 146.13358234 78.54101562 146.15087891 C76.5404564 146.1751022 74.53974385 146.18540814 72.5390625 146.1953125 C71.33459473 146.20578613 70.13012695 146.21625977 68.88916016 146.22705078 C66 146 66 146 64 144 C63.08612808 142.80888802 62.1882557 141.60543948 61.30078125 140.39453125 C57.51565526 135.30284096 53.47539905 130.43449236 49.41601562 125.56054688 C48.85978516 124.88443359 48.30355469 124.20832031 47.73046875 123.51171875 C46.97866333 122.60619263 46.97866333 122.60619263 46.21166992 121.68237305 C45 120 45 120 44 117 C43.34 117 42.68 117 42 117 C40.78125 115.5390625 40.78125 115.5390625 39.5 113.625 C38.07753774 111.51732726 36.80845027 109.80845027 35 108 C33.64837492 106.01231606 32.31306433 104.0133653 31 102 C28.36999745 102.83685278 28.36999745 102.83685278 26 105 C25.19979353 108.06362894 25.27890259 111.10936708 25.29296875 114.26171875 C25.27784744 115.16751175 25.26272614 116.07330475 25.24714661 117.00654602 C25.20414864 119.90044818 25.19542008 122.79330976 25.1875 125.6875 C25.16436506 127.64911644 25.13900182 129.61070796 25.11132812 131.57226562 C25.0441576 136.38208197 25.02332363 141.18897104 25 146 C17.08 146 9.16 146 1 146 C0.67 97.82 0.34 49.64 0 0 Z " fill="#101010" transform="translate(773,379)"/>
<path d="M0 0 C6.76595527 3.97132157 13.38264191 9.53648106 16.875 16.6875 C17 18.9375 17 18.9375 15.875 20.6875 C12.875 21.8125 12.875 21.8125 9.875 22.6875 C9.545 23.3475 9.215 24.0075 8.875 24.6875 C7.16796875 25.79296875 7.16796875 25.79296875 5.0625 26.875 C4.37542969 27.23980469 3.68835938 27.60460937 2.98046875 27.98046875 C0.44001213 28.83357199 -0.67892096 28.75543472 -3.125 27.6875 C-4.328125 26.19921875 -4.328125 26.19921875 -5.375 24.375 C-8.18153402 20.19102597 -11.3538857 18.21717023 -16.125 16.6875 C-21.36689935 16.05485698 -24.658502 16.88295474 -29.125 19.6875 C-31.47049674 23.20574511 -31.70491403 24.54525694 -31.125 28.6875 C-27.37840641 33.29148712 -23.62812128 35.03114971 -18.1875 36.875 C-17.49720703 37.12185547 -16.80691406 37.36871094 -16.09570312 37.62304688 C-13.06858361 38.69903722 -10.0327111 39.71662583 -6.96875 40.68359375 C3.45136067 44.36212183 11.65240765 49.90518279 16.875 59.6875 C19.40379007 67.2738702 19.24268312 78.03601319 15.8125 85.3125 C13.03656991 89.92590654 9.17855232 95.83013524 3.72265625 97.24609375 C3.11292969 97.39175781 2.50320313 97.53742188 1.875 97.6875 C1.545 98.3475 1.215 99.0075 0.875 99.6875 C-10.98472793 105.00656253 -24.37050607 104.91315141 -36.58203125 100.875 C-45.10105632 97.39192331 -51.31483557 91.51062457 -56.125 83.6875 C-56.125 83.0275 -56.125 82.3675 -56.125 81.6875 C-56.785 81.3575 -57.445 81.0275 -58.125 80.6875 C-57.76514588 78.13794531 -57.53642769 77.00214588 -55.45092773 75.40722656 C-54.74395752 75.05112305 -54.0369873 74.69501953 -53.30859375 74.328125 C-52.54482422 73.93496094 -51.78105469 73.54179687 -50.99414062 73.13671875 C-50.19169922 72.74097656 -49.38925781 72.34523438 -48.5625 71.9375 C-47.75619141 71.52628906 -46.94988281 71.11507812 -46.11914062 70.69140625 C-44.12698154 69.67764482 -42.12923822 68.67710648 -40.125 67.6875 C-38.03953063 69.72343413 -36.43259055 71.66247128 -34.875 74.125 C-31.70129354 78.59274749 -28.25416996 80.86996911 -22.95703125 82.25390625 C-17.49434431 83.14711668 -12.90828584 82.57763524 -8.125 79.6875 C-5.36338684 76.6748311 -5.125 75.22031992 -5.125 71.125 C-6.36855776 66.85027021 -7.43374879 66.11820795 -11.125 63.6875 C-14.23266001 62.37471848 -17.41547601 61.34628939 -20.625 60.3125 C-46.24778887 51.62905373 -46.24778887 51.62905373 -53 39.25 C-56.11883898 29.37367655 -55.18359637 20.20893284 -51.125 10.6875 C-50.465 10.6875 -49.805 10.6875 -49.125 10.6875 C-48.91875 10.130625 -48.7125 9.57375 -48.5 9 C-39.37630405 -6.34439774 -14.33386444 -6.43561261 0 0 Z " fill="#0F0F0F" transform="translate(923.125,424.3125)"/>
<path d="M0 0 C2.12796344 1.57947674 4.04576805 3.20421929 6 5 C4.37938967 8.99432781 1.60660827 11.79558321 -1.375 14.8125 C-1.85710937 15.32748047 -2.33921875 15.84246094 -2.8359375 16.37304688 C-4.2734375 17.83203125 -4.2734375 17.83203125 -7 20 C-9.98448891 19.93428648 -12.06289232 18.49765781 -14.5625 16.9375 C-17.77792218 14.75449347 -17.77792218 14.75449347 -21 15 C-21 14.34 -21 13.68 -21 13 C-33.69009949 11.15416735 -44.24694665 11.58642722 -55.02734375 19.34375 C-61.66626065 24.91781092 -64.31419096 32.22080434 -65.3203125 40.69921875 C-65.6979504 49.52335756 -63.3959289 57.41836854 -57.875 64.375 C-52.42785426 70.10450319 -45.00618726 73.58110093 -37.15234375 74.23828125 C-27.61114506 74.45855194 -20.18211794 72.60019424 -12 67.6875 C-11.01 67.130625 -10.02 66.57375 -9 66 C-5.61152855 67.12949048 -4.80305816 68.12283218 -2.5625 70.8125 C-0.14310168 73.66759505 2.2971523 76.4052662 5 79 C3.50823578 83.41522163 0.13554504 85.19540982 -3.6875 87.4375 C-4.35450928 87.82929443 -5.02151855 88.22108887 -5.70874023 88.62475586 C-17.0959485 95.08343179 -27.84947333 97.86620236 -41 97 C-41.92167969 97.00128906 -42.84335937 97.00257813 -43.79296875 97.00390625 C-53.90841801 96.7498994 -65.19118589 91.69359305 -72.453125 84.65625 C-72.96359375 84.1096875 -73.4740625 83.563125 -74 83 C-74.67546875 82.3090625 -75.3509375 81.618125 -76.046875 80.90625 C-82.6191931 73.90217377 -85.83965186 67.29377039 -88.38671875 58.1015625 C-88.94122617 55.96859349 -88.94122617 55.96859349 -90 54 C-91.13435819 47.75059107 -90.81892955 42.37198837 -89.8125 36.125 C-89.67013916 35.23804443 -89.52777832 34.35108887 -89.38110352 33.43725586 C-87.0000642 19.4484889 -80.61361965 7.42591147 -68.9375 -1.0625 C-47.58491431 -14.56241333 -21.06598428 -13.45882329 0 0 Z " fill="#0E0E0E" transform="translate(758,431)"/>
<path d="M0 0 C7.59 0 15.18 0 23 0 C23.33 10.23 23.66 20.46 24 31 C31.59 31 39.18 31 47 31 C47 37.27 47 43.54 47 50 C45.42347656 50.06058594 43.84695313 50.12117188 42.22265625 50.18359375 C40.16926057 50.26797987 38.11587569 50.35262883 36.0625 50.4375 C35.02158203 50.47681641 33.98066406 50.51613281 32.90820312 50.55664062 C31.91884766 50.59853516 30.92949219 50.64042969 29.91015625 50.68359375 C28.53549194 50.73858032 28.53549194 50.73858032 27.13305664 50.79467773 C25.0179272 50.77003864 25.0179272 50.77003864 24 52 C23.88609034 55.03497461 23.83579425 58.04624658 23.83203125 61.08203125 C23.82870285 62.00658615 23.82537445 62.93114105 23.82194519 63.88371277 C23.81686677 65.85175071 23.81453714 67.81979731 23.81469727 69.7878418 C23.8125369 72.76170732 23.79446455 75.73518589 23.77539062 78.70898438 C22.67269473 95.45509676 22.67269473 95.45509676 28.4375 110.1875 C31.70529197 112.49886505 34.10351352 113.12704125 38.01171875 113.09765625 C38.69451904 113.09515869 39.37731934 113.09266113 40.08081055 113.09008789 C40.94101807 113.08098389 41.80122559 113.07187988 42.6875 113.0625 C45.430625 113.041875 48.17375 113.02125 51 113 C51 119.93 51 126.86 51 134 C37.46243186 135.44400727 24.07587969 136.62044784 11.5625 130.25 C3.88721113 123.51072196 0.75729583 114.64711577 -0.38708496 104.60238647 C-0.55159682 101.07786841 -0.60576725 97.57127003 -0.609375 94.04296875 C-0.63417938 92.13950432 -0.63417938 92.13950432 -0.65948486 90.19758606 C-0.69944348 86.87177488 -0.72303229 83.54671857 -0.73822021 80.22076416 C-0.75799317 76.80782994 -0.79993796 73.39516954 -0.83984375 69.98242188 C-0.91333387 63.32164581 -0.96314055 56.66107538 -1 50 C-6.61 50 -12.22 50 -18 50 C-17.67 43.73 -17.34 37.46 -17 31 C-11.39 31 -5.78 31 0 31 C0 20.77 0 10.54 0 0 Z " fill="#0B0B0B" transform="translate(265,392)"/>
<path d="M0 0 C0 7.92 0 15.84 0 24 C-2.97 24.33 -5.94 24.66 -9 25 C-17.16011709 26.2209953 -23.28316054 29.11855376 -28.52655029 35.69551086 C-33.88703727 44.07936268 -34.5984886 54.18567119 -34.609375 63.86328125 C-34.62591125 65.02127731 -34.64244751 66.17927338 -34.65948486 67.37236023 C-34.70751471 71.01912984 -34.72923579 74.66548392 -34.75 78.3125 C-34.77819726 80.80666103 -34.80812985 83.30080308 -34.83984375 85.79492188 C-34.91648204 91.86346421 -34.95742367 97.93074424 -35 104 C-42.59 104 -50.18 104 -58 104 C-58 70.34 -58 36.68 -58 2 C-50.41 2 -42.82 2 -35 2 C-35 6.62 -35 11.24 -35 16 C-34.34 15.319375 -33.68 14.63875 -33 13.9375 C-22.28778415 3.31606564 -15.50849323 0 0 0 Z " fill="#090909" transform="translate(620,421)"/>
<path d="M0 0 C7.59 0 15.18 0 23 0 C23 33.66 23 67.32 23 102 C15.41 102 7.82 102 0 102 C0 68.34 0 34.68 0 0 Z " fill="#060606" transform="translate(633,423)"/>
<path d="M0 0 C3.98801016 2.09539517 6.3245777 4.15318131 8.09375 8.28125 C9.47713849 13.17631696 8.97805258 16.57049355 7.09375 21.28125 C3.87121369 25.6756177 0.66918394 27.27586156 -4.5625 28.19140625 C-9.73732505 28.38977454 -13.4853633 26.55256968 -17.28125 23.15625 C-19.47688682 19.27166178 -20.92878526 15.79581306 -20.90625 11.28125 C-19.16092183 6.68282828 -16.22770765 2.730076 -11.90625 0.28125 C-7.83022803 -1.07742399 -4.11874159 -1.55296814 0 0 Z " fill="#131313" transform="translate(649.90625,379.71875)"/>
<path d="M0 0 C0.66 0.33 1.32 0.66 2 1 C-2.62 5.62 -7.24 10.24 -12 15 C-12 10.09687565 -8.29800369 7.38658643 -5 4 C-3.37458956 2.61667196 -1.72614587 1.25537882 0 0 Z " fill="#656565" transform="translate(32,428)"/>
<path d="M0 0 C0.66 0.33 1.32 0.66 2 1 C-1.63 4.63 -5.26 8.26 -9 12 C-9.66 11.67 -10.32 11.34 -11 11 C-9.73347137 9.53792657 -8.46161082 8.08047074 -7.1875 6.625 C-6.47980469 5.81289063 -5.77210938 5.00078125 -5.04296875 4.1640625 C-3 2 -3 2 0 0 Z " fill="#606060" transform="translate(598,425)"/>
<path d="M0 0 C0.66 0.33 1.32 0.66 2 1 C0.54782324 2.50596108 -0.91192861 4.00462104 -2.375 5.5 C-3.18710937 6.3353125 -3.99921875 7.170625 -4.8359375 8.03125 C-7 10 -7 10 -9 10 C-9.33 10.66 -9.66 11.32 -10 12 C-10 11.01 -10 10.02 -10 9 C-9.34 9 -8.68 9 -8 9 C-7.79375 8.443125 -7.5875 7.88625 -7.375 7.3125 C-5.44999226 4.07498698 -2.96149098 2.31768859 0 0 Z " fill="#6B6B6B" transform="translate(882,426)"/>
<path d="M0 0 C0.66 0.33 1.32 0.66 2 1 C-1.3 4.3 -4.6 7.6 -8 11 C-8.66 10.67 -9.32 10.34 -10 10 C-6.92118304 6.12948725 -3.99926986 2.97088618 0 0 Z " fill="#6C6C6C" transform="translate(689,430)"/>
<path d="M0 0 C0.99 0.33 1.98 0.66 3 1 C-0.465 3.97 -0.465 3.97 -4 7 C-3.04065919 3.16263678 -2.76390737 2.40339772 0 0 Z " fill="#504F4F" transform="translate(636,381)"/>
<path d="" fill="#FEFDFD" transform="translate(0,0)"/>
<path d="" fill="#FEFDFD" transform="translate(0,0)"/>
<path d="" fill="#FEFDFD" transform="translate(0,0)"/>
<path d="" fill="#FEFDFD" transform="translate(0,0)"/>
<path d="" fill="#FEFDFD" transform="translate(0,0)"/>
<path d="" fill="#FEFDFD" transform="translate(0,0)"/>
<path d="" fill="#FEFDFD" transform="translate(0,0)"/>
<path d="" fill="#FEFDFD" transform="translate(0,0)"/>
<path d="" fill="#FEFDFD" transform="translate(0,0)"/>
<path d="" fill="#FEFDFD" transform="translate(0,0)"/>
<path d="" fill="#FEFDFD" transform="translate(0,0)"/>
<path d="" fill="#FEFDFD" transform="translate(0,0)"/>
<path d="" fill="#FEFDFD" transform="translate(0,0)"/>
<path d="" fill="#FEFDFD" transform="translate(0,0)"/>
<path d="" fill="#FEFDFD" transform="translate(0,0)"/>
</svg>
