<svg version="1.1" width="512" height="512" x="0" y="0" viewBox="0 0 64 64" style="enable-background:new 0 0 512 512" class="" xmlns="http://www.w3.org/2000/svg"> <g> <path d="M37.863 8.456a1.029 1.029 0 0 0 .288.042 1 1 0 0 0 .957-.713l1.162-3.869a1 1 0 1 0-1.916-.574l-1.162 3.869a1 1 0 0 0 .671 1.245ZM44.456 10.056a1 1 0 0 0 1.356-.4l1.936-3.566a1 1 0 1 0-1.758-.955L44.054 8.7a1 1 0 0 0 .402 1.356ZM51.943 13.317a1 1 0 0 0 .765-.355l2.629-3.122a1 1 0 1 0-1.529-1.289l-2.629 3.122a1 1 0 0 0 .764 1.644ZM58.042 18.285a1 1 0 0 0 .643-.234l3.1-2.6a1 1 0 0 0-1.285-1.532l-3.1 2.6a1 1 0 0 0 .643 1.765ZM11.292 12.962a1 1 0 1 0 1.529-1.289l-2.629-3.122A1 1 0 0 0 8.663 9.84ZM18.188 9.654a1 1 0 1 0 1.758-.954L18.01 5.133a1 1 0 1 0-1.758.955ZM5.347 18.076a1 1 0 1 0 1.222-1.582l-2.958-2.285a1 1 0 1 0-1.222 1.582ZM24.892 7.785a1 1 0 0 0 .957.713 1.029 1.029 0 0 0 .288-.042 1 1 0 0 0 .671-1.245l-1.162-3.869a1 1 0 1 0-1.916.574ZM32 8a1 1 0 0 0 1-1V3a1 1 0 0 0-2 0v4a1 1 0 0 0 1 1ZM18.407 39.063A38.375 38.375 0 0 1 4.274 28a40.341 40.341 0 0 1 6.526-6.475 1 1 0 0 0-1.235-1.574 42.6 42.6 0 0 0-7.355 7.437 1 1 0 0 0 0 1.224A40.54 40.54 0 0 0 17.593 40.89a1 1 0 0 0 .814-1.827Z" opacity="1" data-original="#000000" class="" style="fill: black;"/> <path d="M61.791 28.612a1 1 0 0 0 0-1.224C54.219 17.608 43.36 12 32 12a35.874 35.874 0 0 0-19.319 5.739 1 1 0 0 0 1.076 1.686 34.808 34.808 0 0 1 8.143-3.816 15.963 15.963 0 0 0 .1 24.86V42a3 3 0 0 0 0 6h20a1 1 0 0 1 0 2H22a1 1 0 0 0 0 2 10 10 0 0 0 20 0 2.987 2.987 0 0 0 2.22-5A2.987 2.987 0 0 0 42 42v-1.531A15.858 15.858 0 0 0 48 28a16.09 16.09 0 0 0-.374-3.416 1 1 0 1 0-1.954.426A14.062 14.062 0 0 1 46 28a13.889 13.889 0 0 1-5.6 11.181 1 1 0 0 0-.4.8V42h-4v-7.08a7.966 7.966 0 0 0 3.49-9.713 1 1 0 0 0-.842-.645.99.99 0 0 0-.949.473A1.981 1.981 0 0 1 36 26a2 2 0 0 1-2-2 1.981 1.981 0 0 1 .964-1.7 1 1 0 0 0-.172-1.79A7.982 7.982 0 0 0 24 28a8.041 8.041 0 0 0 4 6.92V42h-4v-2.021a1 1 0 0 0-.4-.8A13.991 13.991 0 1 1 44.4 21.5a1 1 0 1 0 1.771-.93 16.061 16.061 0 0 0-4.038-4.955A37.515 37.515 0 0 1 59.726 28a38.375 38.375 0 0 1-14.133 11.063 1 1 0 1 0 .814 1.827 40.54 40.54 0 0 0 15.384-12.278ZM32 60a8.009 8.009 0 0 1-8-8h16a8.009 8.009 0 0 1-8 8Zm11-15a1 1 0 0 1-1 1H22a1 1 0 0 1 0-2h20a1 1 0 0 1 1 1ZM29.43 33.414A6 6 0 0 1 32 22c.175 0 .35.008.523.023a4 4 0 0 0 5.453 5.454c.016.173.024.348.024.523a6.027 6.027 0 0 1-3.43 5.414 1 1 0 0 0-.57.9V42h-4v-7.683a1 1 0 0 0-.57-.903Z" opacity="1" data-original="#000000" class="" style="fill: black;"/> <path d="M52.708 41.607a1 1 0 1 0-1.529 1.293l2.629 3.123a1 1 0 1 0 1.529-1.29ZM58.685 36.52a1 1 0 1 0-1.285 1.531l3.1 2.6a1 1 0 0 0 1.286-1.531ZM11.292 41.607l-2.629 3.122a1 1 0 0 0 1.529 1.29l2.629-3.119a1 1 0 1 0-1.529-1.289ZM5.347 36.494l-2.958 2.284a1 1 0 1 0 1.222 1.582l2.958-2.284a1 1 0 1 0-1.222-1.582Z" opacity="1" data-original="#000000" class="" style="fill: black;"/> </g> </svg>