<svg version="1.1" width="512" height="512" x="0" y="0" viewBox="0 0 100 100" style="enable-background:new 0 0 512 512" class="" xmlns="http://www.w3.org/2000/svg">
  <g>
    <path d="M74.23 52.5a24.44 24.44 0 0 1-21.68 21.79.84.84 0 0 0-.85.85v18.19a1.7 1.7 0 0 1-3.4 0v-6.6a.92.92 0 0 0-.85-.85 35.84 35.84 0 0 1-32-27.53 1.7 1.7 0 1 1 3.29-.85 32.32 32.32 0 0 0 28.6 24.87c.22.11.43 0 .64-.21a.64.64 0 0 0 .32-.64v-6.38a.84.84 0 0 0-.85-.85 24.74 24.74 0 0 1-14.66-7 24.48 24.48 0 0 1-7-14.78.89.89 0 0 0-.85-.75H6.75a1.75 1.75 0 0 1 0-3.5h6.91a.9.9 0 0 0 .85-.75 36.23 36.23 0 0 1 26.56-32.76 1.76 1.76 0 0 1 .85 3.41A32.44 32.44 0 0 0 18 47.29a.82.82 0 0 0 .85 1h6.05a.89.89 0 0 0 .85-.75 24.44 24.44 0 0 1 21.7-21.83.84.84 0 0 0 .85-.85V6.67a1.7 1.7 0 0 1 3.4 0V27.3a1.73 1.73 0 0 1-1.81 1.81c-18.49 0-27.73 22.64-14.66 35.72S70.61 68.55 70.93 50a1.68 1.68 0 0 1 1.7-1.7h20.62a1.75 1.75 0 0 1 0 3.5h-6.8a.82.82 0 0 0-.85.75A36.14 36.14 0 0 1 58.29 85c-2.23.53-3-2.87-.75-3.4a32.5 32.5 0 0 0 24.55-28.89.82.82 0 0 0-.85-1h-6.16a.89.89 0 0 0-.85.75ZM88 24.22 75.71 36.44a1.68 1.68 0 0 1-1.16.54h-8.19a1.43 1.43 0 0 0-.63.21L51.17 51.86a1.73 1.73 0 0 1-2.45-2.44l14.56-14.68a.58.58 0 0 0 .32-.53V26a1.75 1.75 0 0 1 .53-1.27l12.22-12.21a1.73 1.73 0 0 1 3 1.17v6.7a.91.91 0 0 0 .85.85h6.59a1.75 1.75 0 0 1 1.27 3Zm-14 9 7.12-7.12a.86.86 0 0 0-.53-1.49h-3a1.77 1.77 0 0 1-1.81-1.7V20a.88.88 0 0 0-1.49-.63l-7 7.12a.94.94 0 0 0-.32.64v5.53a.84.84 0 0 0 .85.85h5.63c.22 0 .43 0 .53-.22Zm-9.56 16.8A14.45 14.45 0 1 1 50 35.59 1.71 1.71 0 0 1 50 39a11 11 0 0 0 0 22c6.38 0 10.63-4.78 10.94-11a1.76 1.76 0 1 1 3.51.1Z" opacity="1" data-original="#000000" class="" style="fill: white;"/> {/* Changed fill color to white */}
  </g>
</svg>
