<svg width="200" height="70" viewBox="0 0 200 70" fill="none" xmlns="http://www.w3.org/2000/svg">
<g clip-path="url(#clip0_42_53)">
<path d="M20.3495 37.9505C20.3924 37.0687 20.2318 36.1895 19.8805 35.3813C19.5291 34.5732 18.9963 33.8587 18.3248 33.2942C16.995 32.1831 15.1119 31.6294 12.6752 31.6328H7.06137V45.1988H12.5792C14.6269 45.2667 16.6216 44.5343 18.1477 43.1539C18.864 42.4982 19.4316 41.6932 19.8115 40.7952C20.1917 39.8972 20.3748 38.9268 20.3495 37.9505ZM21.3264 68.619L16.1683 56.2394C14.781 52.8864 12.8321 51.2097 10.3215 51.2097H7.06137V68.619H0V25.6832H13.7331C18.1811 25.6832 21.6319 26.7052 24.0851 28.7499C26.5388 30.7946 27.7653 33.6399 27.7653 37.286C27.8413 40.0317 26.966 42.7185 25.2901 44.8819C23.5312 47.0331 21.1151 48.5341 18.4209 49.1499V49.2673C19.4751 49.7027 20.3998 50.4072 21.1036 51.3122C21.982 52.292 22.6981 53.409 23.2247 54.6191L29.7242 68.619H21.3264Z" fill="#222124"/>
<path d="M52.1118 50.1207C52.1118 47.6841 51.5481 45.827 50.421 44.5495C49.2938 43.2713 47.7129 42.6326 45.6778 42.6326C44.7738 42.6252 43.878 42.8064 43.0461 43.1639C42.2145 43.5221 41.4648 44.0493 40.8437 44.7128C39.4332 46.191 38.5283 48.0858 38.2621 50.1207H52.1118ZM38.2621 55.3295C38.4005 58.1268 39.244 60.2552 40.7929 61.7137C42.3421 63.1721 44.5474 63.8995 47.4089 63.8961C49.0933 63.9038 50.7668 63.6256 52.3599 63.0732C53.8398 62.5782 55.24 61.8668 56.5159 60.9623V66.8044C55.0837 67.677 53.5187 68.3038 51.8839 68.66C49.8691 69.1542 47.8019 69.3994 45.7286 69.3907C41.1152 69.3907 37.5449 67.9972 35.0172 65.2099C32.4894 62.4224 31.2242 58.5546 31.2209 53.6069C31.1534 50.6296 31.7995 47.6803 33.1038 45.0095C34.2831 42.6412 36.0964 40.6539 38.3379 39.2743C40.5463 37.9114 43.0897 37.2032 45.6778 37.2295C49.8692 37.2295 53.1274 38.5262 55.4526 41.1197C57.7777 43.7125 58.9389 47.3078 58.9356 51.9045V55.3295H38.2621Z" fill="#222124"/>
<path d="M70.1033 59.5465C70.0815 60.148 70.1984 60.747 70.4454 61.2956C70.6924 61.8437 71.0624 62.3261 71.5258 62.7055C72.5553 63.5202 73.8383 63.9381 75.1454 63.8858C76.0891 63.9174 77.029 63.7454 77.9017 63.3815C78.7744 63.0175 79.5607 62.47 80.2072 61.7747C80.8678 61.0639 81.3826 60.2285 81.723 59.3164C82.0635 58.4043 82.223 57.4333 82.1919 56.4591V53.704L75.6361 54.5937C73.5607 54.8951 72.123 55.4114 71.3236 56.1526C70.5236 56.8934 70.1033 58.0284 70.1033 59.5665V59.5465ZM82.1159 68.619V64.3973H81.9941C81.07 65.9585 79.7503 67.242 78.1706 68.1163C76.5913 68.9907 74.8094 69.4235 73.0094 69.3704C70.0225 69.3704 67.6689 68.5514 65.9476 66.912C64.2263 65.2733 63.3678 63.0579 63.3711 60.2671C63.3711 57.3944 64.2148 55.0891 65.9023 53.3514C67.5891 51.6132 70.0596 50.5348 73.3126 50.1158L82.1815 48.8891C82.1815 44.7111 80.2645 42.6241 76.4312 42.6273C74.5864 42.6256 72.7553 42.9404 71.0148 43.5578C69.34 44.1375 67.7635 44.9757 66.3421 46.042V39.9488C67.8755 39.0733 69.5307 38.4369 71.2525 38.0629C73.1782 37.5379 75.1607 37.2568 77.1547 37.2248C81.0525 37.2248 83.9853 38.2472 85.9525 40.2915C87.9203 42.336 88.8957 45.304 88.8788 49.1958V68.619H82.1159Z" fill="#222124"/>
<path d="M117.609 67.352C115.274 68.7147 112.397 69.3962 108.978 69.3962C106.254 69.4436 103.562 68.7836 101.162 67.4792C98.9049 66.2164 97.0568 64.3202 95.842 62.0202C94.5486 59.5917 93.8901 56.8704 93.9289 54.1127C93.8672 51.0507 94.5448 48.0192 95.9032 45.2806C97.1776 42.7639 99.1726 40.6927 101.628 39.3358C104.299 37.8841 107.297 37.1568 110.33 37.2248C111.676 37.2301 113.017 37.3756 114.334 37.6591C115.482 37.8623 116.593 38.2397 117.629 38.7785V45.3365C115.618 43.7793 113.163 42.9187 110.628 42.8834C109.337 42.8344 108.05 43.067 106.855 43.5655C105.66 44.0639 104.585 44.8163 103.704 45.7709C101.932 47.6963 101.046 50.2673 101.046 53.4842C101.046 56.7011 101.89 59.2078 103.577 61.0033C105.264 62.8164 107.569 63.724 110.492 63.7279C111.703 63.6995 112.901 63.4662 114.035 63.0378C115.317 62.5923 116.527 61.9562 117.624 61.1513L117.609 67.352Z" fill="#222124"/>
<path d="M141.283 68.3383C140.583 68.6743 139.84 68.9115 139.076 69.0438C138.067 69.2688 137.037 69.3853 136.003 69.3913C130.05 69.3913 127.074 66.154 127.074 59.6793V43.5424H122.011V37.9505H127.074V30.9017L133.958 28.7755V37.9761H141.283V43.5478H133.958V58.3966C133.958 60.3354 134.296 61.7088 134.97 62.5163C135.645 63.324 136.732 63.7279 138.231 63.7279C138.746 63.7132 139.257 63.6274 139.749 63.4722C140.288 63.3307 140.801 63.1027 141.268 62.7972L141.283 68.3383Z" fill="#222124"/>
<path d="M200 44.7085C199.46 44.3723 198.868 44.1305 198.249 43.9928C197.526 43.7843 196.779 43.6726 196.027 43.6602C195.073 43.6427 194.13 43.8673 193.286 44.314C192.441 44.7608 191.721 45.415 191.192 46.2159C189.967 47.9199 189.355 50.157 189.355 52.9274V68.6197H182.501V37.9509H189.355V43.9313H189.492C190.03 42.0749 191.085 40.4131 192.529 39.142C193.845 38.0198 195.518 37.4137 197.241 37.4344C198.179 37.3927 199.116 37.5353 200 37.8538V44.7085Z" fill="#222124"/>
<mask id="mask0_42_53" style="mask-type:luminance" maskUnits="userSpaceOnUse" x="144" y="37" width="35" height="33">
<path d="M167.527 37.4802H155.276C154.385 37.4792 153.509 37.715 152.736 38.1633C151.963 38.6122 151.321 39.2579 150.873 40.0357L144.752 50.7444C144.308 51.5214 144.074 52.403 144.074 53.3001C144.074 54.1975 144.308 55.0786 144.752 55.8558L150.873 66.5901C151.321 67.3678 151.964 68.0126 152.737 68.4613C153.51 68.9098 154.385 69.1458 155.276 69.1458H167.527C168.418 69.1458 169.294 68.9098 170.067 68.4613C170.839 68.0126 171.482 67.3678 171.931 66.5901L178.051 55.8558C178.495 55.0786 178.729 54.1975 178.729 53.3001C178.729 52.403 178.495 51.5214 178.051 50.7444L171.931 40.0357C171.483 39.2579 170.84 38.6122 170.067 38.1633C169.294 37.715 168.418 37.4792 167.527 37.4802ZM166.955 43.6139L172.523 53.3255L166.955 63.0378H155.849L150.28 53.3255L155.849 43.6139H166.955Z" fill="white"/>
</mask>
<g mask="url(#mask0_42_53)">
<path d="M167.527 37.4802H155.276C154.385 37.4792 153.509 37.715 152.736 38.1633C151.963 38.6122 151.321 39.2579 150.873 40.0357L144.752 50.7444C144.308 51.5214 144.074 52.403 144.074 53.3001C144.074 54.1975 144.308 55.0786 144.752 55.8558L150.873 66.5901C151.321 67.3678 151.964 68.0126 152.737 68.4613C153.51 68.9098 154.385 69.1458 155.276 69.1458H167.527C168.418 69.1458 169.294 68.9098 170.067 68.4613C170.839 68.0126 171.482 67.3678 171.931 66.5901L178.051 55.8558C178.495 55.0786 178.729 54.1975 178.729 53.3001C178.729 52.403 178.495 51.5214 178.051 50.7444L171.931 40.0357C171.483 39.2579 170.84 38.6122 170.067 38.1633C169.294 37.715 168.418 37.4792 167.527 37.4802ZM166.955 43.6139L172.523 53.3255L166.955 63.0378H155.849L150.28 53.3255L155.849 43.6139H166.955Z" fill="url(#paint0_linear_42_53)"/>
</g>
<path d="M54.621 5.28689V4.31749H53.4333V2.82623H53.3992L52.2764 3.16721H52.2489V4.29727H50.5086V3.66557C50.4932 3.42787 50.5647 3.19235 50.7098 3.00383C50.7803 2.93006 50.8657 2.87268 50.9607 2.83552C51.0556 2.79782 51.1577 2.78197 51.2593 2.78853C51.4407 2.79071 51.6196 2.83006 51.785 2.90438L51.8292 2.93224V1.9082H51.8021C51.5889 1.84208 51.3662 1.81093 51.1432 1.81585C50.8166 1.81476 50.4941 1.88962 50.2014 2.03443C49.9288 2.18033 49.7057 2.40383 49.5595 2.67596C49.4009 2.96066 49.3198 3.28197 49.3243 3.60765V4.29017H48.5016V5.25246H49.3243V9.3071H50.5086V5.2765H52.283V7.85683C52.283 8.91421 52.7814 9.45027 53.7779 9.45027C53.9442 9.4459 54.1098 9.42787 54.2726 9.39563C54.4014 9.37158 54.5262 9.3317 54.6447 9.2765V8.30711L54.6003 8.34426C54.525 8.39344 54.4419 8.42896 54.3546 8.45028C54.2784 8.47432 54.1992 8.48688 54.1194 8.48798C54.0244 8.49781 53.9286 8.48579 53.8391 8.45246C53.7497 8.41967 53.6694 8.36612 53.6039 8.29672C53.476 8.10874 53.418 7.88142 53.44 7.65519V5.28361L54.621 5.28689ZM46.7818 8.06503C46.6616 8.2071 46.5099 8.31912 46.3383 8.39126C46.1671 8.46339 45.9809 8.49453 45.7955 8.48087C45.6025 8.49563 45.4089 8.46448 45.2309 8.38907C45.0529 8.31312 44.8953 8.19618 44.7715 8.04809C44.5077 7.70383 44.3777 7.27596 44.4063 6.84262C44.3815 6.40328 44.5107 5.96885 44.7715 5.61421C44.8942 5.4694 45.0486 5.35465 45.2225 5.27924C45.3965 5.20328 45.5854 5.16831 45.7748 5.1776C45.9583 5.16885 46.1417 5.20219 46.3105 5.27377C46.4798 5.3459 46.6303 5.45519 46.7511 5.59399C47.0113 5.9459 47.1396 6.37869 47.1127 6.81585C47.1421 7.25847 47.022 7.69836 46.7714 8.06503H46.7818ZM45.8465 4.2082C45.4902 4.18853 45.1331 4.24263 44.7984 4.36722C44.4637 4.49181 44.1583 4.68361 43.9014 4.93224C43.4214 5.47268 43.1759 6.18251 43.2186 6.90437C43.2022 7.24645 43.2538 7.58798 43.3712 7.91038C43.4884 8.2317 43.6686 8.52678 43.9014 8.77814C44.4247 9.23006 45.0951 9.47541 45.7867 9.46721C46.4781 9.45902 47.1428 9.19836 47.6553 8.73388C48.1311 8.19945 48.3766 7.49946 48.3379 6.78525C48.3766 6.09181 48.1386 5.41202 47.676 4.89399C47.4363 4.65792 47.1494 4.47541 46.8341 4.35793C46.5191 4.23989 46.1823 4.19071 45.8465 4.21202V4.2082ZM41.4066 6.40929C41.1515 6.32132 40.9101 6.19727 40.6898 6.04099C40.6431 5.98962 40.607 5.92897 40.5835 5.86339C40.56 5.79782 40.5498 5.72841 40.5534 5.65902C40.5519 5.58743 40.5683 5.5164 40.6021 5.45301C40.6354 5.38962 40.6844 5.33606 40.7444 5.29727C40.8982 5.2 41.0783 5.15191 41.2597 5.16066C41.4653 5.16393 41.6698 5.19508 41.8672 5.25246C42.0561 5.30164 42.2342 5.3847 42.393 5.49836L42.4372 5.53224V4.39617H42.41C42.2373 4.32951 42.0591 4.27815 41.8777 4.24263C41.686 4.2082 41.4918 4.18962 41.2973 4.18743C40.7989 4.16394 40.3077 4.31749 39.9118 4.62131C39.7412 4.74973 39.6037 4.91749 39.5113 5.10984C39.4186 5.30219 39.3734 5.51366 39.3794 5.72732C39.3685 5.93279 39.4059 6.13825 39.4887 6.32678C39.5717 6.5153 39.6981 6.68142 39.8571 6.81203C40.0793 6.97924 40.3226 7.11585 40.5807 7.21858C40.7878 7.30273 40.9906 7.39672 41.1882 7.50164C41.2881 7.56121 41.3801 7.63333 41.461 7.71694C41.5109 7.80109 41.5357 7.89836 41.533 7.99672C41.533 8.3377 41.2802 8.49453 40.7615 8.49453C40.5404 8.49235 40.3214 8.453 40.113 8.37869C39.8774 8.29727 39.6543 8.18251 39.4509 8.03716L39.4067 8V9.17377H39.4338C39.6377 9.26066 39.849 9.32787 40.0654 9.37541C40.2902 9.42131 40.5184 9.44863 40.7479 9.45683C41.2704 9.49016 41.7872 9.33497 42.2053 9.02022C42.3827 8.88907 42.5255 8.71694 42.6218 8.51858C42.718 8.32022 42.7648 8.10109 42.7582 7.88033C42.7697 7.56831 42.6664 7.2623 42.4679 7.02077C42.1524 6.75519 41.7949 6.54372 41.41 6.39563L41.4066 6.40929ZM37.2395 8.07487C37.12 8.21749 36.9682 8.33006 36.7966 8.40219C36.6249 8.47432 36.4388 8.50547 36.2533 8.49126C36.0606 8.50437 35.8676 8.47159 35.6898 8.39618C35.512 8.32131 35.3544 8.20492 35.2296 8.05792C34.9681 7.71311 34.8396 7.28525 34.8678 6.85356C34.8415 6.41421 34.9696 5.97978 35.2296 5.62459C35.3527 5.47978 35.5079 5.36558 35.6823 5.28962C35.8565 5.21421 36.0462 5.17923 36.2362 5.18798C36.4198 5.17814 36.6034 5.21039 36.7725 5.28252C36.9419 5.35465 37.0922 5.46503 37.2121 5.60383C37.4728 5.95629 37.6009 6.38908 37.5739 6.82623C37.5968 7.26831 37.4773 7.70601 37.2329 8.07487H37.2395ZM36.2975 4.21858C35.9408 4.19891 35.5841 4.25301 35.2494 4.37705C34.9147 4.50164 34.6093 4.69399 34.3523 4.94208C34.113 5.20874 33.929 5.52077 33.812 5.85956C33.6944 6.19836 33.6462 6.55683 33.6696 6.91476C33.6532 7.25683 33.7049 7.59836 33.822 7.92022C33.9395 8.24207 34.1196 8.53716 34.3523 8.78852C34.8755 9.24044 35.5461 9.48524 36.2377 9.47759C36.9291 9.4694 37.5938 9.2082 38.1064 8.74372C38.5821 8.20984 38.8276 7.50929 38.789 6.79508C38.8276 6.10219 38.5896 5.42186 38.1271 4.90437C37.8873 4.66831 37.6004 4.48524 37.2851 4.36776C36.9701 4.25027 36.6333 4.20055 36.2975 4.22186V4.21858ZM33.1067 4.23224C32.8158 4.22896 32.533 4.32787 32.308 4.51202C32.1029 4.69836 31.9479 4.93333 31.8574 5.19453V4.31421H30.67V9.33115H31.8474V6.76776C31.8271 6.39344 31.9287 6.02186 32.1372 5.70984C32.2198 5.58361 32.3326 5.47978 32.4655 5.4082C32.5988 5.33661 32.7475 5.29946 32.8984 5.30055C33.0131 5.30875 33.1272 5.32459 33.24 5.34809C33.339 5.37049 33.4336 5.40984 33.5194 5.46394L33.5672 5.50218V4.32405H33.5401C33.4007 4.26284 33.2483 4.23552 33.0963 4.2459L33.1067 4.23224ZM29.2364 4.26284C29.0189 4.21694 28.7971 4.1929 28.5744 4.19126C28.076 4.1776 27.583 4.29563 27.1445 4.53224C26.7449 4.75847 26.4192 5.09508 26.2059 5.50218C25.9754 5.94863 25.8582 6.44591 25.8646 6.94864C25.8599 7.4011 25.969 7.847 26.182 8.2459C26.3831 8.62459 26.6918 8.93607 27.0694 9.13989C27.466 9.35574 27.9114 9.46503 28.3629 9.45683C28.8579 9.4694 29.3476 9.35191 29.7826 9.11585V8.0306L29.7382 8.06831C29.5653 8.19727 29.3727 8.29727 29.168 8.36503C28.9879 8.43169 28.7975 8.46831 28.6052 8.47432C28.4007 8.48798 28.1962 8.45629 28.0054 8.38088C27.815 8.30601 27.6433 8.19017 27.5027 8.04099C27.2168 7.71366 27.07 7.28744 27.0935 6.85356C27.0666 6.40711 27.2162 5.9683 27.5097 5.63169C27.6521 5.48306 27.8239 5.36612 28.0145 5.28853C28.2049 5.21093 28.4098 5.17432 28.6152 5.18087C29.0201 5.18688 29.4127 5.31967 29.7382 5.55956L29.7826 5.59727V4.44754C29.6031 4.36722 29.4153 4.30656 29.2229 4.26667L29.2364 4.26284ZM24.4861 2.19126C24.3002 2.18907 24.1211 2.26011 23.9877 2.38907C23.9237 2.45301 23.8729 2.52842 23.838 2.61148C23.8035 2.69454 23.7858 2.78361 23.7858 2.87377C23.7858 2.96394 23.8035 3.05301 23.838 3.13662C23.8729 3.21968 23.9237 3.29508 23.9877 3.35847C24.0535 3.4224 24.1315 3.47213 24.2174 3.50492C24.303 3.53771 24.3943 3.55301 24.4861 3.54973C24.6699 3.55027 24.8475 3.48197 24.9841 3.35847C25.0503 3.29727 25.1032 3.22295 25.1393 3.13989C25.1749 3.05683 25.1931 2.96776 25.1923 2.8776C25.192 2.78634 25.1735 2.69618 25.1376 2.61203C25.1017 2.52842 25.0498 2.45246 24.9841 2.38907C24.9188 2.32404 24.8409 2.27323 24.7553 2.23935C24.6695 2.20547 24.5781 2.18907 24.4861 2.19126ZM23.8886 4.3071H25.049V9.32405H23.8886V4.3071ZM19.2951 6.7235L18.9537 7.64863H18.9401C18.8585 7.33934 18.7533 7.03716 18.6261 6.74427L16.8788 2.34809H15.1724V9.34481H16.302V5.03443C16.302 4.7612 16.302 4.4541 16.302 4.07213C16.302 3.88416 16.2747 3.7306 16.2678 3.63169H16.2951C16.3347 3.83443 16.3893 4.03388 16.4589 4.22896L18.5578 9.34809H19.3531L21.435 4.19836C21.4898 4.01749 21.5355 3.83388 21.5714 3.64864H21.5987C21.5714 4.16394 21.5545 4.62459 21.5441 4.90437V9.34098H22.7488V2.34809H21.0868L19.2951 6.7235Z" fill="#6C6D70"/>
<path d="M0 -3.33786e-06H5.54945V5.54918H0V-3.33786e-06Z" fill="#EF3F21"/>
<path d="M6.14331 -3.33786e-06H11.6754V5.54918H6.14331V-3.33786e-06Z" fill="#73C12D"/>
<path d="M0 6.12623H5.54945V11.6754H0V6.12623Z" fill="#50A0DD"/>
<path d="M6.14331 6.12623H11.6754V11.6754H6.14331V6.12623Z" fill="#F8B00B"/>
</g>
<defs>
<linearGradient id="paint0_linear_42_53" x1="149.3" y1="68.3563" x2="171.282" y2="41.0295" gradientUnits="userSpaceOnUse">
<stop stop-color="#50A1DE"/>
<stop offset="1" stop-color="#82D6ED"/>
</linearGradient>
<clipPath id="clip0_42_53">
<rect width="200" height="69.3989" fill="white"/>
</clipPath>
</defs>
</svg>
