<svg xmlns="http://www.w3.org/2000/svg" xmlns:xlink="http://www.w3.org/1999/xlink" width="1080" zoomAndPan="magnify" viewBox="0 0 810 809.999993" height="1080" preserveAspectRatio="xMidYMid meet" version="1.0"><defs><clipPath id="a751079564"><path d="M 76.164062 428 L 211 428 L 211 660 L 76.164062 660 Z M 76.164062 428 " clip-rule="nonzero"/></clipPath><clipPath id="a1a0476c8c"><path d="M 685 220 L 733.914062 220 L 733.914062 333 L 685 333 Z M 685 220 " clip-rule="nonzero"/></clipPath><clipPath id="6b410dcec9"><path d="M 287 62.316406 L 481 62.316406 L 481 91 L 287 91 Z M 287 62.316406 " clip-rule="nonzero"/></clipPath><clipPath id="44a749a1bf"><path d="M 355 637 L 462 637 L 462 747.816406 L 355 747.816406 Z M 355 637 " clip-rule="nonzero"/></clipPath><clipPath id="c79e394c2e"><path d="M 76.164062 264 L 268 264 L 268 466 L 76.164062 466 Z M 76.164062 264 " clip-rule="nonzero"/></clipPath></defs><g clip-path="url(#a751079564)"><path fill="#3c7530" d="M 207.234375 659.5625 C 206.5 659.5625 205.761719 659.332031 205.132812 658.847656 C 195.058594 651.117188 185.320312 642.710938 176.191406 633.875 C 174.820312 632.546875 174.785156 630.359375 176.109375 628.992188 C 177.4375 627.621094 179.625 627.585938 180.992188 628.910156 C 189.9375 637.566406 199.472656 645.796875 209.339844 653.371094 C 210.851562 654.53125 211.136719 656.699219 209.976562 658.210938 C 209.296875 659.097656 208.269531 659.5625 207.234375 659.5625 Z M 152.957031 607.023438 C 151.957031 607.023438 150.96875 606.59375 150.285156 605.761719 C 142.222656 595.933594 134.644531 585.542969 127.761719 574.875 C 126.730469 573.269531 127.191406 571.132812 128.792969 570.101562 C 130.394531 569.066406 132.53125 569.527344 133.566406 571.132812 C 140.304688 581.578125 147.726562 591.757812 155.625 601.378906 C 156.832031 602.851562 156.621094 605.027344 155.144531 606.238281 C 154.503906 606.765625 153.726562 607.023438 152.957031 607.023438 Z M 112.03125 543.535156 C 110.757812 543.535156 109.53125 542.828125 108.929688 541.609375 C 103.3125 530.203125 98.308594 518.355469 94.054688 506.394531 C 93.414062 504.597656 94.351562 502.625 96.148438 501.984375 C 97.945312 501.347656 99.921875 502.285156 100.558594 504.082031 C 104.726562 515.792969 109.625 527.390625 115.125 538.558594 C 115.96875 540.269531 115.261719 542.339844 113.550781 543.179688 C 113.0625 543.421875 112.542969 543.535156 112.03125 543.535156 Z M 86.710938 472.382812 C 85.136719 472.382812 83.714844 471.300781 83.347656 469.703125 C 80.507812 457.339844 78.351562 444.664062 76.949219 432.019531 C 76.738281 430.125 78.101562 428.417969 80 428.207031 C 81.894531 427.992188 83.601562 429.359375 83.8125 431.257812 C 85.1875 443.636719 87.296875 456.050781 90.078125 468.152344 C 90.503906 470.011719 89.34375 471.867188 87.488281 472.292969 C 87.226562 472.351562 86.964844 472.382812 86.710938 472.382812 Z M 86.710938 472.382812 " fill-opacity="1" fill-rule="nonzero"/></g><path fill="#3c7530" d="M 630.207031 640.652344 C 629.277344 640.652344 628.347656 640.277344 627.667969 639.535156 C 626.375 638.132812 626.464844 635.949219 627.871094 634.65625 C 637.027344 626.234375 645.800781 617.191406 653.9375 607.777344 C 655.183594 606.335938 657.363281 606.175781 658.804688 607.425781 C 660.25 608.671875 660.40625 610.851562 659.160156 612.296875 C 650.851562 621.90625 641.898438 631.140625 632.542969 639.738281 C 631.882812 640.347656 631.042969 640.652344 630.207031 640.652344 Z M 679.613281 583.5 C 678.941406 583.5 678.265625 583.304688 677.671875 582.898438 C 676.09375 581.824219 675.6875 579.675781 676.761719 578.101562 C 683.777344 567.8125 690.261719 557.011719 696.039062 546.003906 C 696.925781 544.316406 699.011719 543.664062 700.699219 544.550781 C 702.390625 545.4375 703.039062 547.527344 702.152344 549.214844 C 696.253906 560.457031 689.632812 571.484375 682.46875 581.992188 C 681.800781 582.972656 680.714844 583.5 679.613281 583.5 Z M 714.714844 516.601562 C 714.300781 516.601562 713.882812 516.527344 713.472656 516.367188 C 711.695312 515.683594 710.808594 513.683594 711.492188 511.90625 C 715.964844 500.292969 719.804688 488.296875 722.902344 476.25 C 723.378906 474.402344 725.261719 473.289062 727.105469 473.765625 C 728.953125 474.238281 730.066406 476.121094 729.589844 477.96875 C 726.425781 490.273438 722.503906 502.527344 717.9375 514.386719 C 717.410156 515.757812 716.101562 516.601562 714.714844 516.601562 Z M 714.714844 516.601562 " fill-opacity="1" fill-rule="nonzero"/><g clip-path="url(#a1a0476c8c)"><path fill="#3c7530" d="M 730.058594 332.738281 C 728.449219 332.738281 727.011719 331.609375 726.679688 329.96875 C 724.210938 317.769531 721.003906 305.589844 717.148438 293.773438 C 716.554688 291.957031 717.546875 290.007812 719.359375 289.417969 C 721.171875 288.824219 723.121094 289.816406 723.710938 291.628906 C 727.652344 303.699219 730.925781 316.140625 733.449219 328.601562 C 733.824219 330.46875 732.617188 332.292969 730.746094 332.667969 C 730.515625 332.714844 730.285156 332.738281 730.058594 332.738281 Z M 706.632812 260.925781 C 705.324219 260.925781 704.074219 260.179688 703.496094 258.917969 C 698.300781 247.625 692.382812 236.503906 685.910156 225.867188 C 684.917969 224.238281 685.4375 222.113281 687.066406 221.121094 C 688.695312 220.128906 690.820312 220.648438 691.8125 222.277344 C 698.421875 233.140625 704.460938 244.496094 709.769531 256.03125 C 710.566406 257.761719 709.804688 259.8125 708.074219 260.609375 C 707.605469 260.824219 707.117188 260.925781 706.632812 260.925781 Z M 706.632812 260.925781 " fill-opacity="1" fill-rule="nonzero"/></g><g clip-path="url(#6b410dcec9)"><path fill="#3c7530" d="M 290.507812 90.605469 C 289.113281 90.605469 287.800781 89.757812 287.277344 88.378906 C 286.601562 86.597656 287.496094 84.601562 289.277344 83.925781 C 301.15625 79.40625 313.421875 75.539062 325.742188 72.425781 C 327.589844 71.957031 329.46875 73.078125 329.933594 74.929688 C 330.402344 76.777344 329.28125 78.652344 327.433594 79.121094 C 315.371094 82.167969 303.359375 85.957031 291.734375 90.378906 C 291.328125 90.535156 290.914062 90.605469 290.507812 90.605469 Z M 476.679688 76.5 C 476.441406 76.5 476.199219 76.476562 475.953125 76.425781 C 463.808594 73.824219 451.359375 71.90625 438.953125 70.714844 C 437.054688 70.53125 435.664062 68.847656 435.84375 66.949219 C 436.027344 65.050781 437.714844 63.660156 439.613281 63.839844 C 452.28125 65.054688 464.992188 67.015625 477.398438 69.671875 C 479.261719 70.070312 480.453125 71.90625 480.050781 73.769531 C 479.707031 75.390625 478.273438 76.5 476.679688 76.5 Z M 363.738281 72.09375 C 362.035156 72.09375 360.550781 70.832031 360.320312 69.09375 C 360.070312 67.203125 361.398438 65.46875 363.289062 65.21875 C 375.847656 63.550781 388.671875 62.589844 401.410156 62.363281 C 403.308594 62.320312 404.890625 63.847656 404.925781 65.753906 C 404.960938 67.660156 403.441406 69.230469 401.535156 69.265625 C 389.058594 69.488281 376.496094 70.429688 364.199219 72.0625 C 364.042969 72.082031 363.890625 72.09375 363.738281 72.09375 Z M 363.738281 72.09375 " fill-opacity="1" fill-rule="nonzero"/></g><path fill="#ddffd2" d="M 649.125 394.886719 C 649.125 398.839844 649.027344 402.792969 648.832031 406.742188 C 648.640625 410.691406 648.347656 414.636719 647.960938 418.570312 C 647.574219 422.507812 647.089844 426.429688 646.507812 430.34375 C 645.929688 434.253906 645.253906 438.148438 644.480469 442.027344 C 643.710938 445.90625 642.84375 449.765625 641.882812 453.601562 C 640.921875 457.4375 639.867188 461.246094 638.71875 465.03125 C 637.570312 468.816406 636.332031 472.570312 635 476.292969 C 633.667969 480.019531 632.242188 483.707031 630.730469 487.359375 C 629.214844 491.015625 627.613281 494.628906 625.921875 498.203125 C 624.234375 501.777344 622.457031 505.308594 620.589844 508.796875 C 618.726562 512.285156 616.777344 515.726562 614.746094 519.117188 C 612.710938 522.511719 610.597656 525.851562 608.398438 529.136719 C 606.203125 532.425781 603.925781 535.660156 601.570312 538.835938 C 599.214844 542.011719 596.78125 545.128906 594.273438 548.1875 C 591.765625 551.242188 589.179688 554.238281 586.527344 557.167969 C 583.871094 560.097656 581.144531 562.960938 578.347656 565.757812 C 575.550781 568.554688 572.6875 571.28125 569.757812 573.933594 C 566.828125 576.589844 563.832031 579.171875 560.777344 581.683594 C 557.71875 584.191406 554.601562 586.625 551.425781 588.980469 C 548.25 591.335938 545.015625 593.613281 541.730469 595.808594 C 538.441406 598.007812 535.101562 600.121094 531.707031 602.15625 C 528.316406 604.1875 524.875 606.136719 521.386719 608 C 517.902344 609.863281 514.367188 611.640625 510.792969 613.332031 C 507.21875 615.023438 503.605469 616.625 499.949219 618.140625 C 496.296875 619.652344 492.609375 621.074219 488.886719 622.410156 C 485.160156 623.742188 481.40625 624.980469 477.621094 626.128906 C 473.839844 627.277344 470.027344 628.332031 466.191406 629.292969 C 462.355469 630.253906 458.496094 631.121094 454.621094 631.890625 C 450.742188 632.664062 446.84375 633.339844 442.933594 633.917969 C 439.019531 634.5 435.097656 634.984375 431.160156 635.371094 C 427.226562 635.757812 423.28125 636.050781 419.332031 636.242188 C 415.382812 636.4375 411.429688 636.535156 407.476562 636.535156 C 403.519531 636.535156 399.570312 636.4375 395.617188 636.242188 C 391.667969 636.050781 387.726562 635.757812 383.789062 635.371094 C 379.855469 634.984375 375.929688 634.5 372.019531 633.917969 C 368.105469 633.339844 364.210938 632.664062 360.332031 631.890625 C 356.453125 631.121094 352.597656 630.253906 348.761719 629.292969 C 344.921875 628.332031 341.113281 627.277344 337.328125 626.128906 C 333.542969 624.980469 329.789062 623.742188 326.066406 622.410156 C 322.34375 621.074219 318.65625 619.652344 315 618.140625 C 311.347656 616.625 307.734375 615.023438 304.15625 613.332031 C 300.582031 611.644531 297.050781 609.863281 293.5625 608 C 290.074219 606.136719 286.636719 604.1875 283.242188 602.15625 C 279.851562 600.121094 276.511719 598.007812 273.222656 595.808594 C 269.933594 593.613281 266.703125 591.335938 263.527344 588.980469 C 260.347656 586.625 257.234375 584.191406 254.175781 581.683594 C 251.117188 579.171875 248.125 576.589844 245.195312 573.933594 C 242.265625 571.28125 239.402344 568.554688 236.605469 565.757812 C 233.808594 562.960938 231.082031 560.097656 228.425781 557.167969 C 225.769531 554.238281 223.1875 551.242188 220.679688 548.1875 C 218.171875 545.128906 215.738281 542.011719 213.382812 538.835938 C 211.027344 535.660156 208.75 532.425781 206.550781 529.136719 C 204.355469 525.851562 202.238281 522.511719 200.207031 519.117188 C 198.171875 515.726562 196.226562 512.285156 194.359375 508.796875 C 192.496094 505.308594 190.71875 501.777344 189.027344 498.203125 C 187.335938 494.628906 185.734375 491.015625 184.222656 487.359375 C 182.707031 483.707031 181.285156 480.019531 179.953125 476.292969 C 178.621094 472.570312 177.378906 468.816406 176.234375 465.03125 C 175.085938 461.246094 174.03125 457.4375 173.070312 453.601562 C 172.109375 449.765625 171.242188 445.90625 170.46875 442.027344 C 169.699219 438.148438 169.023438 434.253906 168.441406 430.34375 C 167.863281 426.429688 167.378906 422.507812 166.992188 418.570312 C 166.601562 414.636719 166.3125 410.691406 166.117188 406.742188 C 165.925781 402.792969 165.828125 398.839844 165.828125 394.886719 C 165.828125 390.929688 165.925781 386.980469 166.117188 383.027344 C 166.3125 379.078125 166.601562 375.136719 166.992188 371.199219 C 167.378906 367.265625 167.863281 363.339844 168.441406 359.429688 C 169.023438 355.515625 169.699219 351.621094 170.46875 347.742188 C 171.242188 343.863281 172.109375 340.007812 173.070312 336.167969 C 174.03125 332.332031 175.085938 328.523438 176.234375 324.738281 C 177.378906 320.953125 178.621094 317.199219 179.953125 313.476562 C 181.285156 309.753906 182.707031 306.0625 184.222656 302.410156 C 185.734375 298.757812 187.335938 295.140625 189.027344 291.566406 C 190.71875 287.992188 192.496094 284.460938 194.359375 280.972656 C 196.226562 277.484375 198.171875 274.046875 200.207031 270.652344 C 202.238281 267.261719 204.355469 263.921875 206.550781 260.632812 C 208.75 257.34375 211.027344 254.113281 213.382812 250.9375 C 215.738281 247.757812 218.171875 244.640625 220.679688 241.585938 C 223.1875 238.527344 225.769531 235.535156 228.425781 232.605469 C 231.082031 229.675781 233.808594 226.8125 236.605469 224.015625 C 239.402344 221.21875 242.265625 218.492188 245.195312 215.835938 C 248.125 213.179688 251.117188 210.597656 254.175781 208.089844 C 257.234375 205.578125 260.347656 203.148438 263.527344 200.792969 C 266.703125 198.4375 269.933594 196.160156 273.222656 193.960938 C 276.511719 191.765625 279.851562 189.648438 283.242188 187.617188 C 286.636719 185.582031 290.074219 183.636719 293.5625 181.769531 C 297.050781 179.90625 300.582031 178.128906 304.15625 176.4375 C 307.734375 174.746094 311.347656 173.144531 315 171.632812 C 318.65625 170.117188 322.34375 168.695312 326.066406 167.363281 C 329.789062 166.03125 333.542969 164.789062 337.328125 163.640625 C 341.113281 162.496094 344.921875 161.441406 348.761719 160.480469 C 352.597656 159.519531 356.453125 158.652344 360.332031 157.878906 C 364.210938 157.109375 368.105469 156.433594 372.019531 155.851562 C 375.929688 155.273438 379.855469 154.789062 383.789062 154.402344 C 387.726562 154.011719 391.667969 153.722656 395.617188 153.527344 C 399.570312 153.335938 403.519531 153.238281 407.476562 153.238281 C 411.429688 153.238281 415.382812 153.335938 419.332031 153.527344 C 423.28125 153.722656 427.226562 154.011719 431.160156 154.402344 C 435.097656 154.789062 439.019531 155.273438 442.933594 155.851562 C 446.84375 156.433594 450.742188 157.109375 454.621094 157.878906 C 458.496094 158.652344 462.355469 159.519531 466.191406 160.480469 C 470.027344 161.441406 473.839844 162.496094 477.621094 163.640625 C 481.40625 164.789062 485.160156 166.03125 488.886719 167.363281 C 492.609375 168.695312 496.296875 170.117188 499.949219 171.632812 C 503.605469 173.144531 507.21875 174.746094 510.792969 176.4375 C 514.367188 178.128906 517.902344 179.90625 521.386719 181.769531 C 524.875 183.636719 528.316406 185.582031 531.707031 187.617188 C 535.101562 189.648438 538.441406 191.765625 541.730469 193.960938 C 545.015625 196.160156 548.25 198.4375 551.425781 200.792969 C 554.601562 203.148438 557.71875 205.578125 560.777344 208.089844 C 563.832031 210.597656 566.828125 213.179688 569.757812 215.835938 C 572.6875 218.492188 575.550781 221.21875 578.347656 224.015625 C 581.144531 226.8125 583.871094 229.675781 586.527344 232.605469 C 589.179688 235.535156 591.765625 238.527344 594.273438 241.585938 C 596.78125 244.640625 599.214844 247.757812 601.570312 250.9375 C 603.925781 254.113281 606.203125 257.34375 608.398438 260.632812 C 610.597656 263.921875 612.710938 267.261719 614.746094 270.652344 C 616.777344 274.046875 618.726562 277.484375 620.589844 280.972656 C 622.457031 284.460938 624.234375 287.992188 625.921875 291.566406 C 627.613281 295.140625 629.214844 298.757812 630.730469 302.410156 C 632.242188 306.0625 633.667969 309.753906 635 313.476562 C 636.332031 317.199219 637.570312 320.953125 638.71875 324.738281 C 639.867188 328.523438 640.921875 332.332031 641.882812 336.167969 C 642.84375 340.007812 643.710938 343.863281 644.480469 347.742188 C 645.253906 351.621094 645.929688 355.515625 646.507812 359.429688 C 647.089844 363.339844 647.574219 367.265625 647.960938 371.199219 C 648.347656 375.136719 648.640625 379.078125 648.832031 383.027344 C 649.027344 386.980469 649.125 390.929688 649.125 394.886719 Z M 649.125 394.886719 " fill-opacity="1" fill-rule="nonzero"/><path fill="#3c7530" d="M 281.023438 632.582031 C 279.117188 632.582031 277.570312 631.035156 277.570312 629.128906 L 277.570312 525.167969 C 277.570312 519 282.601562 513.980469 288.789062 513.980469 L 350.640625 513.980469 C 352.546875 513.980469 354.09375 515.527344 354.09375 517.433594 C 354.09375 519.339844 352.546875 520.886719 350.640625 520.886719 L 288.789062 520.886719 C 286.410156 520.886719 284.476562 522.808594 284.476562 525.167969 L 284.476562 629.128906 C 284.476562 631.035156 282.929688 632.582031 281.023438 632.582031 Z M 281.023438 632.582031 " fill-opacity="1" fill-rule="nonzero"/><path fill="#3c7530" d="M 536.542969 632.582031 C 534.636719 632.582031 533.089844 631.035156 533.089844 629.128906 L 533.089844 525.167969 C 533.089844 522.808594 531.15625 520.886719 528.777344 520.886719 L 463.824219 520.886719 C 461.917969 520.886719 460.371094 519.339844 460.371094 517.433594 C 460.371094 515.527344 461.917969 513.980469 463.824219 513.980469 L 528.777344 513.980469 C 534.964844 513.980469 539.996094 519 539.996094 525.167969 L 539.996094 629.128906 C 539.996094 631.035156 538.449219 632.582031 536.542969 632.582031 Z M 536.542969 632.582031 " fill-opacity="1" fill-rule="nonzero"/><path fill="#3c7530" d="M 408.449219 655.671875 C 406.542969 655.671875 405 654.128906 405 652.21875 L 405 592.394531 C 405 590.488281 406.542969 588.941406 408.449219 588.941406 C 410.359375 588.941406 411.902344 590.488281 411.902344 592.394531 L 411.902344 652.21875 C 411.902344 654.128906 410.359375 655.671875 408.449219 655.671875 Z M 408.449219 655.671875 " fill-opacity="1" fill-rule="nonzero"/><path fill="#ffffff" d="M 587.476562 634.832031 C 587.476562 636.523438 587.394531 638.210938 587.234375 639.894531 C 587.074219 641.582031 586.835938 643.253906 586.515625 644.914062 C 586.199219 646.574219 585.800781 648.210938 585.328125 649.832031 C 584.851562 651.453125 584.300781 653.042969 583.675781 654.605469 C 583.050781 656.171875 582.351562 657.699219 581.582031 659.191406 C 580.8125 660.683594 579.972656 662.132812 579.0625 663.542969 C 578.15625 664.949219 577.183594 666.304688 576.144531 667.613281 C 575.109375 668.921875 574.011719 670.175781 572.855469 671.371094 C 571.699219 672.570312 570.492188 673.703125 569.226562 674.777344 C 567.964844 675.851562 566.652344 676.859375 565.292969 677.796875 C 563.933594 678.738281 562.53125 679.609375 561.089844 680.40625 C 559.648438 681.203125 558.171875 681.925781 556.664062 682.574219 C 555.152344 683.222656 553.617188 683.792969 552.050781 684.28125 C 550.488281 684.773438 548.902344 685.183594 547.300781 685.515625 C 545.695312 685.84375 544.082031 686.09375 542.453125 686.257812 C 540.828125 686.425781 539.195312 686.507812 537.5625 686.507812 C 535.925781 686.507812 534.296875 686.425781 532.667969 686.257812 C 531.042969 686.09375 529.425781 685.84375 527.824219 685.515625 C 526.222656 685.183594 524.636719 684.773438 523.074219 684.28125 C 521.507812 683.792969 519.972656 683.222656 518.460938 682.574219 C 516.949219 681.925781 515.472656 681.203125 514.03125 680.40625 C 512.589844 679.609375 511.191406 678.738281 509.832031 677.796875 C 508.472656 676.859375 507.160156 675.851562 505.898438 674.777344 C 504.632812 673.703125 503.421875 672.570312 502.265625 671.371094 C 501.113281 670.175781 500.015625 668.921875 498.976562 667.613281 C 497.941406 666.304688 496.96875 664.949219 496.058594 663.542969 C 495.152344 662.132812 494.3125 660.683594 493.542969 659.191406 C 492.769531 657.699219 492.074219 656.171875 491.445312 654.605469 C 490.820312 653.042969 490.273438 651.453125 489.796875 649.832031 C 489.324219 648.210938 488.925781 646.574219 488.605469 644.914062 C 488.289062 643.253906 488.046875 641.582031 487.886719 639.894531 C 487.726562 638.210938 487.648438 636.523438 487.648438 634.832031 C 487.648438 633.136719 487.726562 631.449219 487.886719 629.765625 C 488.046875 628.082031 488.289062 626.410156 488.605469 624.75 C 488.925781 623.089844 489.324219 621.449219 489.796875 619.832031 C 490.273438 618.210938 490.820312 616.617188 491.445312 615.054688 C 492.074219 613.492188 492.769531 611.964844 493.542969 610.472656 C 494.3125 608.976562 495.152344 607.527344 496.058594 606.121094 C 496.96875 604.714844 497.941406 603.355469 498.976562 602.046875 C 500.015625 600.738281 501.113281 599.488281 502.265625 598.289062 C 503.421875 597.09375 504.632812 595.957031 505.898438 594.882812 C 507.160156 593.8125 508.472656 592.804688 509.832031 591.863281 C 511.191406 590.921875 512.589844 590.054688 514.03125 589.257812 C 515.472656 588.457031 516.949219 587.734375 518.460938 587.089844 C 519.972656 586.441406 521.507812 585.871094 523.074219 585.378906 C 524.636719 584.886719 526.222656 584.476562 527.824219 584.148438 C 529.425781 583.816406 531.042969 583.570312 532.667969 583.402344 C 534.296875 583.238281 535.925781 583.15625 537.5625 583.15625 C 539.195312 583.15625 540.828125 583.238281 542.453125 583.402344 C 544.082031 583.570312 545.695312 583.816406 547.300781 584.148438 C 548.902344 584.476562 550.488281 584.886719 552.050781 585.378906 C 553.617188 585.871094 555.152344 586.441406 556.664062 587.089844 C 558.171875 587.734375 559.648438 588.457031 561.089844 589.257812 C 562.53125 590.054688 563.933594 590.921875 565.292969 591.863281 C 566.652344 592.804688 567.964844 593.8125 569.226562 594.882812 C 570.492188 595.957031 571.699219 597.09375 572.855469 598.289062 C 574.011719 599.488281 575.109375 600.738281 576.144531 602.046875 C 577.183594 603.355469 578.15625 604.714844 579.0625 606.121094 C 579.972656 607.527344 580.8125 608.976562 581.582031 610.472656 C 582.351562 611.964844 583.050781 613.492188 583.675781 615.054688 C 584.300781 616.617188 584.851562 618.210938 585.328125 619.832031 C 585.800781 621.449219 586.199219 623.089844 586.515625 624.75 C 586.835938 626.410156 587.074219 628.082031 587.234375 629.765625 C 587.394531 631.449219 587.476562 633.136719 587.476562 634.832031 Z M 587.476562 634.832031 " fill-opacity="1" fill-rule="nonzero"/><path fill="#3c7530" d="M 537.5625 689.960938 C 508.136719 689.960938 484.195312 665.230469 484.195312 634.832031 C 484.195312 604.433594 508.136719 579.703125 537.5625 579.703125 C 566.988281 579.703125 590.929688 604.433594 590.929688 634.832031 C 590.929688 665.230469 566.988281 689.960938 537.5625 689.960938 Z M 537.5625 586.605469 C 511.941406 586.605469 491.101562 608.238281 491.101562 634.832031 C 491.101562 661.421875 511.945312 683.054688 537.5625 683.054688 C 563.179688 683.054688 584.023438 661.421875 584.023438 634.832031 C 584.023438 608.242188 563.179688 586.605469 537.5625 586.605469 Z M 537.5625 586.605469 " fill-opacity="1" fill-rule="nonzero"/><path fill="#ffffff" d="M 458.367188 692.546875 C 458.367188 694.238281 458.285156 695.925781 458.125 697.609375 C 457.964844 699.292969 457.726562 700.964844 457.40625 702.625 C 457.085938 704.285156 456.691406 705.925781 456.214844 707.546875 C 455.742188 709.164062 455.191406 710.757812 454.566406 712.320312 C 453.941406 713.882812 453.242188 715.414062 452.472656 716.90625 C 451.699219 718.398438 450.859375 719.847656 449.953125 721.253906 C 449.042969 722.664062 448.070312 724.019531 447.035156 725.328125 C 446 726.636719 444.902344 727.890625 443.746094 729.085938 C 442.589844 730.28125 441.378906 731.417969 440.117188 732.492188 C 438.851562 733.566406 437.542969 734.574219 436.183594 735.511719 C 434.824219 736.453125 433.421875 737.320312 431.980469 738.121094 C 430.539062 738.917969 429.0625 739.640625 427.550781 740.289062 C 426.042969 740.9375 424.503906 741.503906 422.941406 741.996094 C 421.375 742.488281 419.792969 742.898438 418.1875 743.230469 C 416.585938 743.558594 414.96875 743.808594 413.34375 743.972656 C 411.714844 744.140625 410.085938 744.222656 408.449219 744.222656 C 406.816406 744.222656 405.183594 744.140625 403.558594 743.972656 C 401.929688 743.808594 400.316406 743.558594 398.714844 743.230469 C 397.109375 742.898438 395.527344 742.488281 393.960938 741.996094 C 392.398438 741.503906 390.859375 740.9375 389.347656 740.289062 C 387.839844 739.640625 386.363281 738.917969 384.921875 738.121094 C 383.480469 737.320312 382.078125 736.453125 380.71875 735.511719 C 379.359375 734.574219 378.050781 733.566406 376.785156 732.492188 C 375.523438 731.417969 374.3125 730.28125 373.15625 729.085938 C 372 727.890625 370.902344 726.636719 369.867188 725.328125 C 368.828125 724.019531 367.855469 722.664062 366.949219 721.253906 C 366.039062 719.847656 365.199219 718.398438 364.429688 716.90625 C 363.660156 715.414062 362.960938 713.882812 362.335938 712.320312 C 361.710938 710.757812 361.160156 709.164062 360.6875 707.546875 C 360.210938 705.925781 359.816406 704.285156 359.496094 702.625 C 359.175781 700.964844 358.9375 699.292969 358.777344 697.609375 C 358.617188 695.925781 358.535156 694.238281 358.535156 692.546875 C 358.535156 690.851562 358.617188 689.164062 358.777344 687.480469 C 358.9375 685.796875 359.175781 684.125 359.496094 682.464844 C 359.816406 680.804688 360.210938 679.164062 360.6875 677.542969 C 361.160156 675.925781 361.710938 674.332031 362.335938 672.769531 C 362.960938 671.207031 363.660156 669.675781 364.429688 668.183594 C 365.199219 666.691406 366.039062 665.242188 366.949219 663.835938 C 367.855469 662.425781 368.828125 661.070312 369.867188 659.761719 C 370.902344 658.453125 372 657.199219 373.15625 656.003906 C 374.3125 654.808594 375.523438 653.671875 376.785156 652.597656 C 378.050781 651.523438 379.359375 650.519531 380.71875 649.578125 C 382.078125 648.636719 383.480469 647.769531 384.921875 646.96875 C 386.363281 646.171875 387.839844 645.449219 389.347656 644.800781 C 390.859375 644.152344 392.398438 643.585938 393.960938 643.09375 C 395.527344 642.601562 397.109375 642.191406 398.714844 641.859375 C 400.316406 641.53125 401.929688 641.28125 403.558594 641.117188 C 405.183594 640.953125 406.816406 640.867188 408.449219 640.867188 C 410.085938 640.867188 411.714844 640.953125 413.34375 641.117188 C 414.96875 641.28125 416.585938 641.53125 418.1875 641.859375 C 419.792969 642.191406 421.375 642.601562 422.941406 643.09375 C 424.503906 643.585938 426.042969 644.152344 427.550781 644.800781 C 429.0625 645.449219 430.539062 646.171875 431.980469 646.96875 C 433.421875 647.769531 434.824219 648.636719 436.183594 649.578125 C 437.542969 650.519531 438.851562 651.523438 440.117188 652.597656 C 441.378906 653.671875 442.589844 654.808594 443.746094 656.003906 C 444.902344 657.199219 446 658.453125 447.035156 659.761719 C 448.070312 661.070312 449.042969 662.425781 449.953125 663.835938 C 450.859375 665.242188 451.699219 666.691406 452.472656 668.183594 C 453.242188 669.675781 453.941406 671.207031 454.566406 672.769531 C 455.191406 674.332031 455.742188 675.925781 456.214844 677.542969 C 456.691406 679.164062 457.085938 680.804688 457.40625 682.464844 C 457.726562 684.125 457.964844 685.796875 458.125 687.480469 C 458.285156 689.164062 458.367188 690.851562 458.367188 692.546875 Z M 458.367188 692.546875 " fill-opacity="1" fill-rule="nonzero"/><g clip-path="url(#44a749a1bf)"><path fill="#3c7530" d="M 408.449219 747.675781 C 379.023438 747.675781 355.082031 722.945312 355.082031 692.546875 C 355.082031 662.148438 379.023438 637.414062 408.449219 637.414062 C 437.878906 637.414062 461.816406 662.144531 461.816406 692.546875 C 461.816406 722.945312 437.878906 747.675781 408.449219 747.675781 Z M 408.449219 644.320312 C 382.832031 644.320312 361.988281 665.953125 361.988281 692.542969 C 361.988281 719.136719 382.832031 740.769531 408.449219 740.769531 C 434.070312 740.769531 454.914062 719.136719 454.914062 692.542969 C 454.914062 665.953125 434.070312 644.320312 408.449219 644.320312 Z M 408.449219 644.320312 " fill-opacity="1" fill-rule="nonzero"/></g><path fill="#ffffff" d="M 330.9375 634.832031 C 330.9375 636.523438 330.859375 638.210938 330.695312 639.894531 C 330.535156 641.582031 330.296875 643.253906 329.976562 644.914062 C 329.660156 646.574219 329.261719 648.210938 328.789062 649.832031 C 328.3125 651.453125 327.761719 653.042969 327.136719 654.605469 C 326.511719 656.171875 325.8125 657.699219 325.042969 659.191406 C 324.273438 660.683594 323.433594 662.132812 322.527344 663.542969 C 321.617188 664.949219 320.644531 666.304688 319.609375 667.613281 C 318.570312 668.921875 317.472656 670.175781 316.316406 671.371094 C 315.160156 672.570312 313.953125 673.703125 312.6875 674.777344 C 311.425781 675.851562 310.113281 676.859375 308.753906 677.796875 C 307.394531 678.738281 305.996094 679.609375 304.550781 680.40625 C 303.109375 681.203125 301.636719 681.925781 300.125 682.574219 C 298.613281 683.222656 297.078125 683.792969 295.511719 684.28125 C 293.949219 684.773438 292.363281 685.183594 290.761719 685.515625 C 289.15625 685.84375 287.542969 686.09375 285.914062 686.257812 C 284.289062 686.425781 282.65625 686.507812 281.023438 686.507812 C 279.386719 686.507812 277.757812 686.425781 276.128906 686.257812 C 274.503906 686.09375 272.890625 685.84375 271.285156 685.515625 C 269.683594 685.183594 268.097656 684.773438 266.535156 684.28125 C 264.96875 683.792969 263.433594 683.222656 261.921875 682.574219 C 260.410156 681.925781 258.933594 681.203125 257.492188 680.40625 C 256.050781 679.609375 254.652344 678.738281 253.292969 677.796875 C 251.933594 676.859375 250.621094 675.851562 249.359375 674.777344 C 248.09375 673.703125 246.882812 672.570312 245.726562 671.371094 C 244.574219 670.175781 243.476562 668.921875 242.4375 667.613281 C 241.402344 666.304688 240.429688 664.949219 239.519531 663.542969 C 238.613281 662.132812 237.773438 660.683594 237.003906 659.191406 C 236.230469 657.699219 235.535156 656.171875 234.910156 654.605469 C 234.28125 653.042969 233.734375 651.453125 233.257812 649.832031 C 232.785156 648.210938 232.386719 646.574219 232.066406 644.914062 C 231.75 643.253906 231.507812 641.582031 231.347656 639.894531 C 231.1875 638.210938 231.109375 636.523438 231.109375 634.832031 C 231.109375 633.136719 231.1875 631.449219 231.347656 629.765625 C 231.507812 628.082031 231.75 626.410156 232.066406 624.75 C 232.386719 623.089844 232.785156 621.449219 233.257812 619.832031 C 233.734375 618.210938 234.28125 616.617188 234.910156 615.054688 C 235.535156 613.492188 236.230469 611.964844 237.003906 610.472656 C 237.773438 608.976562 238.613281 607.527344 239.519531 606.121094 C 240.429688 604.714844 241.402344 603.355469 242.4375 602.046875 C 243.476562 600.738281 244.574219 599.488281 245.726562 598.289062 C 246.882812 597.09375 248.09375 595.957031 249.359375 594.882812 C 250.621094 593.8125 251.933594 592.804688 253.292969 591.863281 C 254.652344 590.921875 256.050781 590.054688 257.492188 589.257812 C 258.933594 588.457031 260.410156 587.734375 261.921875 587.089844 C 263.433594 586.441406 264.96875 585.871094 266.535156 585.378906 C 268.097656 584.886719 269.683594 584.476562 271.285156 584.148438 C 272.890625 583.816406 274.503906 583.570312 276.128906 583.402344 C 277.757812 583.238281 279.386719 583.15625 281.023438 583.15625 C 282.65625 583.15625 284.289062 583.238281 285.914062 583.402344 C 287.542969 583.570312 289.15625 583.816406 290.761719 584.148438 C 292.363281 584.476562 293.949219 584.886719 295.511719 585.378906 C 297.078125 585.871094 298.613281 586.441406 300.125 587.089844 C 301.636719 587.734375 303.109375 588.457031 304.550781 589.257812 C 305.996094 590.054688 307.394531 590.921875 308.753906 591.863281 C 310.113281 592.804688 311.425781 593.8125 312.6875 594.882812 C 313.953125 595.957031 315.160156 597.09375 316.316406 598.289062 C 317.472656 599.488281 318.570312 600.738281 319.609375 602.046875 C 320.644531 603.355469 321.617188 604.714844 322.527344 606.121094 C 323.433594 607.527344 324.273438 608.976562 325.042969 610.472656 C 325.8125 611.964844 326.511719 613.492188 327.136719 615.054688 C 327.761719 616.617188 328.3125 618.210938 328.789062 619.832031 C 329.261719 621.449219 329.660156 623.089844 329.976562 624.75 C 330.296875 626.410156 330.535156 628.082031 330.695312 629.765625 C 330.859375 631.449219 330.9375 633.136719 330.9375 634.832031 Z M 330.9375 634.832031 " fill-opacity="1" fill-rule="nonzero"/><path fill="#3c7530" d="M 281.023438 689.960938 C 251.597656 689.960938 227.65625 665.230469 227.65625 634.832031 C 227.65625 604.433594 251.597656 579.703125 281.023438 579.703125 C 310.449219 579.703125 334.390625 604.433594 334.390625 634.832031 C 334.390625 665.230469 310.449219 689.960938 281.023438 689.960938 Z M 281.023438 586.605469 C 255.40625 586.605469 234.5625 608.238281 234.5625 634.832031 C 234.5625 661.421875 255.40625 683.054688 281.023438 683.054688 C 306.640625 683.054688 327.484375 661.421875 327.484375 634.832031 C 327.484375 608.242188 306.640625 586.605469 281.023438 586.605469 Z M 281.023438 586.605469 " fill-opacity="1" fill-rule="nonzero"/><path fill="#91cd7f" d="M 481.242188 477.78125 C 478.644531 473.207031 475.636719 469.011719 472.367188 465.128906 L 482.289062 439.824219 C 476.605469 434.535156 470.316406 429.738281 463.34375 425.640625 C 456.371094 421.546875 449.117188 418.390625 441.730469 415.996094 L 424.449219 436.996094 C 414.402344 435.027344 403.988281 434.933594 393.707031 436.773438 L 376.734375 415.503906 C 369.3125 417.785156 362.011719 420.832031 354.976562 424.820312 C 347.945312 428.808594 341.585938 433.515625 335.820312 438.714844 L 345.367188 464.191406 C 338.511719 472.078125 333.257812 481.066406 329.785156 490.699219 L 302.894531 494.757812 C 301.160156 502.324219 300.148438 510.171875 300.082031 518.257812 C 300.023438 526.34375 300.917969 534.203125 302.539062 541.796875 L 329.351562 546.265625 C 331.007812 551.0625 333.0625 555.796875 335.660156 560.371094 C 338.257812 564.949219 341.265625 569.144531 344.535156 573.03125 L 334.613281 598.332031 C 340.296875 603.621094 346.585938 608.421875 353.554688 612.515625 C 360.527344 616.609375 367.785156 619.765625 375.171875 622.160156 L 392.453125 601.160156 C 402.5 603.125 412.910156 603.222656 423.195312 601.382812 L 440.164062 622.652344 C 447.585938 620.371094 454.886719 617.324219 461.921875 613.335938 C 468.953125 609.347656 475.316406 604.640625 481.082031 599.441406 L 471.53125 573.960938 C 478.390625 566.082031 483.644531 557.089844 487.113281 547.457031 L 514.003906 543.394531 C 515.742188 535.832031 516.753906 527.984375 516.816406 519.898438 C 516.878906 511.8125 515.984375 503.953125 514.363281 496.359375 L 487.550781 491.890625 C 485.894531 487.089844 483.839844 482.363281 481.242188 477.78125 Z M 481.242188 477.78125 " fill-opacity="1" fill-rule="nonzero"/><path fill="#3c7530" d="M 440.167969 626.105469 C 439.132812 626.105469 438.132812 625.640625 437.46875 624.804688 L 421.765625 605.125 C 412.441406 606.566406 403.066406 606.5 393.828125 604.921875 L 377.835938 624.355469 C 376.9375 625.449219 375.457031 625.882812 374.105469 625.445312 C 366.183594 622.878906 358.683594 619.53125 351.808594 615.496094 C 344.933594 611.453125 338.359375 606.53125 332.261719 600.859375 C 331.222656 599.894531 330.878906 598.390625 331.398438 597.070312 L 340.582031 573.65625 C 337.546875 569.890625 334.886719 566.003906 332.65625 562.074219 C 330.429688 558.148438 328.457031 553.867188 326.78125 549.335938 L 301.972656 545.203125 C 300.574219 544.96875 299.460938 543.902344 299.164062 542.515625 C 297.421875 534.375 296.570312 526.203125 296.628906 518.230469 C 296.691406 510.257812 297.667969 502.101562 299.53125 493.988281 C 299.847656 492.605469 300.976562 491.554688 302.378906 491.34375 L 327.261719 487.585938 C 330.648438 478.847656 335.402344 470.761719 341.421875 463.503906 L 332.589844 439.925781 C 332.089844 438.601562 332.457031 437.101562 333.507812 436.152344 C 339.691406 430.574219 346.339844 425.75 353.273438 421.820312 C 360.199219 417.886719 367.753906 414.652344 375.71875 412.203125 C 377.074219 411.789062 378.546875 412.242188 379.433594 413.351562 L 395.140625 433.03125 C 404.464844 431.585938 413.84375 431.652344 423.074219 433.234375 L 439.066406 413.804688 C 439.96875 412.707031 441.445312 412.273438 442.796875 412.710938 C 450.714844 415.277344 458.214844 418.625 465.09375 422.664062 C 471.972656 426.707031 478.550781 431.628906 484.640625 437.296875 C 485.679688 438.261719 486.019531 439.761719 485.503906 441.082031 L 476.324219 464.5 C 479.351562 468.257812 482.011719 472.144531 484.242188 476.074219 C 484.242188 476.078125 484.242188 476.078125 484.242188 476.078125 C 486.476562 480.011719 488.449219 484.289062 490.121094 488.820312 L 514.929688 492.953125 C 516.328125 493.1875 517.441406 494.253906 517.738281 495.640625 C 519.480469 503.789062 520.332031 511.957031 520.269531 519.921875 C 520.207031 527.898438 519.230469 536.054688 517.371094 544.167969 C 517.050781 545.550781 515.921875 546.597656 514.519531 546.808594 L 489.640625 550.570312 C 486.253906 559.3125 481.5 567.394531 475.476562 574.648438 L 484.316406 598.230469 C 484.8125 599.558594 484.445312 601.054688 483.394531 602.003906 C 477.199219 607.589844 470.546875 612.410156 463.625 616.335938 C 456.691406 620.269531 449.136719 623.507812 441.179688 625.953125 C 440.847656 626.054688 440.503906 626.105469 440.167969 626.105469 Z M 423.199219 597.929688 C 424.238281 597.929688 425.234375 598.402344 425.898438 599.230469 L 441.382812 618.640625 C 448.042969 616.4375 454.367188 613.648438 460.21875 610.332031 C 466.058594 607.019531 471.699219 603.019531 477.011719 598.425781 L 468.296875 575.171875 C 467.855469 573.984375 468.09375 572.648438 468.925781 571.695312 C 475.480469 564.164062 480.507812 555.617188 483.867188 546.289062 C 484.296875 545.09375 485.34375 544.234375 486.597656 544.042969 L 511.140625 540.335938 C 512.5625 533.472656 513.3125 526.597656 513.367188 519.871094 C 513.414062 513.152344 512.773438 506.269531 511.449219 499.375 L 486.980469 495.296875 C 485.734375 495.089844 484.699219 494.214844 484.285156 493.015625 C 482.589844 488.09375 480.609375 483.667969 478.238281 479.484375 C 475.894531 475.363281 473.03125 471.28125 469.726562 467.351562 C 468.910156 466.382812 468.691406 465.046875 469.152344 463.867188 L 478.207031 440.773438 C 472.976562 436.109375 467.398438 432.027344 461.59375 428.617188 C 455.796875 425.210938 449.511719 422.328125 442.886719 420.027344 L 427.117188 439.191406 C 426.308594 440.167969 425.03125 440.628906 423.785156 440.382812 C 414.070312 438.480469 404.152344 438.410156 394.316406 440.171875 C 393.066406 440.394531 391.796875 439.917969 391.007812 438.925781 L 375.519531 419.515625 C 368.851562 421.71875 362.527344 424.507812 356.683594 427.824219 C 350.832031 431.140625 345.195312 435.140625 339.890625 439.730469 L 348.601562 462.980469 C 349.046875 464.167969 348.804688 465.5 347.976562 466.457031 C 341.421875 473.996094 336.394531 482.542969 333.035156 491.867188 C 332.605469 493.0625 331.554688 493.921875 330.300781 494.113281 L 305.761719 497.816406 C 304.335938 504.6875 303.589844 511.558594 303.535156 518.28125 C 303.488281 525.007812 304.128906 531.890625 305.453125 538.78125 L 329.917969 542.859375 C 331.167969 543.066406 332.203125 543.941406 332.613281 545.136719 C 334.292969 549.996094 336.328125 554.546875 338.664062 558.667969 C 341.035156 562.84375 343.816406 566.816406 347.179688 570.804688 C 347.992188 571.773438 348.214844 573.109375 347.75 574.289062 L 338.695312 597.378906 C 343.929688 602.046875 349.511719 606.132812 355.308594 609.539062 C 361.105469 612.945312 367.390625 615.828125 374.015625 618.128906 L 389.789062 598.964844 C 390.59375 597.988281 391.871094 597.53125 393.117188 597.773438 C 402.839844 599.671875 412.757812 599.742188 422.589844 597.984375 C 422.792969 597.949219 422.996094 597.929688 423.199219 597.929688 Z M 423.199219 597.929688 " fill-opacity="1" fill-rule="nonzero"/><path fill="#3c7530" d="M 420.300781 560.105469 L 396.601562 560.105469 C 387.355469 560.105469 379.832031 552.585938 379.832031 543.339844 L 379.832031 535.738281 C 379.832031 533.832031 381.378906 532.285156 383.285156 532.285156 C 385.191406 532.285156 386.738281 533.832031 386.738281 535.738281 L 386.738281 543.339844 C 386.738281 548.777344 391.164062 553.199219 396.601562 553.199219 L 420.300781 553.199219 C 425.738281 553.199219 430.164062 548.777344 430.164062 543.339844 L 430.164062 532.394531 C 430.164062 526.957031 425.738281 522.53125 420.300781 522.53125 L 396.601562 522.53125 C 387.355469 522.53125 379.832031 515.007812 379.832031 505.761719 L 379.832031 494.816406 C 379.832031 485.570312 387.355469 478.050781 396.601562 478.050781 L 420.300781 478.050781 C 429.546875 478.050781 437.070312 485.570312 437.070312 494.816406 L 437.070312 502.183594 C 437.070312 504.089844 435.523438 505.636719 433.617188 505.636719 C 431.710938 505.636719 430.164062 504.089844 430.164062 502.183594 L 430.164062 494.816406 C 430.164062 489.378906 425.738281 484.957031 420.300781 484.957031 L 396.601562 484.957031 C 391.164062 484.957031 386.738281 489.378906 386.738281 494.816406 L 386.738281 505.761719 C 386.738281 511.199219 391.164062 515.625 396.601562 515.625 L 420.300781 515.625 C 429.546875 515.625 437.070312 523.148438 437.070312 532.394531 L 437.070312 543.339844 C 437.070312 552.585938 429.546875 560.105469 420.300781 560.105469 Z M 420.300781 560.105469 " fill-opacity="1" fill-rule="nonzero"/><path fill="#3c7530" d="M 408.449219 577.851562 C 406.542969 577.851562 405 576.304688 405 574.398438 L 405 556.652344 C 405 554.746094 406.542969 553.199219 408.449219 553.199219 C 410.359375 553.199219 411.902344 554.746094 411.902344 556.652344 L 411.902344 574.398438 C 411.902344 576.304688 410.359375 577.851562 408.449219 577.851562 Z M 408.449219 577.851562 " fill-opacity="1" fill-rule="nonzero"/><path fill="#3c7530" d="M 408.449219 484.953125 C 406.542969 484.953125 405 483.410156 405 481.5 L 405 463.757812 C 405 461.851562 406.542969 460.304688 408.449219 460.304688 C 410.359375 460.304688 411.902344 461.851562 411.902344 463.757812 L 411.902344 481.5 C 411.902344 483.40625 410.359375 484.953125 408.449219 484.953125 Z M 408.449219 484.953125 " fill-opacity="1" fill-rule="nonzero"/><path fill="#3c7530" d="M 544.273438 659.558594 L 530.851562 659.558594 C 524.789062 659.558594 519.859375 654.628906 519.859375 648.566406 L 519.859375 644.265625 C 519.859375 642.355469 521.40625 640.8125 523.3125 640.8125 C 525.21875 640.8125 526.765625 642.355469 526.765625 644.265625 L 526.765625 648.566406 C 526.765625 650.820312 528.597656 652.65625 530.851562 652.65625 L 544.273438 652.65625 C 546.527344 652.65625 548.359375 650.820312 548.359375 648.566406 L 548.359375 642.371094 C 548.359375 640.117188 546.527344 638.285156 544.273438 638.285156 L 530.851562 638.285156 C 524.789062 638.285156 519.859375 633.351562 519.859375 627.292969 L 519.859375 621.09375 C 519.859375 615.03125 524.789062 610.101562 530.851562 610.101562 L 544.273438 610.101562 C 550.332031 610.101562 555.265625 615.03125 555.265625 621.09375 L 555.265625 625.265625 C 555.265625 627.171875 553.71875 628.714844 551.8125 628.714844 C 549.90625 628.714844 548.359375 627.171875 548.359375 625.265625 L 548.359375 621.09375 C 548.359375 618.839844 546.527344 617.007812 544.273438 617.007812 L 530.851562 617.007812 C 528.597656 617.007812 526.765625 618.839844 526.765625 621.09375 L 526.765625 627.292969 C 526.765625 629.542969 528.597656 631.378906 530.851562 631.378906 L 544.273438 631.378906 C 550.332031 631.378906 555.265625 636.308594 555.265625 642.371094 L 555.265625 648.566406 C 555.265625 654.628906 550.332031 659.558594 544.273438 659.558594 Z M 544.273438 659.558594 " fill-opacity="1" fill-rule="nonzero"/><path fill="#3c7530" d="M 537.5625 669.609375 C 535.65625 669.609375 534.109375 668.0625 534.109375 666.15625 L 534.109375 656.105469 C 534.109375 654.199219 535.65625 652.65625 537.5625 652.65625 C 539.46875 652.65625 541.015625 654.199219 541.015625 656.105469 L 541.015625 666.15625 C 541.015625 668.0625 539.46875 669.609375 537.5625 669.609375 Z M 537.5625 669.609375 " fill-opacity="1" fill-rule="nonzero"/><path fill="#3c7530" d="M 537.5625 617.007812 C 535.65625 617.007812 534.109375 615.460938 534.109375 613.554688 L 534.109375 603.507812 C 534.109375 601.601562 535.65625 600.054688 537.5625 600.054688 C 539.46875 600.054688 541.015625 601.601562 541.015625 603.507812 L 541.015625 613.554688 C 541.015625 615.460938 539.46875 617.007812 537.5625 617.007812 Z M 537.5625 617.007812 " fill-opacity="1" fill-rule="nonzero"/><path fill="#3c7530" d="M 415.160156 717.273438 L 401.742188 717.273438 C 395.679688 717.273438 390.75 712.34375 390.75 706.28125 L 390.75 701.976562 C 390.75 700.070312 392.292969 698.527344 394.199219 698.527344 C 396.109375 698.527344 397.652344 700.070312 397.652344 701.976562 L 397.652344 706.28125 C 397.652344 708.535156 399.488281 710.371094 401.742188 710.371094 L 415.160156 710.371094 C 417.414062 710.371094 419.246094 708.535156 419.246094 706.28125 L 419.246094 700.085938 C 419.246094 697.832031 417.414062 695.996094 415.160156 695.996094 L 401.742188 695.996094 C 395.679688 695.996094 390.75 691.066406 390.75 685.003906 L 390.75 678.808594 C 390.75 672.746094 395.679688 667.816406 401.742188 667.816406 L 415.160156 667.816406 C 421.222656 667.816406 426.152344 672.746094 426.152344 678.808594 L 426.152344 682.976562 C 426.152344 684.886719 424.605469 686.429688 422.699219 686.429688 C 420.792969 686.429688 419.246094 684.886719 419.246094 682.976562 L 419.246094 678.808594 C 419.246094 676.554688 417.414062 674.722656 415.160156 674.722656 L 401.742188 674.722656 C 399.488281 674.722656 397.652344 676.554688 397.652344 678.808594 L 397.652344 685.003906 C 397.652344 687.257812 399.488281 689.09375 401.742188 689.09375 L 415.160156 689.09375 C 421.222656 689.09375 426.152344 694.023438 426.152344 700.085938 L 426.152344 706.28125 C 426.152344 712.34375 421.222656 717.273438 415.160156 717.273438 Z M 415.160156 717.273438 " fill-opacity="1" fill-rule="nonzero"/><path fill="#3c7530" d="M 408.449219 727.320312 C 406.542969 727.320312 405 725.777344 405 723.867188 L 405 713.820312 C 405 711.914062 406.542969 710.367188 408.449219 710.367188 C 410.359375 710.367188 411.902344 711.914062 411.902344 713.820312 L 411.902344 723.867188 C 411.902344 725.777344 410.359375 727.320312 408.449219 727.320312 Z M 408.449219 727.320312 " fill-opacity="1" fill-rule="nonzero"/><path fill="#3c7530" d="M 408.449219 674.71875 C 406.542969 674.71875 405 673.175781 405 671.265625 L 405 661.222656 C 405 659.3125 406.542969 657.769531 408.449219 657.769531 C 410.359375 657.769531 411.902344 659.3125 411.902344 661.222656 L 411.902344 671.265625 C 411.902344 673.175781 410.359375 674.71875 408.449219 674.71875 Z M 408.449219 674.71875 " fill-opacity="1" fill-rule="nonzero"/><path fill="#3c7530" d="M 287.734375 659.558594 L 274.3125 659.558594 C 268.25 659.558594 263.320312 654.628906 263.320312 648.566406 L 263.320312 644.265625 C 263.320312 642.355469 264.867188 640.8125 266.773438 640.8125 C 268.679688 640.8125 270.226562 642.355469 270.226562 644.265625 L 270.226562 648.566406 C 270.226562 650.820312 272.058594 652.65625 274.3125 652.65625 L 287.734375 652.65625 C 289.988281 652.65625 291.820312 650.820312 291.820312 648.566406 L 291.820312 642.371094 C 291.820312 640.117188 289.988281 638.285156 287.734375 638.285156 L 274.3125 638.285156 C 268.25 638.285156 263.320312 633.351562 263.320312 627.292969 L 263.320312 621.09375 C 263.320312 615.03125 268.25 610.101562 274.3125 610.101562 L 287.734375 610.101562 C 293.792969 610.101562 298.726562 615.03125 298.726562 621.09375 L 298.726562 625.265625 C 298.726562 627.171875 297.179688 628.714844 295.273438 628.714844 C 293.367188 628.714844 291.820312 627.171875 291.820312 625.265625 L 291.820312 621.09375 C 291.820312 618.839844 289.988281 617.007812 287.734375 617.007812 L 274.3125 617.007812 C 272.058594 617.007812 270.226562 618.839844 270.226562 621.09375 L 270.226562 627.292969 C 270.226562 629.542969 272.058594 631.378906 274.3125 631.378906 L 287.734375 631.378906 C 293.792969 631.378906 298.726562 636.308594 298.726562 642.371094 L 298.726562 648.566406 C 298.726562 654.628906 293.792969 659.558594 287.734375 659.558594 Z M 287.734375 659.558594 " fill-opacity="1" fill-rule="nonzero"/><path fill="#3c7530" d="M 281.023438 669.609375 C 279.117188 669.609375 277.570312 668.0625 277.570312 666.15625 L 277.570312 656.105469 C 277.570312 654.199219 279.117188 652.65625 281.023438 652.65625 C 282.929688 652.65625 284.476562 654.199219 284.476562 656.105469 L 284.476562 666.15625 C 284.476562 668.0625 282.929688 669.609375 281.023438 669.609375 Z M 281.023438 669.609375 " fill-opacity="1" fill-rule="nonzero"/><path fill="#3c7530" d="M 281.023438 617.007812 C 279.117188 617.007812 277.570312 615.460938 277.570312 613.554688 L 277.570312 603.507812 C 277.570312 601.601562 279.117188 600.054688 281.023438 600.054688 C 282.929688 600.054688 284.476562 601.601562 284.476562 603.507812 L 284.476562 613.554688 C 284.476562 615.460938 282.929688 617.007812 281.023438 617.007812 Z M 281.023438 617.007812 " fill-opacity="1" fill-rule="nonzero"/><path fill="#ffffff" d="M 534.953125 170.628906 C 535.796875 168.75 536.753906 166.933594 537.820312 165.191406 Z M 534.953125 170.628906 " fill-opacity="1" fill-rule="nonzero"/><path fill="#3c7530" d="M 534.949219 174.082031 C 534.476562 174.082031 534 173.984375 533.539062 173.78125 C 531.800781 173 531.023438 170.957031 531.800781 169.21875 C 532.699219 167.21875 533.730469 165.257812 534.875 163.390625 C 535.867188 161.761719 537.996094 161.25 539.621094 162.246094 C 541.25 163.242188 541.761719 165.367188 540.765625 166.992188 C 539.773438 168.613281 538.878906 170.3125 538.101562 172.042969 C 537.527344 173.324219 536.269531 174.082031 534.949219 174.082031 Z M 534.949219 174.082031 " fill-opacity="1" fill-rule="nonzero"/><path fill="#ffffff" d="M 509.613281 184.40625 C 515.71875 181.601562 501.804688 130.542969 584.75 134.453125 C 607.128906 135.511719 621.636719 157.71875 625.703125 180.449219 C 625.90625 180.34375 626.210938 180.355469 626.589844 180.449219 L 631.867188 180.449219 C 651.082031 180.449219 666.800781 196.167969 666.800781 215.382812 C 666.800781 223.769531 663.804688 231.488281 658.832031 237.523438 C 633.902344 252.230469 609.070312 263.605469 584.507812 265.304688 C 576.414062 268.625 566.613281 270.394531 555.324219 270.394531 C 531.710938 270.394531 512.179688 261.671875 508.886719 250.3125 L 498.15625 250.3125 C 478.945312 250.3125 463.226562 234.59375 463.226562 215.382812 C 463.226562 204.144531 468.605469 194.105469 476.917969 187.707031 C 485.417969 185.640625 476.3125 184.835938 509.613281 184.40625 Z M 509.613281 184.40625 " fill-opacity="1" fill-rule="nonzero"/><path fill="#3c7530" d="M 658.832031 240.96875 C 658.058594 240.96875 657.28125 240.710938 656.636719 240.179688 C 655.164062 238.96875 654.957031 236.792969 656.167969 235.320312 C 660.804688 229.695312 663.355469 222.613281 663.355469 215.378906 C 663.355469 198.019531 649.230469 183.894531 631.871094 183.894531 L 626.59375 183.894531 C 626.445312 183.894531 626.296875 183.886719 626.148438 183.867188 C 625.425781 183.960938 624.675781 183.824219 624.023438 183.460938 C 623.023438 182.90625 622.367188 181.894531 622.261719 180.757812 C 620.878906 165.582031 614.496094 153.480469 603.804688 145.765625 C 592.792969 137.8125 577.859375 135.265625 562.835938 138.769531 L 562.175781 138.925781 C 536.78125 144.847656 516.722656 149.527344 513.046875 184.765625 C 512.9375 185.835938 512.328125 186.796875 511.40625 187.355469 C 510.484375 187.917969 509.351562 188.015625 508.347656 187.617188 C 494.796875 182.273438 482.203125 188.617188 478.667969 190.691406 C 471.273438 195.011719 466.683594 204.472656 466.683594 215.378906 C 466.683594 217.847656 466.96875 220.289062 467.53125 222.632812 C 467.976562 224.484375 466.835938 226.351562 464.980469 226.796875 C 463.128906 227.242188 461.261719 226.101562 460.816406 224.246094 C 460.128906 221.375 459.777344 218.390625 459.777344 215.378906 C 459.777344 202.027344 465.679688 190.285156 475.179688 184.730469 C 479.035156 182.472656 491.945312 175.957031 506.710938 179.828125 C 512.128906 143.503906 535.703125 138.007812 560.605469 132.199219 L 561.265625 132.046875 C 578.238281 128.085938 595.214844 131.046875 607.847656 140.164062 C 619.445312 148.535156 626.640625 161.222656 628.785156 176.988281 L 631.871094 176.988281 C 653.039062 176.988281 670.261719 194.210938 670.261719 215.378906 C 670.261719 224.214844 667.148438 232.855469 661.496094 239.710938 C 660.816406 240.539062 659.828125 240.96875 658.832031 240.96875 Z M 658.832031 240.96875 " fill-opacity="1" fill-rule="nonzero"/><path fill="#3c7530" d="M 555.324219 273.847656 C 543.511719 273.847656 532.070312 271.695312 523.105469 267.78125 C 514.90625 264.199219 509.121094 259.292969 506.519531 253.765625 L 504.554688 253.765625 C 502.648438 253.765625 501.101562 252.222656 501.101562 250.3125 C 501.101562 248.40625 502.648438 246.859375 504.554688 246.859375 L 508.890625 246.859375 C 510.425781 246.859375 511.777344 247.878906 512.207031 249.355469 C 513.496094 253.816406 518.476562 258.226562 525.871094 261.453125 C 533.980469 264.992188 544.441406 266.941406 555.324219 266.941406 C 566.007812 266.941406 575.386719 265.316406 583.199219 262.109375 C 584.964844 261.382812 586.980469 262.226562 587.703125 263.992188 C 588.429688 265.757812 587.585938 267.773438 585.820312 268.496094 C 577.171875 272.046875 566.910156 273.847656 555.324219 273.847656 Z M 555.324219 273.847656 " fill-opacity="1" fill-rule="nonzero"/><path fill="#50d634" d="M 621.285156 315.617188 C 621.285156 287.339844 606.226562 257.902344 584.257812 248.8125 L 584.359375 248.679688 C 592.234375 245.304688 599.535156 239.828125 604.742188 233.4375 C 629.410156 246.875 647.992188 279.855469 647.992188 315.617188 Z M 621.285156 315.617188 " fill-opacity="1" fill-rule="nonzero"/><path fill="#3c7530" d="M 647.992188 319.070312 C 646.085938 319.070312 644.539062 317.523438 644.539062 315.617188 C 644.539062 283.410156 628.605469 251.917969 605.488281 237.851562 C 601.605469 242.101562 596.914062 245.84375 591.800781 248.800781 C 600.476562 254.101562 608.222656 262.617188 614.046875 273.375 C 620.941406 286.113281 624.738281 301.117188 624.738281 315.617188 C 624.738281 317.523438 623.191406 319.070312 621.285156 319.070312 C 619.378906 319.070312 617.832031 317.523438 617.832031 315.617188 C 617.832031 287.582031 602.832031 260.234375 582.9375 252.003906 C 581.953125 251.597656 581.210938 250.753906 580.929688 249.726562 C 580.644531 248.695312 580.855469 247.59375 581.496094 246.742188 L 581.597656 246.605469 C 581.960938 246.121094 582.445312 245.742188 583 245.503906 C 590.382812 242.34375 597.152344 237.28125 602.066406 231.253906 C 603.117188 229.964844 604.9375 229.609375 606.394531 230.40625 C 619.109375 237.328125 630.566406 249.445312 638.660156 264.523438 C 647.023438 280.097656 651.445312 297.769531 651.445312 315.617188 C 651.445312 317.523438 649.898438 319.070312 647.992188 319.070312 Z M 647.992188 319.070312 " fill-opacity="1" fill-rule="nonzero"/><path fill="#91cd7f" d="M 647.992188 315.617188 C 647.992188 279.855469 629.410156 246.875 604.742188 233.4375 C 609.648438 227.449219 612.71875 220.65625 612.71875 214.0625 C 612.71875 213.757812 612.71875 213.4375 612.703125 213.136719 C 647.082031 229.945312 671.78125 266.566406 671.78125 315.617188 Z M 647.992188 315.617188 " fill-opacity="1" fill-rule="nonzero"/><path fill="#3c7530" d="M 671.78125 319.070312 C 669.875 319.070312 668.328125 317.523438 668.328125 315.617188 C 668.328125 272.828125 648.78125 236.976562 615.765625 218.628906 C 614.957031 223.226562 612.953125 227.894531 609.828125 232.421875 C 621.164062 239.558594 631.300781 250.816406 638.660156 264.519531 C 647.023438 280.097656 651.445312 297.765625 651.445312 315.617188 C 651.445312 317.523438 649.898438 319.070312 647.992188 319.070312 C 646.085938 319.070312 644.539062 317.523438 644.539062 315.617188 C 644.539062 282.308594 627.496094 249.761719 603.089844 236.46875 C 602.1875 235.976562 601.550781 235.105469 601.355469 234.097656 C 601.15625 233.089844 601.421875 232.042969 602.074219 231.246094 C 606.710938 225.589844 609.265625 219.488281 609.265625 214.0625 C 609.265625 213.804688 609.265625 213.535156 609.253906 213.328125 C 609.1875 212.101562 609.773438 210.9375 610.792969 210.257812 C 611.8125 209.582031 613.117188 209.496094 614.21875 210.035156 C 632.296875 218.875 647.46875 232.871094 658.09375 250.503906 C 669.308594 269.125 675.234375 291.640625 675.234375 315.617188 C 675.234375 317.523438 673.6875 319.070312 671.78125 319.070312 Z M 671.78125 319.070312 " fill-opacity="1" fill-rule="nonzero"/><path fill="#50d634" d="M 452.792969 315.617188 C 452.792969 275.757812 464.496094 258.726562 478.675781 244.328125 C 484.253906 248.105469 490.964844 250.3125 498.148438 250.3125 L 504.554688 250.3125 C 491.136719 260.128906 477.324219 279.078125 478.675781 315.617188 Z M 452.792969 315.617188 " fill-opacity="1" fill-rule="nonzero"/><path fill="#3c7530" d="M 478.671875 319.070312 C 476.824219 319.070312 475.292969 317.605469 475.222656 315.742188 C 474.589844 298.597656 477.191406 283.703125 482.953125 271.472656 C 486.148438 264.6875 490.304688 258.730469 495.355469 253.664062 C 489.671875 253.25 484.179688 251.570312 479.214844 248.730469 C 467.320312 261.21875 456.246094 277.4375 456.246094 315.617188 C 456.246094 317.523438 454.699219 319.070312 452.792969 319.070312 C 450.886719 319.070312 449.339844 317.523438 449.339844 315.617188 C 449.339844 296.789062 451.925781 281.5625 457.238281 269.074219 C 462.457031 256.816406 469.757812 248.460938 476.214844 241.90625 C 477.382812 240.71875 479.230469 240.535156 480.609375 241.46875 C 485.824219 244.996094 491.886719 246.859375 498.148438 246.859375 L 504.554688 246.859375 C 506.050781 246.859375 507.375 247.820312 507.839844 249.242188 C 508.300781 250.660156 507.800781 252.21875 506.59375 253.101562 C 489.539062 265.570312 481.078125 287.144531 482.125 315.488281 C 482.195312 317.394531 480.707031 318.996094 478.800781 319.066406 C 478.757812 319.070312 478.714844 319.070312 478.671875 319.070312 Z M 478.671875 319.070312 " fill-opacity="1" fill-rule="nonzero"/><path fill="#91cd7f" d="M 430.488281 315.617188 C 430.488281 269.535156 443.335938 239.996094 464.175781 223.4375 C 466.230469 232.070312 471.527344 239.507812 478.675781 244.328125 C 464.496094 258.726562 452.792969 275.757812 452.792969 315.617188 Z M 430.488281 315.617188 " fill-opacity="1" fill-rule="nonzero"/><path fill="#3c7530" d="M 452.792969 319.070312 C 450.886719 319.070312 449.339844 317.523438 449.339844 315.617188 C 449.339844 296.789062 451.925781 281.5625 457.238281 269.074219 C 461.730469 258.515625 467.773438 250.851562 473.488281 244.738281 C 468.578125 240.621094 464.800781 235.378906 462.457031 229.457031 C 443.53125 246.980469 433.9375 275.933594 433.9375 315.617188 C 433.9375 317.523438 432.394531 319.070312 430.488281 319.070312 C 428.578125 319.070312 427.035156 317.523438 427.035156 315.617188 C 427.035156 271.105469 438.808594 239.183594 462.027344 220.734375 C 462.949219 220 464.1875 219.789062 465.300781 220.175781 C 466.417969 220.558594 467.261719 221.488281 467.535156 222.636719 C 469.367188 230.328125 474.007812 237.015625 480.605469 241.464844 C 481.457031 242.039062 482.007812 242.960938 482.109375 243.984375 C 482.210938 245.003906 481.855469 246.019531 481.136719 246.75 C 468.542969 259.539062 456.246094 275.390625 456.246094 315.617188 C 456.246094 317.523438 454.699219 319.070312 452.792969 319.070312 Z M 452.792969 319.070312 " fill-opacity="1" fill-rule="nonzero"/><path fill="#3c7530" d="M 671.785156 319.078125 C 669.878906 319.078125 668.335938 317.53125 668.335938 315.625 C 668.335938 270.882812 646.96875 233.730469 611.1875 216.246094 C 609.472656 215.40625 608.761719 213.339844 609.601562 211.625 C 610.4375 209.914062 612.503906 209.203125 614.21875 210.039062 C 632.300781 218.878906 647.476562 232.871094 658.097656 250.503906 C 669.3125 269.125 675.238281 291.640625 675.238281 315.625 C 675.238281 317.53125 673.695312 319.078125 671.785156 319.078125 Z M 671.785156 319.078125 " fill-opacity="1" fill-rule="nonzero"/><path fill="#ffffff" d="M 546.539062 194.992188 C 553.386719 185.921875 564.984375 179.953125 578.136719 179.953125 C 598.84375 179.953125 612.261719 194.707031 612.703125 213.136719 C 612.71875 213.4375 612.71875 213.757812 612.71875 214.0625 C 612.71875 220.65625 609.648438 227.449219 604.742188 233.4375 C 599.535156 239.828125 592.234375 245.304688 584.359375 248.679688 C 582.839844 249.335938 581.324219 249.890625 579.773438 250.382812 Z M 546.539062 194.992188 " fill-opacity="1" fill-rule="nonzero"/><path fill="#3c7530" d="M 579.773438 253.835938 C 578.304688 253.835938 576.945312 252.894531 576.480469 251.417969 C 575.90625 249.601562 576.914062 247.660156 578.734375 247.089844 C 580.242188 246.613281 581.628906 246.097656 582.984375 245.511719 C 590.378906 242.34375 597.152344 237.28125 602.066406 231.253906 C 606.710938 225.589844 609.265625 219.488281 609.265625 214.0625 C 609.265625 213.804688 609.265625 213.535156 609.253906 213.328125 C 609.253906 213.289062 609.25 213.253906 609.25 213.21875 C 608.832031 195.664062 596.039062 183.40625 578.136719 183.40625 C 566.535156 183.40625 555.753906 188.515625 549.296875 197.074219 C 548.148438 198.59375 545.980469 198.898438 544.460938 197.75 C 542.9375 196.601562 542.632812 194.4375 543.785156 192.914062 C 551.539062 182.636719 564.382812 176.5 578.136719 176.5 C 589.011719 176.5 598.457031 180.199219 605.460938 187.191406 C 612.105469 193.832031 615.902344 202.996094 616.152344 213.003906 C 616.171875 213.382812 616.171875 213.742188 616.171875 214.0625 C 616.171875 221.179688 613.140625 228.636719 607.414062 235.625 C 601.8125 242.496094 594.105469 248.261719 585.71875 251.851562 C 584.15625 252.53125 582.546875 253.128906 580.808594 253.675781 C 580.464844 253.785156 580.117188 253.835938 579.773438 253.835938 Z M 579.773438 253.835938 " fill-opacity="1" fill-rule="nonzero"/><path fill="#ffffff" d="M 543.535156 208.304688 C 543.535156 208.304688 537.292969 205.421875 535.339844 190.820312 C 534.339844 183.332031 531.996094 176.078125 528.140625 169.582031 C 527.757812 168.9375 527.386719 168.324219 527.035156 167.742188 C 525.023438 164.453125 522.714844 161.371094 520.355469 158.320312 C 513.519531 149.476562 509.628906 138.050781 510 125.992188 C 510.835938 98.746094 534.210938 77.042969 561.449219 78.113281 C 587.871094 79.148438 608.96875 100.894531 608.96875 127.570312 C 608.96875 139.210938 604.945312 149.992188 598.21875 158.457031 C 596.433594 160.707031 594.8125 163.070312 593.292969 165.507812 C 593.105469 165.808594 592.902344 166.136719 592.695312 166.480469 C 587.886719 174.40625 584.871094 183.25 583.371094 192.394531 C 581.199219 205.628906 575.410156 208.304688 575.410156 208.304688 Z M 543.535156 208.304688 " fill-opacity="1" fill-rule="nonzero"/><path fill="#3c7530" d="M 576.859375 211.4375 L 573.960938 205.167969 C 573.960938 205.167969 573.921875 205.183594 573.847656 205.226562 C 573.890625 205.203125 578.183594 202.683594 579.964844 191.835938 C 581.609375 181.8125 584.898438 172.679688 589.742188 164.691406 C 589.960938 164.332031 590.167969 163.992188 590.363281 163.679688 C 592.09375 160.910156 593.777344 158.5 595.515625 156.3125 C 601.964844 148.195312 605.519531 137.988281 605.519531 127.570312 C 605.519531 102.746094 586.101562 82.535156 561.3125 81.5625 C 549.035156 81.078125 537.25 85.5 528.128906 94.003906 C 519.039062 102.480469 513.828125 113.878906 513.453125 126.097656 C 513.117188 137.042969 516.539062 147.738281 523.089844 156.210938 C 525.273438 159.035156 527.789062 162.351562 529.980469 165.945312 C 530.34375 166.535156 530.71875 167.164062 531.109375 167.820312 C 535.085938 174.519531 537.660156 182.105469 538.765625 190.363281 C 540.378906 202.453125 545.050781 205.199219 545.101562 205.226562 C 545.027344 205.183594 544.984375 205.167969 544.984375 205.167969 L 542.089844 211.4375 C 541.273438 211.0625 534.058594 207.296875 531.917969 191.277344 C 530.941406 183.945312 528.667969 177.238281 525.171875 171.34375 C 524.796875 170.714844 524.433594 170.109375 524.085938 169.542969 C 522.078125 166.25 519.699219 163.113281 517.625 160.433594 C 510.097656 150.699219 506.164062 138.429688 506.550781 125.886719 C 506.980469 111.8125 512.972656 98.695312 523.421875 88.953125 C 533.898438 79.183594 547.453125 74.109375 561.585938 74.660156 C 575.28125 75.199219 588.074219 80.941406 597.605469 90.832031 C 607.160156 100.746094 612.421875 113.792969 612.421875 127.570312 C 612.421875 139.542969 608.339844 151.273438 600.925781 160.605469 C 599.351562 162.585938 597.8125 164.789062 596.222656 167.335938 C 596.039062 167.628906 595.847656 167.941406 595.648438 168.273438 C 591.265625 175.5 588.28125 183.804688 586.777344 192.953125 C 584.378906 207.574219 577.621094 211.085938 576.859375 211.4375 Z M 576.859375 211.4375 " fill-opacity="1" fill-rule="nonzero"/><path fill="#91cd7f" d="M 577.039062 208.304688 L 577.039062 227.214844 C 577.039062 230.386719 574.464844 232.960938 571.292969 232.960938 L 567.625 232.960938 L 567.625 236.085938 C 567.625 238.160156 565.941406 239.84375 563.863281 239.84375 L 555.082031 239.84375 C 553.003906 239.84375 551.324219 238.160156 551.324219 236.085938 L 551.324219 232.960938 L 546.171875 232.960938 C 543.816406 232.960938 541.90625 231.050781 541.90625 228.695312 L 541.90625 208.304688 Z M 577.039062 208.304688 " fill-opacity="1" fill-rule="nonzero"/><path fill="#3c7530" d="M 563.863281 243.296875 L 555.082031 243.296875 C 551.214844 243.296875 548.046875 240.238281 547.878906 236.414062 L 546.171875 236.414062 C 541.914062 236.414062 538.453125 232.949219 538.453125 228.695312 L 538.453125 208.304688 C 538.453125 206.398438 540 204.851562 541.90625 204.851562 L 577.039062 204.851562 C 578.945312 204.851562 580.492188 206.398438 580.492188 208.304688 L 580.492188 227.214844 C 580.492188 232.285156 576.367188 236.410156 571.292969 236.410156 L 571.070312 236.410156 C 570.898438 240.238281 567.730469 243.296875 563.863281 243.296875 Z M 545.359375 211.757812 L 545.359375 228.695312 C 545.359375 229.144531 545.722656 229.507812 546.171875 229.507812 L 551.324219 229.507812 C 553.230469 229.507812 554.777344 231.050781 554.777344 232.960938 L 554.777344 236.085938 C 554.777344 236.253906 554.914062 236.390625 555.082031 236.390625 L 563.863281 236.390625 C 564.035156 236.390625 564.171875 236.253906 564.171875 236.085938 L 564.171875 232.960938 C 564.171875 231.050781 565.71875 229.507812 567.625 229.507812 L 571.292969 229.507812 C 572.558594 229.507812 573.585938 228.476562 573.585938 227.214844 L 573.585938 211.757812 Z M 545.359375 211.757812 " fill-opacity="1" fill-rule="nonzero"/><path fill="#ffffff" d="M 575.425781 169.203125 L 567.054688 182.140625 L 564.761719 208.304688 Z M 575.425781 169.203125 " fill-opacity="1" fill-rule="nonzero"/><path fill="#3c7530" d="M 564.765625 211.757812 C 564.664062 211.757812 564.5625 211.753906 564.460938 211.742188 C 562.558594 211.578125 561.15625 209.902344 561.320312 208.003906 L 563.613281 181.839844 C 563.664062 181.277344 563.851562 180.738281 564.15625 180.265625 L 572.527344 167.328125 C 573.5625 165.726562 575.699219 165.265625 577.300781 166.300781 C 578.902344 167.339844 579.359375 169.476562 578.324219 171.078125 L 570.421875 183.296875 L 568.203125 208.605469 C 568.042969 210.402344 566.535156 211.757812 564.765625 211.757812 Z M 564.765625 211.757812 " fill-opacity="1" fill-rule="nonzero"/><path fill="#ffffff" d="M 543.273438 169.203125 L 551.640625 182.140625 L 553.933594 208.304688 Z M 543.273438 169.203125 " fill-opacity="1" fill-rule="nonzero"/><path fill="#3c7530" d="M 553.929688 211.757812 C 552.160156 211.757812 550.652344 210.402344 550.496094 208.605469 L 548.277344 183.296875 L 540.371094 171.078125 C 539.335938 169.476562 539.796875 167.339844 541.394531 166.300781 C 542.996094 165.265625 545.136719 165.726562 546.171875 167.328125 L 554.539062 180.265625 C 554.847656 180.738281 555.03125 181.277344 555.082031 181.839844 L 557.375 208.003906 C 557.539062 209.902344 556.136719 211.578125 554.234375 211.742188 C 554.132812 211.753906 554.03125 211.757812 553.929688 211.757812 Z M 553.929688 211.757812 " fill-opacity="1" fill-rule="nonzero"/><path fill="#91cd7f" d="M 580.621094 106.515625 C 575.113281 101.007812 566.1875 101.007812 560.683594 106.515625 L 559.472656 107.722656 L 558.265625 106.515625 C 552.757812 101.007812 543.832031 101.007812 538.328125 106.515625 C 532.820312 112.019531 532.820312 120.945312 538.328125 126.453125 L 559.386719 147.511719 L 559.472656 147.421875 L 559.5625 147.511719 L 580.621094 126.453125 C 586.125 120.945312 586.125 112.019531 580.621094 106.515625 Z M 580.621094 106.515625 " fill-opacity="1" fill-rule="nonzero"/><path fill="#3c7530" d="M 559.386719 150.964844 C 558.46875 150.964844 557.589844 150.601562 556.945312 149.953125 L 535.886719 128.894531 C 529.042969 122.050781 529.042969 110.917969 535.886719 104.074219 C 539.199219 100.757812 543.609375 98.933594 548.296875 98.933594 C 552.425781 98.933594 556.335938 100.347656 559.472656 102.949219 C 562.609375 100.347656 566.523438 98.933594 570.652344 98.933594 C 575.339844 98.933594 579.746094 100.757812 583.0625 104.074219 C 589.902344 110.917969 589.902344 122.050781 583.0625 128.894531 L 562.003906 149.953125 C 561.355469 150.601562 560.476562 150.964844 559.5625 150.964844 C 559.53125 150.964844 559.503906 150.964844 559.472656 150.960938 C 559.445312 150.964844 559.414062 150.964844 559.386719 150.964844 Z M 548.296875 105.839844 C 545.453125 105.839844 542.777344 106.945312 540.769531 108.957031 C 536.617188 113.105469 536.617188 119.859375 540.769531 124.011719 L 559.472656 142.714844 L 578.179688 124.011719 C 582.328125 119.859375 582.328125 113.105469 578.179688 108.957031 C 576.167969 106.945312 573.496094 105.839844 570.652344 105.839844 C 567.808594 105.839844 565.136719 106.945312 563.125 108.957031 L 561.914062 110.167969 C 560.5625 111.515625 558.378906 111.511719 557.03125 110.164062 L 555.820312 108.957031 C 553.8125 106.945312 551.140625 105.839844 548.296875 105.839844 Z M 548.296875 105.839844 " fill-opacity="1" fill-rule="nonzero"/><path fill="#ffffff" d="M 652.257812 424.628906 C 649.210938 423.484375 645.980469 422.917969 642.726562 422.949219 L 544.265625 423.953125 C 536.949219 424.027344 529.703125 422.515625 523.027344 419.519531 L 484.394531 402.171875 C 478.789062 399.65625 473.6875 396.140625 469.34375 391.792969 L 415.984375 338.433594 C 412.371094 334.824219 413.796875 328.675781 418.632812 327.023438 L 420.695312 326.316406 C 429.332031 323.363281 438.863281 324.671875 446.378906 329.851562 L 506.875 371.523438 L 547.179688 370.328125 L 693.847656 360.015625 L 704.21875 366.488281 Z M 652.257812 424.628906 " fill-opacity="1" fill-rule="nonzero"/><path fill="#3c7530" d="M 652.257812 428.082031 C 651.855469 428.082031 651.445312 428.011719 651.046875 427.859375 C 648.386719 426.863281 645.59375 426.371094 642.761719 426.402344 L 544.300781 427.40625 C 536.535156 427.480469 528.695312 425.847656 521.613281 422.667969 L 482.980469 405.324219 C 476.96875 402.625 471.558594 398.894531 466.902344 394.234375 L 413.542969 340.875 C 411 338.332031 409.964844 334.71875 410.777344 331.214844 C 411.589844 327.710938 414.109375 324.921875 417.515625 323.757812 L 419.578125 323.050781 C 429.207031 319.757812 439.957031 321.234375 448.339844 327.007812 L 507.902344 368.039062 L 547.007812 366.878906 L 693.605469 356.570312 C 694.332031 356.519531 695.058594 356.699219 695.675781 357.085938 L 706.046875 363.558594 C 707.664062 364.570312 708.15625 366.699219 707.148438 368.316406 C 706.136719 369.933594 704.007812 370.425781 702.390625 369.417969 L 692.972656 363.539062 L 547.421875 373.773438 C 547.375 373.773438 547.328125 373.777344 547.28125 373.777344 L 506.976562 374.976562 C 506.242188 374.992188 505.519531 374.785156 504.914062 374.367188 L 444.421875 332.695312 C 437.832031 328.15625 429.382812 326.996094 421.8125 329.585938 L 419.75 330.289062 C 418.113281 330.851562 417.636719 332.214844 417.503906 332.777344 C 417.375 333.335938 417.203125 334.773438 418.425781 335.996094 L 471.785156 389.351562 C 475.847656 393.414062 480.566406 396.667969 485.808594 399.023438 L 524.441406 416.367188 C 530.617188 419.140625 537.460938 420.574219 544.230469 420.503906 L 642.691406 419.496094 C 646.375 419.457031 650.011719 420.097656 653.472656 421.394531 C 655.257812 422.066406 656.160156 424.054688 655.492188 425.839844 C 654.972656 427.226562 653.65625 428.082031 652.257812 428.082031 Z M 652.257812 428.082031 " fill-opacity="1" fill-rule="nonzero"/><path fill="#ffffff" d="M 547.179688 370.328125 L 506.875 371.523438 L 446.378906 329.851562 C 438.863281 324.671875 429.335938 323.363281 420.695312 326.316406 L 418.632812 327.023438 C 413.800781 328.675781 412.375 334.824219 415.984375 338.433594 L 469.34375 391.792969 C 473.6875 396.140625 478.789062 399.65625 484.394531 402.171875 L 523.027344 419.519531 C 529.703125 422.515625 536.949219 424.027344 544.265625 423.953125 L 642.726562 422.949219 C 645.980469 422.917969 710.015625 437.039062 713.0625 438.183594 Z M 547.179688 370.328125 " fill-opacity="1" fill-rule="nonzero"/><path fill="#3c7530" d="M 713.058594 441.636719 C 712.664062 441.636719 712.261719 441.566406 711.871094 441.425781 C 710.433594 440.9375 696.910156 437.800781 677.519531 433.5625 C 655.824219 428.820312 644.300781 426.535156 642.6875 426.402344 L 544.300781 427.40625 C 536.53125 427.480469 528.695312 425.847656 521.613281 422.667969 L 482.980469 405.324219 C 476.96875 402.625 471.558594 398.894531 466.902344 394.234375 L 413.542969 340.878906 C 411 338.332031 409.964844 334.722656 410.777344 331.214844 C 411.589844 327.710938 414.109375 324.921875 417.511719 323.757812 L 419.578125 323.050781 C 429.207031 319.757812 439.957031 321.238281 448.339844 327.007812 L 507.902344 368.039062 L 547.078125 366.875 C 548.984375 366.824219 550.574219 368.320312 550.628906 370.226562 C 550.6875 372.132812 549.1875 373.722656 547.28125 373.78125 L 506.976562 374.976562 C 506.242188 374.996094 505.519531 374.785156 504.914062 374.367188 L 444.421875 332.695312 C 437.832031 328.160156 429.382812 326.996094 421.8125 329.585938 L 419.75 330.289062 C 418.113281 330.851562 417.636719 332.214844 417.503906 332.777344 C 417.375 333.335938 417.203125 334.773438 418.425781 335.996094 L 471.785156 389.351562 C 475.847656 393.414062 480.566406 396.667969 485.808594 399.023438 L 524.441406 416.371094 C 530.617188 419.140625 537.460938 420.574219 544.230469 420.503906 L 642.691406 419.496094 C 642.699219 419.496094 642.703125 419.496094 642.710938 419.496094 C 644.5625 419.496094 656.671875 421.9375 678.707031 426.753906 C 690.066406 429.234375 712.113281 434.140625 714.273438 434.949219 C 716.058594 435.621094 716.964844 437.609375 716.292969 439.394531 C 715.773438 440.78125 714.457031 441.636719 713.058594 441.636719 Z M 642.761719 426.402344 L 642.742188 426.402344 C 642.75 426.402344 642.757812 426.402344 642.761719 426.402344 Z M 642.761719 426.402344 " fill-opacity="1" fill-rule="nonzero"/><path fill="#ffffff" d="M 699.6875 363.894531 L 671.234375 346.941406 C 659.792969 339.421875 646.019531 336.292969 632.449219 338.132812 L 557.320312 348.316406 C 550.191406 349.546875 545.089844 355.886719 545.417969 363.113281 C 545.753906 370.515625 551.664062 376.441406 559.0625 376.800781 L 624.722656 380.550781 Z M 699.6875 363.894531 " fill-opacity="1" fill-rule="nonzero"/><path fill="#3c7530" d="M 624.726562 384.003906 C 624.660156 384.003906 624.59375 384 624.527344 383.996094 L 558.867188 380.246094 C 549.664062 379.800781 542.386719 372.503906 541.96875 363.269531 C 541.5625 354.328125 547.910156 346.433594 556.730469 344.914062 C 556.773438 344.90625 556.8125 344.898438 556.855469 344.894531 L 631.988281 334.710938 C 646.355469 332.761719 660.941406 336.066406 673.066406 344.011719 L 701.453125 360.929688 C 703.089844 361.90625 703.628906 364.023438 702.652344 365.664062 C 701.675781 367.300781 699.558594 367.835938 697.917969 366.859375 L 669.464844 349.90625 C 669.421875 349.878906 669.378906 349.851562 669.339844 349.824219 C 658.59375 342.761719 645.65625 339.824219 632.914062 341.554688 L 557.847656 351.726562 C 552.476562 352.683594 548.617188 357.5 548.867188 362.957031 C 549.125 368.609375 553.578125 373.078125 559.230469 373.351562 L 624.917969 377.101562 C 626.824219 377.210938 628.277344 378.84375 628.167969 380.746094 C 628.066406 382.582031 626.542969 384.003906 624.726562 384.003906 Z M 624.726562 384.003906 " fill-opacity="1" fill-rule="nonzero"/><path fill="#ffffff" d="M 351.992188 213.429688 L 351.992188 175.152344 L 307.574219 175.152344 L 307.574219 194.519531 Z M 351.992188 213.429688 " fill-opacity="1" fill-rule="nonzero"/><path fill="#3c7530" d="M 351.992188 216.882812 C 350.082031 216.882812 348.539062 215.339844 348.539062 213.429688 L 348.539062 178.605469 L 311.027344 178.605469 L 311.027344 194.519531 C 311.027344 196.425781 309.480469 197.972656 307.574219 197.972656 C 305.667969 197.972656 304.121094 196.425781 304.121094 194.519531 L 304.121094 175.152344 C 304.121094 173.246094 305.667969 171.699219 307.574219 171.699219 L 351.992188 171.699219 C 353.898438 171.699219 355.445312 173.246094 355.445312 175.152344 L 355.445312 213.433594 C 355.445312 215.339844 353.898438 216.882812 351.992188 216.882812 Z M 351.992188 216.882812 " fill-opacity="1" fill-rule="nonzero"/><path fill="#ffffff" d="M 163.003906 116.234375 L 289.5 116.234375 L 289.5 380.625 L 163.003906 380.625 Z M 163.003906 116.234375 " fill-opacity="1" fill-rule="nonzero"/><path fill="#3c7530" d="M 289.5 384.078125 L 163.003906 384.078125 C 161.09375 384.078125 159.550781 382.535156 159.550781 380.625 L 159.550781 116.234375 C 159.550781 114.328125 161.09375 112.78125 163.003906 112.78125 L 289.5 112.78125 C 291.40625 112.78125 292.949219 114.328125 292.949219 116.234375 L 292.949219 380.625 C 292.949219 382.535156 291.40625 384.078125 289.5 384.078125 Z M 166.457031 377.171875 L 286.046875 377.171875 L 286.046875 119.6875 L 166.457031 119.6875 Z M 166.457031 377.171875 " fill-opacity="1" fill-rule="nonzero"/><path fill="#50d634" d="M 180.3125 150.476562 L 272.1875 150.476562 L 272.1875 174.105469 L 180.3125 174.105469 Z M 180.3125 150.476562 " fill-opacity="1" fill-rule="nonzero"/><path fill="#3c7530" d="M 272.1875 177.558594 L 180.3125 177.558594 C 178.40625 177.558594 176.859375 176.011719 176.859375 174.105469 L 176.859375 150.476562 C 176.859375 148.566406 178.40625 147.023438 180.3125 147.023438 L 272.1875 147.023438 C 274.09375 147.023438 275.640625 148.566406 275.640625 150.476562 L 275.640625 174.105469 C 275.640625 176.011719 274.09375 177.558594 272.1875 177.558594 Z M 183.765625 170.652344 L 268.734375 170.652344 L 268.734375 153.929688 L 183.765625 153.929688 Z M 183.765625 170.652344 " fill-opacity="1" fill-rule="nonzero"/><path fill="#50d634" d="M 180.3125 204.398438 L 272.1875 204.398438 L 272.1875 228.03125 L 180.3125 228.03125 Z M 180.3125 204.398438 " fill-opacity="1" fill-rule="nonzero"/><path fill="#3c7530" d="M 272.1875 231.484375 L 180.3125 231.484375 C 178.40625 231.484375 176.859375 229.9375 176.859375 228.03125 L 176.859375 204.398438 C 176.859375 202.492188 178.40625 200.945312 180.3125 200.945312 L 272.1875 200.945312 C 274.09375 200.945312 275.640625 202.492188 275.640625 204.398438 L 275.640625 228.03125 C 275.640625 229.9375 274.09375 231.484375 272.1875 231.484375 Z M 183.765625 224.578125 L 268.734375 224.578125 L 268.734375 207.851562 L 183.765625 207.851562 Z M 183.765625 224.578125 " fill-opacity="1" fill-rule="nonzero"/><path fill="#50d634" d="M 180.3125 258.324219 L 272.1875 258.324219 L 272.1875 281.953125 L 180.3125 281.953125 Z M 180.3125 258.324219 " fill-opacity="1" fill-rule="nonzero"/><path fill="#3c7530" d="M 272.1875 285.40625 L 180.3125 285.40625 C 178.40625 285.40625 176.859375 283.859375 176.859375 281.953125 L 176.859375 258.324219 C 176.859375 256.414062 178.40625 254.871094 180.3125 254.871094 L 272.1875 254.871094 C 274.09375 254.871094 275.640625 256.414062 275.640625 258.324219 L 275.640625 281.953125 C 275.640625 283.859375 274.09375 285.40625 272.1875 285.40625 Z M 183.765625 278.5 L 268.734375 278.5 L 268.734375 261.777344 L 183.765625 261.777344 Z M 183.765625 278.5 " fill-opacity="1" fill-rule="nonzero"/><path fill="#91cd7f" d="M 368.945312 380.625 L 289.5 380.625 L 289.5 186.910156 L 368.945312 221.625 Z M 368.945312 380.625 " fill-opacity="1" fill-rule="nonzero"/><path fill="#3c7530" d="M 368.945312 384.078125 L 289.5 384.078125 C 287.589844 384.078125 286.046875 382.535156 286.046875 380.625 L 286.046875 186.910156 C 286.046875 185.746094 286.632812 184.660156 287.609375 184.019531 C 288.582031 183.382812 289.8125 183.28125 290.878906 183.746094 L 370.324219 218.457031 C 371.582031 219.007812 372.398438 220.25 372.398438 221.625 L 372.398438 380.625 C 372.398438 382.535156 370.851562 384.078125 368.945312 384.078125 Z M 292.949219 377.171875 L 365.492188 377.171875 L 365.492188 223.882812 L 292.949219 192.1875 Z M 292.949219 377.171875 " fill-opacity="1" fill-rule="nonzero"/><path fill="#3c7530" d="M 329.78125 178.605469 C 327.875 178.605469 326.328125 177.058594 326.328125 175.152344 L 326.328125 157.28125 C 326.328125 155.375 327.875 153.828125 329.78125 153.828125 C 331.6875 153.828125 333.234375 155.375 333.234375 157.28125 L 333.234375 175.152344 C 333.234375 177.058594 331.6875 178.605469 329.78125 178.605469 Z M 329.78125 178.605469 " fill-opacity="1" fill-rule="nonzero"/><path fill="#ffffff" d="M 317.304688 237.105469 L 341.136719 237.105469 L 341.136719 258.753906 L 317.304688 258.753906 Z M 317.304688 237.105469 " fill-opacity="1" fill-rule="nonzero"/><path fill="#3c7530" d="M 341.136719 262.207031 L 317.304688 262.207031 C 315.398438 262.207031 313.851562 260.660156 313.851562 258.753906 L 313.851562 237.105469 C 313.851562 235.199219 315.398438 233.652344 317.304688 233.652344 L 341.136719 233.652344 C 343.042969 233.652344 344.589844 235.199219 344.589844 237.105469 L 344.589844 258.753906 C 344.589844 260.660156 343.042969 262.207031 341.136719 262.207031 Z M 320.757812 255.300781 L 337.683594 255.300781 L 337.683594 240.558594 L 320.757812 240.558594 Z M 320.757812 255.300781 " fill-opacity="1" fill-rule="nonzero"/><path fill="#ffffff" d="M 317.304688 282.292969 L 341.136719 282.292969 L 341.136719 303.941406 L 317.304688 303.941406 Z M 317.304688 282.292969 " fill-opacity="1" fill-rule="nonzero"/><path fill="#3c7530" d="M 341.136719 307.394531 L 317.304688 307.394531 C 315.398438 307.394531 313.851562 305.847656 313.851562 303.941406 L 313.851562 282.292969 C 313.851562 280.386719 315.398438 278.839844 317.304688 278.839844 L 341.136719 278.839844 C 343.042969 278.839844 344.589844 280.386719 344.589844 282.292969 L 344.589844 303.941406 C 344.589844 305.847656 343.042969 307.394531 341.136719 307.394531 Z M 320.757812 300.488281 L 337.683594 300.488281 L 337.683594 285.746094 L 320.757812 285.746094 Z M 320.757812 300.488281 " fill-opacity="1" fill-rule="nonzero"/><path fill="#ffffff" d="M 317.304688 329.136719 L 341.136719 329.136719 L 341.136719 350.785156 L 317.304688 350.785156 Z M 317.304688 329.136719 " fill-opacity="1" fill-rule="nonzero"/><path fill="#3c7530" d="M 341.136719 354.238281 L 317.304688 354.238281 C 315.398438 354.238281 313.851562 352.691406 313.851562 350.785156 L 313.851562 329.136719 C 313.851562 327.230469 315.398438 325.683594 317.304688 325.683594 L 341.136719 325.683594 C 343.042969 325.683594 344.589844 327.230469 344.589844 329.136719 L 344.589844 350.785156 C 344.589844 352.691406 343.042969 354.238281 341.136719 354.238281 Z M 320.757812 347.332031 L 337.683594 347.332031 L 337.683594 332.589844 L 320.757812 332.589844 Z M 320.757812 347.332031 " fill-opacity="1" fill-rule="nonzero"/><path fill="#3c7530" d="M 383.285156 384.078125 L 145.757812 384.078125 C 143.851562 384.078125 142.304688 382.535156 142.304688 380.625 C 142.304688 378.71875 143.851562 377.171875 145.757812 377.171875 L 383.285156 377.171875 C 385.191406 377.171875 386.738281 378.71875 386.738281 380.625 C 386.738281 382.535156 385.191406 384.078125 383.285156 384.078125 Z M 383.285156 384.078125 " fill-opacity="1" fill-rule="nonzero"/><path fill="#ffffff" d="M 246.976562 364.753906 C 246.976562 360.050781 246.488281 355.46875 245.65625 351.007812 L 264.519531 335.722656 C 262.433594 329.109375 259.664062 322.605469 256.050781 316.351562 C 252.441406 310.097656 248.195312 304.445312 243.511719 299.332031 L 220.828125 308.027344 C 213.882812 302.074219 205.839844 297.40625 197.035156 294.304688 L 193.226562 270.300781 C 186.457031 268.800781 179.441406 267.949219 172.214844 267.949219 C 164.992188 267.949219 157.976562 268.800781 151.207031 270.300781 L 147.394531 294.304688 C 138.59375 297.40625 130.546875 302.074219 123.605469 308.027344 L 100.925781 299.332031 C 96.238281 304.445312 91.992188 310.097656 88.378906 316.351562 C 84.769531 322.609375 82 329.109375 79.914062 335.722656 L 98.777344 351.007812 C 97.945312 355.46875 97.457031 360.050781 97.457031 364.753906 C 97.457031 369.453125 97.945312 374.035156 98.777344 378.496094 L 79.914062 393.785156 C 82 400.398438 84.769531 406.902344 88.378906 413.15625 C 91.992188 419.414062 96.238281 425.0625 100.925781 430.175781 L 123.605469 421.476562 C 130.550781 427.433594 138.59375 432.097656 147.394531 435.203125 L 151.207031 459.207031 C 157.976562 460.707031 164.992188 461.558594 172.214844 461.558594 C 179.441406 461.558594 186.457031 460.707031 193.226562 459.207031 L 197.035156 435.203125 C 205.839844 432.097656 213.886719 427.433594 220.828125 421.476562 L 243.507812 430.175781 C 248.195312 425.0625 252.441406 419.410156 256.050781 413.15625 C 259.664062 406.902344 262.433594 400.398438 264.519531 393.785156 L 245.65625 378.496094 C 246.488281 374.035156 246.976562 369.453125 246.976562 364.753906 Z M 246.976562 364.753906 " fill-opacity="1" fill-rule="nonzero"/><g clip-path="url(#c79e394c2e)"><path fill="#3c7530" d="M 172.214844 465.011719 C 165.074219 465.011719 157.753906 464.191406 150.460938 462.578125 C 149.078125 462.269531 148.019531 461.148438 147.796875 459.75 L 144.304688 437.746094 C 136.535156 434.777344 129.367188 430.640625 122.949219 425.425781 L 102.160156 433.398438 C 100.835938 433.90625 99.335938 433.554688 98.378906 432.507812 C 93.335938 427.003906 88.964844 421.074219 85.390625 414.882812 C 81.816406 408.691406 78.867188 401.941406 76.621094 394.824219 C 76.195312 393.472656 76.636719 391.996094 77.738281 391.105469 L 95.027344 377.089844 C 94.351562 372.886719 94.007812 368.742188 94.007812 364.753906 C 94.007812 360.703125 94.339844 356.648438 95.027344 352.414062 L 77.738281 338.40625 C 76.636719 337.511719 76.195312 336.035156 76.621094 334.683594 C 78.863281 327.570312 81.816406 320.820312 85.390625 314.625 C 88.964844 308.433594 93.335938 302.5 98.378906 297 C 99.335938 295.953125 100.835938 295.597656 102.160156 296.109375 L 122.949219 304.078125 C 129.367188 298.863281 136.535156 294.730469 144.304688 291.761719 L 147.796875 269.757812 C 148.019531 268.355469 149.078125 267.234375 150.460938 266.929688 C 157.757812 265.3125 165.078125 264.496094 172.214844 264.496094 C 179.355469 264.496094 186.675781 265.3125 193.972656 266.929688 C 195.355469 267.234375 196.414062 268.355469 196.636719 269.757812 L 200.128906 291.761719 C 207.898438 294.730469 215.066406 298.863281 221.484375 304.078125 L 242.273438 296.109375 C 243.597656 295.597656 245.097656 295.953125 246.054688 297 C 251.101562 302.507812 255.46875 308.4375 259.042969 314.625 C 262.617188 320.8125 265.566406 327.5625 267.8125 334.683594 C 268.242188 336.035156 267.796875 337.511719 266.695312 338.40625 L 249.40625 352.414062 C 250.09375 356.648438 250.429688 360.703125 250.429688 364.753906 C 250.429688 368.742188 250.085938 372.882812 249.40625 377.089844 L 266.695312 391.101562 C 267.796875 391.996094 268.242188 393.472656 267.8125 394.824219 C 265.566406 401.941406 262.617188 408.691406 259.042969 414.882812 C 255.472656 421.070312 251.101562 427 246.054688 432.507812 C 245.097656 433.554688 243.597656 433.90625 242.273438 433.398438 L 221.484375 425.425781 C 215.074219 430.640625 207.90625 434.773438 200.128906 437.746094 L 196.636719 459.746094 C 196.414062 461.148438 195.355469 462.269531 193.972656 462.578125 C 186.679688 464.191406 179.359375 465.011719 172.214844 465.011719 Z M 154.246094 456.3125 C 160.285156 457.503906 166.320312 458.105469 172.214844 458.105469 C 178.113281 458.105469 184.148438 457.503906 190.1875 456.3125 L 193.625 434.660156 C 193.824219 433.410156 194.695312 432.367188 195.890625 431.945312 C 204.265625 428.992188 211.898438 424.589844 218.578125 418.855469 C 219.542969 418.03125 220.878906 417.800781 222.0625 418.253906 L 242.523438 426.097656 C 246.574219 421.460938 250.113281 416.539062 253.058594 411.429688 C 256.011719 406.316406 258.507812 400.792969 260.496094 394.96875 L 243.484375 381.179688 C 242.5 380.382812 242.03125 379.109375 242.261719 377.863281 C 243.109375 373.3125 243.523438 369.023438 243.523438 364.753906 C 243.523438 360.484375 243.109375 356.195312 242.261719 351.640625 C 242.03125 350.394531 242.5 349.125 243.484375 348.324219 L 260.496094 334.539062 C 258.507812 328.714844 256.011719 323.1875 253.0625 318.078125 C 250.113281 312.96875 246.574219 308.042969 242.523438 303.40625 L 222.0625 311.253906 C 220.878906 311.707031 219.542969 311.476562 218.582031 310.648438 C 211.890625 304.914062 204.257812 300.511719 195.890625 297.5625 C 194.695312 297.140625 193.824219 296.101562 193.625 294.847656 L 190.1875 273.191406 C 184.144531 272.003906 178.109375 271.402344 172.214844 271.402344 C 166.320312 271.402344 160.289062 272.003906 154.246094 273.191406 L 150.804688 294.847656 C 150.605469 296.101562 149.738281 297.140625 148.542969 297.5625 C 140.175781 300.511719 132.539062 304.914062 125.851562 310.648438 C 124.890625 311.476562 123.554688 311.707031 122.371094 311.253906 L 101.910156 303.40625 C 97.863281 308.039062 94.320312 312.964844 91.371094 318.078125 C 88.417969 323.191406 85.921875 328.71875 83.9375 334.539062 L 100.949219 348.328125 C 101.933594 349.125 102.402344 350.394531 102.171875 351.640625 C 101.324219 356.195312 100.910156 360.484375 100.910156 364.753906 C 100.910156 369.023438 101.324219 373.3125 102.171875 377.867188 C 102.402344 379.109375 101.933594 380.382812 100.949219 381.179688 L 83.9375 394.96875 C 85.925781 400.789062 88.421875 406.316406 91.371094 411.429688 C 94.320312 416.542969 97.859375 421.46875 101.910156 426.097656 L 122.371094 418.253906 C 123.554688 417.800781 124.890625 418.03125 125.851562 418.855469 C 132.539062 424.589844 140.171875 428.996094 148.542969 431.945312 C 149.738281 432.367188 150.605469 433.410156 150.804688 434.660156 Z M 154.246094 456.3125 " fill-opacity="1" fill-rule="nonzero"/></g><path fill="#3c7530" d="M 128.023438 400.996094 C 127.148438 400.996094 126.269531 400.664062 125.597656 400 C 124.242188 398.660156 124.226562 396.472656 125.566406 395.117188 L 155.746094 364.550781 C 156.34375 363.949219 157.136719 363.585938 157.980469 363.53125 L 183.230469 361.894531 L 207.851562 332.648438 C 209.078125 331.191406 211.257812 331.003906 212.714844 332.234375 C 214.175781 333.460938 214.363281 335.640625 213.132812 337.097656 L 187.566406 367.46875 C 186.960938 368.191406 186.085938 368.632812 185.148438 368.691406 L 159.738281 370.335938 L 130.480469 399.96875 C 129.804688 400.652344 128.914062 400.996094 128.023438 400.996094 Z M 128.023438 400.996094 " fill-opacity="1" fill-rule="nonzero"/><path fill="#3c7530" d="M 211.671875 366.601562 C 211.554688 366.601562 211.433594 366.59375 211.3125 366.582031 C 209.417969 366.386719 208.039062 364.6875 208.234375 362.792969 L 211.367188 332.542969 L 180.644531 343.542969 C 178.847656 344.1875 176.871094 343.253906 176.226562 341.457031 C 175.585938 339.664062 176.519531 337.6875 178.316406 337.042969 L 214.203125 324.191406 C 215.320312 323.792969 216.5625 323.992188 217.496094 324.726562 C 218.429688 325.457031 218.921875 326.617188 218.800781 327.796875 L 215.105469 363.503906 C 214.917969 365.28125 213.421875 366.601562 211.671875 366.601562 Z M 211.671875 366.601562 " fill-opacity="1" fill-rule="nonzero"/></svg>