<svg xmlns="http://www.w3.org/2000/svg" xmlns:xlink="http://www.w3.org/1999/xlink" width="1080" zoomAndPan="magnify" viewBox="0 0 810 809.999993" height="1080" preserveAspectRatio="xMidYMid meet" version="1.0"><defs><clipPath id="fe0958beea"><path d="M 137.214844 423 L 247 423 L 247 613 L 137.214844 613 Z M 137.214844 423 " clip-rule="nonzero"/></clipPath><clipPath id="cf11bbda91"><path d="M 633 254 L 672.714844 254 L 672.714844 347 L 633 347 Z M 633 254 " clip-rule="nonzero"/></clipPath><clipPath id="ac60b8a748"><path d="M 308 126.054688 L 467 126.054688 L 467 150 L 308 150 Z M 308 126.054688 " clip-rule="nonzero"/></clipPath><clipPath id="30e4de3007"><path d="M 364 594 L 452 594 L 452 684.054688 L 364 684.054688 Z M 364 594 " clip-rule="nonzero"/></clipPath><clipPath id="416d721b58"><path d="M 137.214844 290 L 294 290 L 294 454 L 137.214844 454 Z M 137.214844 290 " clip-rule="nonzero"/></clipPath></defs><g clip-path="url(#fe0958beea)"><path fill="#420f7c" d="M 244.003906 612.316406 C 243.40625 612.316406 242.804688 612.128906 242.292969 611.738281 C 234.09375 605.441406 226.167969 598.597656 218.738281 591.402344 C 217.621094 590.324219 217.59375 588.542969 218.671875 587.425781 C 219.753906 586.3125 221.53125 586.28125 222.648438 587.363281 C 229.925781 594.410156 237.6875 601.109375 245.71875 607.277344 C 246.949219 608.222656 247.179688 609.988281 246.234375 611.21875 C 245.679688 611.941406 244.847656 612.316406 244.003906 612.316406 Z M 199.828125 569.542969 C 199.015625 569.542969 198.210938 569.191406 197.652344 568.511719 C 191.089844 560.515625 184.921875 552.054688 179.324219 543.367188 C 178.480469 542.0625 178.855469 540.320312 180.160156 539.480469 C 181.464844 538.636719 183.203125 539.015625 184.046875 540.320312 C 189.53125 548.828125 195.570312 557.113281 202 564.945312 C 202.984375 566.144531 202.808594 567.917969 201.609375 568.902344 C 201.085938 569.332031 200.457031 569.542969 199.828125 569.542969 Z M 166.519531 517.851562 C 165.480469 517.851562 164.484375 517.277344 163.996094 516.28125 C 159.425781 506.996094 155.351562 497.351562 151.886719 487.613281 C 151.367188 486.148438 152.128906 484.542969 153.59375 484.023438 C 155.054688 483.503906 156.660156 484.265625 157.183594 485.730469 C 160.574219 495.261719 164.5625 504.707031 169.035156 513.796875 C 169.722656 515.191406 169.148438 516.875 167.757812 517.5625 C 167.359375 517.757812 166.933594 517.851562 166.519531 517.851562 Z M 145.910156 459.917969 C 144.628906 459.917969 143.472656 459.039062 143.171875 457.738281 C 140.859375 447.675781 139.109375 437.351562 137.964844 427.058594 C 137.792969 425.515625 138.90625 424.125 140.449219 423.953125 C 141.992188 423.78125 143.378906 424.894531 143.550781 426.4375 C 144.671875 436.515625 146.386719 446.625 148.652344 456.476562 C 149 457.992188 148.054688 459.5 146.542969 459.847656 C 146.328125 459.894531 146.117188 459.917969 145.910156 459.917969 Z M 145.910156 459.917969 " fill-opacity="1" fill-rule="nonzero"/></g><path fill="#420f7c" d="M 588.257812 596.917969 C 587.5 596.917969 586.746094 596.613281 586.191406 596.011719 C 585.140625 594.867188 585.214844 593.089844 586.355469 592.039062 C 593.8125 585.183594 600.949219 577.820312 607.570312 570.15625 C 608.585938 568.980469 610.359375 568.851562 611.535156 569.867188 C 612.710938 570.882812 612.839844 572.660156 611.824219 573.832031 C 605.0625 581.65625 597.773438 589.175781 590.160156 596.179688 C 589.621094 596.675781 588.941406 596.917969 588.257812 596.917969 Z M 628.46875 550.386719 C 627.925781 550.386719 627.375 550.230469 626.890625 549.898438 C 625.605469 549.023438 625.277344 547.277344 626.148438 545.992188 C 631.859375 537.617188 637.136719 528.824219 641.839844 519.863281 C 642.558594 518.488281 644.257812 517.957031 645.632812 518.679688 C 647.007812 519.402344 647.535156 521.101562 646.816406 522.476562 C 642.015625 531.628906 636.625 540.605469 630.792969 549.160156 C 630.25 549.957031 629.367188 550.386719 628.46875 550.386719 Z M 657.039062 495.921875 C 656.703125 495.921875 656.363281 495.859375 656.027344 495.734375 C 654.582031 495.175781 653.859375 493.546875 654.417969 492.097656 C 658.058594 482.644531 661.179688 472.878906 663.703125 463.066406 C 664.089844 461.5625 665.621094 460.660156 667.125 461.046875 C 668.628906 461.433594 669.53125 462.964844 669.148438 464.46875 C 666.570312 474.488281 663.378906 484.464844 659.660156 494.121094 C 659.230469 495.238281 658.167969 495.921875 657.039062 495.921875 Z M 657.039062 495.921875 " fill-opacity="1" fill-rule="nonzero"/><g clip-path="url(#cf11bbda91)"><path fill="#420f7c" d="M 669.527344 346.226562 C 668.21875 346.226562 667.046875 345.304688 666.777344 343.972656 C 664.769531 334.039062 662.15625 324.125 659.019531 314.5 C 658.539062 313.023438 659.34375 311.4375 660.820312 310.957031 C 662.292969 310.472656 663.878906 311.28125 664.363281 312.757812 C 667.566406 322.585938 670.234375 332.710938 672.285156 342.859375 C 672.59375 344.378906 671.609375 345.863281 670.085938 346.171875 C 669.898438 346.207031 669.710938 346.226562 669.527344 346.226562 Z M 650.460938 287.761719 C 649.398438 287.761719 648.378906 287.152344 647.90625 286.121094 C 643.679688 276.929688 638.863281 267.875 633.59375 259.214844 C 632.789062 257.886719 633.210938 256.160156 634.535156 255.351562 C 635.863281 254.542969 637.589844 254.964844 638.398438 256.292969 C 643.777344 265.136719 648.695312 274.382812 653.011719 283.773438 C 653.660156 285.183594 653.042969 286.851562 651.632812 287.5 C 651.253906 287.675781 650.855469 287.761719 650.460938 287.761719 Z M 650.460938 287.761719 " fill-opacity="1" fill-rule="nonzero"/></g><g clip-path="url(#ac60b8a748)"><path fill="#420f7c" d="M 311.777344 149.089844 C 310.644531 149.089844 309.578125 148.398438 309.152344 147.277344 C 308.597656 145.824219 309.328125 144.203125 310.777344 143.648438 C 320.445312 139.972656 330.429688 136.824219 340.457031 134.289062 C 341.960938 133.90625 343.488281 134.820312 343.871094 136.324219 C 344.25 137.828125 343.339844 139.359375 341.832031 139.738281 C 332.015625 142.21875 322.242188 145.304688 312.777344 148.90625 C 312.449219 149.03125 312.109375 149.089844 311.777344 149.089844 Z M 463.304688 137.605469 C 463.109375 137.605469 462.910156 137.585938 462.710938 137.542969 C 452.828125 135.425781 442.695312 133.863281 432.597656 132.894531 C 431.054688 132.746094 429.921875 131.375 430.070312 129.828125 C 430.21875 128.28125 431.589844 127.148438 433.132812 127.296875 C 443.445312 128.285156 453.792969 129.882812 463.890625 132.046875 C 465.40625 132.371094 466.375 133.863281 466.050781 135.382812 C 465.765625 136.703125 464.601562 137.605469 463.304688 137.605469 Z M 371.382812 134.015625 C 369.996094 134.015625 368.789062 132.988281 368.601562 131.574219 C 368.394531 130.035156 369.476562 128.625 371.015625 128.417969 C 381.234375 127.0625 391.675781 126.28125 402.042969 126.09375 C 403.585938 126.058594 404.875 127.300781 404.902344 128.855469 C 404.929688 130.40625 403.695312 131.6875 402.144531 131.714844 C 391.988281 131.898438 381.765625 132.664062 371.753906 133.992188 C 371.628906 134.007812 371.503906 134.015625 371.382812 134.015625 Z M 371.382812 134.015625 " fill-opacity="1" fill-rule="nonzero"/></g><path fill="#fffbc5" d="M 603.65625 396.824219 C 603.65625 400.046875 603.578125 403.261719 603.417969 406.480469 C 603.261719 409.695312 603.023438 412.90625 602.707031 416.109375 C 602.394531 419.3125 602 422.507812 601.527344 425.691406 C 601.054688 428.878906 600.503906 432.050781 599.875 435.207031 C 599.25 438.367188 598.542969 441.507812 597.761719 444.628906 C 596.980469 447.753906 596.121094 450.855469 595.1875 453.9375 C 594.253906 457.019531 593.242188 460.074219 592.160156 463.105469 C 591.074219 466.136719 589.917969 469.140625 588.683594 472.117188 C 587.453125 475.089844 586.148438 478.03125 584.773438 480.945312 C 583.394531 483.855469 581.949219 486.730469 580.433594 489.570312 C 578.914062 492.410156 577.328125 495.210938 575.675781 497.972656 C 574.019531 500.734375 572.296875 503.453125 570.507812 506.128906 C 568.722656 508.808594 566.867188 511.4375 564.949219 514.023438 C 563.035156 516.609375 561.054688 519.148438 559.011719 521.636719 C 556.96875 524.125 554.867188 526.5625 552.707031 528.949219 C 550.546875 531.335938 548.328125 533.667969 546.050781 535.945312 C 543.773438 538.21875 541.445312 540.441406 539.058594 542.601562 C 536.675781 544.765625 534.238281 546.867188 531.75 548.910156 C 529.261719 550.953125 526.722656 552.933594 524.140625 554.851562 C 521.554688 556.769531 518.921875 558.621094 516.246094 560.410156 C 513.570312 562.199219 510.851562 563.921875 508.089844 565.578125 C 505.328125 567.234375 502.53125 568.820312 499.691406 570.335938 C 496.851562 571.855469 493.980469 573.300781 491.070312 574.679688 C 488.160156 576.054688 485.21875 577.359375 482.242188 578.59375 C 479.269531 579.824219 476.269531 580.984375 473.238281 582.066406 C 470.207031 583.152344 467.152344 584.164062 464.070312 585.097656 C 460.992188 586.03125 457.890625 586.890625 454.765625 587.671875 C 451.644531 588.453125 448.503906 589.160156 445.347656 589.789062 C 442.191406 590.417969 439.019531 590.964844 435.835938 591.4375 C 432.652344 591.910156 429.460938 592.304688 426.257812 592.621094 C 423.054688 592.9375 419.84375 593.171875 416.628906 593.332031 C 413.414062 593.488281 410.199219 593.570312 406.980469 593.570312 C 403.761719 593.570312 400.542969 593.488281 397.328125 593.332031 C 394.113281 593.171875 390.90625 592.9375 387.703125 592.621094 C 384.5 592.304688 381.304688 591.910156 378.121094 591.4375 C 374.9375 590.964844 371.765625 590.417969 368.609375 589.789062 C 365.453125 589.160156 362.3125 588.453125 359.191406 587.671875 C 356.070312 586.890625 352.96875 586.03125 349.886719 585.097656 C 346.808594 584.164062 343.75 583.152344 340.722656 582.066406 C 337.691406 580.984375 334.6875 579.824219 331.714844 578.59375 C 328.742188 577.359375 325.800781 576.054688 322.890625 574.679688 C 319.980469 573.300781 317.105469 571.855469 314.265625 570.335938 C 311.429688 568.820312 308.628906 567.234375 305.867188 565.578125 C 303.105469 563.921875 300.386719 562.199219 297.710938 560.410156 C 295.035156 558.621094 292.40625 556.769531 289.820312 554.851562 C 287.234375 552.933594 284.695312 550.953125 282.210938 548.910156 C 279.722656 546.867188 277.285156 544.765625 274.898438 542.601562 C 272.515625 540.441406 270.183594 538.21875 267.90625 535.945312 C 265.632812 533.667969 263.414062 531.335938 261.25 528.949219 C 259.089844 526.5625 256.988281 524.125 254.945312 521.636719 C 252.90625 519.148438 250.925781 516.609375 249.007812 514.023438 C 247.089844 511.4375 245.238281 508.808594 243.449219 506.128906 C 241.660156 503.453125 239.9375 500.734375 238.285156 497.972656 C 236.628906 495.210938 235.042969 492.410156 233.527344 489.570312 C 232.007812 486.730469 230.5625 483.855469 229.1875 480.945312 C 227.808594 478.03125 226.503906 475.089844 225.273438 472.117188 C 224.042969 469.140625 222.882812 466.136719 221.800781 463.105469 C 220.714844 460.074219 219.707031 457.019531 218.773438 453.9375 C 217.835938 450.855469 216.980469 447.753906 216.195312 444.628906 C 215.414062 441.507812 214.710938 438.367188 214.082031 435.207031 C 213.453125 432.050781 212.902344 428.878906 212.429688 425.691406 C 211.960938 422.507812 211.566406 419.3125 211.25 416.109375 C 210.933594 412.90625 210.699219 409.695312 210.539062 406.480469 C 210.382812 403.261719 210.304688 400.046875 210.304688 396.824219 C 210.304688 393.605469 210.382812 390.386719 210.539062 387.171875 C 210.699219 383.957031 210.933594 380.746094 211.25 377.539062 C 211.566406 374.335938 211.960938 371.140625 212.429688 367.957031 C 212.902344 364.773438 213.453125 361.601562 214.082031 358.441406 C 214.710938 355.285156 215.414062 352.144531 216.195312 349.019531 C 216.980469 345.898438 217.835938 342.792969 218.773438 339.714844 C 219.707031 336.632812 220.714844 333.574219 221.800781 330.542969 C 222.882812 327.511719 224.042969 324.507812 225.273438 321.535156 C 226.503906 318.558594 227.808594 315.617188 229.1875 312.707031 C 230.5625 309.796875 232.007812 306.921875 233.527344 304.082031 C 235.042969 301.242188 236.628906 298.441406 238.285156 295.679688 C 239.9375 292.917969 241.660156 290.199219 243.449219 287.519531 C 245.238281 284.84375 247.089844 282.210938 249.007812 279.625 C 250.925781 277.039062 252.90625 274.5 254.945312 272.011719 C 256.988281 269.523438 259.089844 267.085938 261.25 264.699219 C 263.414062 262.316406 265.632812 259.984375 267.90625 257.707031 C 270.183594 255.429688 272.515625 253.210938 274.898438 251.046875 C 277.285156 248.886719 279.722656 246.78125 282.210938 244.742188 C 284.695312 242.699219 287.234375 240.71875 289.820312 238.800781 C 292.40625 236.882812 295.035156 235.027344 297.710938 233.238281 C 300.386719 231.449219 303.105469 229.726562 305.867188 228.074219 C 308.628906 226.417969 311.429688 224.832031 314.265625 223.3125 C 317.105469 221.796875 319.980469 220.347656 322.890625 218.972656 C 325.800781 217.59375 328.742188 216.289062 331.714844 215.058594 C 334.6875 213.824219 337.691406 212.667969 340.722656 211.582031 C 343.75 210.496094 346.808594 209.488281 349.886719 208.554688 C 352.96875 207.617188 356.070312 206.761719 359.191406 205.976562 C 362.3125 205.195312 365.453125 204.488281 368.609375 203.863281 C 371.765625 203.234375 374.9375 202.683594 378.121094 202.210938 C 381.304688 201.738281 384.5 201.34375 387.703125 201.027344 C 390.90625 200.714844 394.113281 200.476562 397.328125 200.320312 C 400.542969 200.160156 403.761719 200.082031 406.980469 200.082031 C 410.199219 200.082031 413.414062 200.160156 416.628906 200.320312 C 419.84375 200.476562 423.054688 200.714844 426.257812 201.027344 C 429.460938 201.34375 432.652344 201.738281 435.835938 202.210938 C 439.019531 202.683594 442.191406 203.234375 445.347656 203.863281 C 448.503906 204.488281 451.644531 205.195312 454.765625 205.976562 C 457.890625 206.761719 460.992188 207.617188 464.070312 208.554688 C 467.152344 209.488281 470.207031 210.496094 473.238281 211.582031 C 476.269531 212.667969 479.269531 213.824219 482.242188 215.058594 C 485.21875 216.289062 488.160156 217.59375 491.070312 218.972656 C 493.980469 220.347656 496.851562 221.796875 499.691406 223.3125 C 502.53125 224.832031 505.328125 226.417969 508.089844 228.074219 C 510.851562 229.726562 513.570312 231.449219 516.246094 233.238281 C 518.921875 235.027344 521.554688 236.882812 524.140625 238.800781 C 526.722656 240.71875 529.261719 242.699219 531.75 244.742188 C 534.238281 246.78125 536.675781 248.886719 539.058594 251.046875 C 541.445312 253.210938 543.773438 255.429688 546.050781 257.707031 C 548.328125 259.984375 550.546875 262.316406 552.707031 264.699219 C 554.867188 267.085938 556.96875 269.523438 559.011719 272.011719 C 561.054688 274.5 563.035156 277.039062 564.949219 279.625 C 566.867188 282.210938 568.722656 284.84375 570.507812 287.519531 C 572.296875 290.199219 574.019531 292.917969 575.675781 295.679688 C 577.328125 298.441406 578.914062 301.242188 580.433594 304.082031 C 581.949219 306.921875 583.394531 309.796875 584.773438 312.707031 C 586.148438 315.617188 587.453125 318.558594 588.683594 321.535156 C 589.917969 324.507812 591.074219 327.511719 592.160156 330.542969 C 593.242188 333.574219 594.253906 336.632812 595.1875 339.714844 C 596.121094 342.792969 596.980469 345.898438 597.761719 349.019531 C 598.542969 352.144531 599.25 355.285156 599.875 358.441406 C 600.503906 361.601562 601.054688 364.773438 601.527344 367.957031 C 602 371.140625 602.394531 374.335938 602.707031 377.539062 C 603.023438 380.746094 603.261719 383.957031 603.417969 387.171875 C 603.578125 390.386719 603.65625 393.605469 603.65625 396.824219 Z M 603.65625 396.824219 " fill-opacity="1" fill-rule="nonzero"/><path fill="#420f7c" d="M 304.058594 590.351562 C 302.507812 590.351562 301.25 589.09375 301.25 587.539062 L 301.25 502.894531 C 301.25 497.875 305.34375 493.789062 310.378906 493.789062 L 360.71875 493.789062 C 362.273438 493.789062 363.53125 495.046875 363.53125 496.601562 C 363.53125 498.152344 362.273438 499.410156 360.71875 499.410156 L 310.378906 499.410156 C 308.445312 499.410156 306.871094 500.976562 306.871094 502.894531 L 306.871094 587.539062 C 306.871094 589.089844 305.613281 590.351562 304.058594 590.351562 Z M 304.058594 590.351562 " fill-opacity="1" fill-rule="nonzero"/><path fill="#420f7c" d="M 512.027344 590.351562 C 510.472656 590.351562 509.214844 589.09375 509.214844 587.539062 L 509.214844 502.894531 C 509.214844 500.976562 507.640625 499.410156 505.707031 499.410156 L 452.839844 499.410156 C 451.289062 499.410156 450.03125 498.152344 450.03125 496.601562 C 450.03125 495.046875 451.289062 493.789062 452.839844 493.789062 L 505.707031 493.789062 C 510.742188 493.789062 514.835938 497.875 514.835938 502.894531 L 514.835938 587.539062 C 514.835938 589.089844 513.578125 590.351562 512.027344 590.351562 Z M 512.027344 590.351562 " fill-opacity="1" fill-rule="nonzero"/><path fill="#420f7c" d="M 407.773438 609.152344 C 406.21875 609.152344 404.960938 607.890625 404.960938 606.339844 L 404.960938 557.632812 C 404.960938 556.078125 406.222656 554.820312 407.773438 554.820312 C 409.324219 554.820312 410.582031 556.078125 410.582031 557.632812 L 410.582031 606.339844 C 410.582031 607.890625 409.324219 609.152344 407.773438 609.152344 Z M 407.773438 609.152344 " fill-opacity="1" fill-rule="nonzero"/><path fill="#ffffff" d="M 553.480469 592.183594 C 553.480469 593.558594 553.414062 594.933594 553.285156 596.304688 C 553.15625 597.675781 552.960938 599.039062 552.699219 600.390625 C 552.441406 601.742188 552.117188 603.078125 551.730469 604.394531 C 551.34375 605.714844 550.898438 607.007812 550.386719 608.28125 C 549.878906 609.554688 549.3125 610.800781 548.683594 612.015625 C 548.054688 613.230469 547.375 614.410156 546.632812 615.558594 C 545.894531 616.703125 545.101562 617.808594 544.257812 618.871094 C 543.414062 619.9375 542.523438 620.957031 541.582031 621.933594 C 540.640625 622.90625 539.65625 623.832031 538.628906 624.707031 C 537.597656 625.578125 536.53125 626.398438 535.425781 627.164062 C 534.320312 627.929688 533.179688 628.636719 532.007812 629.289062 C 530.832031 629.9375 529.632812 630.527344 528.402344 631.054688 C 527.171875 631.582031 525.921875 632.042969 524.648438 632.445312 C 523.375 632.84375 522.085938 633.179688 520.78125 633.445312 C 519.476562 633.714844 518.160156 633.917969 516.835938 634.054688 C 515.511719 634.1875 514.1875 634.253906 512.855469 634.253906 C 511.523438 634.253906 510.199219 634.1875 508.875 634.054688 C 507.550781 633.917969 506.234375 633.714844 504.929688 633.445312 C 503.625 633.179688 502.335938 632.84375 501.0625 632.445312 C 499.789062 632.042969 498.539062 631.582031 497.308594 631.054688 C 496.078125 630.527344 494.878906 629.9375 493.703125 629.289062 C 492.53125 628.636719 491.390625 627.929688 490.285156 627.164062 C 489.179688 626.398438 488.113281 625.578125 487.082031 624.707031 C 486.054688 623.832031 485.070312 622.90625 484.128906 621.933594 C 483.1875 620.957031 482.296875 619.9375 481.453125 618.875 C 480.609375 617.808594 479.816406 616.703125 479.078125 615.558594 C 478.335938 614.410156 477.65625 613.230469 477.027344 612.015625 C 476.398438 610.800781 475.832031 609.554688 475.324219 608.28125 C 474.8125 607.007812 474.367188 605.714844 473.980469 604.394531 C 473.59375 603.078125 473.269531 601.742188 473.011719 600.390625 C 472.75 599.039062 472.554688 597.675781 472.425781 596.304688 C 472.296875 594.933594 472.230469 593.558594 472.230469 592.183594 C 472.230469 590.804688 472.296875 589.429688 472.425781 588.058594 C 472.554688 586.6875 472.75 585.324219 473.011719 583.972656 C 473.269531 582.621094 473.59375 581.285156 473.980469 579.96875 C 474.367188 578.648438 474.8125 577.355469 475.324219 576.082031 C 475.832031 574.808594 476.398438 573.5625 477.027344 572.347656 C 477.65625 571.132812 478.335938 569.953125 479.078125 568.808594 C 479.816406 567.660156 480.609375 566.554688 481.453125 565.492188 C 482.296875 564.425781 483.1875 563.40625 484.128906 562.429688 C 485.070312 561.457031 486.054688 560.53125 487.082031 559.660156 C 488.113281 558.785156 489.179688 557.964844 490.285156 557.199219 C 491.390625 556.433594 492.53125 555.726562 493.703125 555.074219 C 494.878906 554.425781 496.078125 553.839844 497.308594 553.3125 C 498.539062 552.785156 499.789062 552.320312 501.0625 551.917969 C 502.335938 551.519531 503.625 551.183594 504.929688 550.917969 C 506.234375 550.648438 507.550781 550.445312 508.875 550.3125 C 510.199219 550.175781 511.523438 550.109375 512.855469 550.109375 C 514.1875 550.109375 515.511719 550.175781 516.835938 550.3125 C 518.160156 550.445312 519.476562 550.648438 520.78125 550.917969 C 522.085938 551.183594 523.375 551.519531 524.648438 551.917969 C 525.921875 552.320312 527.171875 552.785156 528.402344 553.3125 C 529.632812 553.839844 530.832031 554.425781 532.007812 555.074219 C 533.179688 555.726562 534.320312 556.433594 535.425781 557.199219 C 536.53125 557.964844 537.597656 558.785156 538.628906 559.660156 C 539.65625 560.53125 540.640625 561.457031 541.582031 562.429688 C 542.523438 563.40625 543.414062 564.425781 544.257812 565.492188 C 545.101562 566.554688 545.894531 567.660156 546.632812 568.808594 C 547.375 569.953125 548.054688 571.132812 548.683594 572.347656 C 549.3125 573.5625 549.878906 574.808594 550.386719 576.082031 C 550.898438 577.355469 551.34375 578.648438 551.730469 579.96875 C 552.117188 581.285156 552.441406 582.621094 552.699219 583.972656 C 552.960938 585.324219 553.15625 586.6875 553.285156 588.058594 C 553.414062 589.429688 553.480469 590.804688 553.480469 592.183594 Z M 553.480469 592.183594 " fill-opacity="1" fill-rule="nonzero"/><path fill="#420f7c" d="M 512.855469 637.066406 C 488.90625 637.066406 469.421875 616.929688 469.421875 592.179688 C 469.421875 567.433594 488.90625 547.296875 512.855469 547.296875 C 536.804688 547.296875 556.289062 567.433594 556.289062 592.179688 C 556.289062 616.929688 536.804688 637.066406 512.855469 637.066406 Z M 512.855469 552.917969 C 492.003906 552.917969 475.039062 570.53125 475.039062 592.179688 C 475.039062 613.832031 492.003906 631.445312 512.855469 631.445312 C 533.707031 631.445312 550.671875 613.832031 550.671875 592.179688 C 550.671875 570.53125 533.707031 552.917969 512.855469 552.917969 Z M 512.855469 552.917969 " fill-opacity="1" fill-rule="nonzero"/><path fill="#ffffff" d="M 448.398438 639.171875 C 448.398438 640.546875 448.332031 641.921875 448.203125 643.292969 C 448.070312 644.667969 447.875 646.027344 447.617188 647.378906 C 447.355469 648.730469 447.035156 650.066406 446.648438 651.382812 C 446.261719 652.703125 445.8125 654 445.304688 655.273438 C 444.796875 656.542969 444.226562 657.789062 443.601562 659.003906 C 442.972656 660.21875 442.289062 661.398438 441.550781 662.546875 C 440.8125 663.691406 440.019531 664.796875 439.175781 665.863281 C 438.332031 666.925781 437.441406 667.945312 436.5 668.921875 C 435.558594 669.894531 434.574219 670.820312 433.542969 671.695312 C 432.515625 672.570312 431.449219 673.386719 430.34375 674.152344 C 429.238281 674.917969 428.097656 675.628906 426.921875 676.277344 C 425.75 676.925781 424.546875 677.515625 423.320312 678.042969 C 422.089844 678.570312 420.839844 679.03125 419.566406 679.433594 C 418.292969 679.832031 417.003906 680.167969 415.699219 680.4375 C 414.394531 680.703125 413.078125 680.90625 411.753906 681.042969 C 410.429688 681.175781 409.101562 681.246094 407.773438 681.246094 C 406.441406 681.246094 405.113281 681.175781 403.789062 681.042969 C 402.464844 680.90625 401.152344 680.703125 399.847656 680.4375 C 398.542969 680.167969 397.253906 679.832031 395.980469 679.433594 C 394.707031 679.03125 393.457031 678.570312 392.226562 678.042969 C 390.996094 677.515625 389.796875 676.925781 388.621094 676.277344 C 387.449219 675.628906 386.308594 674.917969 385.203125 674.152344 C 384.097656 673.386719 383.027344 672.570312 382 671.695312 C 380.972656 670.820312 379.988281 669.894531 379.046875 668.921875 C 378.105469 667.945312 377.214844 666.925781 376.367188 665.863281 C 375.523438 664.796875 374.734375 663.691406 373.996094 662.546875 C 373.253906 661.398438 372.570312 660.21875 371.945312 659.003906 C 371.316406 657.789062 370.75 656.542969 370.238281 655.273438 C 369.730469 654 369.28125 652.703125 368.898438 651.382812 C 368.511719 650.066406 368.1875 648.730469 367.929688 647.378906 C 367.667969 646.027344 367.472656 644.667969 367.34375 643.292969 C 367.210938 641.921875 367.148438 640.546875 367.148438 639.171875 C 367.148438 637.792969 367.210938 636.417969 367.34375 635.046875 C 367.472656 633.675781 367.667969 632.3125 367.929688 630.960938 C 368.1875 629.609375 368.511719 628.277344 368.898438 626.957031 C 369.28125 625.640625 369.730469 624.34375 370.238281 623.070312 C 370.75 621.796875 371.316406 620.550781 371.945312 619.335938 C 372.570312 618.121094 373.253906 616.941406 373.996094 615.796875 C 374.734375 614.648438 375.523438 613.542969 376.367188 612.480469 C 377.214844 611.414062 378.105469 610.394531 379.046875 609.421875 C 379.988281 608.445312 380.972656 607.523438 382 606.648438 C 383.027344 605.773438 384.097656 604.953125 385.203125 604.1875 C 386.308594 603.421875 387.449219 602.714844 388.621094 602.066406 C 389.796875 601.414062 390.996094 600.828125 392.226562 600.300781 C 393.457031 599.773438 394.707031 599.308594 395.980469 598.910156 C 397.253906 598.507812 398.542969 598.175781 399.847656 597.90625 C 401.152344 597.636719 402.464844 597.433594 403.789062 597.300781 C 405.113281 597.164062 406.441406 597.097656 407.773438 597.097656 C 409.101562 597.097656 410.429688 597.164062 411.753906 597.300781 C 413.078125 597.433594 414.394531 597.636719 415.699219 597.90625 C 417.003906 598.175781 418.292969 598.507812 419.566406 598.910156 C 420.839844 599.308594 422.089844 599.773438 423.320312 600.300781 C 424.546875 600.828125 425.75 601.414062 426.921875 602.066406 C 428.097656 602.714844 429.238281 603.421875 430.34375 604.1875 C 431.449219 604.953125 432.515625 605.773438 433.542969 606.648438 C 434.574219 607.523438 435.558594 608.445312 436.5 609.421875 C 437.441406 610.394531 438.332031 611.414062 439.175781 612.480469 C 440.019531 613.542969 440.8125 614.648438 441.550781 615.796875 C 442.289062 616.941406 442.972656 618.121094 443.601562 619.335938 C 444.226562 620.550781 444.796875 621.796875 445.304688 623.070312 C 445.8125 624.34375 446.261719 625.640625 446.648438 626.957031 C 447.035156 628.277344 447.355469 629.609375 447.617188 630.960938 C 447.875 632.3125 448.070312 633.675781 448.203125 635.046875 C 448.332031 636.417969 448.398438 637.792969 448.398438 639.171875 Z M 448.398438 639.171875 " fill-opacity="1" fill-rule="nonzero"/><g clip-path="url(#30e4de3007)"><path fill="#420f7c" d="M 407.773438 684.054688 C 383.824219 684.054688 364.335938 663.921875 364.335938 639.171875 C 364.335938 614.421875 383.824219 594.285156 407.773438 594.285156 C 431.722656 594.285156 451.207031 614.421875 451.207031 639.171875 C 451.207031 663.921875 431.722656 684.054688 407.773438 684.054688 Z M 407.773438 599.90625 C 386.921875 599.90625 369.957031 617.519531 369.957031 639.171875 C 369.957031 660.820312 386.921875 678.433594 407.773438 678.433594 C 428.625 678.433594 445.585938 660.820312 445.585938 639.171875 C 445.585938 617.519531 428.625 599.90625 407.773438 599.90625 Z M 407.773438 599.90625 " fill-opacity="1" fill-rule="nonzero"/></g><path fill="#ffffff" d="M 344.683594 592.183594 C 344.683594 593.558594 344.621094 594.933594 344.488281 596.304688 C 344.359375 597.675781 344.164062 599.039062 343.90625 600.390625 C 343.644531 601.742188 343.320312 603.078125 342.9375 604.394531 C 342.550781 605.714844 342.101562 607.007812 341.59375 608.28125 C 341.082031 609.554688 340.515625 610.800781 339.886719 612.015625 C 339.261719 613.230469 338.578125 614.410156 337.839844 615.558594 C 337.097656 616.703125 336.308594 617.808594 335.464844 618.871094 C 334.621094 619.9375 333.726562 620.957031 332.785156 621.933594 C 331.84375 622.90625 330.859375 623.832031 329.832031 624.707031 C 328.804688 625.578125 327.738281 626.398438 326.628906 627.164062 C 325.523438 627.929688 324.382812 628.636719 323.210938 629.289062 C 322.039062 629.9375 320.835938 630.527344 319.605469 631.054688 C 318.378906 631.582031 317.125 632.042969 315.851562 632.445312 C 314.578125 632.84375 313.289062 633.179688 311.984375 633.445312 C 310.679688 633.714844 309.367188 633.917969 308.042969 634.054688 C 306.71875 634.1875 305.390625 634.253906 304.058594 634.253906 C 302.730469 634.253906 301.402344 634.1875 300.078125 634.054688 C 298.753906 633.917969 297.441406 633.714844 296.132812 633.445312 C 294.828125 633.179688 293.539062 632.84375 292.265625 632.445312 C 290.992188 632.042969 289.742188 631.582031 288.511719 631.054688 C 287.285156 630.527344 286.082031 629.9375 284.910156 629.289062 C 283.734375 628.636719 282.597656 627.929688 281.488281 627.164062 C 280.382812 626.398438 279.316406 625.578125 278.289062 624.707031 C 277.257812 623.832031 276.273438 622.90625 275.332031 621.933594 C 274.394531 620.957031 273.5 619.9375 272.65625 618.875 C 271.8125 617.808594 271.019531 616.703125 270.28125 615.558594 C 269.542969 614.410156 268.859375 613.230469 268.230469 612.015625 C 267.605469 610.800781 267.035156 609.554688 266.527344 608.28125 C 266.019531 607.007812 265.570312 605.714844 265.183594 604.394531 C 264.796875 603.078125 264.476562 601.742188 264.214844 600.390625 C 263.957031 599.039062 263.761719 597.675781 263.628906 596.304688 C 263.5 594.933594 263.433594 593.558594 263.433594 592.183594 C 263.433594 590.804688 263.5 589.429688 263.628906 588.058594 C 263.761719 586.6875 263.957031 585.324219 264.214844 583.972656 C 264.476562 582.621094 264.796875 581.285156 265.183594 579.96875 C 265.570312 578.648438 266.019531 577.355469 266.527344 576.082031 C 267.035156 574.808594 267.605469 573.5625 268.230469 572.347656 C 268.859375 571.132812 269.542969 569.953125 270.28125 568.808594 C 271.019531 567.660156 271.8125 566.554688 272.65625 565.492188 C 273.5 564.425781 274.394531 563.40625 275.332031 562.429688 C 276.273438 561.457031 277.257812 560.53125 278.289062 559.660156 C 279.316406 558.785156 280.382812 557.964844 281.488281 557.199219 C 282.597656 556.433594 283.734375 555.726562 284.910156 555.074219 C 286.082031 554.425781 287.285156 553.839844 288.511719 553.3125 C 289.742188 552.785156 290.992188 552.320312 292.265625 551.917969 C 293.539062 551.519531 294.828125 551.183594 296.132812 550.917969 C 297.441406 550.648438 298.753906 550.445312 300.078125 550.3125 C 301.402344 550.175781 302.730469 550.109375 304.058594 550.109375 C 305.390625 550.109375 306.71875 550.175781 308.042969 550.3125 C 309.367188 550.445312 310.679688 550.648438 311.984375 550.917969 C 313.289062 551.183594 314.578125 551.519531 315.851562 551.917969 C 317.125 552.320312 318.378906 552.785156 319.605469 553.3125 C 320.835938 553.839844 322.039062 554.425781 323.210938 555.074219 C 324.382812 555.726562 325.523438 556.433594 326.628906 557.199219 C 327.738281 557.964844 328.804688 558.785156 329.832031 559.660156 C 330.859375 560.53125 331.84375 561.457031 332.785156 562.429688 C 333.726562 563.40625 334.621094 564.425781 335.464844 565.492188 C 336.308594 566.554688 337.097656 567.660156 337.839844 568.808594 C 338.578125 569.953125 339.261719 571.132812 339.886719 572.347656 C 340.515625 573.5625 341.082031 574.808594 341.59375 576.082031 C 342.101562 577.355469 342.550781 578.648438 342.9375 579.96875 C 343.320312 581.285156 343.644531 582.621094 343.90625 583.972656 C 344.164062 585.324219 344.359375 586.6875 344.488281 588.058594 C 344.621094 589.429688 344.683594 590.804688 344.683594 592.183594 Z M 344.683594 592.183594 " fill-opacity="1" fill-rule="nonzero"/><path fill="#420f7c" d="M 304.058594 637.066406 C 280.109375 637.066406 260.625 616.929688 260.625 592.179688 C 260.625 567.433594 280.109375 547.296875 304.058594 547.296875 C 328.011719 547.296875 347.496094 567.433594 347.496094 592.179688 C 347.496094 616.929688 328.011719 637.066406 304.058594 637.066406 Z M 304.058594 552.917969 C 283.210938 552.917969 266.246094 570.53125 266.246094 592.179688 C 266.246094 613.832031 283.210938 631.445312 304.058594 631.445312 C 324.910156 631.445312 341.875 613.832031 341.875 592.179688 C 341.875 570.53125 324.910156 552.917969 304.058594 552.917969 Z M 304.058594 552.917969 " fill-opacity="1" fill-rule="nonzero"/><path fill="#ffd694" d="M 467.015625 464.316406 C 464.902344 460.59375 462.457031 457.175781 459.792969 454.011719 L 467.867188 433.410156 C 463.242188 429.105469 458.125 425.199219 452.449219 421.863281 C 446.773438 418.53125 440.871094 415.960938 434.859375 414.011719 L 420.792969 431.109375 C 412.617188 429.507812 404.140625 429.429688 395.773438 430.929688 L 381.957031 413.613281 C 375.917969 415.46875 369.976562 417.949219 364.25 421.199219 C 358.527344 424.445312 353.351562 428.277344 348.660156 432.511719 L 356.429688 453.253906 C 350.851562 459.671875 346.574219 466.988281 343.746094 474.832031 L 321.863281 478.140625 C 320.449219 484.300781 319.625 490.6875 319.574219 497.269531 C 319.523438 503.851562 320.25 510.253906 321.570312 516.433594 L 343.394531 520.074219 C 344.742188 523.980469 346.414062 527.832031 348.53125 531.558594 C 350.640625 535.285156 353.089844 538.699219 355.753906 541.863281 L 347.675781 562.464844 C 352.304688 566.769531 357.421875 570.679688 363.09375 574.015625 C 368.769531 577.347656 374.675781 579.917969 380.6875 581.867188 L 394.753906 564.769531 C 402.929688 566.367188 411.402344 566.449219 419.773438 564.949219 L 433.585938 582.265625 C 439.625 580.410156 445.566406 577.925781 451.292969 574.679688 C 457.015625 571.433594 462.191406 567.601562 466.886719 563.367188 L 459.113281 542.621094 C 464.695312 536.207031 468.972656 528.886719 471.796875 521.046875 L 493.679688 517.738281 C 495.09375 511.578125 495.921875 505.1875 495.972656 498.605469 C 496.019531 492.023438 495.292969 485.625 493.972656 479.441406 L 472.152344 475.804688 C 470.804688 471.898438 469.128906 468.046875 467.015625 464.316406 Z M 467.015625 464.316406 " fill-opacity="1" fill-rule="nonzero"/><path fill="#420f7c" d="M 433.585938 585.078125 C 432.746094 585.078125 431.929688 584.699219 431.390625 584.019531 L 418.609375 567.996094 C 411.019531 569.171875 403.390625 569.117188 395.871094 567.832031 L 382.855469 583.652344 C 382.121094 584.542969 380.917969 584.894531 379.820312 584.539062 C 373.371094 582.449219 367.265625 579.726562 361.671875 576.4375 C 356.078125 573.148438 350.726562 569.140625 345.761719 564.523438 C 344.917969 563.734375 344.636719 562.511719 345.058594 561.4375 L 352.535156 542.375 C 350.0625 539.308594 347.898438 536.144531 346.085938 532.945312 C 344.269531 529.746094 342.664062 526.265625 341.300781 522.574219 L 321.109375 519.207031 C 319.972656 519.019531 319.066406 518.152344 318.824219 517.023438 C 317.40625 510.394531 316.714844 503.738281 316.761719 497.25 C 316.8125 490.757812 317.609375 484.117188 319.121094 477.511719 C 319.382812 476.382812 320.300781 475.53125 321.441406 475.359375 L 341.695312 472.300781 C 344.449219 465.183594 348.320312 458.601562 353.21875 452.691406 L 346.027344 433.496094 C 345.625 432.414062 345.921875 431.195312 346.777344 430.421875 C 351.808594 425.882812 357.222656 421.953125 362.863281 418.753906 C 368.503906 415.550781 374.648438 412.917969 381.132812 410.925781 C 382.238281 410.585938 383.433594 410.957031 384.15625 411.859375 L 396.9375 427.882812 C 404.527344 426.707031 412.160156 426.761719 419.675781 428.046875 L 432.691406 412.226562 C 433.425781 411.335938 434.628906 410.984375 435.726562 411.339844 C 442.171875 413.425781 448.277344 416.152344 453.871094 419.441406 C 459.472656 422.730469 464.824219 426.738281 469.78125 431.355469 C 470.628906 432.140625 470.90625 433.363281 470.484375 434.4375 L 463.011719 453.503906 C 465.476562 456.5625 467.644531 459.726562 469.460938 462.929688 C 471.277344 466.132812 472.882812 469.613281 474.242188 473.304688 L 494.433594 476.671875 C 495.574219 476.859375 496.480469 477.726562 496.722656 478.855469 C 498.136719 485.492188 498.832031 492.140625 498.78125 498.625 C 498.730469 505.121094 497.9375 511.761719 496.421875 518.367188 C 496.164062 519.492188 495.242188 520.34375 494.101562 520.515625 L 473.851562 523.578125 C 471.09375 530.695312 467.226562 537.277344 462.324219 543.183594 L 469.519531 562.382812 C 469.921875 563.464844 469.625 564.683594 468.769531 565.457031 C 463.726562 570.003906 458.3125 573.929688 452.679688 577.125 C 447.035156 580.328125 440.886719 582.960938 434.410156 584.953125 C 434.140625 585.035156 433.859375 585.078125 433.585938 585.078125 Z M 419.773438 562.136719 C 420.621094 562.136719 421.433594 562.519531 421.972656 563.195312 L 434.574219 579 C 439.996094 577.207031 445.144531 574.9375 449.90625 572.234375 C 454.660156 569.539062 459.25 566.28125 463.574219 562.542969 L 456.480469 543.609375 C 456.121094 542.644531 456.316406 541.554688 456.992188 540.777344 C 462.328125 534.648438 466.417969 527.6875 469.152344 520.09375 C 469.503906 519.121094 470.355469 518.421875 471.378906 518.265625 L 491.351562 515.246094 C 492.511719 509.65625 493.117188 504.0625 493.160156 498.582031 C 493.203125 493.113281 492.679688 487.511719 491.601562 481.898438 L 471.6875 478.578125 C 470.671875 478.410156 469.828125 477.695312 469.492188 476.722656 C 468.113281 472.714844 466.503906 469.109375 464.570312 465.703125 C 462.667969 462.347656 460.335938 459.023438 457.644531 455.824219 C 456.980469 455.035156 456.800781 453.945312 457.175781 452.988281 L 464.546875 434.1875 C 460.289062 430.386719 455.75 427.0625 451.027344 424.289062 C 446.308594 421.515625 441.191406 419.167969 435.800781 417.292969 L 422.964844 432.894531 C 422.308594 433.695312 421.269531 434.066406 420.253906 433.867188 C 412.347656 432.320312 404.273438 432.261719 396.265625 433.695312 C 395.253906 433.878906 394.21875 433.488281 393.574219 432.679688 L 380.96875 416.878906 C 375.542969 418.671875 370.394531 420.945312 365.640625 423.644531 C 360.878906 426.34375 356.289062 429.597656 351.972656 433.335938 L 359.0625 452.265625 C 359.425781 453.230469 359.226562 454.320312 358.550781 455.097656 C 353.21875 461.234375 349.125 468.195312 346.390625 475.785156 C 346.042969 476.757812 345.1875 477.457031 344.167969 477.613281 L 324.195312 480.628906 C 323.035156 486.222656 322.425781 491.820312 322.382812 497.292969 C 322.34375 502.765625 322.867188 508.371094 323.941406 513.980469 L 343.855469 517.300781 C 344.871094 517.46875 345.714844 518.179688 346.050781 519.15625 C 347.414062 523.109375 349.070312 526.816406 350.972656 530.171875 C 352.902344 533.574219 355.167969 536.804688 357.902344 540.054688 C 358.566406 540.84375 358.746094 541.929688 358.371094 542.890625 L 351 561.6875 C 355.261719 565.492188 359.800781 568.816406 364.519531 571.589844 C 369.238281 574.363281 374.351562 576.710938 379.746094 578.585938 L 392.582031 562.980469 C 393.238281 562.183594 394.277344 561.8125 395.292969 562.007812 C 403.207031 563.558594 411.277344 563.613281 419.28125 562.183594 C 419.445312 562.152344 419.609375 562.136719 419.773438 562.136719 Z M 419.773438 562.136719 " fill-opacity="1" fill-rule="nonzero"/><path fill="#420f7c" d="M 417.417969 531.34375 L 398.128906 531.34375 C 390.601562 531.34375 384.480469 525.21875 384.480469 517.691406 L 384.480469 511.503906 C 384.480469 509.949219 385.738281 508.691406 387.289062 508.691406 C 388.84375 508.691406 390.101562 509.949219 390.101562 511.503906 L 390.101562 517.691406 C 390.101562 522.117188 393.703125 525.722656 398.128906 525.722656 L 417.417969 525.722656 C 421.84375 525.722656 425.445312 522.117188 425.445312 517.691406 L 425.445312 508.78125 C 425.445312 504.351562 421.84375 500.75 417.417969 500.75 L 398.128906 500.75 C 390.601562 500.75 384.480469 494.625 384.480469 487.097656 L 384.480469 478.1875 C 384.480469 470.660156 390.601562 464.535156 398.128906 464.535156 L 417.417969 464.535156 C 424.941406 464.535156 431.066406 470.660156 431.066406 478.1875 L 431.066406 484.183594 C 431.066406 485.734375 429.808594 486.996094 428.253906 486.996094 C 426.703125 486.996094 425.445312 485.734375 425.445312 484.183594 L 425.445312 478.1875 C 425.445312 473.757812 421.84375 470.15625 417.417969 470.15625 L 398.128906 470.15625 C 393.703125 470.15625 390.101562 473.757812 390.101562 478.1875 L 390.101562 487.097656 C 390.101562 491.527344 393.703125 495.128906 398.128906 495.128906 L 417.417969 495.128906 C 424.941406 495.128906 431.066406 501.253906 431.066406 508.78125 L 431.066406 517.691406 C 431.066406 525.21875 424.941406 531.34375 417.417969 531.34375 Z M 417.417969 531.34375 " fill-opacity="1" fill-rule="nonzero"/><path fill="#420f7c" d="M 407.773438 545.789062 C 406.21875 545.789062 404.960938 544.53125 404.960938 542.980469 L 404.960938 528.53125 C 404.960938 526.976562 406.222656 525.71875 407.773438 525.71875 C 409.324219 525.71875 410.582031 526.976562 410.582031 528.53125 L 410.582031 542.980469 C 410.582031 544.53125 409.324219 545.789062 407.773438 545.789062 Z M 407.773438 545.789062 " fill-opacity="1" fill-rule="nonzero"/><path fill="#420f7c" d="M 407.773438 470.15625 C 406.21875 470.15625 404.960938 468.898438 404.960938 467.34375 L 404.960938 452.898438 C 404.960938 451.347656 406.222656 450.089844 407.773438 450.089844 C 409.324219 450.089844 410.582031 451.347656 410.582031 452.898438 L 410.582031 467.34375 C 410.582031 468.898438 409.324219 470.15625 407.773438 470.15625 Z M 407.773438 470.15625 " fill-opacity="1" fill-rule="nonzero"/><path fill="#420f7c" d="M 518.316406 612.316406 L 507.394531 612.316406 C 502.460938 612.316406 498.449219 608.300781 498.449219 603.367188 L 498.449219 599.863281 C 498.449219 598.308594 499.707031 597.050781 501.257812 597.050781 C 502.808594 597.050781 504.066406 598.308594 504.066406 599.863281 L 504.066406 603.367188 C 504.066406 605.199219 505.558594 606.695312 507.394531 606.695312 L 518.316406 606.695312 C 520.152344 606.695312 521.644531 605.199219 521.644531 603.367188 L 521.644531 598.320312 C 521.644531 596.484375 520.152344 594.992188 518.316406 594.992188 L 507.394531 594.992188 C 502.460938 594.992188 498.449219 590.976562 498.449219 586.042969 L 498.449219 580.996094 C 498.449219 576.0625 502.460938 572.046875 507.394531 572.046875 L 518.316406 572.046875 C 523.25 572.046875 527.261719 576.0625 527.261719 580.996094 L 527.261719 584.394531 C 527.261719 585.945312 526.003906 587.203125 524.453125 587.203125 C 522.902344 587.203125 521.644531 585.945312 521.644531 584.394531 L 521.644531 580.996094 C 521.644531 579.164062 520.152344 577.667969 518.316406 577.667969 L 507.394531 577.667969 C 505.558594 577.667969 504.066406 579.164062 504.066406 580.996094 L 504.066406 586.042969 C 504.066406 587.878906 505.558594 589.371094 507.394531 589.371094 L 518.316406 589.371094 C 523.25 589.371094 527.261719 593.386719 527.261719 598.320312 L 527.261719 603.367188 C 527.261719 608.300781 523.25 612.316406 518.316406 612.316406 Z M 518.316406 612.316406 " fill-opacity="1" fill-rule="nonzero"/><path fill="#420f7c" d="M 512.855469 620.496094 C 511.304688 620.496094 510.046875 619.238281 510.046875 617.683594 L 510.046875 609.503906 C 510.046875 607.953125 511.304688 606.691406 512.855469 606.691406 C 514.40625 606.691406 515.664062 607.953125 515.664062 609.503906 L 515.664062 617.683594 C 515.664062 619.238281 514.40625 620.496094 512.855469 620.496094 Z M 512.855469 620.496094 " fill-opacity="1" fill-rule="nonzero"/><path fill="#420f7c" d="M 512.855469 577.667969 C 511.304688 577.667969 510.046875 576.410156 510.046875 574.859375 L 510.046875 566.679688 C 510.046875 565.125 511.304688 563.867188 512.855469 563.867188 C 514.40625 563.867188 515.664062 565.125 515.664062 566.679688 L 515.664062 574.859375 C 515.664062 576.410156 514.40625 577.667969 512.855469 577.667969 Z M 512.855469 577.667969 " fill-opacity="1" fill-rule="nonzero"/><path fill="#420f7c" d="M 413.234375 659.304688 L 402.3125 659.304688 C 397.378906 659.304688 393.363281 655.289062 393.363281 650.355469 L 393.363281 646.851562 C 393.363281 645.296875 394.621094 644.039062 396.175781 644.039062 C 397.726562 644.039062 398.984375 645.296875 398.984375 646.851562 L 398.984375 650.355469 C 398.984375 652.191406 400.476562 653.683594 402.3125 653.683594 L 413.234375 653.683594 C 415.066406 653.683594 416.558594 652.191406 416.558594 650.355469 L 416.558594 645.308594 C 416.558594 643.476562 415.066406 641.980469 413.234375 641.980469 L 402.3125 641.980469 C 397.378906 641.980469 393.363281 637.96875 393.363281 633.03125 L 393.363281 627.988281 C 393.363281 623.050781 397.378906 619.035156 402.3125 619.035156 L 413.234375 619.035156 C 418.167969 619.035156 422.179688 623.050781 422.179688 627.988281 L 422.179688 631.382812 C 422.179688 632.933594 420.921875 634.191406 419.371094 634.191406 C 417.820312 634.191406 416.558594 632.933594 416.558594 631.382812 L 416.558594 627.988281 C 416.558594 626.152344 415.066406 624.660156 413.234375 624.660156 L 402.3125 624.660156 C 400.476562 624.660156 398.984375 626.152344 398.984375 627.988281 L 398.984375 633.03125 C 398.984375 634.867188 400.476562 636.359375 402.3125 636.359375 L 413.234375 636.359375 C 418.167969 636.359375 422.179688 640.375 422.179688 645.308594 L 422.179688 650.355469 C 422.179688 655.289062 418.167969 659.304688 413.234375 659.304688 Z M 413.234375 659.304688 " fill-opacity="1" fill-rule="nonzero"/><path fill="#420f7c" d="M 407.773438 667.484375 C 406.21875 667.484375 404.960938 666.226562 404.960938 664.675781 L 404.960938 656.492188 C 404.960938 654.941406 406.222656 653.683594 407.773438 653.683594 C 409.324219 653.683594 410.582031 654.941406 410.582031 656.492188 L 410.582031 664.675781 C 410.582031 666.226562 409.324219 667.484375 407.773438 667.484375 Z M 407.773438 667.484375 " fill-opacity="1" fill-rule="nonzero"/><path fill="#420f7c" d="M 407.773438 624.660156 C 406.21875 624.660156 404.960938 623.398438 404.960938 621.847656 L 404.960938 613.667969 C 404.960938 612.113281 406.222656 610.855469 407.773438 610.855469 C 409.324219 610.855469 410.582031 612.113281 410.582031 613.667969 L 410.582031 621.847656 C 410.582031 623.398438 409.324219 624.660156 407.773438 624.660156 Z M 407.773438 624.660156 " fill-opacity="1" fill-rule="nonzero"/><path fill="#420f7c" d="M 309.519531 612.316406 L 298.597656 612.316406 C 293.664062 612.316406 289.652344 608.300781 289.652344 603.367188 L 289.652344 599.863281 C 289.652344 598.308594 290.910156 597.050781 292.460938 597.050781 C 294.015625 597.050781 295.273438 598.308594 295.273438 599.863281 L 295.273438 603.367188 C 295.273438 605.199219 296.765625 606.695312 298.597656 606.695312 L 309.519531 606.695312 C 311.355469 606.695312 312.847656 605.199219 312.847656 603.367188 L 312.847656 598.320312 C 312.847656 596.484375 311.355469 594.992188 309.519531 594.992188 L 298.597656 594.992188 C 293.664062 594.992188 289.652344 590.976562 289.652344 586.042969 L 289.652344 580.996094 C 289.652344 576.0625 293.664062 572.046875 298.597656 572.046875 L 309.519531 572.046875 C 314.453125 572.046875 318.46875 576.0625 318.46875 580.996094 L 318.46875 584.394531 C 318.46875 585.945312 317.210938 587.203125 315.65625 587.203125 C 314.105469 587.203125 312.847656 585.945312 312.847656 584.394531 L 312.847656 580.996094 C 312.847656 579.164062 311.355469 577.667969 309.519531 577.667969 L 298.597656 577.667969 C 296.765625 577.667969 295.273438 579.164062 295.273438 580.996094 L 295.273438 586.042969 C 295.273438 587.878906 296.765625 589.371094 298.597656 589.371094 L 309.519531 589.371094 C 314.453125 589.371094 318.46875 593.386719 318.46875 598.320312 L 318.46875 603.367188 C 318.46875 608.300781 314.453125 612.316406 309.519531 612.316406 Z M 309.519531 612.316406 " fill-opacity="1" fill-rule="nonzero"/><path fill="#420f7c" d="M 304.058594 620.496094 C 302.507812 620.496094 301.25 619.238281 301.25 617.683594 L 301.25 609.503906 C 301.25 607.953125 302.507812 606.691406 304.058594 606.691406 C 305.613281 606.691406 306.871094 607.953125 306.871094 609.503906 L 306.871094 617.683594 C 306.871094 619.238281 305.613281 620.496094 304.058594 620.496094 Z M 304.058594 620.496094 " fill-opacity="1" fill-rule="nonzero"/><path fill="#420f7c" d="M 304.058594 577.667969 C 302.507812 577.667969 301.25 576.410156 301.25 574.859375 L 301.25 566.679688 C 301.25 565.125 302.507812 563.867188 304.058594 563.867188 C 305.613281 563.867188 306.871094 565.125 306.871094 566.679688 L 306.871094 574.859375 C 306.871094 576.410156 305.613281 577.667969 304.058594 577.667969 Z M 304.058594 577.667969 " fill-opacity="1" fill-rule="nonzero"/><path fill="#ffffff" d="M 510.730469 214.242188 C 511.417969 212.710938 512.199219 211.234375 513.066406 209.816406 Z M 510.730469 214.242188 " fill-opacity="1" fill-rule="nonzero"/><path fill="#420f7c" d="M 510.730469 217.054688 C 510.347656 217.054688 509.957031 216.976562 509.582031 216.808594 C 508.164062 216.171875 507.53125 214.507812 508.167969 213.09375 C 508.894531 211.464844 509.738281 209.871094 510.667969 208.347656 C 511.476562 207.023438 513.207031 206.605469 514.53125 207.417969 C 515.855469 208.226562 516.273438 209.957031 515.460938 211.28125 C 514.65625 212.601562 513.925781 213.984375 513.296875 215.390625 C 512.828125 216.433594 511.804688 217.054688 510.730469 217.054688 Z M 510.730469 217.054688 " fill-opacity="1" fill-rule="nonzero"/><path fill="#ffffff" d="M 490.109375 225.457031 C 495.078125 223.175781 483.753906 181.605469 551.261719 184.789062 C 569.472656 185.648438 581.28125 203.730469 584.59375 222.238281 C 584.757812 222.152344 585.007812 222.160156 585.316406 222.238281 L 589.609375 222.238281 C 605.246094 222.238281 618.042969 235.035156 618.042969 250.679688 C 618.042969 257.507812 615.601562 263.792969 611.554688 268.707031 C 591.265625 280.679688 571.054688 289.9375 551.066406 291.324219 C 544.476562 294.027344 536.5 295.46875 527.3125 295.46875 C 508.09375 295.46875 492.195312 288.367188 489.515625 279.117188 L 480.785156 279.117188 C 465.148438 279.117188 452.351562 266.320312 452.351562 250.679688 C 452.351562 241.527344 456.730469 233.355469 463.496094 228.148438 C 470.414062 226.464844 463.007812 225.808594 490.109375 225.457031 Z M 490.109375 225.457031 " fill-opacity="1" fill-rule="nonzero"/><path fill="#420f7c" d="M 611.554688 271.511719 C 610.925781 271.511719 610.292969 271.300781 609.769531 270.871094 C 608.570312 269.882812 608.402344 268.109375 609.386719 266.914062 C 613.160156 262.332031 615.238281 256.566406 615.238281 250.675781 C 615.238281 236.542969 603.742188 225.042969 589.613281 225.042969 L 585.320312 225.042969 C 585.195312 225.042969 585.074219 225.035156 584.957031 225.019531 C 584.367188 225.097656 583.757812 224.984375 583.222656 224.6875 C 582.414062 224.234375 581.878906 223.414062 581.792969 222.488281 C 580.664062 210.132812 575.46875 200.28125 566.769531 193.996094 C 557.808594 187.523438 545.652344 185.449219 533.425781 188.304688 L 532.886719 188.429688 C 512.21875 193.25 495.894531 197.0625 492.902344 225.75 C 492.8125 226.625 492.320312 227.40625 491.566406 227.863281 C 490.816406 228.316406 489.894531 228.394531 489.078125 228.074219 C 478.046875 223.722656 467.800781 228.886719 464.921875 230.574219 C 458.902344 234.09375 455.167969 241.796875 455.167969 250.675781 C 455.167969 252.6875 455.398438 254.671875 455.859375 256.582031 C 456.222656 258.089844 455.292969 259.609375 453.78125 259.972656 C 452.273438 260.332031 450.757812 259.40625 450.394531 257.894531 C 449.832031 255.558594 449.546875 253.128906 449.546875 250.675781 C 449.546875 239.804688 454.351562 230.246094 462.082031 225.722656 C 465.21875 223.882812 475.726562 218.582031 487.746094 221.730469 C 492.15625 192.160156 511.339844 187.683594 531.609375 182.953125 L 532.148438 182.828125 C 545.960938 179.605469 559.777344 182.015625 570.0625 189.4375 C 579.5 196.253906 585.355469 206.582031 587.101562 219.421875 L 589.613281 219.421875 C 606.84375 219.421875 620.859375 233.441406 620.859375 250.675781 C 620.859375 257.867188 618.324219 264.90625 613.726562 270.488281 C 613.171875 271.160156 612.367188 271.511719 611.554688 271.511719 Z M 611.554688 271.511719 " fill-opacity="1" fill-rule="nonzero"/><path fill="#420f7c" d="M 527.3125 298.28125 C 517.699219 298.28125 508.386719 296.527344 501.089844 293.339844 C 494.414062 290.425781 489.710938 286.429688 487.589844 281.929688 L 485.992188 281.929688 C 484.441406 281.929688 483.183594 280.671875 483.183594 279.117188 C 483.183594 277.566406 484.441406 276.308594 485.992188 276.308594 L 489.519531 276.308594 C 490.769531 276.308594 491.871094 277.136719 492.21875 278.335938 C 493.269531 281.96875 497.320312 285.558594 503.339844 288.1875 C 509.941406 291.070312 518.453125 292.65625 527.3125 292.65625 C 536.007812 292.65625 543.640625 291.332031 550 288.722656 C 551.433594 288.132812 553.078125 288.820312 553.667969 290.253906 C 554.253906 291.691406 553.570312 293.332031 552.132812 293.921875 C 545.09375 296.8125 536.742188 298.28125 527.3125 298.28125 Z M 527.3125 298.28125 " fill-opacity="1" fill-rule="nonzero"/><path fill="#50e2c6" d="M 580.996094 332.285156 C 580.996094 309.265625 568.742188 285.296875 550.859375 277.898438 L 550.941406 277.789062 C 557.351562 275.042969 563.292969 270.582031 567.535156 265.378906 C 587.609375 276.320312 602.734375 303.171875 602.734375 332.285156 Z M 580.996094 332.285156 " fill-opacity="1" fill-rule="nonzero"/><path fill="#420f7c" d="M 602.734375 335.097656 C 601.179688 335.097656 599.921875 333.839844 599.921875 332.285156 C 599.921875 306.066406 586.953125 280.425781 568.140625 268.972656 C 564.976562 272.433594 561.164062 275.480469 557 277.886719 C 564.0625 282.203125 570.367188 289.136719 575.105469 297.894531 C 580.714844 308.265625 583.804688 320.480469 583.804688 332.285156 C 583.804688 333.839844 582.546875 335.097656 580.996094 335.097656 C 579.445312 335.097656 578.1875 333.839844 578.1875 332.285156 C 578.1875 309.460938 565.976562 287.195312 549.785156 280.496094 C 548.984375 280.164062 548.378906 279.476562 548.152344 278.640625 C 547.921875 277.800781 548.089844 276.90625 548.613281 276.210938 L 548.695312 276.101562 C 548.992188 275.707031 549.382812 275.398438 549.835938 275.203125 C 555.84375 272.628906 561.355469 268.507812 565.355469 263.601562 C 566.210938 262.550781 567.691406 262.261719 568.878906 262.910156 C 579.226562 268.546875 588.550781 278.414062 595.140625 290.6875 C 601.945312 303.371094 605.542969 317.753906 605.542969 332.285156 C 605.542969 333.839844 604.285156 335.097656 602.734375 335.097656 Z M 602.734375 335.097656 " fill-opacity="1" fill-rule="nonzero"/><path fill="#ffd694" d="M 602.734375 332.285156 C 602.734375 303.171875 587.609375 276.320312 567.535156 265.378906 C 571.527344 260.503906 574.023438 254.972656 574.023438 249.605469 C 574.023438 249.355469 574.023438 249.097656 574.011719 248.851562 C 601.992188 262.535156 622.097656 292.351562 622.097656 332.285156 Z M 602.734375 332.285156 " fill-opacity="1" fill-rule="nonzero"/><path fill="#420f7c" d="M 622.097656 335.097656 C 620.542969 335.097656 619.285156 333.839844 619.285156 332.285156 C 619.285156 297.449219 603.375 268.261719 576.503906 253.320312 C 575.847656 257.066406 574.214844 260.863281 571.671875 264.550781 C 580.898438 270.359375 589.148438 279.527344 595.136719 290.6875 C 601.945312 303.371094 605.542969 317.753906 605.542969 332.285156 C 605.542969 333.839844 604.285156 335.097656 602.734375 335.097656 C 601.179688 335.097656 599.921875 333.839844 599.921875 332.285156 C 599.921875 305.167969 586.050781 278.671875 566.1875 267.847656 C 565.453125 267.445312 564.9375 266.738281 564.777344 265.917969 C 564.613281 265.09375 564.828125 264.242188 565.359375 263.59375 C 569.136719 258.988281 571.214844 254.019531 571.214844 249.605469 C 571.214844 249.394531 571.214844 249.175781 571.203125 249.003906 C 571.148438 248.007812 571.625 247.058594 572.457031 246.507812 C 573.289062 245.957031 574.347656 245.886719 575.246094 246.324219 C 589.960938 253.523438 602.308594 264.917969 610.953125 279.273438 C 620.082031 294.433594 624.90625 312.765625 624.90625 332.285156 C 624.90625 333.839844 623.648438 335.097656 622.097656 335.097656 Z M 622.097656 335.097656 " fill-opacity="1" fill-rule="nonzero"/><path fill="#50e2c6" d="M 443.863281 332.285156 C 443.863281 299.832031 453.386719 285.96875 464.925781 274.246094 C 469.46875 277.320312 474.929688 279.117188 480.777344 279.117188 L 485.992188 279.117188 C 475.070312 287.109375 463.828125 302.539062 464.925781 332.285156 Z M 443.863281 332.285156 " fill-opacity="1" fill-rule="nonzero"/><path fill="#420f7c" d="M 464.925781 335.097656 C 463.421875 335.097656 462.175781 333.90625 462.117188 332.390625 C 461.605469 318.429688 463.71875 306.300781 468.410156 296.34375 C 471.011719 290.824219 474.390625 285.96875 478.503906 281.847656 C 473.878906 281.507812 469.40625 280.140625 465.367188 277.832031 C 455.6875 287.996094 446.671875 301.203125 446.671875 332.285156 C 446.671875 333.839844 445.414062 335.097656 443.863281 335.097656 C 442.3125 335.097656 441.054688 333.839844 441.054688 332.285156 C 441.054688 316.957031 443.15625 304.5625 447.480469 294.390625 C 451.726562 284.414062 457.671875 277.609375 462.925781 272.273438 C 463.875 271.308594 465.378906 271.15625 466.503906 271.917969 C 470.746094 274.789062 475.679688 276.308594 480.777344 276.308594 L 485.992188 276.308594 C 487.207031 276.308594 488.285156 277.089844 488.664062 278.246094 C 489.039062 279.402344 488.632812 280.671875 487.652344 281.386719 C 473.769531 291.539062 466.882812 309.105469 467.734375 332.183594 C 467.792969 333.734375 466.582031 335.039062 465.03125 335.09375 C 464.996094 335.097656 464.960938 335.097656 464.925781 335.097656 Z M 464.925781 335.097656 " fill-opacity="1" fill-rule="nonzero"/><path fill="#ffd694" d="M 425.707031 332.285156 C 425.707031 294.769531 436.164062 270.71875 453.125 257.238281 C 454.800781 264.265625 459.109375 270.320312 464.925781 274.246094 C 453.386719 285.96875 443.863281 299.832031 443.863281 332.285156 Z M 425.707031 332.285156 " fill-opacity="1" fill-rule="nonzero"/><path fill="#420f7c" d="M 443.863281 335.097656 C 442.3125 335.097656 441.050781 333.839844 441.050781 332.285156 C 441.050781 316.957031 443.15625 304.5625 447.480469 294.390625 C 451.136719 285.796875 456.054688 279.554688 460.707031 274.582031 C 456.710938 271.226562 453.632812 266.957031 451.730469 262.136719 C 436.324219 276.40625 428.515625 299.976562 428.515625 332.285156 C 428.515625 333.839844 427.257812 335.097656 425.707031 335.097656 C 424.15625 335.097656 422.898438 333.839844 422.898438 332.285156 C 422.898438 296.046875 432.480469 270.054688 451.378906 255.035156 C 452.128906 254.4375 453.136719 254.265625 454.042969 254.578125 C 454.953125 254.894531 455.636719 255.652344 455.859375 256.585938 C 457.351562 262.847656 461.128906 268.292969 466.5 271.914062 C 467.191406 272.382812 467.640625 273.132812 467.722656 273.964844 C 467.808594 274.796875 467.515625 275.621094 466.929688 276.21875 C 456.679688 286.628906 446.671875 299.535156 446.671875 332.285156 C 446.671875 333.839844 445.414062 335.097656 443.863281 335.097656 Z M 443.863281 335.097656 " fill-opacity="1" fill-rule="nonzero"/><path fill="#420f7c" d="M 622.101562 335.105469 C 620.546875 335.105469 619.289062 333.84375 619.289062 332.292969 C 619.289062 295.867188 601.902344 265.617188 572.777344 251.378906 C 571.382812 250.699219 570.804688 249.015625 571.488281 247.621094 C 572.167969 246.226562 573.851562 245.648438 575.246094 246.328125 C 589.964844 253.523438 602.3125 264.917969 610.957031 279.273438 C 620.085938 294.433594 624.910156 312.765625 624.910156 332.292969 C 624.910156 333.84375 623.652344 335.105469 622.101562 335.105469 Z M 622.101562 335.105469 " fill-opacity="1" fill-rule="nonzero"/><path fill="#ffffff" d="M 520.164062 234.078125 C 525.734375 226.691406 535.175781 221.832031 545.878906 221.832031 C 562.730469 221.832031 573.65625 233.84375 574.011719 248.851562 C 574.023438 249.097656 574.023438 249.355469 574.023438 249.605469 C 574.023438 254.972656 571.527344 260.503906 567.535156 265.378906 C 563.292969 270.582031 557.351562 275.042969 550.941406 277.789062 C 549.707031 278.324219 548.472656 278.777344 547.210938 279.175781 Z M 520.164062 234.078125 " fill-opacity="1" fill-rule="nonzero"/><path fill="#420f7c" d="M 547.210938 281.984375 C 546.015625 281.984375 544.90625 281.21875 544.53125 280.019531 C 544.0625 278.539062 544.886719 276.960938 546.367188 276.492188 C 547.589844 276.105469 548.722656 275.6875 549.824219 275.207031 C 555.84375 272.628906 561.355469 268.507812 565.355469 263.601562 C 569.136719 258.988281 571.214844 254.019531 571.214844 249.605469 C 571.214844 249.394531 571.214844 249.175781 571.203125 249.003906 C 571.203125 248.976562 571.203125 248.945312 571.203125 248.917969 C 570.863281 234.625 560.449219 224.644531 545.878906 224.644531 C 536.4375 224.644531 527.660156 228.804688 522.40625 235.773438 C 521.46875 237.011719 519.707031 237.257812 518.46875 236.324219 C 517.230469 235.386719 516.984375 233.625 517.917969 232.386719 C 524.230469 224.019531 534.683594 219.023438 545.878906 219.023438 C 554.730469 219.023438 562.417969 222.03125 568.117188 227.726562 C 573.527344 233.132812 576.617188 240.59375 576.820312 248.742188 C 576.835938 249.050781 576.835938 249.34375 576.835938 249.605469 C 576.835938 255.398438 574.371094 261.46875 569.707031 267.160156 C 565.148438 272.753906 558.875 277.445312 552.050781 280.371094 C 550.777344 280.921875 549.46875 281.410156 548.054688 281.855469 C 547.773438 281.945312 547.488281 281.984375 547.210938 281.984375 Z M 547.210938 281.984375 " fill-opacity="1" fill-rule="nonzero"/><path fill="#ffffff" d="M 517.71875 244.914062 C 517.71875 244.914062 512.636719 242.570312 511.046875 230.683594 C 510.234375 224.585938 508.324219 218.679688 505.1875 213.386719 C 504.875 212.867188 504.574219 212.363281 504.285156 211.890625 C 502.652344 209.214844 500.769531 206.703125 498.851562 204.222656 C 493.285156 197.019531 490.121094 187.71875 490.421875 177.898438 C 491.101562 155.714844 510.128906 138.046875 532.296875 138.917969 C 553.800781 139.761719 570.972656 157.464844 570.972656 179.183594 C 570.972656 188.664062 567.699219 197.441406 562.226562 204.332031 C 560.769531 206.164062 559.453125 208.089844 558.214844 210.074219 C 558.0625 210.316406 557.898438 210.582031 557.726562 210.863281 C 553.816406 217.316406 551.359375 224.515625 550.140625 231.964844 C 548.371094 242.738281 543.660156 244.914062 543.660156 244.914062 Z M 517.71875 244.914062 " fill-opacity="1" fill-rule="nonzero"/><path fill="#420f7c" d="M 544.839844 247.46875 L 542.480469 242.363281 C 542.480469 242.363281 542.449219 242.375 542.386719 242.410156 C 542.421875 242.390625 545.917969 240.339844 547.367188 231.507812 C 548.703125 223.347656 551.382812 215.910156 555.324219 209.40625 C 555.503906 209.113281 555.671875 208.839844 555.832031 208.585938 C 557.238281 206.328125 558.609375 204.363281 560.023438 202.585938 C 565.273438 195.976562 568.164062 187.667969 568.164062 179.183594 C 568.164062 158.972656 552.359375 142.519531 532.1875 141.726562 C 522.195312 141.332031 512.601562 144.933594 505.179688 151.855469 C 497.78125 158.757812 493.539062 168.039062 493.234375 177.984375 C 492.960938 186.898438 495.746094 195.605469 501.074219 202.503906 C 502.855469 204.804688 504.898438 207.503906 506.683594 210.425781 C 506.980469 210.910156 507.285156 211.421875 507.601562 211.953125 C 510.839844 217.410156 512.933594 223.585938 513.832031 230.308594 C 515.148438 240.152344 518.953125 242.390625 518.992188 242.410156 C 518.929688 242.375 518.894531 242.363281 518.894531 242.363281 L 516.539062 247.46875 C 515.875 247.160156 510.003906 244.097656 508.261719 231.054688 C 507.464844 225.085938 505.617188 219.625 502.769531 214.824219 C 502.464844 214.308594 502.171875 213.820312 501.886719 213.359375 C 500.253906 210.675781 498.316406 208.125 496.628906 205.941406 C 490.503906 198.015625 487.300781 188.027344 487.613281 177.8125 C 487.964844 166.355469 492.84375 155.675781 501.34375 147.746094 C 509.875 139.789062 520.90625 135.660156 532.40625 136.109375 C 543.554688 136.546875 553.964844 141.21875 561.722656 149.273438 C 569.5 157.347656 573.785156 167.96875 573.785156 179.183594 C 573.785156 188.933594 570.460938 198.484375 564.425781 206.082031 C 563.144531 207.695312 561.894531 209.488281 560.597656 211.5625 C 560.449219 211.796875 560.292969 212.050781 560.128906 212.324219 C 556.5625 218.207031 554.132812 224.96875 552.914062 232.417969 C 550.960938 244.324219 545.457031 247.179688 544.839844 247.46875 Z M 544.839844 247.46875 " fill-opacity="1" fill-rule="nonzero"/><path fill="#ffd694" d="M 544.984375 244.914062 L 544.984375 260.3125 C 544.984375 262.894531 542.890625 264.988281 540.308594 264.988281 L 537.324219 264.988281 L 537.324219 267.535156 C 537.324219 269.226562 535.953125 270.59375 534.261719 270.59375 L 527.113281 270.59375 C 525.425781 270.59375 524.054688 269.226562 524.054688 267.535156 L 524.054688 264.988281 L 519.863281 264.988281 C 517.945312 264.988281 516.390625 263.433594 516.390625 261.519531 L 516.390625 244.914062 Z M 544.984375 244.914062 " fill-opacity="1" fill-rule="nonzero"/><path fill="#420f7c" d="M 534.261719 273.40625 L 527.113281 273.40625 C 523.96875 273.40625 521.390625 270.914062 521.25 267.800781 L 519.863281 267.800781 C 516.398438 267.800781 513.582031 264.980469 513.582031 261.519531 L 513.582031 244.914062 C 513.582031 243.363281 514.839844 242.105469 516.390625 242.105469 L 544.984375 242.105469 C 546.539062 242.105469 547.796875 243.363281 547.796875 244.914062 L 547.796875 260.3125 C 547.796875 264.441406 544.4375 267.800781 540.308594 267.800781 L 540.128906 267.800781 C 539.988281 270.914062 537.410156 273.40625 534.261719 273.40625 Z M 519.203125 247.726562 L 519.203125 261.519531 C 519.203125 261.882812 519.5 262.179688 519.863281 262.179688 L 524.054688 262.179688 C 525.605469 262.179688 526.863281 263.4375 526.863281 264.988281 L 526.863281 267.535156 C 526.863281 267.671875 526.976562 267.785156 527.113281 267.785156 L 534.261719 267.785156 C 534.402344 267.785156 534.511719 267.671875 534.511719 267.535156 L 534.511719 264.988281 C 534.511719 263.4375 535.769531 262.179688 537.324219 262.179688 L 540.308594 262.179688 C 541.339844 262.179688 542.175781 261.339844 542.175781 260.3125 L 542.175781 247.726562 Z M 519.203125 247.726562 " fill-opacity="1" fill-rule="nonzero"/><path fill="#ffffff" d="M 543.671875 213.078125 L 536.859375 223.613281 L 534.992188 244.914062 Z M 543.671875 213.078125 " fill-opacity="1" fill-rule="nonzero"/><path fill="#420f7c" d="M 534.996094 247.726562 C 534.914062 247.726562 534.832031 247.722656 534.746094 247.714844 C 533.199219 247.582031 532.058594 246.21875 532.191406 244.671875 L 534.058594 223.367188 C 534.101562 222.914062 534.25 222.472656 534.5 222.085938 L 541.3125 211.554688 C 542.15625 210.25 543.894531 209.875 545.199219 210.71875 C 546.5 211.5625 546.875 213.304688 546.03125 214.605469 L 539.597656 224.554688 L 537.792969 245.160156 C 537.664062 246.625 536.4375 247.726562 534.996094 247.726562 Z M 534.996094 247.726562 " fill-opacity="1" fill-rule="nonzero"/><path fill="#ffffff" d="M 517.503906 213.078125 L 524.3125 223.613281 L 526.179688 244.914062 Z M 517.503906 213.078125 " fill-opacity="1" fill-rule="nonzero"/><path fill="#420f7c" d="M 526.179688 247.726562 C 524.738281 247.726562 523.507812 246.625 523.382812 245.160156 L 521.574219 224.554688 L 515.144531 214.605469 C 514.300781 213.304688 514.671875 211.5625 515.976562 210.71875 C 517.277344 209.875 519.019531 210.25 519.863281 211.554688 L 526.675781 222.085938 C 526.921875 222.472656 527.074219 222.914062 527.113281 223.367188 L 528.980469 244.671875 C 529.117188 246.21875 527.972656 247.582031 526.425781 247.714844 C 526.34375 247.722656 526.257812 247.726562 526.179688 247.726562 Z M 526.179688 247.726562 " fill-opacity="1" fill-rule="nonzero"/><path fill="#ffd694" d="M 547.902344 162.042969 C 543.417969 157.558594 536.15625 157.558594 531.671875 162.042969 L 530.6875 163.027344 L 529.703125 162.042969 C 525.222656 157.558594 517.957031 157.558594 513.476562 162.042969 C 508.996094 166.523438 508.996094 173.792969 513.476562 178.273438 L 530.617188 195.417969 L 530.6875 195.347656 L 530.761719 195.417969 L 547.902344 178.273438 C 552.378906 173.792969 552.378906 166.523438 547.902344 162.042969 Z M 547.902344 162.042969 " fill-opacity="1" fill-rule="nonzero"/><path fill="#420f7c" d="M 530.617188 198.230469 C 529.871094 198.230469 529.15625 197.933594 528.628906 197.40625 L 511.492188 180.261719 C 505.921875 174.691406 505.921875 165.625 511.492188 160.054688 C 514.1875 157.355469 517.777344 155.867188 521.589844 155.867188 C 524.953125 155.867188 528.132812 157.023438 530.6875 159.140625 C 533.242188 157.023438 536.425781 155.867188 539.785156 155.867188 C 543.601562 155.867188 547.191406 157.355469 549.886719 160.054688 C 555.457031 165.625 555.457031 174.691406 549.886719 180.261719 L 532.746094 197.40625 C 532.21875 197.933594 531.503906 198.230469 530.761719 198.230469 C 530.738281 198.230469 530.710938 198.230469 530.6875 198.230469 C 530.664062 198.230469 530.640625 198.230469 530.617188 198.230469 Z M 521.589844 161.492188 C 519.277344 161.492188 517.101562 162.394531 515.464844 164.03125 C 512.085938 167.410156 512.085938 172.90625 515.464844 176.285156 L 530.6875 191.515625 L 545.914062 176.285156 C 549.289062 172.90625 549.289062 167.410156 545.914062 164.03125 C 544.277344 162.394531 542.101562 161.492188 539.789062 161.492188 C 537.472656 161.492188 535.296875 162.394531 533.660156 164.03125 L 532.675781 165.015625 C 531.574219 166.113281 529.796875 166.113281 528.699219 165.015625 L 527.71875 164.03125 C 526.082031 162.394531 523.90625 161.492188 521.589844 161.492188 Z M 521.589844 161.492188 " fill-opacity="1" fill-rule="nonzero"/><path fill="#ffffff" d="M 606.207031 421.039062 C 603.726562 420.109375 601.097656 419.648438 598.449219 419.675781 L 518.3125 420.492188 C 512.355469 420.554688 506.460938 419.320312 501.027344 416.878906 L 469.582031 402.757812 C 465.019531 400.710938 460.867188 397.84375 457.332031 394.308594 L 413.902344 350.863281 C 410.964844 347.925781 412.125 342.917969 416.058594 341.574219 L 417.738281 341 C 424.769531 338.59375 432.523438 339.660156 438.644531 343.878906 L 487.878906 377.804688 L 520.683594 376.832031 L 640.054688 368.433594 L 648.496094 373.707031 Z M 606.207031 421.039062 " fill-opacity="1" fill-rule="nonzero"/><path fill="#420f7c" d="M 606.207031 423.851562 C 605.878906 423.851562 605.542969 423.792969 605.21875 423.671875 C 603.054688 422.859375 600.78125 422.460938 598.476562 422.484375 L 518.339844 423.304688 C 512.019531 423.363281 505.636719 422.035156 499.875 419.445312 L 468.433594 405.324219 C 463.539062 403.125 459.136719 400.089844 455.34375 396.296875 L 411.917969 352.851562 C 409.847656 350.78125 409.003906 347.839844 409.667969 344.984375 C 410.328125 342.132812 412.378906 339.863281 415.148438 338.914062 L 416.828125 338.339844 C 424.664062 335.65625 433.417969 336.863281 440.238281 341.5625 L 488.714844 374.96875 L 520.542969 374.023438 L 639.859375 365.628906 C 640.449219 365.585938 641.039062 365.734375 641.542969 366.050781 L 649.984375 371.320312 C 651.300781 372.144531 651.703125 373.875 650.878906 375.195312 C 650.058594 376.511719 648.324219 376.910156 647.007812 376.089844 L 639.339844 371.304688 L 520.878906 379.636719 C 520.84375 379.636719 520.804688 379.640625 520.765625 379.640625 L 487.960938 380.613281 C 487.367188 380.628906 486.777344 380.460938 486.285156 380.121094 L 437.050781 346.191406 C 431.6875 342.496094 424.808594 341.550781 418.648438 343.660156 L 416.96875 344.234375 C 415.636719 344.6875 415.246094 345.800781 415.140625 346.257812 C 415.035156 346.714844 414.898438 347.882812 415.890625 348.878906 L 459.320312 392.320312 C 462.625 395.628906 466.46875 398.277344 470.734375 400.195312 L 502.179688 414.316406 C 507.203125 416.574219 512.773438 417.742188 518.28125 417.679688 L 598.417969 416.863281 C 601.417969 416.832031 604.378906 417.351562 607.191406 418.410156 C 608.648438 418.953125 609.382812 420.574219 608.835938 422.027344 C 608.414062 423.15625 607.34375 423.851562 606.207031 423.851562 Z M 606.207031 423.851562 " fill-opacity="1" fill-rule="nonzero"/><path fill="#ffffff" d="M 520.683594 376.832031 L 487.878906 377.804688 L 438.644531 343.878906 C 432.523438 339.660156 424.769531 338.59375 417.738281 341 L 416.058594 341.574219 C 412.125 342.917969 410.964844 347.925781 413.90625 350.863281 L 457.332031 394.308594 C 460.871094 397.84375 465.019531 400.707031 469.582031 402.757812 L 501.027344 416.878906 C 506.460938 419.320312 512.355469 420.554688 518.3125 420.492188 L 598.449219 419.675781 C 601.097656 419.648438 653.214844 431.148438 655.691406 432.078125 Z M 520.683594 376.832031 " fill-opacity="1" fill-rule="nonzero"/><path fill="#420f7c" d="M 655.691406 434.886719 C 655.371094 434.886719 655.042969 434.832031 654.722656 434.714844 C 653.554688 434.320312 642.546875 431.765625 626.765625 428.3125 C 609.109375 424.453125 599.730469 422.59375 598.414062 422.484375 L 518.339844 423.304688 C 512.019531 423.363281 505.636719 422.035156 499.875 419.445312 L 468.429688 405.324219 C 463.539062 403.125 459.136719 400.089844 455.34375 396.296875 L 411.917969 352.851562 C 409.847656 350.78125 409.003906 347.839844 409.667969 344.988281 C 410.328125 342.132812 412.378906 339.863281 415.148438 338.914062 L 416.828125 338.339844 C 424.664062 335.65625 433.417969 336.863281 440.238281 341.5625 L 488.714844 374.96875 L 520.597656 374.019531 C 522.152344 373.980469 523.445312 375.195312 523.492188 376.746094 C 523.539062 378.300781 522.316406 379.59375 520.765625 379.640625 L 487.960938 380.617188 C 487.363281 380.632812 486.777344 380.460938 486.285156 380.121094 L 437.050781 346.191406 C 431.6875 342.496094 424.808594 341.550781 418.648438 343.660156 L 416.96875 344.234375 C 415.636719 344.6875 415.246094 345.800781 415.140625 346.257812 C 415.035156 346.714844 414.898438 347.882812 415.890625 348.878906 L 459.320312 392.320312 C 462.625 395.628906 466.464844 398.277344 470.734375 400.195312 L 502.179688 414.316406 C 507.203125 416.574219 512.773438 417.742188 518.28125 417.679688 L 598.417969 416.863281 C 598.425781 416.863281 598.429688 416.863281 598.4375 416.863281 C 599.941406 416.863281 609.796875 418.851562 627.734375 422.769531 C 636.976562 424.789062 654.921875 428.785156 656.679688 429.445312 C 658.132812 429.988281 658.867188 431.609375 658.324219 433.0625 C 657.902344 434.191406 656.828125 434.886719 655.691406 434.886719 Z M 598.476562 422.484375 L 598.460938 422.484375 C 598.46875 422.484375 598.472656 422.484375 598.476562 422.484375 Z M 598.476562 422.484375 " fill-opacity="1" fill-rule="nonzero"/><path fill="#ffffff" d="M 644.808594 371.59375 L 621.652344 357.789062 C 612.335938 351.667969 601.128906 349.121094 590.085938 350.617188 L 528.933594 358.910156 C 523.132812 359.910156 518.980469 365.074219 519.25 370.957031 C 519.523438 376.984375 524.332031 381.808594 530.355469 382.101562 L 583.792969 385.152344 Z M 644.808594 371.59375 " fill-opacity="1" fill-rule="nonzero"/><path fill="#420f7c" d="M 583.796875 387.964844 C 583.742188 387.964844 583.6875 387.964844 583.632812 387.960938 L 530.195312 384.90625 C 522.707031 384.542969 516.78125 378.601562 516.441406 371.085938 C 516.109375 363.804688 521.277344 357.378906 528.457031 356.140625 C 528.492188 356.132812 528.523438 356.128906 528.558594 356.125 L 589.707031 347.832031 C 601.402344 346.246094 613.273438 348.9375 623.140625 355.40625 L 646.246094 369.179688 C 647.578125 369.972656 648.015625 371.699219 647.222656 373.03125 C 646.425781 374.367188 644.703125 374.800781 643.367188 374.007812 L 620.210938 360.203125 C 620.175781 360.183594 620.140625 360.160156 620.105469 360.136719 C 611.359375 354.390625 600.832031 351.996094 590.460938 353.402344 L 529.367188 361.6875 C 524.992188 362.464844 521.855469 366.386719 522.054688 370.828125 C 522.265625 375.429688 525.890625 379.070312 530.492188 379.292969 L 583.953125 382.347656 C 585.503906 382.433594 586.6875 383.761719 586.601562 385.3125 C 586.515625 386.808594 585.277344 387.964844 583.796875 387.964844 Z M 583.796875 387.964844 " fill-opacity="1" fill-rule="nonzero"/><path fill="#ffffff" d="M 361.820312 249.089844 L 361.820312 217.925781 L 325.667969 217.925781 L 325.667969 233.691406 Z M 361.820312 249.089844 " fill-opacity="1" fill-rule="nonzero"/><path fill="#420f7c" d="M 361.820312 251.902344 C 360.269531 251.902344 359.011719 250.644531 359.011719 249.089844 L 359.011719 220.734375 L 328.480469 220.734375 L 328.480469 233.691406 C 328.480469 235.246094 327.222656 236.503906 325.667969 236.503906 C 324.117188 236.503906 322.859375 235.246094 322.859375 233.691406 L 322.859375 217.925781 C 322.859375 216.371094 324.117188 215.113281 325.667969 215.113281 L 361.820312 215.113281 C 363.371094 215.113281 364.628906 216.371094 364.628906 217.925781 L 364.628906 249.089844 C 364.628906 250.644531 363.371094 251.902344 361.820312 251.902344 Z M 361.820312 251.902344 " fill-opacity="1" fill-rule="nonzero"/><path fill="#ffffff" d="M 208.003906 169.957031 L 310.957031 169.957031 L 310.957031 385.214844 L 208.003906 385.214844 Z M 208.003906 169.957031 " fill-opacity="1" fill-rule="nonzero"/><path fill="#420f7c" d="M 310.957031 388.027344 L 208.003906 388.027344 C 206.453125 388.027344 205.195312 386.769531 205.195312 385.214844 L 205.195312 169.957031 C 205.195312 168.402344 206.453125 167.144531 208.003906 167.144531 L 310.957031 167.144531 C 312.511719 167.144531 313.769531 168.402344 313.769531 169.957031 L 313.769531 385.214844 C 313.769531 386.769531 312.511719 388.027344 310.957031 388.027344 Z M 210.8125 382.40625 L 308.148438 382.40625 L 308.148438 172.765625 L 210.8125 172.765625 Z M 210.8125 382.40625 " fill-opacity="1" fill-rule="nonzero"/><path fill="#50e2c6" d="M 222.09375 197.832031 L 296.867188 197.832031 L 296.867188 217.074219 L 222.09375 217.074219 Z M 222.09375 197.832031 " fill-opacity="1" fill-rule="nonzero"/><path fill="#420f7c" d="M 296.867188 219.882812 L 222.09375 219.882812 C 220.539062 219.882812 219.28125 218.625 219.28125 217.074219 L 219.28125 197.832031 C 219.28125 196.28125 220.539062 195.023438 222.09375 195.023438 L 296.867188 195.023438 C 298.421875 195.023438 299.679688 196.28125 299.679688 197.832031 L 299.679688 217.074219 C 299.679688 218.625 298.421875 219.882812 296.867188 219.882812 Z M 224.902344 214.261719 L 294.058594 214.261719 L 294.058594 200.644531 L 224.902344 200.644531 Z M 224.902344 214.261719 " fill-opacity="1" fill-rule="nonzero"/><path fill="#50e2c6" d="M 222.09375 241.738281 L 296.867188 241.738281 L 296.867188 260.976562 L 222.09375 260.976562 Z M 222.09375 241.738281 " fill-opacity="1" fill-rule="nonzero"/><path fill="#420f7c" d="M 296.867188 263.789062 L 222.09375 263.789062 C 220.539062 263.789062 219.28125 262.527344 219.28125 260.976562 L 219.28125 241.738281 C 219.28125 240.183594 220.539062 238.925781 222.09375 238.925781 L 296.867188 238.925781 C 298.421875 238.925781 299.679688 240.183594 299.679688 241.738281 L 299.679688 260.976562 C 299.679688 262.527344 298.421875 263.789062 296.867188 263.789062 Z M 224.902344 258.164062 L 294.058594 258.164062 L 294.058594 244.546875 L 224.902344 244.546875 Z M 224.902344 258.164062 " fill-opacity="1" fill-rule="nonzero"/><path fill="#50e2c6" d="M 222.09375 285.640625 L 296.867188 285.640625 L 296.867188 304.878906 L 222.09375 304.878906 Z M 222.09375 285.640625 " fill-opacity="1" fill-rule="nonzero"/><path fill="#420f7c" d="M 296.867188 307.691406 L 222.09375 307.691406 C 220.539062 307.691406 219.28125 306.433594 219.28125 304.878906 L 219.28125 285.640625 C 219.28125 284.085938 220.539062 282.828125 222.09375 282.828125 L 296.867188 282.828125 C 298.421875 282.828125 299.679688 284.085938 299.679688 285.640625 L 299.679688 304.878906 C 299.679688 306.433594 298.421875 307.691406 296.867188 307.691406 Z M 224.902344 302.066406 L 294.058594 302.066406 L 294.058594 288.449219 L 224.902344 288.449219 Z M 224.902344 302.066406 " fill-opacity="1" fill-rule="nonzero"/><path fill="#ffd694" d="M 375.617188 385.214844 L 310.957031 385.214844 L 310.957031 227.496094 L 375.617188 255.757812 Z M 375.617188 385.214844 " fill-opacity="1" fill-rule="nonzero"/><path fill="#420f7c" d="M 375.617188 388.027344 L 310.957031 388.027344 C 309.40625 388.027344 308.148438 386.769531 308.148438 385.214844 L 308.148438 227.496094 C 308.148438 226.550781 308.625 225.664062 309.417969 225.144531 C 310.210938 224.625 311.214844 224.542969 312.082031 224.921875 L 376.742188 253.183594 C 377.765625 253.632812 378.429688 254.640625 378.429688 255.757812 L 378.429688 385.214844 C 378.429688 386.769531 377.171875 388.027344 375.617188 388.027344 Z M 313.769531 382.40625 L 372.808594 382.40625 L 372.808594 257.597656 L 313.769531 231.792969 Z M 313.769531 382.40625 " fill-opacity="1" fill-rule="nonzero"/><path fill="#420f7c" d="M 343.746094 220.734375 C 342.191406 220.734375 340.933594 219.476562 340.933594 217.925781 L 340.933594 203.375 C 340.933594 201.824219 342.191406 200.5625 343.746094 200.5625 C 345.296875 200.5625 346.554688 201.824219 346.554688 203.375 L 346.554688 217.925781 C 346.554688 219.476562 345.296875 220.734375 343.746094 220.734375 Z M 343.746094 220.734375 " fill-opacity="1" fill-rule="nonzero"/><path fill="#ffffff" d="M 333.589844 268.363281 L 352.988281 268.363281 L 352.988281 285.988281 L 333.589844 285.988281 Z M 333.589844 268.363281 " fill-opacity="1" fill-rule="nonzero"/><path fill="#420f7c" d="M 352.988281 288.800781 L 333.589844 288.800781 C 332.039062 288.800781 330.777344 287.542969 330.777344 285.988281 L 330.777344 268.363281 C 330.777344 266.8125 332.039062 265.554688 333.589844 265.554688 L 352.988281 265.554688 C 354.539062 265.554688 355.796875 266.8125 355.796875 268.363281 L 355.796875 285.988281 C 355.796875 287.542969 354.539062 288.800781 352.988281 288.800781 Z M 336.398438 283.179688 L 350.175781 283.179688 L 350.175781 271.175781 L 336.398438 271.175781 Z M 336.398438 283.179688 " fill-opacity="1" fill-rule="nonzero"/><path fill="#ffffff" d="M 333.589844 305.15625 L 352.988281 305.15625 L 352.988281 322.78125 L 333.589844 322.78125 Z M 333.589844 305.15625 " fill-opacity="1" fill-rule="nonzero"/><path fill="#420f7c" d="M 352.988281 325.59375 L 333.589844 325.59375 C 332.039062 325.59375 330.777344 324.332031 330.777344 322.78125 L 330.777344 305.15625 C 330.777344 303.605469 332.039062 302.34375 333.589844 302.34375 L 352.988281 302.34375 C 354.539062 302.34375 355.796875 303.605469 355.796875 305.15625 L 355.796875 322.78125 C 355.796875 324.332031 354.539062 325.59375 352.988281 325.59375 Z M 336.398438 319.96875 L 350.175781 319.96875 L 350.175781 307.96875 L 336.398438 307.96875 Z M 336.398438 319.96875 " fill-opacity="1" fill-rule="nonzero"/><path fill="#ffffff" d="M 333.589844 343.292969 L 352.988281 343.292969 L 352.988281 360.917969 L 333.589844 360.917969 Z M 333.589844 343.292969 " fill-opacity="1" fill-rule="nonzero"/><path fill="#420f7c" d="M 352.988281 363.730469 L 333.589844 363.730469 C 332.039062 363.730469 330.777344 362.472656 330.777344 360.917969 L 330.777344 343.292969 C 330.777344 341.742188 332.039062 340.484375 333.589844 340.484375 L 352.988281 340.484375 C 354.539062 340.484375 355.796875 341.742188 355.796875 343.292969 L 355.796875 360.917969 C 355.796875 362.472656 354.539062 363.730469 352.988281 363.730469 Z M 336.398438 358.109375 L 350.175781 358.109375 L 350.175781 346.105469 L 336.398438 346.105469 Z M 336.398438 358.109375 " fill-opacity="1" fill-rule="nonzero"/><path fill="#420f7c" d="M 387.289062 388.027344 L 193.96875 388.027344 C 192.414062 388.027344 191.15625 386.769531 191.15625 385.214844 C 191.15625 383.664062 192.414062 382.40625 193.96875 382.40625 L 387.289062 382.40625 C 388.84375 382.40625 390.101562 383.664062 390.101562 385.214844 C 390.101562 386.769531 388.84375 388.027344 387.289062 388.027344 Z M 387.289062 388.027344 " fill-opacity="1" fill-rule="nonzero"/><path fill="#ffffff" d="M 276.347656 372.292969 C 276.347656 368.464844 275.953125 364.734375 275.277344 361.101562 L 290.628906 348.65625 C 288.929688 343.269531 286.675781 337.976562 283.734375 332.882812 C 280.796875 327.792969 277.339844 323.191406 273.527344 319.027344 L 255.066406 326.109375 C 249.417969 321.261719 242.867188 317.460938 235.703125 314.9375 L 232.601562 295.390625 C 227.09375 294.171875 221.382812 293.476562 215.503906 293.476562 C 209.625 293.476562 203.914062 294.171875 198.40625 295.390625 L 195.300781 314.9375 C 188.136719 317.460938 181.589844 321.261719 175.9375 326.109375 L 157.476562 319.027344 C 153.664062 323.191406 150.210938 327.792969 147.269531 332.882812 C 144.332031 337.976562 142.074219 343.269531 140.378906 348.65625 L 155.730469 361.101562 C 155.054688 364.734375 154.65625 368.464844 154.65625 372.292969 C 154.65625 376.121094 155.054688 379.851562 155.730469 383.480469 L 140.378906 395.929688 C 142.074219 401.3125 144.332031 406.605469 147.269531 411.699219 C 150.207031 416.792969 153.664062 421.394531 157.476562 425.558594 L 175.9375 418.476562 C 181.589844 423.324219 188.136719 427.121094 195.300781 429.648438 L 198.40625 449.191406 C 203.914062 450.414062 209.625 451.109375 215.503906 451.109375 C 221.382812 451.109375 227.09375 450.414062 232.601562 449.191406 L 235.703125 429.648438 C 242.867188 427.121094 249.417969 423.324219 255.066406 418.476562 L 273.527344 425.558594 C 277.339844 421.394531 280.796875 416.792969 283.734375 411.699219 C 286.675781 406.605469 288.929688 401.3125 290.628906 395.929688 L 275.277344 383.480469 C 275.953125 379.851562 276.347656 376.121094 276.347656 372.292969 Z M 276.347656 372.292969 " fill-opacity="1" fill-rule="nonzero"/><g clip-path="url(#416d721b58)"><path fill="#420f7c" d="M 215.503906 453.917969 C 209.691406 453.917969 203.734375 453.253906 197.796875 451.9375 C 196.671875 451.6875 195.808594 450.773438 195.628906 449.632812 L 192.785156 431.71875 C 186.460938 429.304688 180.628906 425.9375 175.40625 421.691406 L 158.484375 428.183594 C 157.40625 428.59375 156.1875 428.308594 155.40625 427.457031 C 151.300781 422.976562 147.746094 418.148438 144.835938 413.105469 C 141.925781 408.0625 139.527344 402.570312 137.699219 396.777344 C 137.351562 395.675781 137.710938 394.472656 138.609375 393.746094 L 152.679688 382.335938 C 152.128906 378.914062 151.847656 375.542969 151.847656 372.292969 C 151.847656 368.996094 152.121094 365.691406 152.679688 362.246094 L 138.609375 350.839844 C 137.710938 350.113281 137.351562 348.910156 137.699219 347.808594 C 139.523438 342.019531 141.925781 336.523438 144.835938 331.480469 C 147.746094 326.4375 151.300781 321.609375 155.40625 317.128906 C 156.1875 316.277344 157.40625 315.988281 158.484375 316.402344 L 175.40625 322.894531 C 180.628906 318.644531 186.460938 315.28125 192.785156 312.867188 L 195.628906 294.949219 C 195.808594 293.808594 196.671875 292.894531 197.796875 292.644531 C 203.734375 291.332031 209.691406 290.664062 215.503906 290.664062 C 221.3125 290.664062 227.273438 291.332031 233.210938 292.644531 C 234.335938 292.894531 235.195312 293.808594 235.378906 294.949219 L 238.222656 312.867188 C 244.542969 315.28125 250.378906 318.644531 255.601562 322.894531 L 272.523438 316.402344 C 273.601562 315.988281 274.820312 316.277344 275.601562 317.128906 C 279.707031 321.613281 283.261719 326.441406 286.167969 331.480469 C 289.078125 336.519531 291.480469 342.011719 293.308594 347.808594 C 293.65625 348.910156 293.292969 350.113281 292.398438 350.839844 L 278.328125 362.246094 C 278.886719 365.691406 279.160156 368.996094 279.160156 372.292969 C 279.160156 375.539062 278.878906 378.914062 278.328125 382.335938 L 292.398438 393.746094 C 293.296875 394.472656 293.65625 395.675781 293.308594 396.773438 C 291.480469 402.570312 289.078125 408.066406 286.167969 413.105469 C 283.261719 418.144531 279.707031 422.972656 275.601562 427.457031 C 274.820312 428.308594 273.601562 428.59375 272.523438 428.183594 L 255.601562 421.691406 C 250.382812 425.9375 244.550781 429.300781 238.222656 431.71875 L 235.378906 449.632812 C 235.195312 450.773438 234.335938 451.6875 233.210938 451.9375 C 227.273438 453.253906 221.316406 453.917969 215.503906 453.917969 Z M 200.875 446.839844 C 205.792969 447.804688 210.703125 448.296875 215.503906 448.296875 C 220.300781 448.296875 225.214844 447.804688 230.128906 446.839844 L 232.929688 429.207031 C 233.089844 428.191406 233.796875 427.339844 234.769531 427 C 241.585938 424.59375 247.800781 421.007812 253.238281 416.34375 C 254.019531 415.667969 255.109375 415.480469 256.074219 415.851562 L 272.726562 422.238281 C 276.023438 418.464844 278.902344 414.453125 281.300781 410.292969 C 283.703125 406.132812 285.734375 401.632812 287.355469 396.894531 L 273.507812 385.667969 C 272.703125 385.015625 272.324219 383.980469 272.511719 382.96875 C 273.203125 379.261719 273.539062 375.769531 273.539062 372.292969 C 273.539062 368.816406 273.203125 365.324219 272.511719 361.617188 C 272.324219 360.601562 272.703125 359.566406 273.507812 358.917969 L 287.355469 347.691406 C 285.734375 342.949219 283.703125 338.449219 281.300781 334.289062 C 278.902344 330.132812 276.023438 326.121094 272.726562 322.347656 L 256.074219 328.734375 C 255.109375 329.101562 254.023438 328.914062 253.238281 328.242188 C 247.792969 323.574219 241.582031 319.988281 234.769531 317.585938 C 233.796875 317.246094 233.089844 316.394531 232.929688 315.378906 L 230.128906 297.746094 C 225.210938 296.777344 220.300781 296.289062 215.503906 296.289062 C 210.707031 296.289062 205.792969 296.777344 200.875 297.746094 L 198.078125 315.378906 C 197.914062 316.394531 197.207031 317.246094 196.234375 317.589844 C 189.425781 319.988281 183.210938 323.574219 177.769531 328.242188 C 176.984375 328.914062 175.894531 329.101562 174.933594 328.734375 L 158.28125 322.347656 C 154.984375 326.117188 152.105469 330.128906 149.703125 334.289062 C 147.300781 338.453125 145.269531 342.953125 143.652344 347.691406 L 157.5 358.917969 C 158.300781 359.566406 158.683594 360.601562 158.492188 361.617188 C 157.804688 365.324219 157.46875 368.816406 157.46875 372.292969 C 157.46875 375.769531 157.804688 379.261719 158.492188 382.96875 C 158.683594 383.980469 158.300781 385.015625 157.5 385.667969 L 143.652344 396.894531 C 145.269531 401.632812 147.300781 406.132812 149.703125 410.292969 C 152.105469 414.457031 154.984375 418.46875 158.28125 422.238281 L 174.933594 415.851562 C 175.894531 415.480469 176.984375 415.667969 177.769531 416.339844 C 183.210938 421.011719 189.421875 424.59375 196.234375 427 C 197.207031 427.339844 197.914062 428.191406 198.078125 429.207031 Z M 200.875 446.839844 " fill-opacity="1" fill-rule="nonzero"/></g><path fill="#420f7c" d="M 179.535156 401.796875 C 178.820312 401.796875 178.109375 401.527344 177.5625 400.988281 C 176.457031 399.898438 176.445312 398.117188 177.535156 397.011719 L 202.097656 372.128906 C 202.582031 371.636719 203.230469 371.34375 203.917969 371.296875 L 224.46875 369.964844 L 244.503906 346.15625 C 245.503906 344.96875 247.277344 344.816406 248.464844 345.816406 C 249.652344 346.816406 249.804688 348.589844 248.804688 349.777344 L 227.996094 374.503906 C 227.503906 375.089844 226.792969 375.449219 226.027344 375.5 L 205.347656 376.839844 L 181.535156 400.960938 C 180.984375 401.519531 180.261719 401.796875 179.535156 401.796875 Z M 179.535156 401.796875 " fill-opacity="1" fill-rule="nonzero"/><path fill="#420f7c" d="M 247.617188 373.796875 C 247.519531 373.796875 247.421875 373.792969 247.324219 373.78125 C 245.78125 373.621094 244.65625 372.238281 244.816406 370.695312 L 247.367188 346.066406 L 222.363281 355.023438 C 220.898438 355.546875 219.292969 354.789062 218.769531 353.324219 C 218.246094 351.863281 219.003906 350.253906 220.464844 349.730469 L 249.675781 339.269531 C 250.585938 338.941406 251.597656 339.105469 252.355469 339.703125 C 253.117188 340.296875 253.519531 341.242188 253.417969 342.203125 L 250.410156 371.273438 C 250.257812 372.722656 249.039062 373.796875 247.617188 373.796875 Z M 247.617188 373.796875 " fill-opacity="1" fill-rule="nonzero"/></svg>