<svg xmlns="http://www.w3.org/2000/svg" xmlns:xlink="http://www.w3.org/1999/xlink" width="1080" zoomAndPan="magnify" viewBox="0 0 810 809.999993" height="1080" preserveAspectRatio="xMidYMid meet" version="1.0"><path fill="#caddff" d="M 541.75 288.148438 C 490.335938 237.058594 505.054688 205.039062 469.875 181.386719 C 415.746094 144.992188 314.722656 176.304688 255.121094 226.367188 C 182.125 287.679688 144.460938 399.628906 187.363281 500.90625 C 233.054688 608.765625 353.269531 664.753906 460.542969 647.878906 C 556.339844 632.8125 650.503906 558.273438 659.941406 468.875 C 660.964844 459.183594 665.472656 406.800781 633.8125 361.640625 C 607.640625 324.3125 582.5 328.640625 541.75 288.148438 " fill-opacity="1" fill-rule="nonzero"/><path fill="#99b9ff" d="M 651.96875 166.574219 L 565.5 187.507812 C 561.019531 188.589844 559.261719 194.011719 562.246094 197.519531 L 570.984375 207.78125 C 573.195312 210.375 572.882812 214.273438 570.292969 216.484375 L 507.046875 271.761719 C 504.449219 273.976562 500.546875 273.667969 498.328125 271.074219 L 447.414062 211.484375 C 445.199219 208.886719 441.296875 208.582031 438.703125 210.796875 L 255.558594 371.550781 C 252.964844 373.765625 252.65625 377.667969 254.875 380.261719 L 273.484375 402.046875 C 275.703125 404.636719 279.605469 404.945312 282.199219 402.730469 L 434.164062 268.625 C 436.761719 266.410156 440.664062 266.71875 442.878906 269.3125 L 493.777344 328.882812 C 495.988281 331.476562 499.894531 331.78125 502.492188 329.566406 L 596.867188 247.722656 C 599.460938 245.503906 603.371094 245.816406 605.585938 248.417969 L 615.011719 259.488281 C 618.019531 263.019531 623.703125 262.101562 625.445312 257.808594 L 659.148438 174.90625 C 661.046875 170.242188 656.867188 165.386719 651.96875 166.574219 " fill-opacity="1" fill-rule="nonzero"/><path fill="#99b9ff" d="M 312.445312 626.78125 L 261.125 543.535156 C 261.125 543.535156 234.066406 524.839844 194.503906 516.171875 C 220.34375 566.59375 263.101562 604.28125 312.445312 626.78125 " fill-opacity="1" fill-rule="nonzero"/><path fill="#99b9ff" d="M 431.039062 503.574219 C 431.265625 499.808594 445.363281 499.1875 445.785156 495.398438 C 446.164062 491.941406 432.460938 481.71875 433.003906 478.246094 C 436.261719 457.5 443.382812 440.835938 453.589844 420.417969 C 454.339844 418.917969 456.347656 418.558594 457.570312 419.707031 C 465.6875 427.332031 491.957031 454.292969 511.777344 500.695312 C 512.984375 503.527344 502.25 519.089844 503.398438 522.042969 C 504.566406 525.035156 518.429688 519.207031 519.527344 522.320312 C 530.128906 552.460938 536.398438 585.261719 533.921875 624.609375 C 510.925781 635.710938 486.386719 643.644531 461.714844 647.660156 C 443.335938 607.566406 427.640625 558.75 431.039062 503.574219 " fill-opacity="1" fill-rule="nonzero"/><path fill="#caddff" d="M 444.089844 441.582031 C 443.976562 441.582031 443.855469 441.554688 443.742188 441.507812 C 443.292969 441.316406 443.078125 440.792969 443.273438 440.34375 C 445.105469 436.027344 447.242188 431.363281 449.804688 426.078125 C 450.019531 425.632812 450.554688 425.449219 450.992188 425.664062 C 451.4375 425.878906 451.621094 426.410156 451.40625 426.851562 C 448.855469 432.109375 446.730469 436.75 444.910156 441.039062 C 444.765625 441.375 444.4375 441.582031 444.089844 441.582031 " fill-opacity="1" fill-rule="nonzero"/><path fill="#caddff" d="M 498.277344 627.144531 C 497.898438 627.144531 497.546875 626.902344 497.429688 626.519531 C 491.992188 608.8125 486.960938 590.722656 482.480469 572.757812 C 482.363281 572.28125 482.65625 571.796875 483.128906 571.679688 C 483.605469 571.5625 484.089844 571.851562 484.207031 572.328125 C 488.679688 590.261719 493.699219 608.320312 499.132812 625.996094 C 499.273438 626.464844 499.011719 626.960938 498.542969 627.109375 C 498.453125 627.132812 498.367188 627.144531 498.277344 627.144531 " fill-opacity="1" fill-rule="nonzero"/><path fill="#caddff" d="M 477.277344 547.714844 C 476.871094 547.714844 476.5 547.433594 476.410156 547.019531 C 469.628906 516.558594 464.167969 485.429688 460.167969 454.496094 L 458.339844 440.347656 C 458.277344 439.863281 458.621094 439.417969 459.105469 439.355469 C 459.597656 439.289062 460.042969 439.632812 460.105469 440.121094 L 461.933594 454.269531 C 465.921875 485.148438 471.378906 516.226562 478.144531 546.632812 C 478.25 547.113281 477.949219 547.589844 477.472656 547.695312 C 477.40625 547.710938 477.339844 547.714844 477.277344 547.714844 " fill-opacity="1" fill-rule="nonzero"/><path fill="#99b9ff" d="M 470.710938 646.039062 C 475.363281 623.398438 509.238281 513.722656 573.546875 472.566406 C 575.925781 471.039062 582.230469 479.996094 584.644531 478.464844 C 587.730469 476.507812 586.886719 463.984375 590.15625 462.207031 C 602.308594 455.605469 615.742188 450.328125 630.566406 446.914062 C 630.566406 446.914062 593.335938 628.539062 470.710938 646.039062 " fill-opacity="1" fill-rule="nonzero"/><path fill="#99b9ff" d="M 634.316406 539.214844 C 609.40625 577.539062 572.621094 610.738281 506.835938 635.804688 C 513.882812 609.742188 556.234375 544.050781 634.316406 539.214844 " fill-opacity="1" fill-rule="nonzero"/><path fill="#99b9ff" d="M 281.800781 610.394531 C 233.882812 549.535156 219.1875 485.226562 219.1875 485.226562 C 239.894531 489.789062 258.1875 495.675781 276.367188 503.089844 C 278.742188 504.058594 281.683594 522.460938 284.019531 523.472656 C 286.636719 524.605469 295.082031 511.195312 297.648438 512.375 C 386.882812 553.394531 441.738281 617.867188 462.109375 647.632812 C 396.992188 657.917969 335.21875 643.664062 281.800781 610.394531 " fill-opacity="1" fill-rule="nonzero"/><path fill="#caddff" d="M 343.421875 601.378906 C 343.214844 601.378906 343.003906 601.300781 342.835938 601.152344 L 232.847656 503.886719 C 232.476562 503.5625 232.445312 503 232.769531 502.632812 C 233.09375 502.265625 233.65625 502.230469 234.023438 502.554688 L 344.011719 599.820312 C 344.382812 600.144531 344.414062 600.707031 344.089844 601.078125 C 343.914062 601.273438 343.667969 601.378906 343.421875 601.378906 " fill-opacity="1" fill-rule="nonzero"/><path fill="#ffffff" d="M 614.789062 567.632812 L 584.511719 567.632812 L 584.511719 430.953125 L 614.789062 430.953125 L 614.789062 567.632812 " fill-opacity="1" fill-rule="nonzero"/><path fill="#000000" d="M 585.40625 566.742188 L 613.902344 566.742188 L 613.902344 431.839844 L 585.40625 431.839844 Z M 615.675781 568.523438 L 583.625 568.523438 L 583.625 430.058594 L 615.675781 430.058594 L 615.675781 568.523438 " fill-opacity="1" fill-rule="nonzero"/><path fill="#ffffff" d="M 621.320312 437.042969 L 577.980469 437.042969 L 577.980469 420.578125 L 621.320312 420.578125 L 621.320312 437.042969 " fill-opacity="1" fill-rule="nonzero"/><path fill="#000000" d="M 578.867188 436.15625 L 620.429688 436.15625 L 620.429688 421.46875 L 578.867188 421.46875 Z M 622.207031 437.929688 L 577.089844 437.929688 L 577.089844 419.691406 L 622.207031 419.691406 L 622.207031 437.929688 " fill-opacity="1" fill-rule="nonzero"/><path fill="#ffffff" d="M 532.597656 567.632812 L 502.324219 567.632812 L 502.324219 430.949219 L 532.597656 430.949219 L 532.597656 567.632812 " fill-opacity="1" fill-rule="nonzero"/><path fill="#000000" d="M 503.210938 566.742188 L 531.707031 566.742188 L 531.707031 431.84375 L 503.210938 431.84375 Z M 533.484375 568.523438 L 501.433594 568.523438 L 501.433594 430.0625 L 533.484375 430.0625 L 533.484375 568.523438 " fill-opacity="1" fill-rule="nonzero"/><path fill="#ffffff" d="M 539.128906 437.042969 L 495.785156 437.042969 L 495.785156 420.578125 L 539.128906 420.578125 L 539.128906 437.042969 " fill-opacity="1" fill-rule="nonzero"/><path fill="#000000" d="M 496.679688 436.152344 L 538.242188 436.152344 L 538.242188 421.46875 L 496.679688 421.46875 Z M 540.019531 437.929688 L 494.902344 437.929688 L 494.902344 419.691406 L 540.019531 419.691406 L 540.019531 437.929688 " fill-opacity="1" fill-rule="nonzero"/><path fill="#ffffff" d="M 450.40625 567.632812 L 420.132812 567.632812 L 420.132812 430.953125 L 450.40625 430.953125 L 450.40625 567.632812 " fill-opacity="1" fill-rule="nonzero"/><path fill="#000000" d="M 421.019531 566.742188 L 449.519531 566.742188 L 449.519531 431.839844 L 421.019531 431.839844 Z M 451.296875 568.523438 L 419.242188 568.523438 L 419.242188 430.0625 L 451.296875 430.0625 L 451.296875 568.523438 " fill-opacity="1" fill-rule="nonzero"/><path fill="#ffffff" d="M 456.941406 437.042969 L 413.597656 437.042969 L 413.597656 420.578125 L 456.941406 420.578125 L 456.941406 437.042969 " fill-opacity="1" fill-rule="nonzero"/><path fill="#000000" d="M 414.488281 436.152344 L 456.050781 436.152344 L 456.050781 421.46875 L 414.488281 421.46875 Z M 457.828125 437.929688 L 412.710938 437.929688 L 412.710938 419.691406 L 457.828125 419.691406 L 457.828125 437.929688 " fill-opacity="1" fill-rule="nonzero"/><path fill="#ffffff" d="M 387.6875 405.035156 L 517.460938 330.402344 L 647.234375 405.035156 C 647.277344 405.058594 647.257812 405.121094 647.210938 405.121094 L 387.710938 405.121094 C 387.664062 405.121094 387.648438 405.058594 387.6875 405.035156 " fill-opacity="1" fill-rule="nonzero"/><path fill="#000000" d="M 390.867188 404.234375 L 644.050781 404.234375 L 517.460938 331.425781 Z M 646.777344 405.800781 C 646.785156 405.808594 646.792969 405.808594 646.800781 405.816406 Z M 647.210938 406.011719 L 387.019531 406.011719 L 386.804688 405.3125 C 386.695312 404.902344 386.878906 404.472656 387.246094 404.265625 L 517.460938 329.378906 L 517.902344 329.632812 L 648.261719 404.605469 L 648.113281 405.3125 C 648.007812 405.726562 647.636719 406.011719 647.210938 406.011719 " fill-opacity="1" fill-rule="nonzero"/><path fill="#ffffff" d="M 386.878906 421.832031 L 648.042969 421.523438 L 648.042969 406.667969 C 648.042969 405.871094 647.394531 405.226562 646.601562 405.230469 L 388.3125 405.53125 C 387.519531 405.53125 386.878906 406.175781 386.878906 406.96875 L 386.878906 421.832031 " fill-opacity="1" fill-rule="nonzero"/><path fill="#000000" d="M 646.601562 406.117188 L 388.316406 406.417969 C 388.011719 406.417969 387.765625 406.667969 387.765625 406.96875 L 387.765625 420.941406 L 647.152344 420.636719 L 647.152344 406.667969 C 647.152344 406.519531 647.097656 406.382812 646.992188 406.277344 C 646.886719 406.175781 646.75 406.117188 646.601562 406.117188 Z M 385.988281 422.722656 L 385.988281 406.96875 C 385.988281 405.6875 387.03125 404.644531 388.3125 404.644531 L 646.601562 404.339844 C 647.222656 404.339844 647.808594 404.582031 648.25 405.019531 C 648.691406 405.460938 648.933594 406.042969 648.933594 406.667969 L 648.933594 422.414062 L 648.046875 422.414062 L 385.988281 422.722656 " fill-opacity="1" fill-rule="nonzero"/><path fill="#ffffff" d="M 404.039062 581.46875 L 629.632812 581.160156 L 629.632812 565.855469 L 404.039062 566.160156 L 404.039062 581.46875 " fill-opacity="1" fill-rule="nonzero"/><path fill="#000000" d="M 404.929688 567.046875 L 404.929688 580.578125 L 628.746094 580.273438 L 628.746094 566.742188 Z M 403.152344 582.359375 L 403.152344 565.273438 L 630.523438 564.964844 L 630.523438 582.046875 L 403.152344 582.359375 " fill-opacity="1" fill-rule="nonzero"/><path fill="#ffffff" d="M 389.625 596.792969 L 644.050781 596.484375 L 644.050781 581.179688 L 389.625 581.484375 L 389.625 596.792969 " fill-opacity="1" fill-rule="nonzero"/><path fill="#000000" d="M 390.515625 582.375 L 390.515625 595.902344 L 643.160156 595.601562 L 643.160156 582.070312 Z M 388.738281 597.683594 L 388.738281 580.597656 L 644.941406 580.289062 L 644.941406 597.371094 L 388.738281 597.683594 " fill-opacity="1" fill-rule="nonzero"/><path fill="#ffffff" d="M 373.144531 612.066406 L 660.664062 611.757812 L 660.664062 596.453125 L 373.144531 596.757812 L 373.144531 612.066406 " fill-opacity="1" fill-rule="nonzero"/><path fill="#000000" d="M 374.03125 597.644531 L 374.03125 611.175781 L 659.773438 610.871094 L 659.773438 597.339844 Z M 372.253906 612.953125 L 372.253906 595.871094 L 373.140625 595.867188 L 661.550781 595.5625 L 661.550781 612.644531 L 660.660156 612.648438 L 372.253906 612.953125 " fill-opacity="1" fill-rule="nonzero"/><path fill="#5479f7" d="M 560.480469 588.753906 L 560.511719 613.847656 C 560.53125 624.695312 545.246094 635.570312 514.542969 643.984375 C 453.132812 660.8125 352.910156 661.523438 288.710938 645.789062 C 287.660156 645.53125 286.617188 645.269531 285.582031 645 C 253.054688 636.597656 236.71875 625.421875 236.699219 614.21875 L 236.664062 589.125 C 236.683594 600.328125 253.023438 611.503906 285.550781 619.910156 C 286.585938 620.175781 287.625 620.433594 288.679688 620.695312 C 352.878906 636.429688 453.097656 635.71875 514.511719 618.894531 C 545.210938 610.480469 560.496094 599.605469 560.480469 588.753906 " fill-opacity="1" fill-rule="nonzero"/><path fill="#000000" d="M 237.5625 595.75 L 237.589844 614.21875 C 237.605469 625.320312 255.183594 636.226562 285.804688 644.140625 C 286.839844 644.40625 287.875 644.667969 288.925781 644.925781 C 352.613281 660.535156 453.71875 659.730469 514.304688 643.128906 C 543.125 635.230469 559.640625 624.5625 559.621094 613.847656 L 559.597656 595.367188 C 554.59375 604.585938 539.101562 613.074219 514.742188 619.75 C 485.003906 627.898438 445.195312 632.566406 402.644531 632.894531 C 360.175781 633.207031 319.625 629.191406 288.46875 621.558594 C 287.410156 621.296875 286.367188 621.039062 285.328125 620.769531 C 259.289062 614.039062 242.78125 605.324219 237.5625 595.75 Z M 397.882812 658.003906 C 357.164062 658.003906 318.484375 654 288.5 646.648438 C 287.441406 646.390625 286.398438 646.128906 285.359375 645.859375 C 253.429688 637.609375 235.832031 626.375 235.808594 614.21875 L 235.777344 589.128906 C 235.773438 588.636719 236.171875 588.238281 236.664062 588.234375 C 237.15625 588.234375 237.554688 588.632812 237.554688 589.125 C 237.574219 600.226562 255.148438 611.136719 285.773438 619.046875 C 286.804688 619.3125 287.839844 619.574219 288.890625 619.832031 C 352.582031 635.441406 453.683594 634.636719 514.269531 618.035156 C 543.089844 610.136719 559.609375 599.46875 559.585938 588.757812 L 559.585938 588.753906 C 559.585938 588.265625 559.984375 587.867188 560.476562 587.867188 C 560.96875 587.867188 561.367188 588.261719 561.367188 588.753906 L 561.402344 613.847656 C 561.421875 625.589844 544.863281 636.597656 514.777344 644.839844 C 485.039062 652.988281 445.230469 657.65625 402.679688 657.984375 C 401.078125 658 399.476562 658.003906 397.882812 658.003906 " fill-opacity="1" fill-rule="nonzero"/><path fill="#ffffff" d="M 508.445312 557.183594 C 509.507812 557.441406 510.546875 557.703125 511.585938 557.972656 C 575.617188 574.515625 576.921875 601.789062 514.507812 618.894531 C 453.09375 635.71875 352.878906 636.429688 288.679688 620.695312 C 287.625 620.433594 286.585938 620.175781 285.550781 619.910156 C 221.527344 603.367188 220.21875 576.09375 282.636719 558.988281 C 344.039062 542.164062 444.25 541.449219 508.445312 557.183594 " fill-opacity="1" fill-rule="nonzero"/><path fill="#000000" d="M 399.339844 546.851562 C 356.863281 546.851562 314.386719 551.210938 282.871094 559.84375 C 253.992188 567.761719 237.476562 578.453125 237.554688 589.183594 C 237.632812 600.269531 255.210938 611.152344 285.769531 619.046875 C 286.800781 619.3125 287.839844 619.574219 288.890625 619.832031 C 352.578125 635.441406 453.683594 634.636719 514.273438 618.035156 C 543.148438 610.121094 559.664062 599.429688 559.589844 588.695312 C 559.507812 577.613281 541.929688 566.730469 511.359375 558.832031 C 510.328125 558.566406 509.289062 558.304688 508.234375 558.046875 C 477.683594 550.558594 438.507812 546.851562 399.339844 546.851562 Z M 397.847656 632.914062 C 357.125 632.914062 318.449219 628.90625 288.46875 621.558594 C 287.410156 621.296875 286.367188 621.039062 285.328125 620.769531 C 253.460938 612.535156 235.863281 601.324219 235.777344 589.199219 C 235.691406 577.425781 252.246094 566.394531 282.398438 558.132812 C 312.132812 549.984375 351.9375 545.316406 394.488281 544.992188 C 436.960938 544.65625 477.5 548.6875 508.65625 556.320312 C 509.71875 556.582031 510.761719 556.84375 511.804688 557.113281 C 543.675781 565.347656 561.273438 576.558594 561.363281 588.683594 C 561.449219 600.457031 544.894531 611.488281 514.738281 619.75 C 485.003906 627.898438 445.191406 632.566406 402.644531 632.894531 C 401.042969 632.90625 399.441406 632.914062 397.847656 632.914062 " fill-opacity="1" fill-rule="nonzero"/><path fill="#5479f7" d="M 435.253906 566.21875 L 433.085938 573.929688 C 426.28125 573.664062 414.0625 572.96875 396.515625 574.175781 C 380.691406 575.269531 376.777344 577.414062 377.980469 579.207031 C 378.402344 579.816406 379.496094 580.3125 381.375 580.726562 C 385.972656 581.742188 395.277344 582.25 410.96875 582.6875 C 427.765625 583.0625 439.589844 584.035156 447.503906 585.777344 C 454.105469 587.230469 457.984375 589.21875 459.765625 591.835938 C 463.625 597.527344 451.566406 603.449219 424.410156 606.660156 L 428.839844 613.1875 L 404.953125 614.835938 L 400.832031 608.757812 C 384.382812 609.695312 367.753906 609.632812 357.53125 608.871094 L 359.777344 600.878906 C 371.019531 601.644531 386.300781 601.996094 402.128906 600.902344 C 416.027344 599.941406 424.574219 597.882812 422.859375 595.324219 C 422.289062 594.484375 420.867188 593.816406 418.460938 593.289062 C 413.890625 592.285156 405.769531 591.777344 393.238281 591.542969 C 376.296875 591.234375 362.238281 590.371094 352.929688 588.324219 C 347.058594 587.03125 343.074219 585.265625 341.449219 582.863281 C 337.632812 577.238281 349.761719 571.78125 374.921875 568.640625 L 370.804688 562.566406 L 394.679688 560.914062 L 398.480469 566.546875 C 414.941406 565.609375 426.511719 565.746094 435.253906 566.21875 " fill-opacity="1" fill-rule="nonzero"/><path fill="#ffffff" d="M 429.90625 299.640625 C 429.90625 279.804688 445.976562 263.730469 465.800781 263.730469 C 485.625 263.730469 501.695312 279.804688 501.695312 299.640625 C 501.695312 319.476562 485.625 335.550781 465.800781 335.550781 C 445.976562 335.550781 429.90625 319.476562 429.90625 299.640625 " fill-opacity="1" fill-rule="nonzero"/><path fill="#5479f7" d="M 441.03125 325.753906 C 447.496094 331.851562 456.210938 335.597656 465.796875 335.597656 C 475.390625 335.597656 484.101562 331.851562 490.566406 325.753906 C 483.085938 323.4375 474.683594 322.136719 465.796875 322.136719 C 456.914062 322.136719 448.507812 323.4375 441.03125 325.753906 " fill-opacity="1" fill-rule="nonzero"/><path fill="#ffffff" d="M 471.035156 283.1875 C 470.984375 283.167969 470.878906 283.121094 470.878906 283.121094 L 453.640625 283.171875 L 453.640625 301.0625 C 453.640625 304.925781 455.445312 308.359375 458.253906 310.585938 L 458.253906 320.871094 C 458.253906 324.9375 461.554688 328.234375 465.625 328.234375 C 469.691406 328.234375 472.984375 324.9375 472.984375 320.871094 L 472.984375 310.851562 C 475.996094 308.640625 477.957031 305.085938 477.957031 301.0625 L 477.957031 293.90625 C 477.957031 289.136719 475.117188 285.03125 471.035156 283.1875 " fill-opacity="1" fill-rule="nonzero"/><path fill="#000000" d="M 465.796875 329.125 C 461.246094 329.125 457.546875 325.421875 457.546875 320.871094 L 457.546875 311.179688 C 457.546875 310.691406 457.941406 310.292969 458.433594 310.292969 C 458.925781 310.292969 459.324219 310.691406 459.324219 311.179688 L 459.324219 320.871094 C 459.324219 324.445312 462.226562 327.347656 465.796875 327.347656 C 469.371094 327.347656 472.273438 324.445312 472.273438 320.871094 L 472.273438 311.113281 C 472.273438 310.621094 472.671875 310.222656 473.164062 310.222656 C 473.65625 310.222656 474.054688 310.621094 474.054688 311.113281 L 474.054688 320.871094 C 474.054688 325.421875 470.351562 329.125 465.796875 329.125 " fill-opacity="1" fill-rule="nonzero"/><path fill="#000000" d="M 465.796875 314.109375 C 465.308594 314.109375 464.910156 313.707031 464.910156 313.21875 C 464.910156 312.726562 465.308594 312.332031 465.796875 312.332031 C 472.015625 312.332031 477.066406 307.277344 477.066406 301.0625 L 477.066406 288.683594 C 477.066406 283.308594 473.140625 283.046875 466.207031 283.046875 L 454.527344 283.046875 L 454.527344 301.0625 C 454.527344 305.46875 457.125 309.496094 461.132812 311.324219 C 461.582031 311.527344 461.78125 312.054688 461.574219 312.5 C 461.375 312.945312 460.847656 313.144531 460.398438 312.941406 C 455.753906 310.828125 452.753906 306.167969 452.753906 301.0625 L 452.753906 282.160156 C 452.753906 281.667969 453.148438 281.269531 453.640625 281.269531 L 466.207031 281.269531 C 472.417969 281.269531 478.847656 281.269531 478.847656 288.683594 L 478.847656 301.0625 C 478.847656 308.253906 472.996094 314.109375 465.796875 314.109375 " fill-opacity="1" fill-rule="nonzero"/><path fill="#5479f7" d="M 479.636719 286.769531 L 451.960938 286.769531 L 446.90625 277.59375 L 465.640625 269.296875 L 484.699219 277.59375 L 479.636719 286.769531 " fill-opacity="1" fill-rule="nonzero"/><path fill="#000000" d="M 452.488281 285.886719 L 479.109375 285.886719 L 483.445312 278.023438 L 465.640625 270.269531 L 448.148438 278.015625 Z M 479.632812 287.664062 L 451.960938 287.664062 C 451.636719 287.664062 451.339844 287.488281 451.183594 287.203125 L 446.121094 278.027344 C 446.003906 277.804688 445.980469 277.546875 446.058594 277.3125 C 446.140625 277.074219 446.3125 276.882812 446.539062 276.785156 L 465.277344 268.488281 C 465.503906 268.386719 465.765625 268.386719 465.996094 268.484375 L 485.050781 276.78125 C 485.277344 276.882812 485.457031 277.074219 485.535156 277.308594 C 485.621094 277.546875 485.59375 277.804688 485.472656 278.027344 L 480.414062 287.203125 C 480.257812 287.488281 479.960938 287.664062 479.632812 287.664062 " fill-opacity="1" fill-rule="nonzero"/><path fill="#000000" d="M 451.003906 286.261719 L 480.589844 286.261719 L 480.589844 291.355469 C 480.589844 292.625 479.558594 293.65625 478.285156 293.65625 L 453.308594 293.65625 C 452.035156 293.65625 451.003906 292.625 451.003906 291.355469 L 451.003906 286.261719 " fill-opacity="1" fill-rule="nonzero"/><path fill="#caddff" d="M 469.023438 279.175781 C 469.023438 280.957031 467.578125 282.402344 465.796875 282.402344 C 464.019531 282.402344 462.574219 280.957031 462.574219 279.175781 C 462.574219 277.394531 464.019531 275.949219 465.796875 275.949219 C 467.578125 275.949219 469.023438 277.394531 469.023438 279.175781 " fill-opacity="1" fill-rule="nonzero"/><path fill="#000000" d="M 465.808594 336.457031 C 465.722656 336.457031 465.632812 336.457031 465.550781 336.457031 C 455.667969 336.390625 446.402344 332.480469 439.464844 325.449219 C 432.523438 318.417969 428.738281 309.105469 428.804688 299.226562 C 428.871094 289.347656 432.78125 280.085938 439.820312 273.152344 C 453.652344 259.507812 475.855469 258.925781 490.359375 271.820312 C 490.726562 272.148438 490.761719 272.707031 490.433594 273.074219 C 490.105469 273.441406 489.546875 273.472656 489.175781 273.148438 C 475.371094 260.871094 454.238281 261.429688 441.070312 274.417969 C 434.371094 281.019531 430.648438 289.832031 430.582031 299.234375 C 430.519531 308.640625 434.125 317.503906 440.730469 324.199219 C 447.335938 330.894531 456.152344 334.613281 465.558594 334.679688 C 465.644531 334.679688 465.722656 334.679688 465.808594 334.679688 C 475.121094 334.679688 483.894531 331.085938 490.53125 324.539062 C 497.78125 317.390625 501.574219 307.464844 500.949219 297.296875 C 500.921875 296.808594 501.292969 296.386719 501.78125 296.355469 C 502.269531 296.328125 502.695312 296.699219 502.722656 297.1875 C 503.382812 307.863281 499.394531 318.296875 491.78125 325.804688 C 484.808594 332.679688 475.59375 336.457031 465.808594 336.457031 " fill-opacity="1" fill-rule="nonzero"/><path fill="#ffffff" d="M 580.257812 319.351562 C 580.257812 299.414062 596.414062 283.246094 616.347656 283.246094 C 636.277344 283.246094 652.4375 299.414062 652.4375 319.351562 C 652.4375 339.292969 636.277344 355.460938 616.347656 355.460938 C 596.414062 355.460938 580.257812 339.292969 580.257812 319.351562 " fill-opacity="1" fill-rule="nonzero"/><path fill="#99b9ff" d="M 591.441406 345.609375 C 597.941406 351.738281 606.703125 355.507812 616.34375 355.507812 C 625.988281 355.507812 634.746094 351.738281 641.246094 345.609375 C 633.726562 343.277344 625.277344 341.96875 616.34375 341.96875 C 607.410156 341.96875 598.960938 343.277344 591.441406 345.609375 " fill-opacity="1" fill-rule="nonzero"/><path fill="#ffffff" d="M 628.5 302.910156 L 604.117188 302.996094 L 604.117188 323.75 C 604.117188 327.632812 605.933594 330.492188 608.761719 332.730469 L 608.761719 340.703125 C 608.761719 344.792969 612.070312 348.101562 616.164062 348.101562 C 620.253906 348.101562 623.570312 344.792969 623.570312 340.703125 L 623.570312 333.011719 C 626.597656 330.789062 628.570312 327.796875 628.570312 323.75 L 628.5 302.910156 " fill-opacity="1" fill-rule="nonzero"/><path fill="#000000" d="M 616.164062 348.988281 C 611.59375 348.988281 607.871094 345.273438 607.871094 340.703125 L 607.871094 330.574219 L 609.652344 330.574219 L 609.652344 340.703125 C 609.652344 344.289062 612.570312 347.210938 616.164062 347.210938 C 619.761719 347.210938 622.683594 344.289062 622.683594 340.703125 L 622.683594 330.894531 L 624.460938 330.894531 L 624.460938 340.703125 C 624.460938 345.273438 620.738281 348.988281 616.164062 348.988281 " fill-opacity="1" fill-rule="nonzero"/><path fill="#000000" d="M 616.34375 333.890625 C 615.855469 333.890625 615.453125 333.496094 615.453125 333.007812 C 615.453125 332.511719 615.855469 332.117188 616.34375 332.117188 C 622.597656 332.117188 627.683594 327.03125 627.683594 320.785156 L 627.683594 302.699219 L 605.011719 302.667969 L 605.011719 320.785156 C 605.011719 325.21875 607.617188 329.269531 611.652344 331.105469 C 612.097656 331.304688 612.300781 331.832031 612.097656 332.28125 C 611.890625 332.730469 611.363281 332.925781 610.914062 332.722656 C 606.25 330.597656 603.230469 325.910156 603.230469 320.785156 L 603.230469 301.777344 C 603.230469 301.539062 603.324219 301.3125 603.492188 301.148438 C 603.660156 300.980469 603.886719 300.886719 604.121094 300.886719 L 628.574219 300.925781 C 629.058594 300.925781 629.460938 301.324219 629.460938 301.8125 L 629.460938 320.785156 C 629.460938 328.011719 623.578125 333.890625 616.34375 333.890625 " fill-opacity="1" fill-rule="nonzero"/><path fill="#99b9ff" d="M 624.773438 335.046875 L 607.921875 335.046875 C 605.816406 335.046875 604.117188 333.34375 604.117188 331.242188 L 604.117188 319.933594 L 628.578125 319.933594 L 628.578125 331.242188 C 628.578125 333.34375 626.871094 335.046875 624.773438 335.046875 " fill-opacity="1" fill-rule="nonzero"/><path fill="#000000" d="M 605.003906 320.824219 L 605.003906 322.820312 C 605.003906 329.070312 610.09375 334.160156 616.347656 334.160156 C 622.601562 334.160156 627.6875 329.070312 627.6875 322.820312 L 627.6875 320.824219 Z M 616.347656 335.9375 C 609.113281 335.9375 603.222656 330.050781 603.222656 322.820312 L 603.222656 319.042969 L 629.46875 319.042969 L 629.46875 322.820312 C 629.46875 330.050781 623.578125 335.9375 616.347656 335.9375 " fill-opacity="1" fill-rule="nonzero"/><path fill="#ffffff" d="M 628.535156 307.90625 L 604.15625 307.90625 L 603.105469 292.726562 L 629.585938 292.726562 L 628.535156 307.90625 " fill-opacity="1" fill-rule="nonzero"/><path fill="#000000" d="M 604.988281 307.019531 L 627.703125 307.019531 L 628.628906 293.613281 L 604.058594 293.613281 Z M 629.363281 308.796875 L 603.328125 308.796875 L 602.15625 291.835938 L 630.535156 291.835938 L 629.363281 308.796875 " fill-opacity="1" fill-rule="nonzero"/><path fill="#5479f7" d="M 616.570312 306.371094 C 616.078125 306.371094 615.679688 305.976562 615.679688 305.488281 L 615.679688 296.597656 C 615.679688 296.105469 616.078125 295.707031 616.570312 295.707031 C 617.058594 295.707031 617.457031 296.105469 617.457031 296.597656 L 617.457031 305.488281 C 617.457031 305.976562 617.058594 306.371094 616.570312 306.371094 " fill-opacity="1" fill-rule="nonzero"/><path fill="#5479f7" d="M 619.828125 301.929688 L 612.710938 301.929688 C 612.222656 301.929688 611.828125 301.53125 611.828125 301.039062 C 611.828125 300.550781 612.222656 300.152344 612.710938 300.152344 L 619.828125 300.152344 C 620.316406 300.152344 620.71875 300.550781 620.71875 301.039062 C 620.71875 301.53125 620.316406 301.929688 619.828125 301.929688 " fill-opacity="1" fill-rule="nonzero"/><path fill="#000000" d="M 616.160156 356.367188 C 615.886719 356.367188 615.617188 356.367188 615.34375 356.359375 C 605.40625 356.144531 596.15625 352.078125 589.285156 344.910156 C 575.769531 330.808594 575.503906 308.492188 588.691406 294.105469 C 589.019531 293.746094 589.585938 293.71875 589.945312 294.050781 C 590.308594 294.382812 590.332031 294.945312 590 295.308594 C 577.449219 309.003906 577.703125 330.253906 590.566406 343.679688 C 597.109375 350.503906 605.921875 354.378906 615.378906 354.578125 C 624.832031 354.796875 633.808594 351.292969 640.636719 344.753906 C 647.464844 338.210938 651.339844 329.402344 651.542969 319.949219 C 651.742188 310.496094 648.253906 301.53125 641.710938 294.703125 C 634.628906 287.316406 624.699219 283.355469 614.464844 283.832031 C 613.972656 283.855469 613.558594 283.476562 613.53125 282.988281 C 613.511719 282.496094 613.894531 282.078125 614.378906 282.054688 C 625.132812 281.546875 635.558594 285.714844 642.996094 293.472656 C 649.867188 300.644531 653.535156 310.0625 653.320312 319.988281 C 653.109375 329.914062 649.039062 339.164062 641.863281 346.035156 C 634.890625 352.714844 625.792969 356.367188 616.160156 356.367188 " fill-opacity="1" fill-rule="nonzero"/><path fill="#ffffff" d="M 473.222656 203.890625 C 473.222656 183.679688 489.597656 167.296875 509.800781 167.296875 C 530 167.296875 546.378906 183.679688 546.378906 203.890625 C 546.378906 224.101562 530 240.484375 509.800781 240.484375 C 489.597656 240.484375 473.222656 224.101562 473.222656 203.890625 " fill-opacity="1" fill-rule="nonzero"/><path fill="#99b9ff" d="M 484.558594 230.496094 C 491.148438 236.714844 500.027344 240.53125 509.796875 240.53125 C 519.574219 240.53125 528.445312 236.714844 535.035156 230.496094 C 527.414062 228.136719 518.851562 226.8125 509.796875 226.8125 C 500.742188 226.8125 492.179688 228.136719 484.558594 230.496094 " fill-opacity="1" fill-rule="nonzero"/><path fill="#ffffff" d="M 522.214844 187.359375 L 497.410156 187.25 L 497.410156 205.339844 C 497.410156 209.273438 499.25 212.777344 502.113281 215.042969 L 502.113281 225.277344 C 502.113281 229.40625 505.347656 232.949219 509.476562 233.027344 C 513.6875 233.101562 517.121094 229.714844 517.121094 225.523438 L 517.121094 215.328125 C 520.191406 213.074219 522.191406 209.441406 522.191406 205.339844 L 522.214844 187.359375 " fill-opacity="1" fill-rule="nonzero"/><path fill="#000000" d="M 509.613281 233.917969 C 504.988281 233.917969 501.222656 230.15625 501.222656 225.527344 L 501.222656 215.265625 L 503 215.265625 L 503 225.527344 C 503 229.171875 505.964844 232.140625 509.613281 232.140625 C 513.261719 232.140625 516.230469 229.171875 516.230469 225.527344 L 516.230469 215.589844 L 518.011719 215.589844 L 518.011719 225.527344 C 518.011719 230.15625 514.242188 233.917969 509.613281 233.917969 " fill-opacity="1" fill-rule="nonzero"/><path fill="#000000" d="M 509.796875 218.613281 C 509.304688 218.613281 508.910156 218.214844 508.910156 217.726562 C 508.910156 217.234375 509.304688 216.839844 509.796875 216.839844 C 516.140625 216.839844 521.300781 211.679688 521.300781 205.339844 L 521.300781 187 L 498.296875 186.964844 L 498.296875 205.339844 C 498.296875 209.835938 500.941406 213.945312 505.042969 215.808594 C 505.484375 216.015625 505.683594 216.539062 505.480469 216.984375 C 505.273438 217.433594 504.75 217.628906 504.300781 217.425781 C 499.574219 215.273438 496.519531 210.535156 496.519531 205.339844 L 496.519531 186.074219 C 496.519531 185.839844 496.613281 185.613281 496.78125 185.445312 C 496.949219 185.277344 497.160156 185.175781 497.410156 185.183594 L 522.1875 185.222656 C 522.679688 185.222656 523.078125 185.621094 523.078125 186.109375 L 523.078125 205.339844 C 523.078125 212.65625 517.121094 218.613281 509.796875 218.613281 " fill-opacity="1" fill-rule="nonzero"/><path fill="#99b9ff" d="M 529.472656 190.839844 C 530.214844 190.847656 530.824219 191.433594 530.871094 192.179688 L 532.058594 213.1875 L 526.34375 213.117188 L 528.042969 192.144531 C 528.105469 191.398438 528.730469 190.828125 529.472656 190.839844 " fill-opacity="1" fill-rule="nonzero"/><path fill="#000000" d="M 527.308594 212.238281 L 531.121094 212.285156 L 529.984375 192.226562 C 529.96875 191.949219 529.738281 191.730469 529.460938 191.726562 C 529.175781 191.714844 528.953125 191.933594 528.929688 192.214844 Z M 532.058594 214.074219 C 532.054688 214.074219 532.054688 214.074219 532.046875 214.074219 L 526.335938 214.003906 C 526.089844 214 525.855469 213.898438 525.691406 213.710938 C 525.523438 213.53125 525.4375 213.289062 525.460938 213.042969 L 527.15625 192.070312 C 527.257812 190.867188 528.289062 189.953125 529.484375 189.949219 C 530.691406 189.960938 531.691406 190.921875 531.757812 192.125 L 532.949219 213.136719 C 532.964844 213.382812 532.875 213.625 532.699219 213.800781 C 532.535156 213.976562 532.304688 214.074219 532.058594 214.074219 " fill-opacity="1" fill-rule="nonzero"/><path fill="#000000" d="M 528.839844 192.011719 C 528.347656 192.011719 527.949219 191.613281 527.949219 191.121094 L 527.949219 182.824219 C 527.949219 182.335938 528.347656 181.9375 528.839844 181.9375 C 529.328125 181.9375 529.726562 182.335938 529.726562 182.824219 L 529.726562 191.121094 C 529.726562 191.613281 529.328125 192.011719 528.839844 192.011719 " fill-opacity="1" fill-rule="nonzero"/><path fill="#000000" d="M 523.207031 192.875 L 496.503906 192.875 L 496.636719 181.058594 L 523.074219 181.058594 L 523.207031 192.875 " fill-opacity="1" fill-rule="nonzero"/><path fill="#000000" d="M 530.324219 178.675781 L 488.234375 178.675781 L 488.234375 182.824219 L 530.324219 182.824219 L 530.324219 178.675781 " fill-opacity="1" fill-rule="nonzero"/><path fill="#000000" d="M 509.601562 241.371094 C 499.675781 241.371094 489.769531 237.488281 482.382812 229.777344 C 468.691406 215.492188 468.425781 192.882812 481.78125 178.308594 C 482.113281 177.945312 482.671875 177.921875 483.035156 178.253906 C 483.398438 178.585938 483.425781 179.148438 483.09375 179.507812 C 470.371094 193.394531 470.625 214.933594 483.667969 228.546875 C 497.363281 242.839844 520.132812 243.328125 534.429688 229.636719 C 548.722656 215.945312 549.210938 193.183594 535.515625 178.894531 C 528.335938 171.40625 518.265625 167.398438 507.894531 167.875 C 507.410156 167.898438 506.988281 167.515625 506.960938 167.027344 C 506.941406 166.539062 507.320312 166.121094 507.8125 166.097656 C 518.699219 165.589844 529.265625 169.804688 536.800781 177.664062 C 551.171875 192.664062 550.664062 216.550781 535.660156 230.921875 C 528.371094 237.902344 518.976562 241.371094 509.601562 241.371094 " fill-opacity="1" fill-rule="nonzero"/><path fill="#ffffff" d="M 263.457031 552.425781 L 261.160156 576.507812 L 252.613281 576.507812 L 252.199219 552.824219 L 263.457031 552.425781 " fill-opacity="1" fill-rule="nonzero"/><path fill="#000000" d="M 253.488281 575.617188 L 260.351562 575.617188 L 262.476562 553.347656 L 253.105469 553.679688 Z M 261.160156 577.394531 L 252.613281 577.394531 C 252.128906 577.394531 251.734375 577.007812 251.722656 576.523438 L 251.3125 552.839844 C 251.304688 552.351562 251.683594 551.953125 252.167969 551.933594 L 263.425781 551.539062 C 263.6875 551.535156 263.929688 551.628906 264.105469 551.816406 C 264.28125 552.003906 264.367188 552.253906 264.34375 552.511719 L 262.042969 576.589844 C 262 577.046875 261.617188 577.394531 261.160156 577.394531 " fill-opacity="1" fill-rule="nonzero"/><path fill="#000000" d="M 261.484375 599.527344 C 257.933594 599.90625 251.53125 600.152344 244.757812 598.984375 C 242.542969 598.605469 241.140625 596.390625 241.75 594.230469 C 243.296875 588.714844 245.992188 578.691406 249.949219 573.023438 C 250.464844 572.289062 251.574219 572.359375 252 573.148438 L 252.71875 574.46875 L 254.519531 571.453125 C 254.742188 571.082031 255.125 570.84375 255.550781 570.804688 L 258.695312 570.820312 C 259.394531 570.753906 260.027344 571.238281 260.148438 571.929688 L 260.59375 574.46875 L 262.503906 572.769531 C 262.910156 572.410156 263.554688 572.710938 263.539062 573.253906 L 263.257812 583.050781 C 263.195312 585.261719 263.363281 587.472656 263.769531 589.644531 L 264.835938 595.386719 C 265.039062 597.453125 263.546875 599.304688 261.484375 599.527344 " fill-opacity="1" fill-rule="nonzero"/><path fill="#caddff" d="M 252.464844 596.625 C 249.828125 596.625 246.875 596.363281 243.949219 595.597656 C 243.476562 595.472656 243.191406 594.988281 243.316406 594.511719 C 243.441406 594.035156 243.929688 593.75 244.402344 593.878906 C 252.550781 596.023438 261.21875 593.894531 261.308594 593.875 C 261.785156 593.757812 262.265625 594.046875 262.386719 594.523438 C 262.503906 594.996094 262.21875 595.480469 261.738281 595.601562 C 261.496094 595.660156 257.570312 596.625 252.464844 596.625 " fill-opacity="1" fill-rule="nonzero"/><path fill="#caddff" d="M 257.425781 587.203125 L 249.472656 587.203125 C 248.980469 587.203125 248.582031 586.804688 248.582031 586.316406 C 248.582031 585.824219 248.980469 585.429688 249.472656 585.429688 L 257.425781 585.429688 C 257.914062 585.429688 258.3125 585.824219 258.3125 586.316406 C 258.3125 586.804688 257.914062 587.203125 257.425781 587.203125 " fill-opacity="1" fill-rule="nonzero"/><path fill="#ffffff" d="M 326.949219 555.703125 L 330.035156 583.765625 L 341.828125 586.238281 L 341.109375 553.332031 L 326.949219 555.703125 " fill-opacity="1" fill-rule="nonzero"/><path fill="#000000" d="M 330.847656 583.03125 L 340.914062 585.140625 L 340.242188 554.378906 L 327.925781 556.441406 Z M 341.828125 587.128906 C 341.765625 587.128906 341.707031 587.121094 341.644531 587.109375 L 329.851562 584.636719 C 329.476562 584.558594 329.191406 584.246094 329.152344 583.863281 L 326.066406 555.800781 C 326.015625 555.332031 326.335938 554.90625 326.804688 554.824219 L 340.964844 552.457031 C 341.21875 552.414062 341.476562 552.484375 341.675781 552.648438 C 341.875 552.8125 341.992188 553.054688 342 553.3125 L 342.71875 586.21875 C 342.722656 586.492188 342.605469 586.75 342.394531 586.925781 C 342.234375 587.054688 342.035156 587.128906 341.828125 587.128906 " fill-opacity="1" fill-rule="nonzero"/><path fill="#000000" d="M 324.839844 595.304688 C 324.667969 590.925781 324.835938 583.09375 327.773438 578.808594 L 337.207031 582.175781 L 337.207031 580.15625 C 337.207031 579.503906 337.671875 578.96875 338.261719 578.9375 L 343.523438 578.632812 C 345.488281 578.523438 347.445312 578.925781 349.238281 579.8125 C 354.542969 582.421875 365.65625 588.496094 368.769531 594.925781 C 369.636719 596.710938 368.476562 598.828125 366.511719 599.070312 C 361.460938 599.699219 349.753906 600.492188 328.148438 598.742188 C 326.335938 598.597656 324.910156 597.121094 324.839844 595.304688 " fill-opacity="1" fill-rule="nonzero"/><path fill="#caddff" d="M 345.058594 597.0625 C 340.058594 597.0625 334.363281 596.816406 328.273438 596.109375 C 327.785156 596.050781 327.4375 595.609375 327.492188 595.125 C 327.550781 594.636719 328 594.289062 328.480469 594.34375 C 348.507812 596.667969 364.242188 593.96875 364.402344 593.9375 C 364.882812 593.855469 365.34375 594.175781 365.429688 594.660156 C 365.515625 595.144531 365.191406 595.605469 364.707031 595.691406 C 364.597656 595.710938 356.730469 597.0625 345.058594 597.0625 " fill-opacity="1" fill-rule="nonzero"/><path fill="#caddff" d="M 352.339844 589.414062 C 352.160156 589.414062 351.976562 589.359375 351.820312 589.246094 L 342.738281 582.707031 C 342.339844 582.421875 342.25 581.867188 342.535156 581.46875 C 342.820312 581.070312 343.378906 580.976562 343.777344 581.265625 L 352.859375 587.804688 C 353.257812 588.089844 353.347656 588.648438 353.0625 589.046875 C 352.890625 589.285156 352.613281 589.414062 352.339844 589.414062 " fill-opacity="1" fill-rule="nonzero"/><path fill="#000000" d="M 338.699219 398.15625 L 327.863281 391.257812 L 308.414062 401.765625 C 308.414062 401.765625 317.140625 407.355469 327.25 410.128906 C 344.273438 414.804688 338.699219 398.15625 338.699219 398.15625 " fill-opacity="1" fill-rule="nonzero"/><path fill="#5479f7" d="M 330.628906 372.480469 C 330.628906 372.480469 347.707031 489.132812 344.105469 566.613281 L 325.859375 567.097656 C 325.859375 567.097656 304.957031 448.835938 294.890625 429.289062 C 294.890625 429.289062 267.238281 537.109375 266.183594 565.464844 C 266.183594 565.464844 254.015625 566.691406 249.164062 564.941406 C 246.558594 537.578125 246.082031 506.097656 245.953125 488.316406 C 245.578125 437.421875 250.4375 414.304688 253.101562 403.335938 C 255.546875 393.265625 258.171875 385.082031 260.089844 379.546875 L 266.492188 361.269531 L 330.628906 372.480469 " fill-opacity="1" fill-rule="nonzero"/><path fill="#000000" d="M 294.890625 428.402344 C 295.222656 428.402344 295.527344 428.585938 295.683594 428.882812 C 305.386719 447.722656 324.644531 555.171875 326.601562 566.191406 L 343.257812 565.746094 C 346.523438 492.1875 331.179688 382.625 329.839844 373.246094 L 267.078125 362.277344 L 260.929688 379.839844 C 258.25 387.574219 255.90625 395.550781 253.964844 403.546875 C 250.738281 416.835938 246.488281 440.078125 246.839844 488.308594 C 247.066406 519.234375 248.101562 544.09375 249.996094 564.277344 C 254.164062 565.464844 262.730469 564.867188 265.332031 564.648438 C 266.835938 535.378906 293.757812 430.140625 294.03125 429.070312 C 294.121094 428.714844 294.425781 428.445312 294.792969 428.40625 C 294.824219 428.402344 294.859375 428.402344 294.890625 428.402344 Z M 325.859375 567.988281 C 325.429688 567.988281 325.058594 567.679688 324.984375 567.253906 C 324.78125 566.113281 305.363281 456.632812 295.132812 431.949219 C 291.027344 448.144531 268.023438 539.929688 267.074219 565.496094 C 267.058594 565.941406 266.714844 566.304688 266.273438 566.347656 C 265.769531 566.398438 253.847656 567.574219 248.863281 565.777344 C 248.542969 565.664062 248.3125 565.367188 248.28125 565.027344 C 246.34375 544.6875 245.292969 519.597656 245.0625 488.320312 C 244.707031 439.894531 248.988281 416.507812 252.238281 403.128906 C 254.191406 395.078125 256.550781 387.046875 259.25 379.253906 L 265.652344 360.976562 C 265.792969 360.566406 266.21875 360.320312 266.644531 360.394531 L 330.78125 371.609375 C 331.160156 371.671875 331.453125 371.972656 331.507812 372.355469 C 331.679688 373.519531 348.558594 489.976562 344.996094 566.652344 C 344.972656 567.117188 344.597656 567.488281 344.132812 567.5 L 325.882812 567.988281 C 325.875 567.988281 325.867188 567.988281 325.859375 567.988281 " fill-opacity="1" fill-rule="nonzero"/><path fill="#000000" d="M 294.789062 430.546875 C 294.699219 430.546875 294.609375 430.53125 294.519531 430.503906 C 294.050781 430.355469 293.792969 429.851562 293.941406 429.386719 C 296.617188 421.074219 304.113281 419.023438 304.433594 418.941406 C 304.910156 418.816406 305.394531 419.101562 305.519531 419.574219 C 305.640625 420.050781 305.359375 420.53125 304.882812 420.660156 C 304.605469 420.734375 298.003906 422.570312 295.636719 429.929688 C 295.515625 430.308594 295.164062 430.546875 294.789062 430.546875 " fill-opacity="1" fill-rule="nonzero"/><path fill="#ffffff" d="M 308.851562 239.484375 L 309.148438 257.386719 C 309.417969 259.613281 311.023438 261.449219 313.191406 262.015625 L 314.105469 262.535156 C 315.582031 262.914062 316.355469 263.230469 317.273438 266.609375 L 284.613281 262.816406 C 284.171875 261.851562 284.316406 260.722656 285.757812 260.601562 L 287.3125 260.226562 C 289.457031 259.75 291.105469 258.027344 291.496094 255.863281 L 293.476562 232.984375 L 308.851562 239.484375 " fill-opacity="1" fill-rule="nonzero"/><path fill="#000000" d="M 285.289062 262.003906 L 316.03125 265.570312 C 315.402344 263.785156 314.867188 263.648438 313.882812 263.398438 C 313.804688 263.378906 313.730469 263.347656 313.660156 263.308594 L 312.851562 262.84375 C 310.371094 262.152344 308.574219 260.0625 308.265625 257.492188 C 308.257812 257.464844 308.257812 257.433594 308.257812 257.402344 L 307.96875 240.078125 L 294.253906 234.28125 L 292.382812 255.9375 C 292.378906 255.964844 292.375 255.992188 292.371094 256.019531 C 291.917969 258.542969 290.007812 260.539062 287.503906 261.097656 L 285.964844 261.464844 C 285.921875 261.480469 285.875 261.484375 285.828125 261.488281 C 285.570312 261.511719 285.382812 261.578125 285.324219 261.675781 C 285.289062 261.738281 285.269531 261.851562 285.289062 262.003906 Z M 317.273438 267.5 C 317.242188 267.5 317.207031 267.5 317.171875 267.496094 L 284.511719 263.699219 C 284.203125 263.664062 283.933594 263.46875 283.804688 263.1875 C 283.410156 262.320312 283.402344 261.441406 283.789062 260.78125 C 284.039062 260.355469 284.554688 259.832031 285.609375 259.722656 L 287.101562 259.363281 C 288.90625 258.964844 290.273438 257.542969 290.613281 255.742188 L 292.589844 232.90625 C 292.613281 232.625 292.769531 232.371094 293.015625 232.222656 C 293.257812 232.078125 293.558594 232.054688 293.820312 232.167969 L 309.195312 238.667969 C 309.519531 238.800781 309.734375 239.117188 309.738281 239.46875 L 310.035156 257.324219 C 310.277344 259.179688 311.601562 260.683594 313.417969 261.160156 C 313.492188 261.179688 313.566406 261.207031 313.632812 261.246094 L 314.441406 261.707031 C 316.214844 262.175781 317.171875 262.84375 318.132812 266.378906 C 318.210938 266.664062 318.140625 266.96875 317.949219 267.191406 C 317.777344 267.390625 317.53125 267.5 317.273438 267.5 " fill-opacity="1" fill-rule="nonzero"/><path fill="#000000" d="M 317.78125 204.882812 C 313.328125 204.394531 316.828125 209.707031 301.132812 203.953125 C 294.699219 201.59375 297.589844 209.507812 295.910156 208.929688 C 289.699219 206.792969 287.289062 208.769531 285.769531 209.785156 C 284.019531 210.957031 282.1875 213.878906 282.429688 216.691406 C 282.746094 220.398438 287.582031 221.765625 289.886719 229.6875 C 291.507812 235.246094 290.867188 238.546875 293.03125 239.457031 C 295.214844 240.378906 297.015625 237.488281 299.476562 238.316406 C 302.664062 239.386719 301.738281 244.921875 304.769531 247.390625 C 306.679688 248.953125 311.261719 249.863281 318.851562 246.660156 C 320.082031 246.144531 320.765625 244.820312 320.476562 243.515625 C 320.109375 241.847656 319.628906 239.742188 319.003906 237.765625 C 316.019531 228.359375 312.820312 226.097656 314.140625 223.773438 C 316.164062 220.203125 323.027344 222.660156 324.335938 219.710938 C 325.695312 216.644531 323.871094 205.550781 317.78125 204.882812 " fill-opacity="1" fill-rule="nonzero"/><path fill="#ffffff" d="M 302.074219 225.648438 C 302.617188 226.800781 303.082031 227.984375 303.464844 229.199219 C 304.179688 231.46875 305.433594 235.363281 306.300781 237.492188 C 307.378906 240.128906 315.066406 238.09375 317.453125 237.386719 C 317.839844 237.273438 318.046875 236.859375 317.90625 236.480469 L 317.207031 234.214844 L 319.082031 233.839844 C 319.304688 233.761719 319.515625 233.640625 319.671875 233.457031 C 320.0625 233.007812 320.09375 232.390625 319.808594 231.914062 C 318.3125 229.457031 315.640625 225.402344 314.46875 220.496094 C 314.347656 219.996094 313.949219 219.609375 313.441406 219.515625 C 311.703125 219.191406 307.5625 218.8125 303.378906 221.347656 C 301.910156 222.238281 301.335938 224.09375 302.074219 225.648438 " fill-opacity="1" fill-rule="nonzero"/><path fill="#000000" d="M 317.066406 236.769531 C 317.070312 236.777344 317.070312 236.78125 317.074219 236.789062 Z M 302.875 225.265625 C 303.4375 226.449219 303.917969 227.679688 304.3125 228.933594 C 304.992188 231.089844 306.257812 235.03125 307.125 237.15625 C 307.546875 238.1875 311.074219 238.316406 317.011719 236.589844 L 316.0625 233.53125 L 318.835938 232.980469 C 318.90625 232.953125 318.964844 232.914062 319 232.875 C 319.125 232.730469 319.144531 232.535156 319.046875 232.375 L 318.628906 231.691406 C 317.066406 229.148438 314.707031 225.3125 313.605469 220.703125 C 313.566406 220.542969 313.4375 220.417969 313.28125 220.390625 C 311.761719 220.109375 307.804688 219.707031 303.84375 222.105469 C 302.75 222.769531 302.335938 224.125 302.875 225.265625 Z M 309.691406 239.695312 C 307.644531 239.695312 306.039062 239.195312 305.480469 237.828125 C 304.589844 235.644531 303.304688 231.648438 302.617188 229.464844 C 302.246094 228.289062 301.792969 227.136719 301.269531 226.03125 C 300.335938 224.0625 301.046875 221.722656 302.921875 220.589844 C 307.40625 217.867188 311.886719 218.324219 313.605469 218.644531 C 314.453125 218.800781 315.132812 219.445312 315.332031 220.289062 C 316.367188 224.621094 318.640625 228.316406 320.144531 230.761719 L 320.566406 231.453125 C 321.066406 232.273438 320.976562 233.308594 320.34375 234.039062 C 320.097656 234.320312 319.761719 234.542969 319.371094 234.679688 L 319.253906 234.710938 L 318.347656 234.890625 L 318.757812 236.21875 C 318.894531 236.585938 318.867188 237.042969 318.671875 237.429688 C 318.476562 237.820312 318.125 238.113281 317.707031 238.238281 C 315.066406 239.019531 312.078125 239.695312 309.691406 239.695312 " fill-opacity="1" fill-rule="nonzero"/><path fill="#ffffff" d="M 300.65625 234.074219 C 295.988281 235.699219 294.40625 231.347656 295.4375 228.757812 C 295.875 227.671875 297.378906 227.5625 298 228.554688 L 300.949219 233.257812 C 301.140625 233.5625 300.992188 233.957031 300.65625 234.074219 " fill-opacity="1" fill-rule="nonzero"/><path fill="#ffffff" d="M 405.285156 221.488281 C 409.488281 205.914062 416.191406 206.699219 414.570312 210.355469 C 412.9375 214.027344 409.199219 226.820312 409.199219 226.820312 L 405.285156 221.488281 " fill-opacity="1" fill-rule="nonzero"/><path fill="#000000" d="M 406.257812 221.300781 L 408.859375 224.851562 C 409.941406 221.210938 412.46875 212.898438 413.757812 209.996094 C 414.003906 209.4375 413.925781 209.148438 413.878906 209.089844 C 413.847656 209.046875 413.710938 209.007812 413.460938 209.0625 C 412.054688 209.363281 408.757812 212.3125 406.257812 221.300781 Z M 409.550781 228.800781 L 404.316406 221.664062 L 404.429688 221.253906 C 406.980469 211.792969 410.578125 207.859375 413.09375 207.324219 C 413.988281 207.136719 414.777344 207.371094 415.261719 207.96875 C 415.8125 208.648438 415.855469 209.652344 415.382812 210.714844 C 413.796875 214.289062 410.09375 226.945312 410.058594 227.070312 L 409.550781 228.800781 " fill-opacity="1" fill-rule="nonzero"/><path fill="#ffffff" d="M 410.28125 224.730469 C 410.90625 225.480469 412.113281 227.210938 411.710938 229.035156 C 411.300781 230.878906 407.679688 237.019531 405.953125 239.882812 C 405.363281 240.867188 404.976562 241.953125 404.816406 243.085938 C 404.394531 246.160156 403.386719 258.492188 396.050781 257.949219 C 392.953125 257.722656 393.539062 251.992188 394.777344 244.898438 C 396.015625 237.792969 394.457031 240.71875 392.800781 233.265625 C 391.140625 225.816406 394.714844 219.65625 396.203125 219.027344 C 397.691406 218.394531 399.675781 220.796875 399.675781 220.796875 C 399.675781 220.796875 401.3125 216.476562 403.824219 216.84375 C 404.957031 217.007812 405.757812 218.683594 407.214844 220.96875 C 408.488281 222.96875 410.113281 224.53125 410.28125 224.730469 " fill-opacity="1" fill-rule="nonzero"/><path fill="#000000" d="M 396.746094 219.808594 C 396.675781 219.808594 396.609375 219.816406 396.554688 219.84375 C 395.652344 220.222656 392.046875 225.785156 393.667969 233.074219 C 394.296875 235.878906 394.898438 237.148438 395.339844 238.074219 C 396.171875 239.824219 396.417969 240.65625 395.652344 245.046875 C 395.097656 248.238281 393.941406 254.878906 395.320312 256.648438 C 395.523438 256.910156 395.769531 257.035156 396.117188 257.0625 C 402.109375 257.507812 403.367188 247.492188 403.839844 243.71875 C 403.878906 243.425781 403.910156 243.171875 403.941406 242.957031 C 404.113281 241.707031 404.535156 240.511719 405.195312 239.421875 C 408.464844 234 410.574219 230.042969 410.84375 228.839844 C 411.167969 227.378906 410.085938 225.878906 409.601562 225.300781 C 409.574219 225.269531 409.523438 225.214844 409.449219 225.140625 C 408.941406 224.605469 407.574219 223.191406 406.464844 221.441406 C 406.199219 221.027344 405.957031 220.628906 405.730469 220.261719 C 404.953125 218.992188 404.214844 217.796875 403.699219 217.71875 C 402.332031 217.511719 400.960938 219.917969 400.507812 221.109375 L 399.964844 222.542969 L 398.992188 221.359375 C 398.417969 220.667969 397.363281 219.808594 396.746094 219.808594 Z M 396.542969 258.855469 C 396.359375 258.855469 396.175781 258.847656 395.988281 258.835938 C 395.144531 258.773438 394.425781 258.394531 393.917969 257.738281 C 392.363281 255.746094 392.761719 251.289062 393.902344 244.742188 C 394.609375 240.6875 394.390625 240.222656 393.734375 238.839844 C 393.253906 237.832031 392.601562 236.460938 391.933594 233.460938 C 390.214844 225.738281 393.8125 219.074219 395.855469 218.203125 C 397.148438 217.65625 398.515625 218.496094 399.40625 219.261719 C 400.183594 217.800781 401.726562 215.636719 403.957031 215.960938 C 405.292969 216.160156 406.113281 217.488281 407.246094 219.332031 C 407.46875 219.691406 407.707031 220.078125 407.964844 220.488281 C 408.980469 222.089844 410.253906 223.410156 410.730469 223.910156 C 410.851562 224.03125 410.929688 224.117188 410.964844 224.15625 C 411.769531 225.125 413.058594 227.066406 412.578125 229.222656 C 412.175781 231.046875 409.167969 236.277344 406.71875 240.339844 C 406.183594 241.226562 405.839844 242.1875 405.703125 243.203125 C 405.671875 243.40625 405.644531 243.660156 405.601562 243.941406 C 405.089844 248.066406 403.734375 258.855469 396.542969 258.855469 " fill-opacity="1" fill-rule="nonzero"/><path fill="#000000" d="M 403.171875 235 C 401.851562 235 400.148438 234.1875 398.65625 231.863281 C 395.988281 227.695312 398.835938 220.507812 398.957031 220.203125 C 399.140625 219.746094 399.65625 219.527344 400.113281 219.710938 C 400.570312 219.894531 400.789062 220.410156 400.605469 220.867188 C 400.578125 220.933594 397.980469 227.507812 400.152344 230.90625 C 401.355469 232.773438 402.6875 233.394531 403.476562 233.183594 C 404.113281 233.015625 404.234375 232.363281 404.25 231.988281 C 404.347656 229.792969 403.183594 228.308594 403.171875 228.292969 C 402.867188 227.910156 402.925781 227.355469 403.308594 227.046875 C 403.691406 226.738281 404.242188 226.792969 404.554688 227.175781 C 404.621094 227.253906 406.152344 229.171875 406.023438 232.066406 C 405.960938 233.484375 405.164062 234.570312 403.9375 234.902344 C 403.707031 234.964844 403.449219 235 403.171875 235 " fill-opacity="1" fill-rule="nonzero"/><path fill="#ffffff" d="M 268.675781 264.339844 C 268.675781 264.339844 291.144531 254.476562 325.464844 264.816406 C 359.78125 275.152344 324.828125 332.148438 324.828125 332.148438 L 273.6875 332.148438 L 268.675781 264.339844 " fill-opacity="1" fill-rule="nonzero"/><path fill="#5479f7" d="M 305.058594 278.550781 L 312.78125 315.597656 L 293.144531 315.269531 L 299.945312 278.652344 L 295.300781 269.570312 L 300.613281 263.421875 L 304.5 263.316406 L 309.183594 269.835938 L 305.058594 278.550781 " fill-opacity="1" fill-rule="nonzero"/><path fill="#000000" d="M 336.722656 266.78125 C 330.753906 263.890625 323.222656 261.382812 315.648438 259.835938 C 315.449219 259.796875 315.433594 260.085938 315.535156 260.601562 C 316.417969 265.148438 316.34375 269.832031 315.054688 274.277344 L 313.855469 278.40625 L 303.277344 311.066406 L 289.152344 278.132812 L 288.027344 275.632812 C 285.644531 270.339844 284.898438 264.484375 285.671875 258.730469 C 285.722656 258.347656 285.722656 258.121094 285.648438 258.128906 C 279.957031 258.554688 274.726562 259.386719 270.433594 260.527344 C 233.808594 270.246094 224.699219 294.566406 229.011719 327.300781 C 231.972656 349.773438 251.40625 363.535156 251.40625 363.535156 C 251.40625 363.535156 239.574219 401.117188 244.882812 406.398438 C 250.390625 411.882812 269.09375 417.546875 296.433594 405.648438 C 299.035156 404.519531 305.050781 390.921875 305.050781 390.921875 L 305.210938 391.40625 C 306.1875 394.378906 307.703125 397.140625 309.679688 399.5625 L 310.601562 400.695312 C 310.601562 400.695312 339.644531 393.613281 339.777344 404.476562 L 336.871094 384.28125 C 334.109375 365.089844 333.234375 345.671875 334.257812 326.308594 L 334.828125 315.558594 L 383.859375 310.519531 C 383.859375 310.519531 367.917969 281.878906 336.722656 266.78125 " fill-opacity="1" fill-rule="nonzero"/><path fill="#000000" d="M 408.359375 249.929688 L 389.941406 244.25 C 389.941406 244.25 372.445312 288.179688 364.175781 293.171875 C 355.902344 298.167969 319.140625 309.4375 319.140625 309.4375 C 319.140625 309.4375 337.804688 329.390625 360.984375 334.210938 C 397.933594 341.894531 408.359375 249.929688 408.359375 249.929688 " fill-opacity="1" fill-rule="nonzero"/><path fill="#ffffff" d="M 288.589844 278.136719 C 284.902344 271.605469 281.882812 263.179688 285.964844 257.863281 L 291.554688 251.828125 C 291.554688 251.828125 294.589844 260.984375 301.976562 263.355469 L 288.589844 278.136719 " fill-opacity="1" fill-rule="nonzero"/><path fill="#000000" d="M 286.648438 258.4375 C 282.855469 263.421875 286.074219 271.5625 288.769531 276.613281 L 300.445312 263.722656 C 295.214844 261.410156 292.347656 256.019531 291.246094 253.472656 Z M 288.589844 279.023438 C 288.558594 279.023438 288.523438 279.023438 288.492188 279.019531 C 288.207031 278.988281 287.957031 278.820312 287.816406 278.570312 C 284.164062 272.113281 280.757812 263.183594 285.261719 257.320312 C 285.277344 257.300781 285.292969 257.28125 285.3125 257.261719 L 290.902344 251.226562 C 291.117188 250.996094 291.4375 250.894531 291.742188 250.960938 C 292.050781 251.027344 292.300781 251.25 292.398438 251.550781 C 292.429688 251.636719 295.390625 260.308594 302.246094 262.511719 C 302.535156 262.605469 302.757812 262.835938 302.832031 263.128906 C 302.914062 263.421875 302.835938 263.730469 302.636719 263.953125 L 289.25 278.734375 C 289.078125 278.917969 288.839844 279.023438 288.589844 279.023438 " fill-opacity="1" fill-rule="nonzero"/><path fill="#ffffff" d="M 303.3125 263.226562 C 308.367188 260.609375 309.246094 252.488281 309.246094 252.488281 C 309.246094 252.488281 315.082031 256.828125 316.355469 263.230469 C 318.230469 272.636719 314.421875 278.96875 314.421875 278.96875 L 303.3125 263.226562 " fill-opacity="1" fill-rule="nonzero"/><path fill="#000000" d="M 304.589844 263.5 L 314.277344 277.226562 C 315.21875 274.976562 316.785156 269.945312 315.480469 263.40625 C 314.625 259.113281 311.558594 255.761719 309.863281 254.1875 C 309.351562 256.617188 307.980469 261.175781 304.589844 263.5 Z M 314.417969 279.859375 C 314.132812 279.859375 313.859375 279.71875 313.691406 279.484375 L 302.585938 263.742188 C 302.4375 263.53125 302.386719 263.269531 302.449219 263.019531 C 302.507812 262.769531 302.675781 262.558594 302.902344 262.4375 C 307.464844 260.078125 308.355469 252.472656 308.363281 252.398438 C 308.398438 252.082031 308.597656 251.804688 308.890625 251.675781 C 309.183594 251.550781 309.519531 251.589844 309.777344 251.78125 C 310.027344 251.964844 315.898438 256.398438 317.226562 263.058594 C 319.144531 272.695312 315.34375 279.160156 315.183594 279.429688 C 315.027344 279.6875 314.753906 279.847656 314.453125 279.859375 C 314.441406 279.859375 314.429688 279.859375 314.417969 279.859375 " fill-opacity="1" fill-rule="nonzero"/><path fill="#5479f7" d="M 402.292969 378.050781 L 398.367188 390.378906 C 397.179688 394.117188 391.664062 396.476562 382.050781 396.589844 C 362.832031 396.820312 334.402344 387.980469 317.976562 376.75 C 317.707031 376.5625 317.441406 376.378906 317.175781 376.191406 C 308.898438 370.351562 305.507812 365.023438 306.734375 361.164062 L 310.660156 348.835938 C 309.433594 352.695312 312.828125 358.019531 321.101562 363.863281 C 321.367188 364.046875 321.632812 364.234375 321.902344 364.417969 C 338.332031 375.652344 366.757812 384.492188 385.976562 384.261719 C 395.585938 384.148438 401.105469 381.785156 402.292969 378.050781 " fill-opacity="1" fill-rule="nonzero"/><path fill="#000000" d="M 310.136719 353.414062 L 307.582031 361.433594 C 306.441406 365.015625 310.125 370.128906 317.6875 375.46875 C 317.949219 375.648438 318.210938 375.832031 318.476562 376.015625 C 334.679688 387.09375 363.207031 395.910156 382.039062 395.703125 C 390.785156 395.597656 396.421875 393.558594 397.519531 390.109375 L 400.078125 382.082031 C 397.132812 384.011719 392.332031 385.074219 385.988281 385.148438 C 366.5 385.355469 338.136719 376.597656 321.398438 365.152344 C 321.125 364.964844 320.859375 364.78125 320.589844 364.589844 C 315.035156 360.667969 311.480469 356.839844 310.136719 353.414062 Z M 381.300781 397.484375 C 361.847656 397.484375 333.996094 388.78125 317.472656 377.484375 C 317.199219 377.296875 316.933594 377.109375 316.664062 376.921875 C 308.304688 371.019531 304.476562 365.328125 305.886719 360.894531 L 309.8125 348.566406 C 309.960938 348.097656 310.460938 347.839844 310.929688 347.988281 C 311.398438 348.136719 311.65625 348.636719 311.507812 349.105469 L 311.503906 349.109375 C 310.375 352.691406 314.058594 357.804688 321.617188 363.136719 C 321.875 363.320312 322.136719 363.503906 322.402344 363.683594 C 338.605469 374.765625 367.132812 383.613281 385.964844 383.371094 C 394.699219 383.269531 400.339844 381.234375 401.445312 377.789062 L 401.449219 377.777344 C 401.597656 377.3125 402.097656 377.050781 402.5625 377.199219 C 403.03125 377.351562 403.289062 377.851562 403.140625 378.320312 C 403.140625 378.324219 403.140625 378.328125 403.140625 378.332031 L 399.214844 390.648438 C 397.851562 394.9375 391.757812 397.363281 382.0625 397.480469 C 381.808594 397.480469 381.558594 397.484375 381.300781 397.484375 " fill-opacity="1" fill-rule="nonzero"/><path fill="#ffffff" d="M 391.050781 362.464844 C 391.320312 362.648438 391.585938 362.832031 391.851562 363.019531 C 408.140625 374.519531 405.511719 384.027344 385.976562 384.261719 C 366.757812 384.492188 338.332031 375.652344 321.902344 364.417969 C 321.632812 364.234375 321.367188 364.046875 321.101562 363.863281 C 304.8125 352.367188 307.441406 342.855469 326.976562 342.621094 C 346.195312 342.394531 374.621094 351.226562 391.050781 362.464844 " fill-opacity="1" fill-rule="nonzero"/><path fill="#000000" d="M 327.699219 343.507812 C 327.460938 343.507812 327.222656 343.507812 326.988281 343.511719 C 318.222656 343.617188 312.578125 345.664062 311.5 349.128906 C 310.386719 352.707031 314.074219 357.8125 321.617188 363.136719 C 321.875 363.320312 322.136719 363.503906 322.402344 363.683594 C 338.605469 374.765625 367.132812 383.613281 385.964844 383.371094 C 394.734375 383.269531 400.378906 381.222656 401.457031 377.757812 C 402.570312 374.175781 398.878906 369.066406 391.335938 363.746094 C 391.078125 363.558594 390.8125 363.378906 390.546875 363.195312 C 374.550781 352.257812 346.542969 343.507812 327.699219 343.507812 Z M 385.226562 385.15625 C 365.773438 385.15625 337.921875 376.449219 321.398438 365.152344 C 321.125 364.964844 320.859375 364.78125 320.589844 364.589844 C 312.253906 358.707031 308.425781 353.027344 309.800781 348.601562 C 311.140625 344.289062 317.238281 341.847656 326.964844 341.734375 C 346.453125 341.515625 374.816406 350.285156 391.550781 361.730469 C 391.828125 361.917969 392.09375 362.101562 392.363281 362.292969 C 400.699219 368.175781 404.53125 373.855469 403.152344 378.285156 C 401.8125 382.59375 395.714844 385.035156 385.988281 385.148438 C 385.738281 385.152344 385.480469 385.15625 385.226562 385.15625 " fill-opacity="1" fill-rule="nonzero"/><path fill="#5479f7" d="M 385.164062 366.566406 L 386.140625 368.980469 L 380.382812 367.992188 C 380.851562 369.605469 380.382812 370.554688 379.664062 371.1875 L 371.984375 369.207031 C 372.445312 368.6875 373.492188 367.816406 372.773438 366.046875 C 372.476562 365.308594 371.886719 364.738281 371.160156 364.304688 C 370.300781 363.792969 369.246094 363.472656 368.257812 363.300781 C 366.101562 362.929688 365.074219 363.554688 363.820312 365.289062 C 362.261719 367.742188 359.140625 368.304688 353.25 367.296875 C 349.394531 366.632812 345.632812 365.355469 342.824219 363.679688 C 341.390625 362.824219 340.203125 361.871094 339.378906 360.839844 L 332.703125 359.695312 L 331.726562 357.28125 L 337.945312 358.347656 C 337.472656 356.734375 338.007812 355.339844 339.066406 354.648438 L 347.019531 356.703125 C 345.933594 357.476562 345.144531 358.691406 345.792969 360.292969 C 346.085938 361.023438 346.726562 361.699219 347.640625 362.246094 C 348.480469 362.746094 349.550781 363.136719 350.800781 363.351562 C 353.289062 363.777344 354.539062 363.257812 355.441406 361.71875 C 356.730469 359.488281 359.277344 358.253906 365.621094 359.34375 C 369.433594 360 372.96875 361.226562 375.625 362.8125 C 376.988281 363.625 378.125 364.53125 378.949219 365.5 L 385.164062 366.566406 " fill-opacity="1" fill-rule="nonzero"/><path fill="#ffffff" d="M 312.101562 382.417969 C 312.101562 382.417969 308.671875 382.359375 302.160156 379.921875 C 297.242188 378.085938 300.664062 362.378906 306.308594 367.429688 C 311.019531 371.644531 313.972656 372.480469 313.972656 372.480469 L 329.699219 368.261719 C 331.3125 367.828125 332.980469 368.769531 333.4375 370.378906 C 333.90625 372.023438 332.945312 373.734375 331.296875 374.183594 L 324.273438 376.085938 C 323.300781 376.351562 322.941406 377.542969 323.605469 378.304688 C 324.640625 379.480469 325.875 380.457031 327.257812 381.183594 C 329.773438 382.511719 334.183594 384.691406 338.804688 386.300781 C 340.972656 387.058594 341.359375 389.8125 339.183594 390.546875 L 324.28125 389.808594 C 320.503906 389.621094 316.964844 387.917969 314.457031 385.082031 L 312.101562 382.417969 " fill-opacity="1" fill-rule="nonzero"/><path fill="#000000" d="M 304.113281 367.320312 C 303.816406 367.320312 303.609375 367.414062 303.503906 367.46875 C 301.867188 368.238281 300.554688 371.824219 300.695312 375.144531 C 300.78125 377.234375 301.445312 378.707031 302.472656 379.09375 C 308.722656 381.425781 312.085938 381.53125 312.121094 381.53125 C 312.367188 381.535156 312.605469 381.644531 312.769531 381.832031 L 315.125 384.492188 C 317.457031 387.132812 320.808594 388.746094 324.324219 388.917969 L 339.042969 389.652344 C 339.496094 389.453125 339.746094 389.109375 339.746094 388.664062 C 339.75 388.121094 339.367188 387.441406 338.511719 387.140625 C 333.976562 385.558594 329.664062 383.457031 326.84375 381.972656 C 325.367188 381.195312 324.054688 380.15625 322.941406 378.890625 C 322.421875 378.300781 322.246094 377.503906 322.472656 376.75 C 322.699219 376 323.285156 375.433594 324.042969 375.226562 L 331.0625 373.324219 C 331.628906 373.167969 332.097656 372.804688 332.386719 372.292969 C 332.675781 371.78125 332.746094 371.1875 332.582031 370.625 C 332.257812 369.488281 331.070312 368.8125 329.929688 369.117188 L 314.203125 373.335938 C 314.050781 373.378906 313.886719 373.378906 313.734375 373.332031 C 313.605469 373.296875 310.527344 372.398438 305.714844 368.089844 C 305.03125 367.476562 304.492188 367.320312 304.113281 367.320312 Z M 339.183594 391.4375 C 339.167969 391.4375 339.15625 391.4375 339.140625 391.4375 L 324.238281 390.695312 C 320.246094 390.496094 316.4375 388.664062 313.789062 385.671875 L 311.679688 383.285156 C 310.574219 383.195312 307.238281 382.773438 301.851562 380.757812 C 300.105469 380.105469 299.035156 378.085938 298.917969 375.21875 C 298.765625 371.574219 300.15625 367.078125 302.742188 365.859375 C 303.683594 365.417969 305.167969 365.214844 306.902344 366.769531 C 310.699219 370.167969 313.273438 371.28125 314.003906 371.550781 L 329.46875 367.402344 C 331.539062 366.84375 333.703125 368.070312 334.292969 370.136719 C 334.585938 371.164062 334.460938 372.238281 333.933594 373.167969 C 333.410156 374.097656 332.554688 374.761719 331.527344 375.039062 L 324.507812 376.941406 C 324.277344 377.003906 324.199219 377.191406 324.175781 377.265625 C 324.152344 377.339844 324.117188 377.539062 324.273438 377.714844 C 325.246094 378.820312 326.386719 379.722656 327.671875 380.398438 C 329.9375 381.589844 334.429688 383.835938 339.097656 385.464844 C 340.554688 385.972656 341.53125 387.261719 341.523438 388.671875 C 341.519531 389.917969 340.734375 390.960938 339.46875 391.390625 C 339.378906 391.421875 339.28125 391.4375 339.183594 391.4375 " fill-opacity="1" fill-rule="nonzero"/><path fill="#caddff" d="M 303.484375 365.617188 C 303.332031 365.617188 303.175781 365.578125 303.035156 365.496094 C 266.894531 344.347656 258.53125 321.722656 258.191406 320.765625 C 258.027344 320.304688 258.269531 319.800781 258.730469 319.632812 C 259.195312 319.46875 259.703125 319.710938 259.867188 320.171875 C 259.949219 320.402344 268.410156 343.175781 303.933594 363.960938 C 304.359375 364.210938 304.5 364.753906 304.25 365.175781 C 304.085938 365.460938 303.789062 365.617188 303.484375 365.617188 " fill-opacity="1" fill-rule="nonzero"/><path fill="#caddff" d="M 249.996094 362.671875 C 249.996094 362.671875 249.996094 362.671875 250 362.671875 C 249.996094 362.671875 249.996094 362.671875 249.996094 362.671875 Z M 250 362.671875 C 250 362.671875 250 362.671875 250 362.675781 C 250 362.671875 250 362.671875 250 362.671875 Z M 293.753906 381.980469 C 293.734375 381.980469 293.71875 381.980469 293.699219 381.976562 C 285.148438 381.46875 273.445312 376.652344 265.136719 372.703125 C 259.738281 370.136719 255.519531 367.816406 253.484375 366.660156 C 248.40625 363.78125 248.335938 363.429688 248.253906 363.023438 C 248.15625 362.542969 248.46875 362.074219 248.953125 361.976562 C 249.308594 361.910156 249.660156 362.058594 249.855469 362.339844 C 251.5625 363.816406 278.648438 379.300781 293.804688 380.203125 C 294.296875 380.230469 294.667969 380.652344 294.640625 381.140625 C 294.609375 381.617188 294.21875 381.980469 293.753906 381.980469 " fill-opacity="1" fill-rule="nonzero"/><path fill="#caddff" d="M 265.976562 413.597656 C 258.835938 413.597656 251.609375 412.722656 246.011719 409.382812 C 245.589844 409.132812 245.449219 408.589844 245.703125 408.167969 C 245.953125 407.746094 246.5 407.605469 246.921875 407.855469 C 254.042969 412.101562 264.1875 412.121094 273.171875 411.574219 C 278.109375 411.277344 284.917969 408.671875 290.386719 406.582031 C 292.515625 405.765625 294.355469 405.0625 295.859375 404.578125 C 297.023438 404.09375 301.199219 397.078125 304.390625 390.863281 C 304.554688 390.546875 304.894531 390.351562 305.242188 390.382812 C 305.597656 390.40625 305.902344 390.640625 306.019531 390.972656 C 307.628906 395.507812 310.351562 400.320312 311.695312 399.992188 C 323.339844 397.085938 337.890625 395.148438 341.066406 402.398438 C 341.261719 402.847656 341.058594 403.371094 340.609375 403.570312 C 340.160156 403.765625 339.632812 403.5625 339.4375 403.109375 C 337.375 398.40625 327.421875 397.902344 312.128906 401.714844 C 309.191406 402.449219 306.453125 396.894531 305.054688 393.441406 C 302.605469 398.085938 298.367188 405.632812 296.402344 406.269531 C 294.945312 406.738281 293.125 407.433594 291.023438 408.242188 C 285.4375 410.375 278.488281 413.03125 273.277344 413.351562 C 270.902344 413.492188 268.445312 413.597656 265.976562 413.597656 " fill-opacity="1" fill-rule="nonzero"/></svg>